<svg width="250" height="109" viewBox="0 0 250 109" fill="none" xmlns="http://www.w3.org/2000/svg">
<path d="M32.3567 24.2676C33.1856 24.2676 35.3324 32.2351 37.6065 35.792C42.0273 42.7066 49.4876 49.3651 49.4876 49.3651H43.6852C43.6852 49.3651 45.0483 51.4292 48.106 54.7432C51.5774 58.5054 52.2506 59.8651 52.2506 59.8651L44.5141 58.8407C44.5141 58.8407 43.1347 60.0872 47.0008 63.1944C52.4537 67.577 56.1189 71.6456 56.1189 71.6456L44.5141 69.3407C44.5141 69.3407 46.4482 72.1578 51.1454 76.7676C58.0245 83.5187 63.8554 86.2432 63.8554 86.2432L48.935 84.4505C48.935 84.4505 51.757 88.7375 56.1189 92.6456C64.408 100.072 68 102.633 68 102.633C68 102.633 61.3687 102.633 53.7703 101.097C46.1719 99.5603 39.5406 99.5603 39.5406 99.5603V108.268H27.9358V99.5603C27.9358 99.5603 23.2386 99.0481 13.9824 100.329C4.72617 101.609 0.0289764 101.097 0.0289764 101.097C0.0289764 101.097 -1.06898 100.193 10.2523 93.1578C15.2913 90.0266 17.9888 86.2432 17.9888 86.2432H6.384C6.384 86.2432 7.01175 84.9244 14.6731 79.8407C19.2059 76.8331 21.8571 72.4139 21.8571 72.4139L11.0812 75.7432C11.0812 75.7432 14.0787 73.6367 19.3703 69.3407C23.2197 66.2157 24.3438 62.6822 24.3438 62.6822L16.331 64.731C16.331 64.731 17.2108 62.9233 21.0282 58.8407C24.6201 54.9993 25.1727 51.1578 25.1727 51.1578L17.1599 54.7432C17.1599 54.7432 21.0282 49.3651 26.0016 41.9383C30.9751 34.5115 31.5277 24.2676 32.3567 24.2676Z" fill="#38462E"/>
<path d="M118.922 0C119.97 0 122.685 10.2694 125.561 14.8539C131.152 23.7662 140.587 32.3484 140.587 32.3484H133.249C133.249 32.3484 134.973 35.0088 138.84 39.2802C143.23 44.1293 144.082 45.8819 144.082 45.8819L134.297 44.5616C134.297 44.5616 132.553 46.1681 137.442 50.173C144.339 55.8217 148.974 61.0658 148.974 61.0658L134.297 58.0951C134.297 58.0951 136.743 61.726 142.684 67.6676C151.384 76.3691 158.758 79.8807 158.758 79.8807L139.888 77.5701C139.888 77.5701 143.457 83.0957 148.974 88.1329C159.457 97.7054 164 101.006 164 101.006C164 101.006 155.613 101.006 146.004 99.0257C136.394 97.0452 128.007 97.0452 128.007 97.0452V108.268H113.331V97.0452C113.331 97.0452 107.39 96.385 95.6836 98.0354C83.9772 99.6859 78.0367 99.0257 78.0367 99.0257C78.0367 99.0257 76.648 97.8604 90.9661 88.7931C97.339 84.7572 100.751 79.8807 100.751 79.8807H86.0739C86.0739 79.8807 86.8678 78.1809 96.5572 71.6286C102.29 67.752 105.643 62.0561 105.643 62.0561L92.0144 66.3472C92.0144 66.3472 95.8054 63.6321 102.498 58.0951C107.366 54.0672 108.788 49.5129 108.788 49.5129L98.6539 52.1535C98.6539 52.1535 99.7666 49.8236 104.594 44.5616C109.137 39.6103 109.836 34.659 109.836 34.659L99.7022 39.2802C99.7022 39.2802 104.594 32.3484 110.884 22.7759C117.174 13.2034 117.873 0 118.922 0Z" fill="#38462E"/>
<path d="M210.163 12.2676C211.09 12.2676 213.489 21.3733 216.031 25.4383C220.972 33.3407 229.31 40.9505 229.31 40.9505H222.825C222.825 40.9505 224.348 43.3095 227.766 47.0968C231.645 51.3965 232.398 52.9505 232.398 52.9505L223.751 51.7798C223.751 51.7798 222.209 53.2042 226.53 56.7554C232.625 61.764 236.721 66.4139 236.721 66.4139L223.751 63.7798C223.751 63.7798 225.913 66.9993 231.163 72.2676C238.851 79.9831 245.368 83.0968 245.368 83.0968L228.692 81.0481C228.692 81.0481 231.846 85.9475 236.721 90.4139C245.985 98.9017 250 101.829 250 101.829C250 101.829 242.589 101.829 234.096 100.072C225.604 98.3164 218.192 98.3164 218.192 98.3164V108.268H205.222V98.3164C205.222 98.3164 199.973 97.731 189.627 99.1944C179.282 100.658 174.032 100.072 174.032 100.072C174.032 100.072 172.805 99.0392 185.458 90.9993C191.09 87.4208 194.105 83.0968 194.105 83.0968H181.135C181.135 83.0968 181.837 81.5897 190.399 75.7798C195.465 72.3424 198.428 67.292 198.428 67.292L186.385 71.0968C186.385 71.0968 189.735 68.6894 195.649 63.7798C199.951 60.2083 201.208 56.17 201.208 56.17L192.252 58.5115C192.252 58.5115 193.236 56.4455 197.502 51.7798C201.517 47.3895 202.134 42.9993 202.134 42.9993L193.179 47.0968C193.179 47.0968 197.502 40.9505 203.061 32.4627C208.619 23.9749 209.237 12.2676 210.163 12.2676Z" fill="#38462E"/>
</svg>
