<svg xmlns="http://www.w3.org/2000/svg" fill="currentColor" viewBox="0 0 113 49">
  <path d="M14.556 10.918c.373 0 1.339 3.585 2.362 5.185 1.989 3.11 5.345 6.106 5.345 6.106h-2.61s.613.929 1.989 2.42c1.561 1.692 1.864 2.304 1.864 2.304l-3.48-.46s-.62.56 1.118 1.958c2.454 1.972 4.103 3.802 4.103 3.802l-5.221-1.037s.87 1.267 2.983 3.341c3.095 3.038 5.718 4.263 5.718 4.263l-6.712-.806s1.27 1.928 3.232 3.687c3.729 3.341 5.345 4.493 5.345 4.493s-2.984 0-6.402-.691c-3.419-.691-6.402-.691-6.402-.691v3.917h-5.22v-3.917s-2.114-.23-6.278.345c-4.165.576-6.278.346-6.278.346s-.494-.407 4.6-3.572c2.267-1.409 3.48-3.11 3.48-3.11h-5.22s.282-.594 3.728-2.881c2.04-1.353 3.232-3.341 3.232-3.341l-4.848 1.498s1.349-.948 3.73-2.88C10.445 29.79 10.95 28.2 10.95 28.2l-3.605.922s.396-.813 2.114-2.65c1.615-1.728 1.864-3.456 1.864-3.456L7.72 24.629s1.74-2.42 3.978-5.761c2.238-3.341 2.486-7.95 2.86-7.95ZM53.503 0c.471 0 1.693 4.62 2.987 6.683 2.515 4.01 6.76 7.87 6.76 7.87h-3.301s.775 1.197 2.515 3.119c1.975 2.181 2.358 2.97 2.358 2.97l-4.402-.594s-.785.723 1.415 2.525c3.103 2.54 5.188 4.9 5.188 4.9l-6.603-1.336s1.1 1.633 3.773 4.306c3.914 3.915 7.232 5.495 7.232 5.495l-8.49-1.04s1.606 2.486 4.088 4.752c4.716 4.307 6.76 5.792 6.76 5.792s-3.773 0-8.096-.891c-4.324-.891-8.097-.891-8.097-.891v5.049h-6.603v-5.05s-2.672-.296-7.939.446c-5.267.743-7.94.446-7.94.446s-.624-.524 5.818-4.604c2.867-1.815 4.402-4.01 4.402-4.01h-6.603s.357-.764 4.716-3.712c2.58-1.744 4.088-4.306 4.088-4.306l-6.132 1.93s1.706-1.221 4.717-3.712c2.19-1.813 2.83-3.861 2.83-3.861l-4.56 1.188s.501-1.049 2.673-3.416c2.044-2.228 2.358-4.455 2.358-4.455l-4.559 2.079s2.201-3.119 5.03-7.425C52.717 5.94 53.032 0 53.504 0ZM94.55 5.52c.417 0 1.497 4.096 2.64 5.925 2.223 3.555 5.974 6.979 5.974 6.979h-2.917s.685 1.061 2.223 2.765c1.745 1.934 2.084 2.634 2.084 2.634l-3.891-.527s-.693.64 1.251 2.238c2.742 2.254 4.585 4.346 4.585 4.346l-5.836-1.185s.973 1.448 3.335 3.818c3.459 3.471 6.391 4.872 6.391 4.872l-7.503-.922s1.419 2.205 3.613 4.214c4.168 3.819 5.974 5.135 5.974 5.135s-3.335 0-7.155-.79c-3.821-.79-7.155-.79-7.155-.79v4.477h-5.835v-4.477s-2.362-.263-7.017.395c-4.654.659-7.016.395-7.016.395s-.552-.465 5.14-4.082c2.535-1.61 3.891-3.555 3.891-3.555h-5.835s.316-.678 4.168-3.292c2.279-1.546 3.612-3.818 3.612-3.818l-5.418 1.711s1.507-1.083 4.168-3.291c1.935-1.607 2.5-3.424 2.5-3.424l-4.029 1.053s.443-.93 2.362-3.028c1.806-1.975 2.084-3.95 2.084-3.95l-4.029 1.843s1.945-2.765 4.446-6.584c2.5-3.818 2.779-9.085 3.195-9.085Z"/>
</svg>
