<svg xmlns="http://www.w3.org/2000/svg" fill="currentColor" viewBox="0 0 183 150">
  <path d="M31.472 121.83c-5.781-5.114-6.656-12.744-6.656-12.744s3.965 7.396 9.615 11.366c5.65 3.971 13.011 4.743 13.011 4.743s-10.49 1.484-15.97-3.365Zm94.923 0c-5.781-5.114-6.655-12.744-6.655-12.744s3.965 7.396 9.615 11.366c5.649 3.971 13.011 4.743 13.011 4.743s-10.49 1.484-15.971-3.365ZM14.452 83.08l18.58-63.999s6.194-5.161 20.645-5.161c14.452 0 23.742 7.226 23.742 7.226l-1.032 5.16-5.162 40.259L73.29 64.5l3.096 16.516v12.387s-3.096-18.58-26.838-22.71c-23.741-4.128-35.096 12.388-35.096 12.388Zm152.77 0-18.581-63.999s-6.193-5.161-20.644-5.161c-14.452 0-23.742 7.226-23.742 7.226l1.032 5.16 5.162 40.259-2.065-2.065-3.097 16.516v12.387s3.097-18.58 26.839-22.71c23.741-4.128 35.096 12.388 35.096 12.388Z"/>
  <path d="m76.386 81.015-3.097-16.516s7.226-5.161 17.548-5.161c10.323 0 17.548 5.161 17.548 5.161l-3.097 16.516s-4.667 4.129-14.45 4.129c-9.784 0-14.452-4.13-14.452-4.13Zm29.935-53.677 1.032 6.193s-2.26-1.447-6.193-2.628l1.032 18.112s0 1.032-2.065 1.032c-2.064 0-2.064-1.032-2.064-1.032L97.03 29.932a36.17 36.17 0 0 0-4.13-.471v18.522s0 1.032-2.064 1.032-2.064-1.032-2.064-1.032V29.46c-1.47.082-2.85.25-4.13.47L83.61 49.014s0 1.032-2.064 1.032-2.064-1.032-2.064-1.032l1.032-18.112c-3.934 1.18-6.194 2.628-6.194 2.628l1.032-6.193s5.712-4.129 15.484-4.129c9.773 0 15.484 4.129 15.484 4.129Zm-69.16-15.346S43.336-2.878 62.353.498c17.38 3.023 16.098 15.485 16.098 15.485s-8.3-6.11-20.652-7.087c-12.351-.977-20.638 3.095-20.638 3.095Zm107.345 0S138.75-2.878 119.732.498c-17.379 3.023-16.489 15.485-16.489 15.485s8.273-6.11 20.625-7.087c12.351-.977 20.638 3.095 20.638 3.095Zm-27.645 116.11c-11.171-11.178-13.148-30.646-.009-43.785 13.139-13.139 32.832-10.935 43.051-.716l-4.366 4.365c-8.029-8.029-24.996-8.58-34.306.73-9.309 9.31-10.218 24.817.001 35.035 10.219 10.219 26.262 8.773 35.035 0 10.212-10.211 8.015-26.992.804-34.231l4.363-4.363c10.147 10.142 12.364 29.822-.788 42.974-13.152 13.152-32.614 11.17-43.785-.009Zm-51.193 0c11.172-11.178 13.148-30.646.01-43.785-13.14-13.139-32.833-10.935-43.051-.716l4.365 4.365c8.029-8.029 24.996-8.58 34.306.73 9.31 9.31 10.218 24.817 0 35.035-10.22 10.219-26.263 8.773-35.036 0-10.212-10.211-8.015-26.992-.804-34.231l-4.363-4.363c-10.147 10.142-12.364 29.822.788 42.974 13.152 13.152 32.614 11.17 43.785-.009Z"/>
</svg>
