<svg xmlns="http://www.w3.org/2000/svg" fill="currentColor" viewBox="0 0 285 221">
  <path d="M175.722 37.29c-2.51-2.14-9.62-14.8-11.08-15.69-.67-.4-2.01-.41-2.67 0l-13.07 16.68c3.9-.69 6.08-3.87 10.46-4 3.14-.1 15.29 3.81 16.36 3.01Z"/>
  <path d="M270.523 149.61c-1.4-3.73-.2-2.59 2.55-3.54-1.68-1.49-6.8-8.26-6.66-9.95.11-1.25 4.58-6.92 6.66-4.46.81-.83-3.16-5.31-3.56-6.95-.46-1.9.56-3.28.08-4.91-.22-.73-7.17-12.95-7.93-12.95-2.43 1.69-3.31 11.35-6.94 7.91-4.32-4.1 1.33-2.7 1.46-2.96 1.55-2.92-10.17-11.47-.99-10.43-1.88-2.15-4.39-4.76-5.86-7.15-1.48-2.41-3.64-6.66-5.27-9.56-.74-1.32-1.1-6.75-3.02-2.39-1.3 2.95.37 5.07-4.76 3.25-9.7-3.43-22.17-13.2-32.06-17.6-8.06-3.59-12.04-4.92-20.97-2.75-7.23 1.75-22.3 10.72-27.87 10.74-6.03.01-22.8-11.31-27.57-10.63-2.06.29-21.29 11.82-24.88 13.93l-18.56 11.72c7.23-2.07 14.74-5.51 21.52-8.76 6.79-3.25 19.16-12.55 26.18-10.63 6.2 1.69 18.59 9.78 24.28 9.54 6.13-.25 20.5-9.64 27.54-11.33 5.86-1.41 17.41 4.59 23.32 7.11 10.19 4.35 19.85 9.85 30.05 14.16 1.1 1.54-4.7 12.02-6.88 13.34l3.96-.5c1.43 1.69-4.58 9.65-6.45 10.9-4.19-3.03-5.51-6.93-7.66-11.19-2.37-4.72-2.93 3.61-3.53 4.99-1.19 2.72-3.27 5.45-5.19 7.72 8.47-.85 2.43 2.1 3.37 5.49 1.05 3.81 7.22 4.52 2.09 7.9-3.28-.94-3.16-7.62-3.48-7.93-3.35-3.26-3.74 7.18-5.93 8.51-1.98 1.21-4.39-2.83-4.06-4.93.12-.75 2.81-.42 1.95-1.92-2.73-3.24-4.35-9.59-6.35-12.6-2.25-3.39-2.75 6.36-6.45 3.98-.74-.47.07-4.61-.5-5.88-.43-.96-1.94-1.71-2.37-2.69-2.74-6.29-5.46-11.56-9.56-17.23-4.33 6.53-5.06 15.21-11.42 20.36-.92 3.12 5.32-1.56 3.95 1.96-.22.58-4.94 8.4-5.44 8.44-3.87-.76-7.7-10.28-9.41-11.35-.54-.34-2.1.39-3.53-.43-3.65-2.07-9.07-8.69-12.82-8.09-1.97.32-3.34 3.02-5.57 1.57-1.95-1.27-5.21-12.46-6.43-12.46-2.42 3.73-3.57 8.02-6.19 11.68-1.11 1.55-2.92 2.08-3.13 2.37-.43.61 1.18 2.53.4 4.73-.93 2.62-6.54 8.29-9.45 9.02-.12 2.07 3.43.26 4.57.09 6.58-.99-2.41 7.1-4.57 4.87-.14-.14.15-2.59-.52-3.93-.23-.46-6.02-8.31-6.42-8-.47 4.05-3.02 7.3-4.48 10.92-2.35 5.83-3.45 17.93-11.42 6.45l6.94-.98c-6.74-3.87-7.54-8.82-10.43-15.4-.81 2.51-7 12.2-6.2 13.69.11.2 1.72.17 1.81.81.09.67-.94 4.2-1.13 4.32-3.84 2.4-3.65-6.84-6.4-8.88l-4.45 8.45c-6.69-2.83-.56-3.81.49-5.48 1.69-2.7-.89-7.6-.49-7.94l3.98-.51c-3.05-4.35-5.47-8.95-5.98-14.39-2.61 1.71-6.27 15.35-10.78 12.77-.48-.28-6.08-8.74-6.07-9.3.03-2.35 3.51 0 3.94-.98-2.05-2.37-7.4-10.78-5.52-13.46l34.27-15.41c6.45-5.61 30.17-32.45 36.53-33.99 2.04-.5 4.2.17 6.23-.72 3.22-1.42 10.39-11.57 13.43-14.38 7.74-7.16 18.81-12.54 27.99-17.73l33.09 41.56c-25.03-.77-50.04-1.73-74.98.02l-9.44 1.97c7.47-.87 15.11.84 22.3 1.05 23.8.71 47.58-1.04 71.35-.83 10.23 6.29 17.19 18.53 29.18 22.31.98.31 4.85.22 5.3.31-.36-.36-4.49-1.07-4.9-1.4-3.36-2.75-5.72-6.54-8.5-9.53-7.35-7.91-16-17.84-25.87-21.81-5.33-5.7-30.45-40.29-35.17-41.32-1.54-.34-24.36 13.43-27.24 15.62-5.77 4.37-16.26 19.26-20.56 21.19-2.64 1.19-4.66-.56-6.66.22-2.57 1.01-4.95 5.75-7.88 6.02-3.03.27-8.2-5.4-12.68-4.77-3.79.53-12.18 8.18-15.97 8.95-4.24.86-10.83-.63-15.4 0-.17 1.5 2.66 1.47 3.77 1.69 3.05.59 8.58 1.53 11.51 1.23 5.81-.59 13.59-7.82 17-7.81.48 0 7.18 2.62 7.41 2.95.27.39.1 1.66-.11 2.27-.39 1.14-14.65 15.32-16.72 17.06-5.55 4.68-32.04 19.74-38.45 21.16-.76.17-1.5.27-2.28.18L43.593 80c-3.73 2.46-3.48 9.11-8.92 9.94l1.95 1c1.05 1.42-5.4 8.09-6.92 9.43 7.2.64-1.22 7.05-1.99 10.41l3.96 1.49-4.39 2.47c-2.01-.59-2.65-10.08-5.52-7.92-.41.31-3.08 7.46-4.15 9.27-.94 1.59-3.4 3.2-3.8 4.15-.83 1.94 2.26.87 2.03 2.9-.26 2.3-5.02 7.38-4.01 8.51.3.33 2.57-1.44 2.96-1 .42.48-.8 3.93 3.97 4.46-2.31 3.9-4.38 7.99-7.93 10.94-.57 1.25 4.78-.86 3.95 1.96-1.08 3.7-6.12 7.18-7.94 9.95-2.33 3.55 4.24 2.53 5.46.49 0 0 36.75-36.69 38.88-36.67 1.83.01 26.76 29.33 33.53 36.94 4.59-3.44 9.18-8.38 14.39-12.87l41.83-39.04c.74-.72 1.03-1.11 1.03-1.11l.78.06.96.82 1.21 1.22 5.39 4.49 49.87 45.11c2.6.6 28.66-34.74 32.63-34.71 1.39 0 4.26 2.47 5.49 3.48 8.57 7.01 27.18 29.57 35.18 33.36 10.67 5.05-1.96-7.24-2.97-9.94l.02.02Z"/>
  <path d="M237.992 131.06c0-.3.31-.27.53-.05 7.76 7.87 15.63 16.5 23.32 24.44 7.81 8.09 23.33 23.69 22.7 25.48.03.5-.44.35-.75.07-8.18-7.33-15.83-16.24-23.1-24.46-7.42-8.45-15.89-16.98-22.7-25.48Zm-1.049.25c-7.38 9.86-15.11 19.49-23.55 28.51-2.92 3.09-8.56 9.16-8.83 9.21-.27.05-.25-.23-.25-.23 7.92-9.36 14.79-19.9 23.02-28.98 2.89-3.12 5.8-6.22 8.97-9.09 0 0 .36-.06.48.1s.17.48.17.48h-.01Zm34.72 61.921.02-7.01h-23.54v7.1l23.52-.09Zm.06 11.69v-7.59l-23.58-.04v7.73l23.58-.1Zm4.5-29.271-35.55-34.9v2.78l34.16 33.53s.95.12 1.22-.18.17-1.24.17-1.24v.01Zm-55.97-19.939c-4.45 4.74-9.14 9.8-12.59 15.34-.14.22-.2.55.07.51 5.22-3.68 9.59-9.67 13.73-14.82 3.62-4.51 7.19-9.05 10.75-13.61v-.57c-4.04 3.99-7.99 8.96-11.96 13.15Zm30.82 1.738-6.79-6.51h-3.61v6.51h10.4Zm-19.03-6.51-5.7 6.51h5.88v-6.51h-.18Zm28.9 15.991-5.73-5.5h-14.54v5.5h20.27Zm-38.08-5.5-4.81 5.5h14.17v-5.5h-9.36Zm47.15 14.21-4.93-4.74h-24.41v4.74h29.34Zm-32.051-24.7-.02-15.19-1.99.01.02 15.18h-.01v25.42h1.99v-25.42m-11.21 35.46v18.62h18.53V186.4h-18.53Zm-213.109-1.089-.11 7.54 23.26-.21v-7.1l-23.15-.23Zm-.11 11.47v7.65l23.26-.08v-7.73l-23.26.16ZM8.792 174.97s-.18.63.25 1.12c.44.49 1.14.29 1.14.29l34.16-33.53v-2.78l-35.55 34.89v.01Zm55.771-18.89c4.44 5.38 9.1 10.53 14.56 14.93.25-.02.16-.3 0-.52-3.52-5.33-8.86-10.75-13.39-15.47-4.28-4.46-8.6-8.87-12.94-13.27v.54c3.55 4.61 8.04 9.24 11.76 13.8l.01-.01Zm-17.44-25.33c-.58.52-1.16 1.08-1.74 1.62-.35.32-.69.64-1.04.97-7.01 6.69-14.23 14.7-21.22 21.66-7.53 7.66-16.19 15.43-22.71 23.93-.39.51-.63 1.48-.13 1.54 15.84-13.86 29.78-30.59 44.06-46.25.57-.62 1.13-1.25 1.7-1.86.23-.25.45-.5.68-.75.3-.33.65-.83.4-.88v.02Zm27.32 27.64c-6.72-7.73-13.76-16.35-21.13-23.84v-.1c-.61-.61-1.22-1.21-1.84-1.81-.89-.87-1.78-1.74-2.68-2.57 0 0-.55-.21-.74.05-.19.26.03.6.03.6.48.66 1.02 1.28 1.52 1.93 1.21 1.57 2.44 3.12 3.72 4.63v-.11c.95 1.12 1.91 2.23 2.88 3.34 8.11 9.04 17.63 19.22 26.06 27.99.09.09.31-.03.37-.08.05-.06.07-.27.07-.27-2.72-3.27-5.48-6.51-8.25-9.74l-.01-.02Zm-33.711-8.13-6.79 6.52h10.4v-6.52h-3.61Zm18.811 6.52-6.14-6.52h-.6v6.52h6.74Zm-29.741 3.97-5.73 5.5h20.27v-5.5h-14.54Zm38.671 5.5-5.18-5.5h-10.49v5.5h15.67Zm-48.53 3.971-4.94 4.74h29.34v-4.74h-24.4Zm27.12-35.141v40.6h1.99v-40.6h-1.99Zm-7.42 50.359v19.31h20.52v-19.31h-20.52Zm130.26-33.398h-53.01l-6.81 6.28 66.66.01-6.84-6.29Zm3.569 16.28v1.54h15.8l-8.21-7.56-75.29-.01-8.2 7.57h16.61v-1.54h59.29Zm-24.5-35.54h-11.2l-16.57 15.29h44.39l-16.62-15.29Zm56.971 72.089v-7.71l-32.47-.25v8.08l32.47-.12Zm-91.761-7.96h-34.28v8.08h34.28v-8.08Zm91.761-4.171-.16-7.38-32.31.01v7.56l32.47-.19Zm-91.761-7.368h-34.28v7.56h34.28v-7.56Zm87.631-3.971-8.22-7.57h-20.12v7.57h28.34Zm-108.55-7.57-8.2 7.57h29.119v-7.57h-20.92Z"/>
  <path d="M173.472 208.57v-40.25h-59.29v40.25h-34.11v11.92l125.87-.11V208.8l-32.47-.23Zm-31.36-34.74v33.92h-25.21v-37.6h25.21v3.68Zm28.63 0v33.97h-25.21v-37.6h25.21v3.63Z"/>
  <path d="M121.452 174.9v7.49h6.61v-7.49h-6.61Zm9.511 0v7.49h6.6v-7.49h-6.6Zm-9.511 10.26v7.48h6.61v-7.48h-6.61Zm9.511 0v7.48h6.6v-7.48h-6.6Zm-9.511 10.36V203h6.61v-7.48h-6.61Zm9.511 0V203h6.6v-7.48h-6.6Zm19.12-20.569v7.49h6.61v-7.49h-6.61Zm9.51 0v7.49h6.6v-7.49h-6.6Zm-9.51 10.26v7.48h6.61v-7.48h-6.61Zm9.51 0v7.48h6.6v-7.48h-6.6Zm-9.51 10.359v7.49h6.61v-7.49h-6.61Zm9.51 0v7.49h6.6v-7.49h-6.6Zm-88.49-12.61s.19.25.52.31c.33.07 1-.05 1-.05l68.73-64.61v-2.62l-70.24 66.96-.01.01Zm140.27-4.431-66.04-61.82v2.63l66.05 60.97 2.89 2.67s.24.38.93.41c.68.03.94-.4.94-.4l-4.77-4.46Zm-66.18-52.15 59.55 55.32s.85.94 2.33.94 2.4-.92 2.4-.92l-64.16-60.52-.02 4.64c0 .21-.04.39-.11.54h.01Zm-3.871-.549v-3.98l-63.87 59.61s.83.76 2.4.76c1.57 0 3.16-.76 3.16-.76l58.72-54.67c-.25-.21-.41-.51-.41-.96Z"/>
  <path d="M143.392 101.609c-1.09 0-1.98.88-1.99 1.98l-.04 12.41v2.62l-.02 3.23v3.98c-.01.45.14.75.39.96.36.3.93.39 1.57.4.88 0 1.62-.17 1.88-.8.06-.15.11-.33.11-.54l.02-4.64v-1.86l.02-2.63.04-13.11c0-1.1-.88-1.99-1.98-1.99v-.01Zm76.521 95.711h-1.99v.01l1.99-.01Zm-1.4-21.7 13.99.03v-4.74h-17.64l-3.22 3.07.07 1.64h6.8Zm.51 17.71v-.01l5.14.01v-7.1l-4.88.01h-2.11l.03 7.09h1.82Z"/>
  <path d="M224.163 205.031v-7.73l-1.94.01v.01h-1.62l-1.68.01v-.01h-1.84l.04 7.71h3.36v.01l3.68-.01Zm47.61 3.609-52.53-.04v-.01h-2.06v1.27l-.1 6.73.11 3.9h54.53l.05-11.85Z"/>
  <path d="m221.852 197.311-1.94.01h1.94v-.01Zm49.981-14.081-.02-3.61-53.92-.01v-.01h-.81v3.67h1.15l53.6-.04Zm-200.121-8.209h3.5v-1.64l-2.91-3.09h-19.42v4.74h18.83v-.01Zm-7.94 7.599h5.72v-3.64h-1.44v.02h-54.49l-.07 3.63h50.28v-.01Zm5.571 25.37h-4.55l-51.27.26.11 12.24 55.71-.07.07-4.34-.07-7.05v-1.04Zm-2.421-22.379h-3.8v7.1h3.19v-.01h3.26l.01-7.09h-2.66Zm2.65 18.811.01-7.74h-2.62v.01h-4.1v7.73h6.71Z"/>
</svg>
