<svg xmlns="http://www.w3.org/2000/svg" width="131" height="150" fill="currentColor" viewBox="0 0 131 150">
  <path fill-rule="evenodd" d="M117.73 112.184c-1.694-8.78-11.009-19.36-18.633-19.36-8.751 0-18.068 13.056-16.94 22.511 1.499 12.567 13.27 21.836 13.27 21.836s-7.338 5.176-9.034 9.005c-.559 1.262.173 2.41 1.13 3.15 1.82 1.408 4.579.328 6.21-.674 3.457-2.121 6.664-2.053 7.732-2.031l.174.003c1.414.015 4.8.226 7.059 2.028 1.402 1.119 3.521 1.487 5.364.899 1.411-.45 2.339-2.026 1.694-3.827-1.13-3.153-7.905-9.005-7.905-9.005s12.355-11.705 9.879-24.535Zm-17.786-8.78c1.957-.121 3.651.93 3.952 2.476.347 1.783-1.696 3.512-3.952 3.377-1.79-.107-3.113-1.062-3.388-2.476-.325-1.669 1.276-3.246 3.388-3.377ZM0 143.023c0 2.249 1.49 4.419 4.799 4.952 2.952.476 5.928-.899 7.058-2.476s10.165-33.767 10.165-33.767 2.823.902 4.8 3.603c2.517 3.441 8.539 5.132 13.269 4.951 5.102-.195 8.979-3.075 10.446-6.753 3.324-8.329-6.211-15.518-15.81-13.732-6.442 1.198-8.47.9-8.47.9l10.728-25.438S51.92 78.924 66.63 60.856c10.446-12.831 9.6-28.139 9.6-28.139s22.018 1.577 33.033-4.277l.468-.249c6.569-3.489 12.043-6.396 16.47-11.907C131.006 10.302 131 .077 131 .077s-32.186-2.7-64.371 23.862C34.443 50.501 18.913 88.772 18.913 88.772S0 140.773 0 143.023Zm38.395-71.81s12.142 3.15 25.13-12.833c9.622-11.842 7.905-27.914 7.905-27.914s-11.858 9.68-18.916 18.91c-6.265 8.191-14.119 21.837-14.119 21.837ZM74.253 27.99S87.262 17.888 96.84 12.907C109.825 6.154 126.2 5.48 126.2 5.48s.824 8.991-16.375 18.46c-11.856 6.526-35.572 4.05-35.572 4.05ZM37.55 106.78c2.178.116 3.942 1.41 3.953 3.15.011 1.869-2.179 3.276-4.518 3.152-2.178-.116-3.942-1.411-3.952-3.152-.01-1.869 2.179-3.274 4.517-3.15Z" clip-rule="evenodd"/>
</svg>
