<svg xmlns="http://www.w3.org/2000/svg" fill="currentColor" viewBox="0 0 194 146">
  <path d="M27.65 138.565c-1.057 9.547-10.936 9.54-12 0-.457-4.089 1.564-74.649 1.936-87.5.037-1.263-.283-1.756-.432-1.985l-.01-.015c-.342-.53-1.231-.874-1.5-1-3.598-1.697-11.794-7.612-14.995-14-1.002-2-.56-9.74-.504-16 .048-5.481.504-14 .504-14s0-3 3-3 3 3 3 3v22s0 3 3 3 3-3 3-3v-22s-.004-3 2.998-3c3.002 0 3.002 3 3.002 3v22s0 3 3 3 3-3 3-3v-22s-.004-3 2.998-3c3.002 0 3.002 3 3.002 3v22s0 3 3 3 3-3 3-3v-22s-.004-2.998 2.998-3c3.002-.002 3.002 3 3.002 3s.449 8.519.498 14c.055 6.26.227 14.07-.498 16-2.399 6.388-11.004 12-15.004 14-.215.107-1.139.442-1.5 1l-.014.02c-.203.313-.465.716-.428 1.98.374 12.851 2.399 83.411 1.946 87.5ZM181 138.5c0 9.504 12 9.57 12 .065v-127c0-3.958.255-9.454-.5-10.46-3-3.994-15 1.46-18.5 39.464-.926 10.053 5.587 21 9 26.5 1.21 2.198 1.629 2.453 2 4 .365 1.523.156 1.477 0 4-.8 12.948-4 53.392-4 63.431Z"/>
  <path fill-rule="evenodd" d="M105.5 12c35.622 0 64.5 28.878 64.5 64.5S141.122 141 105.5 141 41 112.122 41 76.5 69.878 12 105.5 12Zm-.136 18.726c-25.482 0-46.139 20.656-46.139 46.138s20.657 46.139 46.139 46.139c25.482 0 46.139-20.657 46.139-46.139 0-25.482-20.657-46.139-46.139-46.139Z" clip-rule="evenodd"/>
  <path d="M148 77c0 23.196-19.028 42-42.5 42S63 100.196 63 77s19.028-42 42.5-42S148 53.804 148 77Z"/>
</svg>
