<svg xmlns="http://www.w3.org/2000/svg" width="204" height="151" fill="currentColor" viewBox="0 0 204 151">
  <path d="M53.48 76.727c5.11-1.044 4.378-11.437-.745-10.581-6.18 1.032-16.156 2.63-17.565 2.2-2.49-.757-6.587-3.667-11.71-8.045-5.76-4.92-13.125-5.807-16.834 1.468-2.952 5.79-1.463 53.223-1.463 56.49 0 3.644-1.78 10.518-4.392 22.743-2.195 10.271 9.515 13.939 12.442 2.201 1.996-8.002 3.006-11.657 3.66-13.206.932-2.204 1.464-17.607 1.464-17.607s10.925 9.95 11.71 11.714c1.305 2.934 4.39 6.978 4.39 16.898 0 8.779 11.116 11.001 11.71-2.225.28-6.202-1.715-13.206-4.39-18.341-3.058-5.87-16.847-17.139-19.029-19.784-1.135-1.377-1.465-27.145-1.465-27.145s8.866 4.882 10.98 5.844c3.222 1.468 13.724-1.088 21.237-2.624ZM27.851 41.203c-.705 6.875-6.7 11.679-13.525 11.243-7.047-.45-12.617-6.56-11.998-13.667.586-6.745 6.17-11.535 12.87-11.464 7.295.078 13.405 6.556 12.653 13.888Zm70.991 11.243c.879-6.804 4.391-9.005 11.71-9.005 7.319 0 10.246 7.336 8.051 11.738-.904 1.812-2.056 3.127-3.354 4.047-1.855 1.314-4.008 1.822-6.161 1.822-5.175 0-10.854-3.89-10.246-8.602Zm38.057-47.94h24.884v-.683c0-4.427 5.855-4.43 5.855-.014v.697h24.883v5.869h-24.883v134.99h-4.392l-.671-65.996-.12-11.77-.009-.88-.001-.1-.006-.55-.013-1.278-.554-54.416h-24.973V4.506ZM104.697 63.25c-4.391-1.468-5.383-2.949-7.319-5.87 0 0-2.681 3.52-6.586 5.87-3.906 2.348-8.05 3.667-8.05 3.667s2.926.734 11.709-.733c6.881-1.15 10.246-2.935 10.246-2.935Z"/>
  <path stroke="#fff" stroke-linecap="round" d="M137.631 10.427s-1.749 14.673 2.196 28.56C144.218 54.446 161.783 67.6 164.71 67.6m0 0c2.928 0 19.9-12.85 24.884-28.612 4.391-13.887 2.195-28.56 2.195-28.56M164.71 67.6c-2.927 0-16.833-12.42-21.224-27.878-3.945-13.887-2.196-29.294-2.196-29.294M164.71 67.6c2.928 0 16.24-12.85 21.224-28.612 4.391-13.887 2.196-28.56 2.196-28.56M164.71 67.6c-2.927 0-10.978-13.835-15.369-29.294-3.945-13.887-.732-27.878-.732-27.878M164.71 67.6c2.928 0 11.117-14.265 16.101-30.027 4.391-13.888 0-27.145 0-27.145M164.71 67.6c-2.927 0-5.479-14.3-8.782-30.027-2.928-13.94 0-27.145 0-27.145M164.71 67.6c2.928 0 6.942-13.695 9.514-30.027 2.196-13.94-1.463-27.145-1.463-27.145m-57.512 48.799c-2.196 2.2-9.992 7.706-17.139 9.159-18.296 3.72-25.615-2.239-25.615-2.239s10.978-.014 18.297-5.845c7.318-5.831 8.522-10.257 8.522-10.257M125.921 67.6l3.66 11.752 70.259.038 3.659-11.738m-73.918-.052h70.259m-67.332 2.253 1.464 6.603m5.855-6.603 1.463 6.603m5.855-6.603 1.464 6.603m5.855-6.603 1.464 6.603m17.565 0 1.463-6.603m5.123 6.603 1.464-6.603m5.123 6.603 1.464-6.603m5.855 6.603 1.463-6.603M52.735 66.146c5.123-.856 5.855 9.537.745 10.581-7.513 1.536-18.015 4.092-21.238 2.624-2.112-.962-10.978-5.844-10.978-5.844s.329 25.768 1.464 27.145c2.181 2.645 15.971 13.914 19.029 19.784 2.675 5.135 4.67 12.139 4.39 18.341-.594 13.226-11.71 11.004-11.71 2.225 0-9.92-3.085-13.964-4.39-16.898-.785-1.764-11.71-11.714-11.71-11.714s-.532 15.403-1.464 17.607c-.654 1.549-1.665 5.204-3.66 13.206-2.927 11.738-14.637 8.07-12.442-2.201 2.613-12.225 4.392-19.099 4.392-22.743 0-3.267-1.489-50.7 1.463-56.49C10.335 54.494 17.7 55.38 23.46 60.3c5.124 4.378 9.22 7.288 11.71 8.046 1.41.429 11.386-1.169 17.566-2.201Zm-38.41-13.7c6.827.436 12.821-4.368 13.526-11.242.752-7.333-5.358-13.81-12.653-13.889-6.7-.07-12.284 4.72-12.87 11.464-.619 7.107 4.951 13.217 11.998 13.667Zm96.227-9.005c-7.319 0-10.831 2.2-11.71 9.005-.608 4.713 5.071 8.602 10.246 8.602 3.66 0 7.319-1.467 9.515-5.869 2.195-4.402-.732-11.738-8.051-11.738Zm26.347-38.935h55.622v5.869h-55.622V4.506Zm24.884-.683c0-4.427 5.855-4.43 5.855-.014v141.556h-4.392L161.812 4.506s-.029 3.745-.029-.683ZM97.378 57.38c1.936 2.921 2.928 4.402 7.319 5.87 0 0-3.365 1.784-10.246 2.934-8.782 1.467-11.71.734-11.71.734s4.145-1.32 8.05-3.669c3.906-2.349 6.587-5.869 6.587-5.869Z"/>
</svg>
