<svg xmlns="http://www.w3.org/2000/svg" fill="currentColor" viewBox="0 0 215 149">
  <path d="M71.84 76.265c5.109-1.044 4.377-11.437-.746-10.581-6.18 1.032-16.156 2.63-17.565 2.2-2.49-.757-6.587-3.668-11.71-8.045-5.76-4.92-13.125-5.807-16.833 1.467-2.952 5.79-9.643 55.362-9.643 58.63 0 3.643-4.5 8.562-13 17.062-7.426 7.427 4.562 14.801 11.499 6.502 5.289-6.327 11.717-12.454 12.372-14.003.931-2.204 2.629-15.497 2.629-15.497s-.046-.104 9.499 9.5c3.455 3.477 2.54 8.498 3.477 18 0 8.779 13.62 10.195 12.524-3-.646-7.777-1.165-16-5.5-21-4.336-5-13.104-14.355-15.285-17-1.135-1.376 6.065-27.455 6.065-27.455s8.866 4.882 10.979 5.844c3.222 1.468 13.725-1.088 21.238-2.624ZM46.21 40.741c-.705 6.875-6.7 11.678-13.525 11.243-7.047-.45-12.616-6.56-11.998-13.668.586-6.744 6.171-11.534 12.87-11.463 7.296.078 13.405 6.555 12.654 13.888Zm61.973 11.205c.879-6.804 6.159-9.005 11.71-9.005 7.318 0 10.246 7.336 8.05 11.738-2.195 4.402-5.855 5.87-9.514 5.87-5.175 0-10.855-3.89-10.246-8.603ZM148.842 38.5c-3.945-13.887-1.87-28.573-1.87-28.573h.87s-2 12.073 2 28.56c3.946 11.847 13.174 20.487 19.028 25.014-5.052-4.945-12.04-14.44-15.043-25.014-3.945-13.887-1.696-28.56-1.696-28.56h.958s-2.247 16.34 1.753 28.56c3.77 12.753 11.375 21.45 15.802 25.67-3.634-4.87-8.631-15.188-11.802-26.352-3.945-13.887-1-27.878-1-27.878h1s-2.666 14.573 1 27.878c3.568 12.95 8.586 21.534 11.606 25.896-2.065-5.076-4.193-15.21-6.476-26.079l-.13-.622c-2.928-13.94 0-27.073 0-27.073h1s-3.049 12.583 0 27.073c2.657 12.628 4.58 19.982 5.894 24.253l-.523-51.378H146.24V4.006h24.884l-.001-.683c0-4.427 5.855-4.43 5.855-.014v.697h24.884v5.869h-24.884v52.378c1.621-4.08 3.734-11.564 5.864-25.253 2.178-14-.5-27.073-.5-27.073h1s2.695 13.134.5 27.073c-1.665 10.572-4.051 20.069-6.32 25.453 3.139-4.68 7.836-12.897 11.638-24.648 4.143-12.805-.318-27.878-.318-27.878h1s4.704 13.991.313 27.878c-3.401 10.757-8.297 20.475-11.994 25.563 4.796-4.74 12.532-13.665 16.181-24.88 4.204-12.924.5-28.56.5-28.56h1s3.824 14.672-.567 28.56c-3.092 9.779-9.391 18.438-14.426 23.601 5.436-4.649 12.815-12.525 16.993-23.589 4.132-10.943 2.398-28.573 2.398-28.573h.89s2.196 14.673-2.196 28.56c-4.056 12.828-16.052 23.727-21.956 27.34v.621c13.057.01 25.127.011 31.864-.03 1 0 1 1.082 0 1.082h-31.864v11.372l32.203.017 3.659-11.738h2L210.34 81h-33.362v63.865h-4.391L171.937 81H137.34l-4.5-13.849 2.422-.052 3.659 11.752 32.994.018L171.8 67.5h-31.958c-1 0-1-1.083 0-1.083 9.179 0 20.713.016 31.947.026l-.002-.212c-5.778-3.17-19.22-14.616-22.945-27.731Z"/>
  <path d="M123.842 59.5c-2.196 2.2-9.244 6.932-16.391 8.385-18.297 3.72-25.615-2.239-25.615-2.239s11.087.457 18.296-5.845c6.617-5.782 8.424-10.47 8.677-11.202l.033-.099s-.01.034-.033.1c-.173.526-.967 3.002-.967 3.9 0 2.5.5 3 .5 3l-2 2c-2.5 2.5-3.707 3.196-6.5 5-3.07 1.983-8.5 3.917-8.5 3.917s7.654.803 12.45 0c4.271-.714 6.585-1.675 10.55-3.417 1.627-.715 4.087-2 4.087-2l2.706-.5c1.057-.195 2.707-1 2.707-1Zm27.289 16.455-1.464-6.603h1.175l1.5 6.603h-1.211Zm-7.325 0-1.464-6.603h1.174l1.5 6.603h-1.21Zm14.325 0-1.464-6.603h1.175l1.5 6.603h-1.211Zm7 0-1.464-6.603h1.175l1.5 6.603h-1.211Zm17.175 0 1.536-6.603h1.174l-1.5 6.603h-1.21Zm6.825 0 1.536-6.603h1.175l-1.5 6.603h-1.211Zm7 0 1.536-6.603h1.175l-1.5 6.603h-1.211Zm7 0 1.536-6.603h1.175l-1.5 6.603h-1.211Z"/>
</svg>
