<svg xmlns="http://www.w3.org/2000/svg" fill="currentColor" viewBox="0 0 348 186">
  <path d="M306.68 83.791c-1.048 0-3.763 10.27-6.64 14.854-5.591 8.912-15.026 17.494-15.026 17.494h7.339s-1.724 2.661-5.591 6.932c-4.391 4.849-5.242 6.602-5.242 6.602l9.784-1.32s1.745 1.606-3.145 5.611c-6.896 5.649-11.531 10.893-11.531 10.893l14.676-2.971s-2.446 3.631-8.386 9.573c-8.7 8.701-16.075 12.213-16.075 12.213l18.87-2.311s-3.569 5.526-9.085 10.563C266.144 181.496 261.602 186 261.602 186h85.5s1.852-4.349-12.467-13.416c-6.372-4.036-9.784-8.912-9.784-8.912h14.677s-.794-1.7-10.484-8.252c-5.732-3.877-9.085-9.573-9.085-9.573l13.628 4.291s-3.791-2.715-10.483-8.252c-4.869-4.028-6.29-8.582-6.29-8.582l10.134 2.641s-1.113-2.33-5.941-7.592c-4.543-4.952-5.242-9.903-5.242-9.903l10.134 4.621s-4.892-6.932-11.182-16.504c-6.29-9.573-6.989-22.776-8.037-22.776ZM88.784 51.502c-1.353 0-4.857 13.374-8.57 19.345C72.999 82.453 60.82 93.63 60.82 93.63h9.472s-2.225 3.465-7.217 9.027c-5.666 6.316-6.765 8.598-6.765 8.598l12.629-1.72s2.252 2.093-4.06 7.308c-8.9 7.357-14.883 14.186-14.883 14.186l18.943-3.869s-3.157 4.729-10.825 12.467c-11.229 11.332-20.747 15.905-20.747 15.905l24.355-3.009s-4.606 7.196-11.726 13.756c-13.531 12.467-19.394 19.59-19.394 19.59h24l22.5.131h64s2.245-7.052-16.236-18.861c-8.225-5.256-12.629-11.607-12.629-11.607h18.944s-1.025-2.213-13.531-10.747c-7.399-5.048-11.727-12.466-11.727-12.466l17.59 5.588s-4.893-3.535-13.531-10.747c-6.283-5.245-8.118-11.176-8.118-11.176l13.08 3.439s-1.437-3.035-7.668-9.888c-5.863-6.448-6.765-12.896-6.765-12.896l13.08 6.018s-6.315-9.027-14.433-21.493c-8.119-12.467-9.02-29.662-10.374-29.662Z"/>
  <path d="M144.784 72.502c-1.353 0-4.857 11.382-8.569 16.463-7.217 9.878-19.395 19.391-19.395 19.391h9.472s-2.225 2.948-7.216 7.683c-5.667 5.374-6.766 7.317-6.766 7.317l12.629-1.464s2.252 1.781-4.059 6.22c-8.901 6.261-14.884 12.073-14.884 12.073l18.943-3.293s-3.157 4.025-10.825 10.61c-11.229 9.644-20.747 13.537-20.747 13.537l24.355-2.561s-4.606 6.124-11.726 11.707C92.465 180.795 86.102 186 86.102 186h66l5.441-.009h5.531l11.063.009h22.965s2.245-5.033-16.236-15.083c-8.225-4.474-12.629-9.878-12.629-9.878h18.944s-1.025-1.884-13.531-9.147c-7.399-4.296-11.727-10.61-11.727-10.61l17.59 4.757s-4.893-3.01-13.531-9.147c-6.283-4.464-8.118-9.512-8.118-9.512l13.08 2.927s-1.437-2.583-7.668-8.415c-5.863-5.488-6.765-10.975-6.765-10.975l13.08 5.122s-6.315-7.683-14.433-18.293c-8.119-10.61-9.021-25.244-10.374-25.244ZM39.437 96.03c-.926 0-3.325 9.108-5.867 13.174-4.941 7.905-13.279 15.517-13.279 15.517h6.485s-1.523 2.36-4.941 6.148c-3.88 4.301-4.632 5.856-4.632 5.856l8.647-1.172s1.541 1.425-2.78 4.978c-6.094 5.01-10.19 9.661-10.19 9.661l12.97-2.635s-2.162 3.221-7.412 8.49C10.75 163.765 4.233 166.88 4.233 166.88l16.676-2.049s-3.154 4.901-8.03 9.368C3.616 182.69 0 186 0 186h76s-6.9-4.631-11.858-11.215c-4.014-5.331-8.646-7.905-8.646-7.905h12.97s-.702-1.508-9.265-7.319c-5.066-3.439-8.029-8.491-8.029-8.491l12.044 3.806s-3.35-2.408-9.265-7.319c-4.302-3.572-5.558-7.612-5.558-7.612l8.955 2.342s-.983-2.066-5.25-6.734c-4.014-4.391-4.632-8.783-4.632-8.783l8.956 4.099s-4.323-6.148-9.882-14.638c-5.559-8.491-6.176-20.202-7.103-20.202Z"/>
  <path d="M250.799 0c-1.865 0-6.695 18.217-11.812 26.35-9.947 15.81-26.732 31.033-26.732 31.033h13.055s-3.067 4.72-9.947 12.297c-7.811 8.601-9.325 11.71-9.325 11.71l17.407-2.342s3.103 2.85-5.595 9.955c-12.269 10.02-20.516 19.323-20.516 19.323l26.111-5.27s-4.352 6.441-14.921 16.98c-15.478 15.436-28.597 21.665-28.597 21.665l33.571-4.098s-6.35 9.802-16.164 18.737C178.683 173.321 169.602 186 169.602 186h153.526s2.879-12.404-22.594-28.489c-11.338-7.159-17.407-15.81-17.407-15.81h26.111s-1.413-3.015-18.651-14.638c-10.199-6.877-16.164-16.981-16.164-16.981l24.246 7.612s-6.744-4.816-18.651-14.638c-8.661-7.145-11.19-15.224-11.19-15.224l18.029 4.684s-1.98-4.133-10.569-13.468c-8.082-8.783-9.325-17.566-9.325-17.566l18.029 8.198s-8.704-12.297-19.894-29.278C253.908 23.423 252.664 0 250.799 0Z"/>
  <path d="M196.64 22.502c-1.28 0-4.595 16.125-8.107 23.323-6.826 13.994-18.346 27.47-18.346 27.47h8.96s-2.105 4.177-6.826 10.884c-5.36 7.614-6.4 10.366-6.4 10.366l11.946-2.073s2.13 2.522-3.84 8.81c-8.42 8.87-14.079 17.104-14.079 17.104l17.919-4.665s-2.986 5.702-10.239 15.031c-10.623 13.663-19.626 19.177-19.626 19.177l23.039-3.628s-4.358 8.676-11.093 16.585C147.148 175.917 141.102 186 141.102 186l11.758-.001 11.742.001h81.5s2.151-9.84-15.331-24.077c-7.78-6.337-11.946-13.994-11.946-13.994h17.919s-.969-2.669-12.799-12.958c-6.999-6.086-11.093-15.03-11.093-15.03l16.639 6.738s-4.628-4.263-12.799-12.958c-5.944-6.324-7.68-13.475-7.68-13.475l12.373 4.146s-1.358-3.658-7.253-11.92c-5.546-7.775-6.4-15.55-6.4-15.55l12.373 7.257s-5.973-10.884-13.653-25.915c-7.679-15.03-8.532-35.762-9.812-35.762Z"/>
</svg>
