<svg xmlns="http://www.w3.org/2000/svg" width="151" height="150" fill="currentColor" viewBox="0 0 151 150">
  <path d="M2.782 149.736c-4.297-.572-3.202-6.658.47-6.239 16.18 1.849 37.911-9.936 49.395-9.936 7.019 0 12.18 2.08 17.92 1.386 4.139-.499 8.845-6.17 15.167-8.78 4.593-1.897 12.172-3.697 12.172-3.697v-11.554s-10.798.693-10.798 0c0-4.622 7.812-13.633 7.812-13.633s-5.578.457-5.514 0c.449-3.236 8.95-15.945 11.017-15.945 2.068 0 10.808 12.479 10.808 15.945 0 .462-4.365 0-4.365 0s8.041 11.553 8.041 13.633c0 .693-11.497 0-11.497 0v10.167s7.169-1.028 11.497-1.155c7.586-.224 15.393 1.155 15.393 1.155v-9.012s-13.565.462-13.565-.462c0-6.239 7.822-14.326 7.822-14.326s-7.352.924-7.352 0c0-3.929 10.108-15.251 10.108-15.251s-6.662.693-6.662 0c0-2.311 10.098-18.717 12.396-18.717 1.838 0 12.406 16.809 12.406 18.717 0 .693-6.433 0-6.433 0s9.649 12.016 9.649 15.25c0 1.21-6.662.463-6.662.463s8.96 12.247 8.281 14.326c-.226.693-14.015 0-14.015 0v10.399s4.172 1.298 6.667 2.541c3.446 1.719 2.761.925 6.433 3.697 3.216 2.429 1.457 7.321-3.45 4.853-16.998-8.55-22.741-7.394-31.701-7.394-6.203 0-15.877 1.358-23.664 4.621-7.787 3.263-14.786 9.759-19.991 10.861-5.774 1.222-13.064-2.337-17.92-1.849-11.498 1.155-34.252 12.016-49.865 9.936Z"/>
  <path d="M124.557 64.008c2.756 3.697-2.308 8.78-5.525 4.621-4.01-5.185-9.649-12.709-9.649-12.709s-2.517 3.236-5.284 6.702c-4.666 5.844-9.264 1.717-5.743-3.004 4.824-6.47 8.959-13.634 11.487-13.634 2.994 0 10.706 12.65 14.714 18.024Zm-37.449 8.319c4.815 1.617 9.983-7.53 2.298-11.092-5.984-2.773-12.417-5.315-13.106-6.7-1.092-2.198-6.84-12.265-11.257-20.104-3.906-6.932-13.326-7.626-17.231 0-3.109 6.07-16.654 61.979-17.92 65.162-1.379 3.466-9.88 14.096-17.231 24.956-4.117 6.082 3.446 14.789 11.487 5.084 5.521-6.664 17.69-22.64 18.38-24.263.98-2.311 5.284-19.41 5.284-19.41S61.23 97.745 62.056 99.593c.516 1.156-.46 12.016-.46 22.414 0 12.052 12.47 13.865 13.096 0 .294-6.5 1.608-25.88.919-28.653-.603-2.424-15.853-17.1-18.15-19.872-1.195-1.443 3.676-19.641 3.676-19.641s4.595 9.792 6.662 11.091c1.838 1.156 11.656 4.823 19.31 7.395Zm-53.77-5.315c2.068-6.702 10.109-29.578 11.257-36.74.63-3.929-12.548-6.272-17.46 1.385-4.595 7.163-7.582 17.33-7.582 25.187 0 8.844 13.286 11.785 13.785 10.168Zm46.638-52.454c-.742 7.206-7.056 12.242-14.244 11.785-7.421-.471-13.287-6.876-12.636-14.326C53.714 4.947 59.596-.074 66.65 0c7.682.081 14.117 6.871 13.325 14.557Z"/>
</svg>
