<?xml version="1.0" encoding="UTF-8"?>
<svg id="Layer_2" data-name="Layer 2" xmlns="http://www.w3.org/2000/svg" viewBox="0 0 511.86 302.84">
  <defs>
    <style>
      .cls-1 {
        fill: #fff;
      }
    </style>
  </defs>
  <g>
    <g>
      <path class="cls-1" d="M291.37,37.29c-2.51-2.14-9.62-14.8-11.08-15.69-.67-.4-2.01-.41-2.67,0l-13.07,16.68c3.9-.69,6.08-3.87,10.46-4,3.14-.1,15.29,3.81,16.36,3.01Z"/>
      <path class="cls-1" d="M386.17,149.61c-1.4-3.73-.2-2.59,2.55-3.54-1.68-1.49-6.8-8.26-6.66-9.95.11-1.25,4.58-6.92,6.66-4.46.81-.83-3.16-5.31-3.56-6.95-.46-1.9.56-3.28.08-4.91-.22-.73-7.17-12.95-7.93-12.95-2.43,1.69-3.31,11.35-6.94,7.91-4.32-4.1,1.33-2.7,1.46-2.96,1.55-2.92-10.17-11.47-.99-10.43-1.88-2.15-4.39-4.76-5.86-7.15-1.48-2.41-3.64-6.66-5.27-9.56-.74-1.32-1.1-6.75-3.02-2.39-1.3,2.95.37,5.07-4.76,3.25-9.7-3.43-22.17-13.2-32.06-17.6-8.06-3.59-12.04-4.92-20.97-2.75-7.23,1.75-22.3,10.72-27.87,10.74-6.03.01-22.8-11.31-27.57-10.63-2.06.29-21.29,11.82-24.88,13.93l-18.56,11.72c7.23-2.07,14.74-5.51,21.52-8.76,6.79-3.25,19.16-12.55,26.18-10.63,6.2,1.69,18.59,9.78,24.28,9.54,6.13-.25,20.5-9.64,27.54-11.33,5.86-1.41,17.41,4.59,23.32,7.11,10.19,4.35,19.85,9.85,30.05,14.16,1.1,1.54-4.7,12.02-6.88,13.34l3.96-.5c1.43,1.69-4.58,9.65-6.45,10.9-4.19-3.03-5.51-6.93-7.66-11.19-2.37-4.72-2.93,3.61-3.53,4.99-1.19,2.72-3.27,5.45-5.19,7.72,8.47-.85,2.43,2.1,3.37,5.49,1.05,3.81,7.22,4.52,2.09,7.9-3.28-.94-3.16-7.62-3.48-7.93-3.35-3.26-3.74,7.18-5.93,8.51-1.98,1.21-4.39-2.83-4.06-4.93.12-.75,2.81-.42,1.95-1.92-2.73-3.24-4.35-9.59-6.35-12.6-2.25-3.39-2.75,6.36-6.45,3.98-.74-.47.07-4.61-.5-5.88-.43-.96-1.94-1.71-2.37-2.69-2.74-6.29-5.46-11.56-9.56-17.23-4.33,6.53-5.06,15.21-11.42,20.36-.92,3.12,5.32-1.56,3.95,1.96-.22.58-4.94,8.4-5.44,8.44-3.87-.76-7.7-10.28-9.41-11.35-.54-.34-2.1.39-3.53-.43-3.65-2.07-9.07-8.69-12.82-8.09-1.97.32-3.34,3.02-5.57,1.57-1.95-1.27-5.21-12.46-6.43-12.46-2.42,3.73-3.57,8.02-6.19,11.68-1.11,1.55-2.92,2.08-3.13,2.37-.43.61,1.18,2.53.4,4.73-.93,2.62-6.54,8.29-9.45,9.02-.12,2.07,3.43.26,4.57.09,6.58-.99-2.41,7.1-4.57,4.87-.14-.14.15-2.59-.52-3.93-.23-.46-6.02-8.31-6.42-8-.47,4.05-3.02,7.3-4.48,10.92-2.35,5.83-3.45,17.93-11.42,6.45l6.94-.98c-6.74-3.87-7.54-8.82-10.43-15.4-.81,2.51-7,12.2-6.2,13.69.11.2,1.72.17,1.81.81.09.67-.94,4.2-1.13,4.32-3.84,2.4-3.65-6.84-6.4-8.88l-4.45,8.45c-6.69-2.83-.56-3.81.49-5.48,1.69-2.7-.89-7.6-.49-7.94l3.98-.51c-3.05-4.35-5.47-8.95-5.98-14.39-2.61,1.71-6.27,15.35-10.78,12.77-.48-.28-6.08-8.74-6.07-9.3.03-2.35,3.51,0,3.94-.98-2.05-2.37-7.4-10.78-5.52-13.46l34.27-15.41c6.45-5.61,30.17-32.45,36.53-33.99,2.04-.5,4.2.17,6.23-.72,3.22-1.42,10.39-11.57,13.43-14.38,7.74-7.16,18.81-12.54,27.99-17.73l33.09,41.56c-25.03-.77-50.04-1.73-74.98.02l-9.44,1.97c7.47-.87,15.11.84,22.3,1.05,23.8.71,47.58-1.04,71.35-.83,10.23,6.29,17.19,18.53,29.18,22.31.98.31,4.85.22,5.3.31-.36-.36-4.49-1.07-4.9-1.4-3.36-2.75-5.72-6.54-8.5-9.53-7.35-7.91-16-17.84-25.87-21.81C314.35,35.62,289.23,1.03,284.51,0c-1.54-.34-24.36,13.43-27.24,15.62-5.77,4.37-16.26,19.26-20.56,21.19-2.64,1.19-4.66-.56-6.66.22-2.57,1.01-4.95,5.75-7.88,6.02-3.03.27-8.2-5.4-12.68-4.77-3.79.53-12.18,8.18-15.97,8.95-4.24.86-10.83-.63-15.4,0-.17,1.5,2.66,1.47,3.77,1.69,3.05.59,8.58,1.53,11.51,1.23,5.81-.59,13.59-7.82,17-7.81.48,0,7.18,2.62,7.41,2.95.27.39.1,1.66-.11,2.27-.39,1.14-14.65,15.32-16.72,17.06-5.55,4.68-32.04,19.74-38.45,21.16-.76.17-1.5.27-2.28.18l-1.01-5.96c-3.73,2.46-3.48,9.11-8.92,9.94l1.95,1c1.05,1.42-5.4,8.09-6.92,9.43,7.2.64-1.22,7.05-1.99,10.41l3.96,1.49-4.39,2.47c-2.01-.59-2.65-10.08-5.52-7.92-.41.31-3.08,7.46-4.15,9.27-.94,1.59-3.4,3.2-3.8,4.15-.83,1.94,2.26.87,2.03,2.9-.26,2.3-5.02,7.38-4.01,8.51.3.33,2.57-1.44,2.96-1,.42.48-.8,3.93,3.97,4.46-2.31,3.9-4.38,7.99-7.93,10.94-.57,1.25,4.78-.86,3.95,1.96-1.08,3.7-6.12,7.18-7.94,9.95-2.33,3.55,4.24,2.53,5.46.49,0,0,36.75-36.69,38.88-36.67,1.83.01,26.76,29.33,33.53,36.94,4.59-3.44,9.18-8.38,14.39-12.87l41.83-39.04c.74-.72,1.03-1.11,1.03-1.11l.78.06.96.82,1.21,1.22,5.39,4.49,49.87,45.11c2.6.6,28.66-34.74,32.63-34.71,1.39,0,4.26,2.47,5.49,3.48,8.57,7.01,27.18,29.57,35.18,33.36,10.67,5.05-1.96-7.24-2.97-9.94Z"/>
    </g>
    <path class="cls-1" d="M353.64,131.06c0-.3.31-.27.53-.05,7.76,7.87,15.63,16.5,23.32,24.44,7.81,8.09,23.33,23.69,22.7,25.48.03.5-.44.35-.75.07-8.18-7.33-15.83-16.24-23.1-24.46-7.42-8.45-15.89-16.98-22.7-25.48h0Z"/>
    <path class="cls-1" d="M352.59,131.31c-7.38,9.86-15.11,19.49-23.55,28.51-2.92,3.09-8.56,9.16-8.83,9.21s-.25-.23-.25-.23c7.92-9.36,14.79-19.9,23.02-28.98,2.89-3.12,5.8-6.22,8.97-9.09,0,0,.36-.06.48.1s.17.48.17.48h0Z"/>
    <polygon class="cls-1" points="387.31 193.23 387.33 186.22 363.79 186.22 363.79 193.32 387.31 193.23"/>
    <polygon class="cls-1" points="387.37 204.92 387.37 197.33 363.79 197.29 363.79 205.02 387.37 204.92"/>
    <path class="cls-1" d="M391.87,175.65l-35.55-34.9v2.78l34.16,33.53s.95.12,1.22-.18.17-1.24.17-1.24Z"/>
    <path class="cls-1" d="M335.9,155.71c-4.45,4.74-9.14,9.8-12.59,15.34-.14.22-.2.55.07.51,5.22-3.68,9.59-9.67,13.73-14.82,3.62-4.51,7.19-9.05,10.75-13.61v-.57c-4.04,3.99-7.99,8.96-11.96,13.15Z"/>
    <polygon class="cls-1" points="366.72 157.45 359.93 150.94 356.32 150.94 356.32 157.45 366.72 157.45"/>
    <polygon class="cls-1" points="347.69 150.94 341.99 157.45 347.87 157.45 347.87 150.94 347.69 150.94"/>
    <polygon class="cls-1" points="376.59 166.93 370.86 161.43 356.32 161.43 356.32 166.93 376.59 166.93"/>
    <polygon class="cls-1" points="338.51 161.43 333.7 166.93 347.87 166.93 347.87 161.43 338.51 161.43"/>
    <polygon class="cls-1" points="385.66 175.64 380.73 170.9 356.32 170.9 356.32 175.64 385.66 175.64"/>
    <polyline class="cls-1" points="353.61 150.94 353.59 135.75 351.6 135.76 351.62 150.94 351.61 150.94 351.61 157.45 351.61 161.43 351.61 166.93 351.61 170.9 351.61 175.64 351.61 176.36 353.6 176.36 353.6 175.64 353.6 170.9 353.6 166.93 353.6 161.43 353.6 157.45 353.6 150.94"/>
    <polygon class="cls-1" points="342.39 186.4 342.39 193.32 342.39 197.29 342.39 205.02 360.92 205.02 360.92 197.29 360.92 193.32 360.92 186.4 342.39 186.4"/>
    <polygon class="cls-1" points="129.28 185.31 129.17 192.85 152.43 192.64 152.43 185.54 129.28 185.31"/>
    <polygon class="cls-1" points="129.17 196.78 129.17 204.43 152.43 204.35 152.43 196.62 129.17 196.78"/>
    <path class="cls-1" d="M124.44,174.97s-.18.63.25,1.12c.44.49,1.14.29,1.14.29l34.16-33.53v-2.78l-35.55,34.89Z"/>
    <path class="cls-1" d="M180.21,156.08c4.44,5.38,9.1,10.53,14.56,14.93.25-.02.16-.3,0-.52-3.52-5.33-8.86-10.75-13.39-15.47-4.28-4.46-8.6-8.87-12.94-13.27v.54c3.55,4.61,8.04,9.24,11.76,13.8Z"/>
    <path class="cls-1" d="M162.77,130.75s-.03,0-.04,0c.02,0,.04,0,.04,0Z"/>
    <path class="cls-1" d="M162.73,130.74s-.04,0,0,0h0Z"/>
    <path class="cls-1" d="M162.77,130.75c-.58.52-1.16,1.08-1.74,1.62-.35.32-.69.64-1.04.97-7.01,6.69-14.23,14.7-21.22,21.66-7.53,7.66-16.19,15.43-22.71,23.93-.39.51-.63,1.48-.13,1.54,15.84-13.86,29.78-30.59,44.06-46.25.57-.62,1.13-1.25,1.7-1.86.23-.25.45-.5.68-.75.3-.33.65-.83.4-.88Z"/>
    <path class="cls-1" d="M190.09,158.39c-6.72-7.73-13.76-16.35-21.13-23.84v-.1c-.61-.61-1.22-1.21-1.84-1.81-.89-.87-1.78-1.74-2.68-2.57,0,0-.55-.21-.74.05-.19.26.03.6.03.6.48.66,1.02,1.28,1.52,1.93,1.21,1.57,2.44,3.12,3.72,4.63v-.11c.95,1.12,1.91,2.23,2.88,3.34,8.11,9.04,17.63,19.22,26.06,27.99.09.09.31-.03.37-.08.05-.06.07-.27.07-.27-2.72-3.27-5.48-6.51-8.25-9.74Z"/>
    <polygon class="cls-1" points="156.38 150.26 149.59 156.78 159.99 156.78 159.99 150.26 156.38 150.26"/>
    <polygon class="cls-1" points="175.19 156.78 169.05 150.26 168.45 150.26 168.45 156.78 175.19 156.78"/>
    <polygon class="cls-1" points="145.45 160.75 139.72 166.25 159.99 166.25 159.99 160.75 145.45 160.75"/>
    <polygon class="cls-1" points="184.12 166.25 178.94 160.75 168.45 160.75 168.45 166.25 184.12 166.25"/>
    <polygon class="cls-1" points="135.59 170.22 130.65 174.96 159.99 174.96 159.99 170.22 135.59 170.22"/>
    <polygon class="cls-1" points="162.71 135.08 162.71 144.18 162.71 146.29 162.71 150.26 162.71 156.78 162.71 160.75 162.71 166.25 162.71 170.22 162.71 174.96 162.71 175.68 164.7 175.68 164.7 174.96 164.7 170.22 164.7 166.25 164.7 160.75 164.7 156.78 164.7 150.26 164.7 146.29 164.7 145.65 164.7 135.08 162.71 135.08"/>
    <polygon class="cls-1" points="155.29 185.44 155.29 191.57 155.29 195.9 155.29 204.31 155.29 204.75 175.81 204.75 175.81 204.31 175.81 195.9 175.81 191.57 175.81 185.44 155.29 185.44"/>
    <polygon class="cls-1" points="285.55 152.04 232.54 152.04 225.73 158.32 292.39 158.33 285.55 152.04"/>
    <polygon class="cls-1" points="289.12 168.32 289.12 169.86 304.92 169.86 296.71 162.3 221.42 162.29 213.22 169.86 229.83 169.86 229.83 168.32 289.12 168.32"/>
    <polygon class="cls-1" points="264.62 132.78 253.42 132.78 236.85 148.07 281.24 148.07 264.62 132.78"/>
    <polygon class="cls-1" points="321.59 204.87 321.59 197.16 289.12 196.91 289.12 204.99 321.59 204.87"/>
    <rect class="cls-1" x="195.55" y="196.91" width="34.28" height="8.08"/>
    <polygon class="cls-1" points="321.59 192.74 321.43 185.36 289.12 185.37 289.12 192.93 321.59 192.74"/>
    <rect class="cls-1" x="195.55" y="185.37" width="34.28" height="7.56"/>
    <polygon class="cls-1" points="317.46 181.4 309.24 173.83 289.12 173.83 289.12 181.4 317.46 181.4"/>
    <polygon class="cls-1" points="208.91 173.83 200.71 181.4 229.83 181.4 229.83 173.83 208.91 173.83"/>
    <path class="cls-1" d="M289.12,208.57h0v-40.25h-59.29v40.25h-34.11v11.92l125.87-.11v-11.58l-32.47-.23ZM257.76,173.83v33.92h-25.21v-37.6h25.21v3.68ZM286.39,173.83v33.97h-25.21v-37.6h25.21v3.63Z"/>
    <polygon class="cls-1" points="237.1 174.9 237.1 181.4 237.1 182.39 243.71 182.39 243.71 181.4 243.71 174.9 237.1 174.9"/>
    <polygon class="cls-1" points="246.61 174.9 246.61 181.4 246.61 182.39 253.21 182.39 253.21 181.4 253.21 174.9 246.61 174.9"/>
    <polygon class="cls-1" points="237.1 185.16 237.1 185.37 237.1 192.64 243.71 192.64 243.71 185.37 243.71 185.16 237.1 185.16"/>
    <polygon class="cls-1" points="246.61 185.16 246.61 185.37 246.61 192.64 253.21 192.64 253.21 185.37 253.21 185.16 246.61 185.16"/>
    <polygon class="cls-1" points="237.1 195.52 237.1 196.91 237.1 203 243.71 203 243.71 196.91 243.71 195.52 237.1 195.52"/>
    <polygon class="cls-1" points="246.61 195.52 246.61 196.91 246.61 203 253.21 203 253.21 196.91 253.21 195.52 246.61 195.52"/>
    <polygon class="cls-1" points="265.73 174.95 265.73 181.4 265.73 182.44 272.34 182.44 272.34 181.4 272.34 174.95 265.73 174.95"/>
    <polygon class="cls-1" points="275.24 174.95 275.24 181.4 275.24 182.44 281.84 182.44 281.84 181.4 281.84 174.95 275.24 174.95"/>
    <polygon class="cls-1" points="265.73 185.21 265.73 185.37 265.73 192.69 272.34 192.69 272.34 185.37 272.34 185.21 265.73 185.21"/>
    <polygon class="cls-1" points="275.24 185.21 275.24 185.37 275.24 192.69 281.84 192.69 281.84 185.37 281.84 185.21 275.24 185.21"/>
    <polygon class="cls-1" points="265.73 195.57 265.73 196.91 265.73 203.06 272.34 203.06 272.34 196.91 272.34 195.57 265.73 195.57"/>
    <polygon class="cls-1" points="275.24 195.57 275.24 196.91 275.24 203.06 281.84 203.06 281.84 196.91 281.84 195.57 275.24 195.57"/>
    <g>
      <path class="cls-1" d="M186.75,182.96s.19.25.52.31c.33.07,1-.05,1-.05l68.73-64.61v-2.62s-70.24,66.96-70.24,66.96Z"/>
      <path class="cls-1" d="M327.02,178.53l-66.04-61.82v2.63s66.05,60.97,66.05,60.97l2.89,2.67s.24.38.93.41c.68.03.94-.4.94-.4l-4.77-4.46Z"/>
      <path class="cls-1" d="M260.84,126.38l59.55,55.32s.85.94,2.33.94,2.4-.92,2.4-.92l-64.16-60.52-.02,4.64c0,.21-.04.39-.11.54Z"/>
      <path class="cls-1" d="M256.97,125.83v-3.98s-63.87,59.61-63.87,59.61c0,0,.83.76,2.4.76s3.16-.76,3.16-.76l58.72-54.67c-.25-.21-.41-.51-.41-.96Z"/>
      <path class="cls-1" d="M259.04,101.61h0c-1.09,0-1.98.88-1.99,1.98l-.04,12.41v2.62s-.02,3.23-.02,3.23v3.98c-.01.45.14.75.39.96.36.3.93.39,1.57.4h0c.88,0,1.62-.17,1.88-.8.06-.15.11-.33.11-.54l.02-4.64v-1.86s.02-2.63.02-2.63l.04-13.11c0-1.1-.88-1.99-1.98-1.99Z"/>
    </g>
    <g>
      <polygon class="cls-1" points="333.79 186.24 333.57 186.24 333.57 186.24 333.79 186.24"/>
      <polygon class="cls-1" points="335.56 197.32 333.57 197.32 333.57 197.33 335.56 197.32"/>
      <polygon class="cls-1" points="334.16 175.62 348.15 175.65 348.15 170.91 330.51 170.91 327.29 173.98 327.36 175.62 334.16 175.62 334.16 175.62"/>
      <polygon class="cls-1" points="334.67 193.33 334.67 193.32 339.81 193.33 339.81 186.23 334.93 186.24 334.93 186.24 334.85 186.24 334.67 186.24 334.67 186.24 332.82 186.24 332.85 193.33 334.67 193.33"/>
      <polygon class="cls-1" points="339.81 205.03 339.81 197.3 337.87 197.31 337.87 197.32 336.25 197.32 334.57 197.33 334.57 197.32 332.73 197.32 332.77 205.03 336.13 205.03 336.13 205.04 339.81 205.03"/>
      <polygon class="cls-1" points="387.42 208.64 334.89 208.6 334.89 208.59 332.83 208.59 332.83 209.86 332.73 216.59 332.84 220.49 387.37 220.49 387.42 208.64"/>
      <polygon class="cls-1" points="337.5 197.31 335.56 197.32 337.5 197.32 337.5 197.31"/>
      <polygon class="cls-1" points="333.88 186.24 333.79 186.24 333.88 186.24 333.88 186.24"/>
      <polygon class="cls-1" points="387.48 183.23 387.46 179.62 333.54 179.61 333.54 179.6 332.73 179.6 332.73 183.27 333.88 183.27 333.88 183.27 387.48 183.23"/>
    </g>
    <g>
      <polygon class="cls-1" points="187.36 175.02 190.86 175.02 190.86 173.38 187.95 170.29 168.53 170.29 168.53 175.03 187.36 175.03 187.36 175.02"/>
      <polygon class="cls-1" points="179.42 182.62 185.14 182.62 185.14 178.98 183.7 178.98 183.7 179 129.21 179 129.14 182.63 179.42 182.63 179.42 182.62"/>
      <polygon class="cls-1" points="184.99 207.99 180.44 207.99 180.44 207.99 129.17 208.25 129.28 220.49 184.99 220.42 185.06 216.08 184.99 209.03 184.99 207.99"/>
      <polygon class="cls-1" points="182.57 185.61 182.57 185.61 178.77 185.61 178.77 192.71 181.96 192.71 181.96 192.7 185.22 192.7 185.23 185.61 182.57 185.61"/>
      <polygon class="cls-1" points="185.22 204.42 185.23 196.68 182.61 196.68 182.61 196.69 178.51 196.69 178.51 204.42 182.42 204.42 182.42 204.42 185.22 204.42"/>
    </g>
  </g>
  <g>
    <path class="cls-1" d="M30.86,247.63c.58-.14.99-.2,1.23-.18.24.02.48.06.72.11.29.19.53.43.72.72,0,1.01-.01,2.01-.04,3-.02.99-.04,1.99-.04,3,0,1.83.02,3.66.07,5.49.05,1.83.05,3.66,0,5.49.1.43.12.67.07.72-.05.05-.07.12-.07.22,0,1.83.05,3.64.14,5.42.1,1.78.14,3.59.14,5.42v9.61c0,2.07.06,4.12.18,6.14.12,2.02.18,4.05.18,6.07,0,.19-.12.46-.36.79-.1.39-.24.7-.43.94-.43.05-.84-.02-1.23-.22-.19,0-.33.06-.4.18-.07.12-.18.23-.33.33-.39,0-.7.1-.94.29-.24.19-.53.29-.87.29-.29,0-.57-.04-.83-.11-.27-.07-.57-.11-.9-.11-.1,0-.24.08-.43.25-.19.17-.34.28-.43.33-.24,0-.46.04-.65.11-.19.07-.41.11-.65.11-.24-.19-.35-.48-.33-.87.02-.38-.13-.63-.47-.72,0-.24.01-.51.04-.79.02-.29.04-.58.04-.87,0-1.88-.05-3.77-.14-5.67-.1-1.9-.17-3.79-.22-5.67-.05-.82-.06-1.63-.04-2.42.02-.79.04-1.6.04-2.42v-1.3c0-.43-.05-.84-.14-1.23-.29-.05-.54-.01-.76.11-.22.12-.45.18-.69.18-1.01.34-1.69.67-2.02,1.01-.29,0-.53.05-.72.14-.19.1-.41.19-.65.29-.39.1-.76.18-1.12.25s-.73.18-1.12.33c-.24.1-.48.19-.72.29-.24.1-.48.19-.72.29-.53.19-1.06.37-1.59.54-.53.17-1.06.35-1.59.54-.53.1-.99.24-1.37.43-.39.19-.77.39-1.16.58-.34,2.26-.52,4.42-.54,6.47-.02,2.05.04,4.08.18,6.11-.1.29-.14.61-.14.98s-.07.66-.22.9c-.53.14-.88.16-1.05.04-.17-.12-.35-.23-.54-.33-.19.05-.35.14-.47.29-.12.14-.23.27-.33.36-.39,0-.69.08-.9.25-.22.17-.42.3-.61.4-.14.05-.29.05-.43,0-.14-.05-.31-.02-.51.07-.48,0-.71-.06-.69-.18.02-.12-.04-.18-.18-.18-.19,0-.33.08-.4.25-.07.17-.21.3-.4.4-.19.1-.41.16-.65.18-.24.02-.48.08-.72.18-.24-.24-.36-.51-.36-.79s-.12-.55-.36-.79c-.1-.67-.16-1.34-.18-1.99-.02-.65-.11-1.31-.25-1.99.1-1.35.13-2.43.11-3.25-.02-.82-.04-1.66-.04-2.53,0-.77-.02-1.54-.07-2.31-.05-.77-.1-1.54-.14-2.31-.1-1.4-.18-2.82-.25-4.26s-.11-2.89-.11-4.34c0-1.2.06-2.38.18-3.54.12-1.16.18-2.34.18-3.54,0-.82.01-1.63.04-2.42.02-.79.04-1.6.04-2.42,0-.67-.01-1.34-.04-1.99-.02-.65-.04-1.29-.04-1.92,0-.72.05-1.43.14-2.13.1-.7.14-1.38.14-2.06,0-.82-.05-1.63-.14-2.42-.1-.79-.14-1.6-.14-2.42,0-.24.02-.47.07-.69.05-.22.07-.45.07-.69-.05-.53-.02-.85.07-.98.1-.12.19-.28.29-.47.24-.05.51-.12.79-.22.29-.1.55-.1.79,0,.29-.29.69-.43,1.19-.43s.88-.17,1.12-.51c.34.05.57.06.69.04.12-.02.23-.04.33-.04.43.1.66.08.69-.04.02-.12.11-.18.25-.18.24,0,.61.01,1.12.04.51.02.85.13,1.05.33.48,2.55.75,5.16.79,7.8.05,2.65.07,5.28.07,7.88,0,.67.02,1.36.07,2.06.05.7.02,1.39-.07,2.06,0,.29-.02.57-.07.83-.05.27-.07.54-.07.83,0,.82-.05,1.67-.14,2.57-.1.89-.14,1.75-.14,2.57.58.34,1.07.45,1.48.33.41-.12.81-.25,1.19-.4.48-.14.93-.3,1.34-.47.41-.17.83-.33,1.26-.47.39-.19.81-.35,1.26-.47.46-.12.88-.23,1.26-.33,1.25-.43,2.48-.96,3.69-1.59,1.2-.63,2.43-1.13,3.69-1.52-.1-2.65-.14-5.29-.14-7.91v-10.08c0-.77.05-1.52.14-2.24.05-.19.11-.35.18-.47.07-.12.11-.3.11-.54.14-.24.31-.41.51-.51.19-.1.34-.24.43-.43.1.1.2.18.33.25.12.07.25.13.4.18.39-.1.61-.17.69-.22.07-.05.16-.1.25-.14.24-.1.55-.14.94-.14h1.81l.72.22Z"/>
    <path class="cls-1" d="M77.76,272.42c-.1.19-.19.37-.29.54-.1.17-.17.35-.22.54.19.19.37.4.54.61.17.22.25.45.25.69,0,.19-.04.37-.11.54-.07.17-.08.33-.04.47-.19.34-.4.65-.61.94s-.37.6-.47.94c-.19.19-.35.39-.47.58-.12.19-.23.39-.33.58-.24.1-.4.25-.47.47s-.21.4-.4.54c-.05.19-.29.65-.72,1.37s-.92,1.49-1.45,2.31c-.53.82-1.04,1.61-1.52,2.38-.48.77-.82,1.28-1.01,1.52-.1.24-.21.43-.33.58-.12.14-.25.31-.4.51-.1.14-.17.3-.22.47-.05.17-.12.3-.22.4-.1.19-.21.36-.33.51-.12.14-.23.34-.33.58-.48.63-.96,1.37-1.45,2.24-.48.87-.94,1.64-1.37,2.31-.24.39-.47.77-.69,1.16-.22.39-.45.77-.69,1.16-.24.39-.48.75-.72,1.08-.24.34-.48.7-.72,1.08-.39.29-.72.64-1.01,1.05-.29.41-.63.76-1.01,1.05-.63,0-1.01-.29-1.16-.87-.63-.14-.94-.14-.94,0v.36c-.19.1-.33.24-.4.43-.07.19-.21.34-.4.43-.39-.1-.71-.25-.98-.47-.27-.22-.64-.3-1.12-.25-.19-.29-.41-.54-.65-.76-.24-.22-.46-.45-.65-.69-.1-.29-.23-.53-.4-.72-.17-.19-.33-.38-.47-.58-.14-.24-.29-.46-.43-.65-.14-.19-.29-.38-.43-.58-.34-.43-.66-.85-.98-1.26-.31-.41-.59-.83-.83-1.26-.39-.58-.76-1.17-1.12-1.77-.36-.6-.73-1.19-1.12-1.77-.19-.29-.39-.58-.58-.87-.19-.29-.36-.58-.51-.87-.1-.24-.23-.53-.4-.87-.17-.34-.37-.55-.61-.65-.1-.38-.27-.67-.51-.87-.24-.19-.48-.43-.72-.72-.34-.38-.65-.81-.94-1.26-.29-.46-.58-.93-.87-1.41-.96-1.35-1.87-2.67-2.71-3.97-.84-1.3-1.67-2.65-2.49-4.05.24-.77.36-1.35.36-1.73s.12-.7.36-.94c0-.19.05-.48.14-.87.63-1.06,1.23-2.02,1.81-2.89.53-.82.9-1.49,1.12-2.02.22-.53.44-1.08.69-1.66.24-.14.43-.33.58-.54s.34-.42.58-.61c.1-.53.31-.98.65-1.34.34-.36.55-.81.65-1.34.43-.34.67-.72.72-1.16.63-.43,1.01-1.01,1.16-1.73.39-.38.71-.82.98-1.3.26-.48.52-.99.76-1.52.58-.48,1.04-1.11,1.37-1.88.29-.19.51-.46.65-.79.14-.34.34-.63.58-.87.39-.63.69-1.14.9-1.55.22-.41.44-.83.69-1.26.34,0,.55-.12.65-.36.1-.24.29-.34.58-.29,0-.43.12-.82.36-1.16.1-.05.24-.11.43-.18.19-.07.29-.16.29-.25-.1-.58-.07-.92.07-1.01.14-.1.26-.19.36-.29.53.1.89.17,1.08.22.19.05.51.22.94.51.48,0,.82.1,1.01.29.19.19.41.34.65.43.19.19.35.39.47.58.12.19.3.34.54.43.39.53.79,1.11,1.23,1.73.43.63.84,1.21,1.23,1.73.53.72,1.07,1.41,1.63,2.06.55.65,1.07,1.36,1.55,2.13.14.24.41.66.79,1.26.39.6.82,1.24,1.3,1.92.48.67.91,1.29,1.3,1.84.39.55.65.88.79.98.14.24.46.7.94,1.37.48.67,1,1.39,1.55,2.13.55.75,1.1,1.46,1.63,2.13.53.67.89,1.11,1.08,1.3.53.72.93,1.31,1.19,1.77.26.46.52.95.76,1.48ZM61.21,286c.53-.72.94-1.37,1.23-1.95l.87-1.73c.48-.58.77-.99.87-1.23.1-.24.22-.48.36-.72.39-.58.78-1.16,1.19-1.73.41-.58.73-1.2.98-1.88.29-.19.51-.43.65-.72s.36-.55.65-.79c-.29-1.01-.63-1.79-1.01-2.35-.39-.55-.77-1.1-1.16-1.63-.14-.24-.29-.48-.43-.72-.14-.24-.29-.48-.43-.72-.19-.14-.35-.29-.47-.43-.12-.14-.25-.29-.4-.43-.1-.24-.24-.55-.43-.94-.19-.24-.39-.46-.58-.65-.19-.19-.36-.43-.51-.72-.19-.19-.43-.46-.72-.79-.29-.34-.59-.71-.9-1.12-.31-.41-.59-.79-.83-1.16-.24-.36-.43-.66-.58-.9-.1-.24-.18-.45-.25-.61-.07-.17-.16-.35-.25-.54-.24-.34-.48-.64-.72-.9-.24-.26-.48-.57-.72-.9-.14.1-.28.16-.4.18-.12.02-.23.08-.33.18-.34.63-.71,1.21-1.12,1.73-.41.53-.81,1.11-1.19,1.73-.34.58-.68,1.17-1.01,1.77-.34.6-.68,1.19-1.01,1.77-.24.34-.47.66-.69.98-.22.31-.45.66-.69,1.05-.24.34-.45.69-.61,1.05-.17.36-.37.71-.61,1.05-.39.48-.7.92-.94,1.3-.24.39-.48.84-.72,1.37.14.29.37.69.69,1.19.31.51.64,1.01.98,1.52.34.51.64.98.9,1.41.26.43.42.72.47.87.39.34.7.71.94,1.12.24.41.55.81.94,1.19.19.39.41.72.65,1.01.24.29.48.6.72.94.24.34.55.83.94,1.48.39.65.77,1.31,1.16,1.99.39.67.77,1.3,1.16,1.88.39.58.7.94.94,1.08.48-.53.88-1.12,1.19-1.77.31-.65.73-1.24,1.26-1.77Z"/>
    <path class="cls-1" d="M107.53,245.54c.39,0,.66.08.83.25.17.17.3.37.4.61.48-.05.98.04,1.48.25s.81.42.9.61c.39.05.63.14.72.29.1.14.24.24.43.29l.79-.07c.19.19.57.39,1.12.58.55.19.88.41.98.65-.1.24-.13.49-.11.76.02.27.04.57.04.9-.14.72-.37,1.37-.69,1.95-.31.58-.59,1.13-.83,1.66-.14.24-.25.51-.33.79s-.16.55-.25.79c-.1.19-.18.37-.25.54-.07.17-.16.35-.25.54,0,.24-.05.49-.14.76-.1.27-.19.52-.29.76,0,.29-.02.49-.07.61-.05.12-.07.23-.07.33-.92,2.22-1.64,4.29-2.17,6.21-.53,1.93-1.06,3.85-1.59,5.78-.24.58-.48,1.3-.72,2.17-.24.87-.54,1.89-.9,3.07-.36,1.18-.75,2.43-1.16,3.76-.41,1.33-.79,2.55-1.16,3.69-.36,1.13-.68,2.1-.94,2.89-.27.79-.42,1.24-.47,1.34-.14.82-.36,1.65-.65,2.49-.29.84-.53,1.72-.72,2.64-.24.29-.39.61-.43.98-.05.36-.17.71-.36,1.05-.39-.05-.7.05-.94.29-.05.39-.01.75.11,1.08.12.34.18.7.18,1.08-.19.53-.43.87-.72,1.01s-.48.39-.58.72c-.34-.1-.59-.05-.76.14-.17.19-.35.29-.54.29-.58-.14-.92-.05-1.01.29-.29-.1-.48-.06-.58.11-.1.17-.19.28-.29.33-.39,0-.69.08-.9.25s-.47.28-.76.33c-.19-.1-.39-.21-.58-.33-.19-.12-.36-.25-.51-.4-.29-.82-.55-1.63-.79-2.42-.24-.79-.48-1.6-.72-2.42-.1-.38-.22-.75-.36-1.08-.14-.34-.27-.7-.36-1.08-.05-.24-.07-.45-.07-.61s-.02-.35-.07-.54c-.1-.24-.19-.48-.29-.72-.1-.24-.19-.48-.29-.72-.39-1.06-.68-2.14-.87-3.25-.24-.82-.47-1.63-.69-2.42s-.42-1.6-.61-2.42c-.14-.67-.31-1.38-.51-2.13-.19-.75-.43-1.41-.72-1.99-.1-.77-.3-1.5-.61-2.2-.31-.7-.47-1.41-.47-2.13-.24-.77-.45-1.54-.61-2.31-.17-.77-.37-1.54-.61-2.31-.1-.38-.22-.75-.36-1.08-.14-.34-.27-.67-.36-1.01-.14-.43-.27-.89-.36-1.37-.1-.48-.19-.96-.29-1.45-.14-.43-.29-.85-.43-1.26-.14-.41-.29-.83-.43-1.26-.24-.82-.47-1.63-.69-2.42s-.45-1.6-.69-2.42c-.24-.92-.47-1.82-.69-2.71-.22-.89-.59-1.75-1.12-2.57-.14-.24-.25-.52-.33-.83-.07-.31-.18-.61-.33-.9.1-.38.12-.83.07-1.34-.05-.51.02-.9.22-1.19.48,0,1.06-.01,1.73-.04.67-.02,1.18.01,1.52.11.19-.05.35-.12.47-.22.12-.1.28-.17.47-.22.29.14.58.22.87.22.43,0,.77-.1,1.01-.29.53.24.82.29.87.14.05-.14.17-.22.36-.22.29.1.51.3.65.61.14.31.29.59.43.83.53.96.93,1.92,1.19,2.85.26.94.54,1.94.83,3,.34.96.65,1.92.94,2.85s.55,1.89.79,2.85c.14.48.26.96.36,1.45.1.48.19.96.29,1.45.14.53.31,1.02.51,1.48.19.46.39.95.58,1.48.1.53.19,1.05.29,1.55.1.51.22,1.02.36,1.55.1.39.22.75.36,1.08.14.34.26.7.36,1.08.1.39.19.78.29,1.19.1.41.19.81.29,1.19.24.96.51,1.92.79,2.85s.55,1.89.79,2.85c.24-.14.39-.41.43-.79.05-.38.14-.7.29-.94.1-.58.25-1.2.47-1.88.22-.67.42-1.3.61-1.88.05-.24.11-.46.18-.65.07-.19.16-.41.25-.65.14-.29.24-.59.29-.9.05-.31.12-.64.22-.98.19-.67.4-1.35.61-2.02.22-.67.42-1.35.61-2.02.19-.63.36-1.28.51-1.95.14-.67.34-1.3.58-1.88.24-.53.44-1.04.61-1.52.17-.48.33-.99.47-1.52.14-.53.26-1.06.36-1.59.1-.53.26-1.01.51-1.45.1-.24.2-.52.33-.83.12-.31.23-.61.33-.9.24-.77.46-1.54.65-2.31.19-.77.46-1.54.79-2.31.24-.67.53-1.32.87-1.95.34-.63.63-1.28.87-1.95.19-.48.36-.79.51-.94l.43-.43Z"/>
    <path class="cls-1" d="M176.33,247.63c.58-.14.99-.2,1.23-.18.24.02.48.06.72.11.29.19.53.43.72.72,0,1.01-.01,2.01-.04,3-.02.99-.04,1.99-.04,3,0,1.83.02,3.66.07,5.49.05,1.83.05,3.66,0,5.49.1.43.12.67.07.72-.05.05-.07.12-.07.22,0,1.83.05,3.64.14,5.42.1,1.78.14,3.59.14,5.42v9.61c0,2.07.06,4.12.18,6.14.12,2.02.18,4.05.18,6.07,0,.19-.12.46-.36.79-.1.39-.24.7-.43.94-.43.05-.84-.02-1.23-.22-.19,0-.33.06-.4.18-.07.12-.18.23-.33.33-.39,0-.7.1-.94.29-.24.19-.53.29-.87.29-.29,0-.57-.04-.83-.11-.27-.07-.57-.11-.9-.11-.1,0-.24.08-.43.25-.19.17-.34.28-.43.33-.24,0-.46.04-.65.11-.19.07-.41.11-.65.11-.24-.19-.35-.48-.33-.87.02-.38-.13-.63-.47-.72,0-.24.01-.51.04-.79.02-.29.04-.58.04-.87,0-1.88-.05-3.77-.14-5.67-.1-1.9-.17-3.79-.22-5.67-.05-.82-.06-1.63-.04-2.42.02-.79.04-1.6.04-2.42v-1.3c0-.43-.05-.84-.14-1.23-.29-.05-.54-.01-.76.11-.22.12-.45.18-.69.18-1.01.34-1.69.67-2.02,1.01-.29,0-.53.05-.72.14-.19.1-.41.19-.65.29-.39.1-.76.18-1.12.25s-.73.18-1.12.33c-.24.1-.48.19-.72.29-.24.1-.48.19-.72.29-.53.19-1.06.37-1.59.54-.53.17-1.06.35-1.59.54-.53.1-.99.24-1.37.43-.39.19-.77.39-1.16.58-.34,2.26-.52,4.42-.54,6.47-.02,2.05.04,4.08.18,6.11-.1.29-.14.61-.14.98s-.07.66-.22.9c-.53.14-.88.16-1.05.04-.17-.12-.35-.23-.54-.33-.19.05-.35.14-.47.29-.12.14-.23.27-.33.36-.39,0-.69.08-.9.25-.22.17-.42.3-.61.4-.14.05-.29.05-.43,0-.14-.05-.31-.02-.51.07-.48,0-.71-.06-.69-.18.02-.12-.04-.18-.18-.18-.19,0-.33.08-.4.25-.07.17-.21.3-.4.4-.19.1-.41.16-.65.18-.24.02-.48.08-.72.18-.24-.24-.36-.51-.36-.79s-.12-.55-.36-.79c-.1-.67-.16-1.34-.18-1.99-.02-.65-.11-1.31-.25-1.99.1-1.35.13-2.43.11-3.25-.02-.82-.04-1.66-.04-2.53,0-.77-.02-1.54-.07-2.31-.05-.77-.1-1.54-.14-2.31-.1-1.4-.18-2.82-.25-4.26s-.11-2.89-.11-4.34c0-1.2.06-2.38.18-3.54.12-1.16.18-2.34.18-3.54,0-.82.01-1.63.04-2.42.02-.79.04-1.6.04-2.42,0-.67-.01-1.34-.04-1.99-.02-.65-.04-1.29-.04-1.92,0-.72.05-1.43.14-2.13.1-.7.14-1.38.14-2.06,0-.82-.05-1.63-.14-2.42-.1-.79-.14-1.6-.14-2.42,0-.24.02-.47.07-.69.05-.22.07-.45.07-.69-.05-.53-.02-.85.07-.98.1-.12.19-.28.29-.47.24-.05.51-.12.79-.22.29-.1.55-.1.79,0,.29-.29.69-.43,1.19-.43s.88-.17,1.12-.51c.34.05.57.06.69.04.12-.02.23-.04.33-.04.43.1.66.08.69-.04.02-.12.11-.18.25-.18.24,0,.61.01,1.12.04.51.02.85.13,1.05.33.48,2.55.75,5.16.79,7.8.05,2.65.07,5.28.07,7.88,0,.67.02,1.36.07,2.06.05.7.02,1.39-.07,2.06,0,.29-.02.57-.07.83-.05.27-.07.54-.07.83,0,.82-.05,1.67-.14,2.57-.1.89-.14,1.75-.14,2.57.58.34,1.07.45,1.48.33.41-.12.81-.25,1.19-.4.48-.14.93-.3,1.34-.47.41-.17.83-.33,1.26-.47.39-.19.81-.35,1.26-.47.46-.12.88-.23,1.26-.33,1.25-.43,2.48-.96,3.69-1.59,1.2-.63,2.43-1.13,3.69-1.52-.1-2.65-.14-5.29-.14-7.91v-10.08c0-.77.05-1.52.14-2.24.05-.19.11-.35.18-.47.07-.12.11-.3.11-.54.14-.24.31-.41.51-.51.19-.1.34-.24.43-.43.1.1.2.18.33.25.12.07.25.13.4.18.39-.1.61-.17.69-.22.07-.05.16-.1.25-.14.24-.1.55-.14.94-.14h1.81l.72.22Z"/>
    <path class="cls-1" d="M218.24,249.94c-.53.96-1.13,2.1-1.81,3.4-.68,1.3-1.2,2.43-1.59,3.4-.14.34-.28.66-.4.98-.12.31-.25.64-.4.98-.24.72-.54,1.41-.9,2.06s-.69,1.34-.98,2.06c-.43.96-.88,1.94-1.34,2.93-.46.99-.9,2.01-1.34,3.07-.48.96-.86,1.79-1.12,2.49-.27.7-.54,1.41-.83,2.13s-.54,1.43-.76,2.13c-.22.7-.4,1.34-.54,1.92-.43.77-.79,1.35-1.08,1.73-.1.87-.19,1.73-.29,2.6-.1.87-.14,1.76-.14,2.67,0,.43.04.86.11,1.26.07.41.13.83.18,1.26.05.63.06,1.24.04,1.84-.02.6-.01,1.22.04,1.84.05,1.21.11,2.4.18,3.58.07,1.18.13,2.4.18,3.65.05.87.01,1.6-.11,2.2-.12.6-.16,1.22-.11,1.84-.14.1-.3.17-.47.22-.17.05-.33.12-.47.22-.53,0-.88-.01-1.05-.04-.17-.02-.33.01-.47.11-.43-.29-.68-.42-.72-.4-.05.02-.1.04-.14.04-.58-.19-.89-.34-.94-.43-.05-.1-.14-.19-.29-.29-.53,0-.96.07-1.3.22-.14-.1-.27-.19-.36-.29-.1-.1-.22-.19-.36-.29-.43-.05-.79-.11-1.08-.18s-.53-.16-.72-.25c-.14-.38-.3-.72-.47-1.01-.17-.29-.25-.67-.25-1.16,0-.38.05-.75.14-1.08.1-.34.17-.7.22-1.08,0-.24-.01-.46-.04-.65-.02-.19-.04-.41-.04-.65s.05-.55.14-.94c-.14-1.11-.21-2.28-.18-3.5.02-1.23.04-2.4.04-3.5s-.1-2.14-.29-3.11c.05-.63.05-1.07,0-1.34-.05-.26-.07-.54-.07-.83,0-.24.02-.49.07-.76.05-.26.07-.52.07-.76,0-.05-.04-.3-.11-.76-.07-.46-.16-.94-.25-1.45-.1-.51-.19-.99-.29-1.45-.1-.46-.14-.73-.14-.83-.48-.87-.84-1.69-1.08-2.46-.24-.77-.51-1.42-.79-1.95-.19-.38-.39-.77-.58-1.16-.19-.38-.36-.79-.51-1.23-.1-.24-.18-.51-.25-.79s-.16-.55-.25-.79c-.19-.38-.37-.81-.54-1.26-.17-.46-.37-.83-.61-1.12-.19-.43-.37-.83-.54-1.19-.17-.36-.25-.71-.25-1.05-.14-.58-.37-1.1-.69-1.55-.31-.46-.59-.93-.83-1.41-.14-.29-.25-.55-.33-.79-.07-.24-.16-.48-.25-.72-.1-.19-.23-.43-.4-.72-.17-.29-.35-.51-.54-.65-.1-.43-.27-.82-.51-1.16-.24-.34-.41-.72-.51-1.16-.24-.34-.51-.67-.79-1.01-.19-.72-.46-1.38-.79-1.99-.34-.6-.65-1.24-.94-1.92.19-1.01.75-1.64,1.66-1.88.48-.58.77-.89.87-.94.1-.05.31-.07.65-.07.29-.24.58-.45.87-.61.29-.17.63-.2,1.01-.11.05-.19.18-.36.4-.51s.42-.22.61-.22c.29,0,.54.14.76.43s.44.51.69.65c.39.67.78,1.33,1.19,1.95.41.63.76,1.28,1.05,1.95.34.67.64,1.35.9,2.02.26.67.66,1.33,1.19,1.95.24.96.61,1.87,1.12,2.71.51.84.93,1.75,1.26,2.71.24.58.52,1.14.83,1.7.31.55.59,1.14.83,1.77.14.29.26.58.36.87.1.29.19.58.29.87.1.24.19.55.29.94.1.39.22.7.36.94.34-.34.63-.77.87-1.3.34-.67.69-1.31,1.05-1.92.36-.6.69-1.24.98-1.92.39-.63.66-1.28.83-1.95.17-.67.37-1.35.61-2.02.1-.24.2-.48.33-.72.12-.24.23-.51.33-.79.14-.29.26-.58.36-.87.1-.29.19-.58.29-.87.34-.92.71-1.82,1.12-2.71.41-.89.83-1.79,1.26-2.71.05-.14.16-.36.33-.65.17-.29.36-.59.58-.9.22-.31.42-.59.61-.83.19-.24.36-.41.51-.51.1-.1.25-.16.47-.18.22-.02.4-.06.54-.11.43,0,.75.12.94.36.58.24,1.01.41,1.3.51.29.1.51.31.65.65.72.48,1.26.76,1.63.83s.64.28.83.61c.53.34.84.58.94.72.1.14.19.29.29.43Z"/>
    <path class="cls-1" d="M251.41,249.44c-.1.19-.13.39-.11.58.02.19.04.41.04.65-.1.58-.1.87,0,.87s.14.05.14.14l-.51.72c0,.29-.06.55-.18.79-.12.24-.16.53-.11.87-.14.24-.28.48-.4.72-.12.24-.3.48-.54.72h-.94c-.53,0-1.1.04-1.7.11-.6.07-1.19.11-1.77.11-.1,0-.22-.01-.36-.04-.14-.02-.29-.04-.43-.04-.1,0-.22.01-.36.04-.14.02-.31.04-.51.04-.72,0-1.43-.04-2.13-.11-.7-.07-1.43-.11-2.2-.11h-.58c-.19,0-.41.02-.65.07-.05.82-.08,1.65-.11,2.49-.02.84-.04,1.7-.04,2.57,0,.24-.02.49-.07.76-.05.27-.07.52-.07.76-.05.63-.08,1.23-.11,1.81-.02.58-.04,1.18-.04,1.81,0,1.35.01,2.7.04,4.05.02,1.35.06,2.72.11,4.12.05.72.1,1.42.14,2.1.05.67.07,1.37.07,2.1,0,1.64-.02,3.26-.07,4.88-.05,1.61-.07,3.24-.07,4.88,0,.53-.02,1.02-.07,1.48-.05.46-.07.95-.07,1.48,0,1.11.02,2.22.07,3.32.05,1.11.07,2.22.07,3.32,0,.53-.01,1.06-.04,1.59-.02.53-.04,1.06-.04,1.59-.24.39-.41.72-.51,1.01-.1.29-.39.43-.87.43-.34-.1-.49-.21-.47-.33.02-.12-.01-.23-.11-.33-.43-.05-.76-.01-.98.11-.22.12-.47.23-.76.33-.14-.05-.3-.07-.47-.07h-.47c-.1,0-.19.04-.29.11-.1.07-.31.11-.65.11-.29.05-.46,0-.51-.14-.05-.14-.19-.22-.43-.22-.24.14-.52.25-.83.33-.31.07-.61.11-.9.11-.29-.19-.42-.37-.4-.54.02-.17-.01-.35-.11-.54-.05-.1-.13-.23-.25-.4-.12-.17-.23-.3-.33-.4.1-.67.17-1.28.22-1.81.05-.53.07-1.11.07-1.73,0-1.25-.05-2.48-.14-3.69-.1-1.2-.14-2.43-.14-3.69,0-.38.05-.79.14-1.23.1-.43.14-.89.14-1.37-.1-.38-.12-.61-.07-.69.05-.07.07-.16.07-.25,0-.29-.01-.58-.04-.87-.02-.29-.04-.58-.04-.87,0-.58.01-1.16.04-1.73.02-.58.04-1.16.04-1.73,0-.24-.01-.49-.04-.76-.02-.26-.04-.52-.04-.76-.05-.43-.06-.89-.04-1.37.02-.48.04-.96.04-1.45,0-2.31-.04-4.6-.11-6.87-.07-2.26-.11-4.55-.11-6.87,0-1.11.06-2.24.18-3.4.12-1.16.18-2.31.18-3.47,0-.14-.05-.34-.14-.58-.1-.24-.19-.41-.29-.51-.24,0-.47-.01-.69-.04-.22-.02-.45-.04-.69-.04-.53,0-1.04.07-1.52.22-.92.05-1.8.11-2.64.18-.84.07-1.7.13-2.57.18-.58-.05-.93-.06-1.05-.04-.12.02-.25.04-.4.04-.39,0-.68-.1-.87-.29v-.94c-.29-.58-.41-.89-.36-.94.05-.05.07-.12.07-.22,0-.14-.13-.3-.4-.47-.26-.17-.4-.45-.4-.83-.05-.38-.14-.67-.29-.87-.14-.19-.22-.38-.22-.58,0-.34.07-.72.22-1.16.43-.24.86-.41,1.26-.51.41-.1.88-.22,1.41-.36.29-.1.55-.19.79-.29.24-.1.51-.17.79-.22.34-.05.67-.07,1.01-.07s.67-.02,1.01-.07c.72-.14,1.48-.26,2.28-.36.79-.1,1.55-.14,2.28-.14.67,0,1.35.08,2.02.25.67.17,1.28.25,1.81.25.77,0,1.51.05,2.2.14.7.1,1.43.14,2.2.14.1,0,.25.04.47.11s.47.11.76.11h7.01c.39.1.66.12.83.07.17-.05.33-.07.47-.07.39,0,.75.02,1.08.07.34.05.7.07,1.08.07.34,0,.6-.02.79-.07.39.05.75.16,1.08.33.34.17.72.25,1.16.25.19.14.34.33.43.54.1.22.26.37.51.47Z"/>
    <path class="cls-1" d="M284.65,249.44c-.1.19-.13.39-.11.58.02.19.04.41.04.65-.1.58-.1.87,0,.87s.14.05.14.14l-.51.72c0,.29-.06.55-.18.79-.12.24-.16.53-.11.87-.14.24-.28.48-.4.72-.12.24-.3.48-.54.72h-.94c-.53,0-1.1.04-1.7.11-.6.07-1.19.11-1.77.11-.1,0-.22-.01-.36-.04-.14-.02-.29-.04-.43-.04-.1,0-.22.01-.36.04-.14.02-.31.04-.51.04-.72,0-1.43-.04-2.13-.11-.7-.07-1.43-.11-2.2-.11h-.58c-.19,0-.41.02-.65.07-.05.82-.08,1.65-.11,2.49-.02.84-.04,1.7-.04,2.57,0,.24-.02.49-.07.76-.05.27-.07.52-.07.76-.05.63-.08,1.23-.11,1.81-.02.58-.04,1.18-.04,1.81,0,1.35.01,2.7.04,4.05.02,1.35.06,2.72.11,4.12.05.72.1,1.42.14,2.1.05.67.07,1.37.07,2.1,0,1.64-.02,3.26-.07,4.88-.05,1.61-.07,3.24-.07,4.88,0,.53-.02,1.02-.07,1.48-.05.46-.07.95-.07,1.48,0,1.11.02,2.22.07,3.32.05,1.11.07,2.22.07,3.32,0,.53-.01,1.06-.04,1.59-.02.53-.04,1.06-.04,1.59-.24.39-.41.72-.51,1.01-.1.29-.39.43-.87.43-.34-.1-.49-.21-.47-.33.02-.12-.01-.23-.11-.33-.43-.05-.76-.01-.98.11-.22.12-.47.23-.76.33-.14-.05-.3-.07-.47-.07h-.47c-.1,0-.19.04-.29.11-.1.07-.31.11-.65.11-.29.05-.46,0-.51-.14-.05-.14-.19-.22-.43-.22-.24.14-.52.25-.83.33-.31.07-.61.11-.9.11-.29-.19-.42-.37-.4-.54.02-.17-.01-.35-.11-.54-.05-.1-.13-.23-.25-.4-.12-.17-.23-.3-.33-.4.1-.67.17-1.28.22-1.81.05-.53.07-1.11.07-1.73,0-1.25-.05-2.48-.14-3.69-.1-1.2-.14-2.43-.14-3.69,0-.38.05-.79.14-1.23.1-.43.14-.89.14-1.37-.1-.38-.12-.61-.07-.69.05-.07.07-.16.07-.25,0-.29-.01-.58-.04-.87-.02-.29-.04-.58-.04-.87,0-.58.01-1.16.04-1.73.02-.58.04-1.16.04-1.73,0-.24-.01-.49-.04-.76-.02-.26-.04-.52-.04-.76-.05-.43-.06-.89-.04-1.37.02-.48.04-.96.04-1.45,0-2.31-.04-4.6-.11-6.87-.07-2.26-.11-4.55-.11-6.87,0-1.11.06-2.24.18-3.4.12-1.16.18-2.31.18-3.47,0-.14-.05-.34-.14-.58-.1-.24-.19-.41-.29-.51-.24,0-.47-.01-.69-.04-.22-.02-.45-.04-.69-.04-.53,0-1.04.07-1.52.22-.92.05-1.8.11-2.64.18-.84.07-1.7.13-2.57.18-.58-.05-.93-.06-1.05-.04-.12.02-.25.04-.4.04-.39,0-.68-.1-.87-.29v-.94c-.29-.58-.41-.89-.36-.94.05-.05.07-.12.07-.22,0-.14-.13-.3-.4-.47-.26-.17-.4-.45-.4-.83-.05-.38-.14-.67-.29-.87-.14-.19-.22-.38-.22-.58,0-.34.07-.72.22-1.16.43-.24.86-.41,1.26-.51.41-.1.88-.22,1.41-.36.29-.1.55-.19.79-.29.24-.1.51-.17.79-.22.34-.05.67-.07,1.01-.07s.67-.02,1.01-.07c.72-.14,1.48-.26,2.28-.36.79-.1,1.55-.14,2.28-.14.67,0,1.35.08,2.02.25.67.17,1.28.25,1.81.25.77,0,1.51.05,2.2.14.7.1,1.43.14,2.2.14.1,0,.25.04.47.11s.47.11.76.11h7.01c.38.1.66.12.83.07.17-.05.32-.07.47-.07.38,0,.75.02,1.08.07.34.05.7.07,1.08.07.34,0,.6-.02.79-.07.38.05.75.16,1.08.33.34.17.72.25,1.16.25.19.14.34.33.43.54s.27.37.51.47Z"/>
    <path class="cls-1" d="M313.42,290.99c.38.63.67,1.23.87,1.81.19.58.29.99.29,1.23,0,.34-.06.61-.18.83-.12.22-.28.45-.47.69-1.93.82-3.84,1.58-5.75,2.28-1.9.7-3.84,1.39-5.82,2.06-.48.14-.95.3-1.41.47-.46.17-.95.3-1.48.4-.1.1-.27.19-.51.29-.24.1-.52.19-.83.29-.31.1-.61.18-.9.25s-.48.11-.58.11c-.1-.24-.19-.39-.29-.43-.1-.05-.19-.1-.29-.14-.24,0-.4.08-.47.25-.07.17-.23.3-.47.4-.24,0-.46.01-.65.04-.19.02-.36-.01-.51-.11-.39.1-.74.26-1.05.51-.31.24-.66.41-1.05.51-.72-.19-1.17-.28-1.34-.25-.17.02-.35.06-.54.11-.34-.29-.49-.7-.47-1.23.02-.53-.11-.96-.4-1.3,0-.63-.05-.98-.14-1.05-.1-.07-.14-.16-.14-.25,0-.34.02-.65.07-.94.05-.29.02-.6-.07-.94.19-.82.26-1.61.22-2.38-.05-.77-.02-1.54.07-2.31,0-.24.01-.47.04-.69.02-.22.04-.45.04-.69,0-.72.05-1.17.14-1.34.1-.17.14-.37.14-.61,0-.34-.01-.66-.04-.98-.02-.31-.04-.66-.04-1.05,0-.67.01-1.34.04-1.99.02-.65.04-1.34.04-2.06,0-1.83-.12-3.66-.36-5.49-.24-1.83-.36-3.66-.36-5.49,0-2.22-.12-4.41-.36-6.58-.24-2.17-.36-4.36-.36-6.58v-3.79c0-.75.01-1.46.04-2.13.02-.67.06-1.16.11-1.45,0-.05.14-.12.43-.22.29-.1.48-.14.58-.14.24,0,.43.06.58.18.14.12.31.23.51.33.87-.1,1.38-.18,1.55-.25.17-.07.3-.11.4-.11.29,0,.52.07.69.22.17.14.3.22.4.22.82-.19,1.26-.22,1.34-.07s.23.22.47.22c.63-.19,1.01-.26,1.16-.22.14.05.29.07.43.07.24,0,.51-.08.79-.25.29-.17.55-.3.79-.4.82-.24,1.49-.48,2.02-.72.72-.43,1.26-.72,1.63-.87s.73-.31,1.12-.51c.82-.34,1.6-.69,2.35-1.05.75-.36,1.53-.73,2.35-1.12.14,0,.3-.01.47-.04.17-.02.3-.08.4-.18.14.05.3.07.47.07h.47c.48.19.79.31.94.36.19.29.37.57.54.83.17.27.37.52.61.76.24.43.43.65.58.65,0,.14-.07.3-.22.47-.14.17-.22.33-.22.47.38.67.7,1.3.94,1.88.24.58.36.99.36,1.23,0,.34-.05.61-.14.83-.1.22-.22.45-.36.69-1.83.87-3.67,1.72-5.53,2.57-1.86.84-3.75,1.67-5.67,2.49-.48.19-.94.4-1.37.61s-.92.37-1.45.47c-.1.1-.31.18-.65.25-.34.07-.6.11-.79.11.1.82.16,1.63.18,2.42.02.79.06,1.6.11,2.42.05.67.13,1.39.25,2.13.12.75.23,1.48.33,2.2,1.59-.67,3.17-1.35,4.73-2.02,1.57-.67,3.14-1.35,4.73-2.02.29.05.59.1.9.14.31.05.61.12.9.22.1.1.19.22.29.36.1.14.22.27.36.36-.05.24.11.6.47,1.08.36.48.54.84.54,1.08,0,.39.05.61.14.69.1.07.19.28.29.61.05.48.05.75,0,.79.24.24.43.48.58.72.14.24.22.53.22.87-.67.82-1.35,1.36-2.02,1.63-.67.27-1.35.54-2.02.83-.24.1-.49.23-.76.4-.27.17-.52.3-.76.4-.39.14-.76.28-1.12.4-.36.12-.74.28-1.12.47-.63.34-1.26.71-1.92,1.12-.65.41-1.31.69-1.99.83-.53.14-.88.3-1.05.47s-.45.4-.83.69v7.05c0,.51-.02,1.02-.07,1.55-.1.48-.14.89-.14,1.23v1.16c.24-.1.48-.18.72-.25.24-.07.48-.16.72-.25.19-.05.37-.07.54-.07s.35-.05.54-.14c.24-.05.43-.1.58-.14.14-.05.31-.12.51-.22.72-.38,1.28-.64,1.66-.76.38-.12.77-.25,1.16-.4.82-.29,1.61-.59,2.38-.9.77-.31,1.54-.61,2.31-.9.48.1.82.02,1.01-.22.24.05.45.1.61.14.17.05.37.07.61.07.58.53.94.94,1.08,1.23s.34.55.58.79c.24.43.41.65.51.65,0,.1-.07.25-.22.47s-.24.4-.29.54Z"/>
    <path class="cls-1" d="M359.16,273.43c.1.34.29.7.58,1.08.29.39.43.67.43.87-.39.92-.67,1.63-.87,2.13-.19.51-.51.95-.94,1.34,0,.14-.14.46-.43.94-.29.48-.61,1-.98,1.55-.36.55-.72,1.08-1.08,1.59s-.59.86-.69,1.05c-.24.39-.43.76-.58,1.12s-.31.71-.51,1.05c-.43.77-.88,1.49-1.34,2.17-.46.67-.88,1.42-1.26,2.24-.24.24-.46.51-.65.79-.19.29-.41.55-.65.79-.58,1.06-1.24,2.05-1.99,2.96-.75.92-1.43,1.93-2.06,3.04.53.53.79,1.21.79,2.02,0,.43-.12.66-.36.69-.24.02-.46.08-.65.18-.48.34-.92.53-1.3.58-.39.05-.7.07-.94.07-.53,0-1.11-.01-1.73-.04-.63-.02-1.16.01-1.59.11-.14.05-.31.13-.51.25-.19.12-.34.18-.43.18-.39,0-.66-.06-.83-.18-.17-.12-.4-.23-.69-.33-.39-.43-.74-.89-1.05-1.37-.31-.48-.64-.96-.98-1.45-.29-.34-.6-.64-.94-.9-.34-.26-.65-.59-.94-.98-.77-1.11-1.55-2.17-2.35-3.18s-1.6-2.02-2.42-3.04c-.39-.53-.81-1.04-1.26-1.52-.46-.48-.88-.96-1.26-1.45-.39-.53-.75-1.08-1.08-1.66-.34-.58-.7-1.13-1.08-1.66-.29-.48-.7-1.07-1.23-1.77-.53-.7-1.08-1.41-1.66-2.13s-1.17-1.41-1.77-2.06c-.6-.65-1.12-1.14-1.55-1.48,0-.34-.1-.58-.29-.72-.19-.14-.41-.31-.65-.51-.1-.24-.22-.47-.36-.69s-.22-.47-.22-.76c0-.34.07-.65.22-.94.1-.19.16-.37.18-.54.02-.17.08-.35.18-.54.24-.63.59-1.18,1.05-1.66.46-.48.81-1.04,1.05-1.66.05-.19.07-.37.07-.54s.05-.35.14-.54c.14-.34.36-.64.65-.9.29-.26.55-.57.79-.9.24-.43.48-.87.72-1.3.24-.43.48-.87.72-1.3.67-1.11,1.42-2.18,2.24-3.22.82-1.04,1.59-2.06,2.31-3.07.67-.96,1.3-1.92,1.88-2.85s1.2-1.89,1.88-2.85c.34-.48.72-1.02,1.16-1.63.43-.6.88-1.19,1.34-1.77.46-.58.93-1.12,1.41-1.63.48-.51.96-.88,1.45-1.12.82-.1,1.35.04,1.59.4.24.36.58.54,1.01.54.67.14,1.13.36,1.37.65.24.29.48.55.72.79.63,0,1.16.12,1.59.36.43.24.87.6,1.3,1.08-.19.53-.45,1.01-.76,1.45-.31.43-.59.89-.83,1.37-.39.14-.66.39-.83.72-.17.34-.42.63-.76.87-.53.82-1.06,1.63-1.59,2.42-.53.79-1.06,1.55-1.59,2.28-.24.29-.51.52-.79.69-.29.17-.55.42-.79.76-.1.14-.17.3-.22.47-.05.17-.12.33-.22.47-.58.92-1.23,1.81-1.95,2.67s-1.35,1.78-1.88,2.75c-.24.34-.43.69-.58,1.05s-.31.71-.51,1.05c-.19.34-.47.76-.83,1.26s-.72,1.02-1.08,1.55c-.36.53-.67,1.06-.94,1.59-.27.53-.4.96-.4,1.3.05.24.36.72.94,1.45s1.23,1.49,1.95,2.31c.72.82,1.41,1.6,2.06,2.35.65.75,1.05,1.19,1.19,1.34.1.24.46.76,1.08,1.55.63.79,1.34,1.66,2.13,2.6s1.58,1.84,2.35,2.71c.77.87,1.3,1.49,1.59,1.88l.58.94c.1-.05.35-.38.76-1.01.41-.63.83-1.32,1.26-2.1.43-.77.83-1.49,1.19-2.17.36-.67.59-1.11.69-1.3.14-.14.38-.53.72-1.16.34-.63.71-1.3,1.12-2.02.41-.72.77-1.4,1.08-2.02.31-.63.49-1.04.54-1.23h-.87c-.77,0-1.53.04-2.28.11-.75.07-1.51.23-2.28.47-.34-.05-.63-.14-.87-.29-.24-.14-.53-.29-.87-.43-.14-.48-.21-.82-.18-1.01.02-.19.01-.34-.04-.43-.05-.19-.11-.34-.18-.43-.07-.1-.11-.24-.11-.43,0-.34-.05-.61-.14-.83-.1-.22-.19-.47-.29-.76,0-.19.01-.38.04-.58.02-.19-.01-.36-.11-.51.1-.87.02-1.49-.22-1.88,0-.67.1-1.11.29-1.3s.34-.48.43-.87c.43.14.81.11,1.12-.11.31-.22.64-.33.98-.33.77,0,1.4-.12,1.88-.36.43-.05.88-.07,1.34-.07s.9-.05,1.34-.14c.24-.05.45-.1.61-.14.17-.05.37-.1.61-.14.29-.05.6-.07.94-.07h.94c.77-.1,1.54-.16,2.31-.18.77-.02,1.54-.06,2.31-.11.24.1.47.17.69.22.22.05.42.12.61.22.14.1.26.21.36.33.1.12.26.21.51.25.24.24.41.48.51.72-.1.43-.07.75.07.94-.24.24-.37.57-.4.98-.02.41-.06.78-.11,1.12.34.1.63.36.87.79.24.43.41.65.51.65h.29Z"/>
    <path class="cls-1" d="M396.59,266.28c-.43.92-1.02,1.78-1.77,2.6-.75.82-1.46,1.59-2.13,2.31-.53.53-.99,1.11-1.37,1.73-.39.63-.82,1.21-1.3,1.73-.39.43-.77.83-1.16,1.19-.39.36-.75.76-1.08,1.19-.24.19-.47.39-.69.58-.22.19-.42.43-.61.72.72,1.54,1.58,2.94,2.57,4.19.99,1.25,2.01,2.51,3.07,3.76.53.63,1.06,1.22,1.59,1.77.53.55.99,1.14,1.37,1.77.34.72.69,1.26,1.05,1.63s.69.74.98,1.12c.29.48.54.9.76,1.26s.52.71.9,1.05c0,.24.14.47.43.69s.48.45.58.69c0,.24.01.43.04.58.02.14.04.27.04.36-.14.39-.4.71-.76.98-.36.27-.69.54-.98.83-.48,0-.89.14-1.23.43-.34.29-.79.43-1.37.43-.24.19-.43.4-.58.61s-.34.42-.58.61c-.39,0-.74.11-1.05.33-.31.22-.66.37-1.05.47-.48-.29-.87-.66-1.16-1.12s-.67-.81-1.16-1.05c-.05-.24-.13-.45-.25-.61-.12-.17-.23-.35-.33-.54-.82-.92-1.59-1.88-2.31-2.89l-2.17-3.04c-.39-.43-.78-.85-1.19-1.26-.41-.41-.81-.85-1.19-1.34-.24-.29-.48-.63-.72-1.01-.24-.38-.51-.75-.79-1.08-.34-.29-.63-.63-.87-1.01-.24-.38-.53-.7-.87-.94-.43.24-.82.55-1.16.94-.34.39-.72.72-1.16,1.01-.39.34-.76.67-1.12,1.01-.36.34-.74.65-1.12.94-.1,1.11-.14,2.18-.14,3.22v3.07c0,.82-.01,1.6-.04,2.35-.02.75-.13,1.51-.33,2.28-.24.05-.47-.08-.69-.4-.22-.31-.45-.49-.69-.54-.19.05-.35.14-.47.29-.12.14-.3.17-.54.07-.24.24-.6.46-1.08.65-.24,0-.51.04-.79.11s-.55.11-.79.11c-.39,0-.65-.05-.79-.14-.48.34-.88.52-1.19.54-.31.02-.57.04-.76.04-.1-.34-.19-.66-.29-.98-.1-.31-.17-.66-.22-1.05-.14-.19-.25-.41-.33-.65-.07-.24-.16-.48-.25-.72.05-.14.07-.31.07-.51v-.58c0-.82-.02-1.61-.07-2.38-.05-.77-.02-1.57.07-2.38-.1-.24-.17-.48-.22-.72-.05-.24-.07-.48-.07-.72,0-.14.01-.31.04-.51.02-.19.08-.34.18-.43-.14-.63-.23-1.29-.25-1.99-.02-.7-.04-1.36-.04-1.99,0-.34.04-.69.11-1.05s.11-.73.11-1.12c0-.82-.05-1.61-.14-2.38-.1-.77-.14-1.54-.14-2.31.05-.53.07-.94.07-1.23s.02-.58.07-.87c.05-.29.02-.58-.07-.87.05-.24.11-.42.18-.54.07-.12.11-.3.11-.54,0-.63.01-1.24.04-1.84.02-.6.04-1.24.04-1.92,0-.48.01-.95.04-1.41.02-.46.04-.95.04-1.48,0-.43.04-.84.11-1.23.07-.38.13-.77.18-1.16.05-.43.07-.85.07-1.26v-4.26c0-1.04-.05-2.06-.14-3.07-.05-.24-.1-.51-.14-.79-.05-.29-.07-.58-.07-.87-.1-.92-.17-1.85-.22-2.82-.05-.96-.14-1.93-.29-2.89.1-.14.14-.3.14-.47v-1.16c0-.22-.02-.45-.07-.69.1-.1.19-.2.29-.33.1-.12.19-.23.29-.33.29,0,.59.01.9.04.31.02.59.13.83.33.24-.1.52-.2.83-.33.31-.12.59-.18.83-.18.38,0,.67.1.87.29.24-.1.37-.2.4-.33.02-.12.2-.18.54-.18.63-.05,1.07-.07,1.34-.07s.52-.02.76-.07c.14.1.26.22.36.36.1.14.19.29.29.43,1.06.39,1.92.93,2.57,1.63.65.7,1.38,1.29,2.2,1.77.19.14.38.27.58.36.19.1.38.19.58.29.43.29.87.6,1.3.94.43.34.89.63,1.37.87.48.24.76.37.83.4.07.02.13.08.18.18,1.06.39,2.01.9,2.85,1.55.84.65,1.75,1.24,2.71,1.77.34.19.76.39,1.26.58.51.19,1.01.4,1.52.61s.99.45,1.45.69c.46.24.81.51,1.05.79.53.53,1,.9,1.41,1.12.41.22.81.47,1.19.76l.07,1.95c0,.34-.04.65-.11.94s-.11.6-.11.94c0,.24.05.51.14.79ZM386.69,264.4c-.53-.29-1.06-.57-1.59-.83-.53-.26-.99-.64-1.37-1.12-.34-.1-.94-.33-1.81-.69s-1.75-.75-2.64-1.16c-.89-.41-1.71-.77-2.46-1.08-.75-.31-1.17-.47-1.26-.47-.14.05-.22.36-.22.94v4.99c0,.92-.02,1.81-.07,2.67-.05.87-.12,1.76-.22,2.67-.1.14-.17.28-.22.4-.05.12-.1.25-.14.4-.1.67-.14,1.57-.14,2.67v3.61c0,.29.02.63.07,1.01.24,0,.41-.06.51-.18.1-.12.26-.23.51-.33.63-.67,1.25-1.32,1.88-1.95l1.95-1.95c.29-.29.58-.6.87-.94.29-.34.6-.63.94-.87.24-.29.46-.57.65-.83.19-.26.41-.52.65-.76.67-.72,1.37-1.43,2.1-2.13.72-.7,1.32-1.48,1.81-2.35.34-.24.65-.63.94-1.16-.34-.05-.58-.24-.72-.58Z"/>
    <path class="cls-1" d="M428.9,290.99c.38.63.67,1.23.87,1.81.19.58.29.99.29,1.23,0,.34-.06.61-.18.83-.12.22-.28.45-.47.69-1.93.82-3.84,1.58-5.75,2.28-1.9.7-3.84,1.39-5.82,2.06-.48.14-.95.3-1.41.47-.46.17-.95.3-1.48.4-.1.1-.27.19-.51.29-.24.1-.52.19-.83.29-.31.1-.61.18-.9.25s-.48.11-.58.11c-.1-.24-.19-.39-.29-.43-.1-.05-.19-.1-.29-.14-.24,0-.4.08-.47.25-.07.17-.23.3-.47.4-.24,0-.46.01-.65.04-.19.02-.36-.01-.51-.11-.39.1-.74.26-1.05.51-.31.24-.66.41-1.05.51-.72-.19-1.17-.28-1.34-.25-.17.02-.35.06-.54.11-.34-.29-.49-.7-.47-1.23.02-.53-.11-.96-.4-1.3,0-.63-.05-.98-.14-1.05-.1-.07-.14-.16-.14-.25,0-.34.02-.65.07-.94.05-.29.02-.6-.07-.94.19-.82.26-1.61.22-2.38-.05-.77-.02-1.54.07-2.31,0-.24.01-.47.04-.69.02-.22.04-.45.04-.69,0-.72.05-1.17.14-1.34.1-.17.14-.37.14-.61,0-.34-.01-.66-.04-.98-.02-.31-.04-.66-.04-1.05,0-.67.01-1.34.04-1.99.02-.65.04-1.34.04-2.06,0-1.83-.12-3.66-.36-5.49-.24-1.83-.36-3.66-.36-5.49,0-2.22-.12-4.41-.36-6.58-.24-2.17-.36-4.36-.36-6.58v-3.79c0-.75.01-1.46.04-2.13.02-.67.06-1.16.11-1.45,0-.05.14-.12.43-.22.29-.1.48-.14.58-.14.24,0,.43.06.58.18.14.12.31.23.51.33.87-.1,1.38-.18,1.55-.25.17-.07.3-.11.4-.11.29,0,.52.07.69.22.17.14.3.22.4.22.82-.19,1.26-.22,1.34-.07s.23.22.47.22c.63-.19,1.01-.26,1.16-.22.14.05.29.07.43.07.24,0,.51-.08.79-.25.29-.17.55-.3.79-.4.82-.24,1.49-.48,2.02-.72.72-.43,1.26-.72,1.63-.87s.73-.31,1.12-.51c.82-.34,1.6-.69,2.35-1.05.75-.36,1.53-.73,2.35-1.12.14,0,.3-.01.47-.04.17-.02.3-.08.4-.18.14.05.3.07.47.07h.47c.48.19.79.31.94.36.19.29.37.57.54.83.17.27.37.52.61.76.24.43.43.65.58.65,0,.14-.07.3-.22.47-.14.17-.22.33-.22.47.38.67.7,1.3.94,1.88.24.58.36.99.36,1.23,0,.34-.05.61-.14.83-.1.22-.22.45-.36.69-1.83.87-3.67,1.72-5.53,2.57-1.86.84-3.75,1.67-5.67,2.49-.48.19-.94.4-1.37.61s-.92.37-1.45.47c-.1.1-.31.18-.65.25-.34.07-.6.11-.79.11.1.82.16,1.63.18,2.42.02.79.06,1.6.11,2.42.05.67.13,1.39.25,2.13.12.75.23,1.48.33,2.2,1.59-.67,3.17-1.35,4.73-2.02,1.57-.67,3.14-1.35,4.73-2.02.29.05.59.1.9.14.31.05.61.12.9.22.1.1.19.22.29.36.1.14.22.27.36.36-.05.24.11.6.47,1.08.36.48.54.84.54,1.08,0,.39.05.61.14.69.1.07.19.28.29.61.05.48.05.75,0,.79.24.24.43.48.58.72.14.24.22.53.22.87-.67.82-1.35,1.36-2.02,1.63-.67.27-1.35.54-2.02.83-.24.1-.49.23-.76.4-.27.17-.52.3-.76.4-.39.14-.76.28-1.12.4-.36.12-.74.28-1.12.47-.63.34-1.26.71-1.92,1.12-.65.41-1.31.69-1.99.83-.53.14-.88.3-1.05.47s-.45.4-.83.69v7.05c0,.51-.02,1.02-.07,1.55-.1.48-.14.89-.14,1.23v1.16c.24-.1.48-.18.72-.25.24-.07.48-.16.72-.25.19-.05.37-.07.54-.07s.35-.05.54-.14c.24-.05.43-.1.58-.14.14-.05.31-.12.51-.22.72-.38,1.28-.64,1.66-.76.38-.12.77-.25,1.16-.4.82-.29,1.61-.59,2.38-.9.77-.31,1.54-.61,2.31-.9.48.1.82.02,1.01-.22.24.05.45.1.61.14.17.05.37.07.61.07.58.53.94.94,1.08,1.23s.34.55.58.79c.24.43.41.65.51.65,0,.1-.07.25-.22.47s-.24.4-.29.54Z"/>
    <path class="cls-1" d="M467.85,246.84c.53,0,.92.07,1.16.22.24.48.4.9.47,1.26s.11.78.11,1.26c.05.72.06,1.24.04,1.55-.02.31-.06.64-.11.98-.05.77-.07,1.51-.07,2.2v2.2c0,1.69.02,3.4.07,5.13.05,1.73.07,3.45.07,5.13,0,.67-.01,1.34-.04,1.99-.02.65-.04,1.31-.04,1.99,0,.14.01.3.04.47.02.17.04.33.04.47,0,.43-.01.86-.04,1.26-.02.41-.04.81-.04,1.19v.51c0,.14.02.34.07.58-.1.39-.14.65-.14.79,0,.77.02,1.55.07,2.35.05.79.07,1.58.07,2.35,0,.72.01,1.42.04,2.1.02.67.04,1.37.04,2.1,0,.39-.01.79-.04,1.23-.02.43-.04.87-.04,1.3,0,1.01.02,2.04.07,3.07.05,1.04.1,2.06.14,3.07v1.99c0,.65.05,1.31.14,1.99,0,.77-.04,1.34-.11,1.7s-.16.71-.25,1.05c-.39.1-.64.13-.76.11-.12-.02-.25-.04-.4-.04-.67.19-1.11.37-1.3.54-.19.17-.41.35-.65.54-.19,0-.42.01-.69.04-.27.02-.47.11-.61.25-.24-.1-.43-.12-.58-.07-.14.05-.29.07-.43.07-.67.05-1.13.13-1.37.25-.24.12-.58.18-1.01.18-.39-.63-.67-1.12-.87-1.48-.19-.36-.51-.52-.94-.47-.63-.96-1.07-1.97-1.34-3.04-.27-1.06-.71-2.02-1.34-2.89-.05-.38-.12-.63-.22-.72-.1-.1-.19-.29-.29-.58-.19-.38-.36-.79-.51-1.23s-.34-.84-.58-1.23c-.39-.82-.77-1.63-1.16-2.42-.39-.79-.75-1.63-1.08-2.49-.14-.38-.27-.78-.36-1.19-.1-.41-.22-.81-.36-1.19-.1-.19-.21-.38-.33-.58-.12-.19-.23-.36-.33-.51-.29-.53-.57-1.06-.83-1.59-.27-.53-.57-1.06-.9-1.59-.1-.24-.23-.47-.4-.69-.17-.22-.35-.45-.54-.69-.14-.34-.28-.67-.4-1.01-.12-.34-.25-.67-.4-1.01-.1-.29-.24-.59-.43-.9-.19-.31-.34-.61-.43-.9-.1-.24-.17-.48-.22-.72-.05-.24-.19-.46-.43-.65-.34.58-.51.96-.51,1.16-.05.58-.08,1.05-.11,1.41-.02.36-.04.69-.04.98,0,.34.04.66.11.98.07.31.11.61.11.9.1,1.16.17,2.33.22,3.5.05,1.18.07,2.35.07,3.5-.05.92-.06,1.61-.04,2.1.02.48.06.96.11,1.45.05.48.06.98.04,1.48-.02.51-.01,1,.04,1.48,0,1.11.01,2.18.04,3.22.02,1.04.04,2.11.04,3.22v1.73c0,.53-.07,1.01-.22,1.45-.72,0-1.19-.02-1.41-.07-.22-.05-.45-.12-.69-.22-.29.05-.52.16-.69.33-.17.17-.37.33-.61.47-.53-.05-.82-.04-.87.04-.05.07-.14.16-.29.25-.14.05-.28.05-.4,0-.12-.05-.25-.07-.4-.07-.39-.1-.7-.14-.94-.14-.29.1-.57.19-.83.29-.27.1-.54.17-.83.22-.29-.53-.46-1.16-.51-1.88-.05-.72-.24-1.35-.58-1.88.1-.19.16-.31.18-.36.02-.05.04-.19.04-.43,0-1.11-.02-2.22-.07-3.32-.05-1.11-.07-2.22-.07-3.32,0-.92-.06-1.81-.18-2.67-.12-.87-.18-1.76-.18-2.67,0-.29.02-.58.07-.87.05-.29.07-.6.07-.94,0-.14-.01-.29-.04-.43-.02-.14-.04-.26-.04-.36-.1-.87-.16-1.76-.18-2.67-.02-.92-.04-1.83-.04-2.75-.05-.53-.08-1.08-.11-1.66-.02-.58-.04-1.18-.04-1.81,0-.24.02-.51.07-.79.05-.29.07-.58.07-.87v-3.04c-.1-.58-.13-.96-.11-1.16.02-.19.04-.38.04-.58,0-.43-.04-.85-.11-1.26-.07-.41-.11-.85-.11-1.34,0-.34.04-.66.11-.98.07-.31.11-.64.11-.98,0-.72-.04-1.42-.11-2.1-.07-.67-.11-1.37-.11-2.1v-6.14c0-.34-.02-.67-.07-1.01-.05-.34-.07-.7-.07-1.08.29-.67.55-1.02.79-1.05.24-.02.46-.11.65-.25.53.1.99.05,1.37-.14.63.05,1.01-.02,1.16-.22.1.1.23.13.4.11.17-.02.33-.01.47.04.14-.1.26-.19.36-.29s.24-.19.43-.29c.53-.29.84-.47.94-.54.1-.07.22-.16.36-.25.24,0,.4.07.47.22s.23.22.47.22c.1.19.22.39.36.58.14.19.31.34.51.43.38.82.84,1.52,1.37,2.1.43,1.25.93,2.46,1.48,3.61.55,1.16,1.14,2.31,1.77,3.47,0,.14.02.33.07.54.05.22.1.37.14.47.24.53.59,1.22,1.05,2.06.46.84.85,1.53,1.19,2.06.1.19.22.36.36.51s.26.31.36.51c.14.24.26.51.36.79.1.29.22.55.36.79.24.58.52,1.14.83,1.7.31.55.64,1.12.98,1.7.1.29.2.58.33.87.12.29.25.58.4.87.38.87.73,1.53,1.05,1.99.31.46.54.95.69,1.48.34.39.6.81.79,1.26.19.46.48.83.87,1.12.05-.24.1-.95.14-2.13.05-1.18.07-2.47.07-3.87v-6.5c0-1.3-.02-2.59-.07-3.87-.05-1.28-.07-2.54-.07-3.79,0-1.01.01-2.04.04-3.07.02-1.04.06-2.06.11-3.07.05-.53.06-1.02.04-1.48-.02-.46-.01-.93.04-1.41.05-.24.14-.48.29-.72.14-.24.26-.48.36-.72.63-.1,1.11.02,1.45.36.29-.14.64-.22,1.05-.22s.76-.02,1.05-.07c.38-.05.6-.08.65-.11.05-.02.12-.04.22-.04.19.1.37.17.54.22.17.05.37.12.61.22.43-.14.79-.12,1.08.07Z"/>
    <path class="cls-1" d="M479.34,301.98c-.19-.19-.29-.46-.29-.79,0-.24.01-.45.04-.61.02-.17.06-.37.11-.61.24-1.11.36-2.23.36-3.36s.05-2.25.14-3.36c.05-.67.08-1.35.11-2.02.02-.67.04-1.35.04-2.02,0-4-.12-7.99-.36-11.96-.24-3.97-.36-7.99-.36-12.03,0-2.79.05-5.6.14-8.42.1-2.82.17-5.65.22-8.49.43-.24.96-.34,1.59-.29.63.05,1.13-.17,1.52-.65.24-.05.48-.06.72-.04.24.02.48.04.72.04.53,0,1.04-.17,1.52-.51.48-.34,1.01-.63,1.59-.87.29.1.49.13.61.11.12-.02.25-.04.4-.04s.46.17.94.51c.48.34,1.01.72,1.59,1.16s1.12.84,1.63,1.23c.51.39.83.63.98.72,1.2.92,2.28,1.92,3.22,3s1.87,2.18,2.78,3.29c.87,1.11,1.81,2.23,2.82,3.36,1.01,1.13,2,2.18,2.96,3.14.34.39.69.72,1.05,1.01s.71.63,1.05,1.01c.14.19.28.4.4.61.12.22.25.45.4.69.29.34.63.63,1.01.87.38.24.75.53,1.08.87.24.19.6.58,1.08,1.16.48.58.72,1.01.72,1.3,0,.19-.05.36-.14.51-.1.14-.19.31-.29.51-.05.14-.07.36-.07.65s-.02.48-.07.58c-.48.39-.75.63-.79.72-.05.1-.12.19-.22.29-.14.19-.33.35-.54.47-.22.12-.37.3-.47.54-.1.14-.13.29-.11.43.02.14-.01.31-.11.51-.24.53-.63,1.04-1.16,1.52-.53.48-.99,1.01-1.37,1.59-.53.87-1.06,1.73-1.59,2.6-.53.87-1.13,1.71-1.81,2.53-.29.39-.59.76-.9,1.12-.31.36-.61.74-.9,1.12-.24.29-.46.59-.65.9-.19.31-.41.66-.65,1.05-.53.67-1.04,1.34-1.52,1.99-.48.65-.99,1.31-1.52,1.99-.58.82-1.21,1.63-1.88,2.42-.67.79-1.28,1.6-1.81,2.42-.53.87-1.08,1.66-1.66,2.38s-1.21,1.42-1.88,2.1c-.19.14-.43.36-.72.65s-.58.43-.87.43c-.19,0-.35-.07-.47-.22-.12-.14-.3-.22-.54-.22-.05,0-.19.02-.43.07-.24.05-.53.1-.87.14l-1.3.14c-.77.38-1.33.57-1.66.54-.34-.02-.67-.01-1.01.04-.19.05-.35.12-.47.22-.12.1-.25.14-.4.14-.34,0-.6-.16-.79-.47-.19-.31-.48-.45-.87-.4ZM501.02,270.76c0-.24-.23-.58-.69-1.01-.46-.43-.81-.75-1.05-.94-.34-.29-.74-.57-1.19-.83-.46-.26-.83-.57-1.12-.9-.24-.29-.47-.59-.69-.9-.22-.31-.45-.61-.69-.9-.87-.96-1.75-1.93-2.64-2.89-.89-.96-1.67-2.02-2.35-3.18-.43-.29-.84-.63-1.23-1.01-.39-.38-.84-.7-1.37-.94-.1.29-.13.59-.11.9.02.31.04.61.04.9,0,1.11-.05,2.19-.14,3.25-.1,1.06-.14,2.12-.14,3.18,0,2.6.06,5.17.18,7.7.12,2.53.18,5.07.18,7.62,0,.96.01,1.93.04,2.89.02.96.11,1.93.25,2.89-.1.29-.14.55-.14.79s.05.55.14.94c.38-.24.71-.54.98-.9.26-.36.52-.71.76-1.05.82-1.06,1.63-2.13,2.42-3.22s1.6-2.18,2.42-3.29c.53-.72,1.07-1.43,1.63-2.13.55-.7,1.1-1.43,1.63-2.2.14-.19.37-.53.69-1.01.31-.48.63-.98.94-1.48.31-.51.6-.98.87-1.41.26-.43.4-.72.4-.87Z"/>
  </g>
</svg>