<svg xmlns="http://www.w3.org/2000/svg" width="203" height="151" fill="currentColor" viewBox="0 0 203 151">
  <path d="M83.751 94.813c3.123 1.052 6.476-4.896 1.49-7.212-3.881-1.802-9.097-2.827-9.545-3.728-.708-1.429-4.47-5.852-7.26-10.404-2.701-4.408-9.143-3.332-11.677 1.626-2.016 3.946-9.304 35.377-10.125 37.446-.894 2.254-3.726 4.508-8.495 11.569-2.67 3.954 2.236 9.615 7.452 3.305 3.581-4.332 8.793-10.062 9.24-11.118.637-1.502 3.428-12.62 3.428-12.62s8.704 7.662 9.24 8.864c.335.752-.298 2.93-.298 9.691 0 7.836 8.089 9.015 8.495 0 .191-4.226 1.044-11.944.597-13.747-.391-1.577-11.88-10.456-13.37-12.259-.776-.938 2.32-12.353 2.32-12.353s4.641 5.287 5.982 6.132c1.193.752 7.562 3.136 12.526 4.808ZM48.87 91.358c1.34-4.358 4.225-14.532 4.97-19.19.409-2.554-7.745-3.678-10.932 1.3-1.456 2.276-2.98 6.169-2.98 11.277 0 5.75 8.618 7.663 8.942 6.612Zm29.946-29.133c-.482 4.685-4.578 7.96-9.24 7.662-4.815-.306-8.62-4.47-8.198-9.315.4-4.596 4.216-7.86 8.793-7.812 4.984.053 9.158 4.468 8.644 9.465Z"/>
  <path d="M7.813 117.549c-3.74 6.889-10.398 2.46-6.76-4.305 5.613-10.435 15.47-20.438 21.755-33.207 5.204-10.57 12.445-19.506 17.578-29.518C46.02 39.53 47.683 31.552 50.6 22.942c2.748-6.15 3.988-7.38 6.027-7.38 2.038 0 5.149 1.382 11.545 8.61 4.058 4.585 8.054 10.734 16.214 18.065 9.71 8.724 22.833 14.823 26.173 18.832l-3.237 6.765c-3.951-4.58-17.49-10.64-28.113-19.784C67.013 37.553 57.85 24.172 57.85 24.172S55.837 35.9 47.255 52.76c-5.01 9.843-13.714 21.944-19.16 32.542-7.588 14.767-16.542 25.359-20.282 32.247Z"/>
  <path d="M61.176 146.346c-5.122 3.061-8.798-1.399-4.917-4.92 7.907-7.171 19.72-9.507 26.983-20.706 11.285-17.402 18.035-35.042 27.316-55.542 4.186-9.246 11.257-18.15 15.706-28.091 8.134-18.178 11.397-26.793 11.397-26.793S140.97-.71 144.709.036c3.343.668 4.186 2.05 4.745 8.196 1.207 13.265 3.09 15.302 7.985 29.475 4.415 12.783 5.262 23.853 9.961 36.435 6.071 16.254 18.415 23.373 24.611 37.446 6.197 14.073 1.739 13.67 10.35 33.594 2.452 5.672-2.658 7.134-6.76 0-6.153-10.7-5.999-19.881-11.88-33.594-5.88-13.713-17.634-19.931-23.92-35.602-4.871-12.144-4.331-22.848-8.808-35.143-5.106-14.02-7.179-28.512-7.179-28.512s-2.642 8.054-9.904 24.756c-5.108 11.75-13.21 23.307-18.231 34.636-8.811 19.88-14.854 36.36-25.677 53.117-7.39 11.444-16.306 14.025-28.826 21.506Z"/>
  <path d="M111.742 146.346h-1.921v-3.311h-6.079c-2.485 0 3.5-6.189 3.5-6.189h-2.5c-2.485 0 3.5-5.5 3.5-5.5h-2c-2.485 0 4.5-6 4.5-6s6.227 6 4 6h-1.5s5.485 5.5 3 5.5h-2.5s6.127 6.189 3.5 6.189h-5.5v3.311Zm18 4.189h-1.921v-3.311h-6.079c-2.485 0 3.5-6.189 3.5-6.189h-2.5c-2.485 0 3.5-5.5 3.5-5.5h-2c-2.485 0 4.5-6 4.5-6s6.227 6 4 6h-1.5s5.485 5.5 3 5.5h-2.5s6.127 6.189 3.5 6.189h-5.5v3.311Z"/>
</svg>
