<svg xmlns="http://www.w3.org/2000/svg" width="190" height="150" fill="currentColor" viewBox="0 0 190 150">
  <path d="M47.806 121.167s-23.116.405-24.503 0c-6.256-1.823-16.423-6.252-20.332-17.974C-.94 91.47-1.46 78.966 4.275 77.663c2.709-.615 7.82 4.429 15.378 6.513 28.025 7.727 62.039 8.075 62.039 8.075l-5.995 10.942-10.688 1.563-17.203 16.411Zm41.184 1.042v-7.033l20.072-22.925s27.955-1.2 43.791-4.168c20.854-3.907 23.46-7.814 30.498-13.025 2.814-2.083 4.882 3.067 5.735 5.732 2.586 8.075 1.303 39.087-25.806 40.377-34.394 1.637-74.29 1.042-74.29 1.042Z"/>
  <path d="M56.929 148.52c-3.65-2.344-6.778-4.949-10.688-8.857-1.303-1.302-3.649-3.44-1.303-5.991 8.863-9.639 24.502-24.227 24.502-24.227l7.56-1.563 39.882-45.371s-8.863 1.085-11.209 1.085c-1.824 0-10.948-8.597-10.948-8.597L84.559 86.26l-27.63-2.083s1.632-11.76 4.17-20.059c2.417-7.899 4.452-14.074 8.342-21.361 4.17-7.816 13.294-14.589 27.109-3.908 5.711 4.416 14.076 11.983 14.076 11.983s14.858-1.91 16.422-2.605c1.103-.49 7.803-6.914 11.916-11.195a2085.04 2085.04 0 0 1 3.202-3.654c1.383-1.201 4.091-1.722 5.474-.52 1.326 1.152 1.673 4.144.522 5.47l-64.906 74.765v8.075s-11.73 17.454-17.204 25.009c-3.587 4.949-5.995 4.354-9.123 2.344Zm50.829-134.16c.36 8.273-6.071 15.057-14.336 15.63-8.427.587-15.91-5.64-16.422-14.066C76.459 7.019 84.515-.564 93.422.033c7.9.53 13.992 6.422 14.336 14.328Zm5.996 131.816c-5.995-.519-12.773-3.386-15.119-6.513-1.398-1.863-1.564-5.99 3.91-5.209 5.474.781 6.256 4.689 14.337 3.907 8.012-.776 12.031-5.09 20.071-4.689 7.588.378 10.913 6.209 18.507 5.991 5.955-.17 11.99-4.428 14.597-4.428 2.607 0 5.735 2.865 2.347 5.731-3.389 2.866-9.424 4.776-16.944 5.21-8.159.47-12.16-5.235-20.332-5.21-8.073.024-13.331 5.906-21.374 5.21Z"/>
</svg>
