<svg xmlns="http://www.w3.org/2000/svg" width="165" height="150" fill="currentColor" viewBox="0 0 165 150">
  <path d="M30.557 147.342c-7.638 1.328-10.959-7.64-2.657-10.297 8.302-2.657 15.608-5.979 21.585-5.979 13.616 0 21.918 7.308 33.54 7.308 11.623 0 20.373-8.245 33.873-7.308 10.236.711 15.925 3.426 25.238 7.308 3.188 1.328 3.653 10.363-5.646 8.968-7.84-1.177-11.692-4.654-19.592-5.315-13.542-1.132-20.284 8.095-33.873 7.972-13.084-.119-22.249-7.972-32.544-7.972-8.053 0-11.99 3.934-19.924 5.315ZM4.322 118.777c-5.644-1.661-7.303-12.687 4.65-10.297 4.985.997 8.967 3.654 13.947 2.657 13.948-2.791 16.463-6.025 27.562-6.31 12.361-.319 18.702 5.592 30.885 6.31 15.716.927 23.141-7.976 38.852-6.975 11.082.707 22.917 6.975 27.565 6.975 3.714 0 6.182-.613 9.63-1.993 6.643-2.657 9.962 2.99 5.645 7.64-2.576 2.775-7.547 5.036-13.947 5.314-7.637.332-17.886-6.757-29.889-7.307-14.787-.678-22.393 7.557-37.193 7.307-12.97-.219-23.576-6.643-32.544-6.643-10.76 0-18.928 5.979-26.566 6.643-7.35.64-11.52-1.239-18.597-3.321Zm46.159-26.24c-5.976-.996-27.06 9.164-31.215 5.647-4.316-3.654 38.11-28.233 38.19-33.547.088-5.979-8.487-15.48-11.624-26.24-4.648-15.943 6.974-22.254 6.974-22.254S82.362 3.853 94.648.532c13.949-3.771 15.941 13.62 6.974 17.272-11.643 4.742-18.284 7.12-29.887 11.957-3.984 1.66-2.943 6.154-1.66 8.636 4.982 9.634 29.224 48.163 30.22 54.14.388 2.326-12.951 6.975-18.929 6.975-8.302 0-18.365-4.888-30.885-6.975Z"/>
  <path d="M138.483 53.676c-.361 11.736-9.847 20.747-21.585 20.925-11.926.18-21.883-9.002-22.25-20.925-.378-12.285 9.963-22.44 22.25-22.254 12.104.183 21.957 10.151 21.585 22.254Z"/>
</svg>
