<svg xmlns="http://www.w3.org/2000/svg" width="250" height="109" fill="currentColor" viewBox="0 0 250 109">
  <path d="M32.357 24.268c.829 0 2.975 7.967 5.25 11.524 4.42 6.915 11.88 13.573 11.88 13.573h-5.802s1.363 2.064 4.421 5.378c3.471 3.762 4.145 5.122 4.145 5.122l-7.737-1.024s-1.38 1.246 2.487 4.353c5.453 4.383 9.118 8.452 9.118 8.452L44.514 69.34s1.934 2.817 6.631 7.427c6.88 6.75 12.71 9.475 12.71 9.475l-14.92-1.792s2.822 4.287 7.184 8.195C64.408 100.072 68 102.633 68 102.633s-6.631 0-14.23-1.536c-7.598-1.537-14.23-1.537-14.23-1.537v8.708H27.937V99.56s-4.697-.512-13.954.769c-9.256 1.28-13.953.768-13.953.768s-1.098-.904 10.223-7.94c5.04-3.13 7.737-6.914 7.737-6.914H6.384s.628-1.319 8.29-6.402c4.532-3.008 7.183-7.427 7.183-7.427l-10.776 3.33s2.998-2.107 8.29-6.403c3.849-3.125 4.973-6.659 4.973-6.659l-8.013 2.049s.88-1.808 4.697-5.89c3.592-3.842 4.145-7.683 4.145-7.683l-8.013 3.585s3.868-5.378 8.842-12.805c4.973-7.427 5.526-17.67 6.355-17.67ZM118.922 0c1.048 0 3.763 10.27 6.639 14.854 5.591 8.912 15.026 17.494 15.026 17.494h-7.338s1.724 2.66 5.591 6.932c4.39 4.85 5.242 6.602 5.242 6.602l-9.785-1.32s-1.744 1.606 3.145 5.611c6.897 5.649 11.532 10.893 11.532 10.893l-14.677-2.97s2.446 3.63 8.387 9.572c8.7 8.701 16.074 12.213 16.074 12.213l-18.87-2.31s3.569 5.525 9.086 10.562C159.457 97.705 164 101.006 164 101.006s-8.387 0-17.996-1.98c-9.61-1.98-17.997-1.98-17.997-1.98v11.222h-14.676V97.045s-5.941-.66-17.647.99c-11.707 1.65-17.647.99-17.647.99s-1.389-1.165 12.93-10.232c6.372-4.036 9.784-8.912 9.784-8.912H86.074s.794-1.7 10.483-8.252c5.733-3.877 9.086-9.573 9.086-9.573l-13.629 4.291s3.791-2.715 10.484-8.252c4.868-4.028 6.29-8.582 6.29-8.582l-10.134 2.64s1.113-2.33 5.94-7.591c4.543-4.952 5.242-9.903 5.242-9.903L99.702 39.28s4.892-6.932 11.182-16.504C117.174 13.203 117.873 0 118.922 0Zm91.241 12.268c.927 0 3.326 9.105 5.868 13.17 4.941 7.903 13.279 15.512 13.279 15.512h-6.485s1.523 2.36 4.941 6.147c3.879 4.3 4.632 5.853 4.632 5.853l-8.647-1.17s-1.542 1.424 2.779 4.975c6.095 5.009 10.191 9.659 10.191 9.659l-12.97-2.634s2.162 3.22 7.412 8.488c7.688 7.715 14.205 10.829 14.205 10.829l-16.676-2.049s3.154 4.9 8.029 9.366C245.985 98.902 250 101.829 250 101.829s-7.411 0-15.904-1.757c-8.492-1.756-15.904-1.756-15.904-1.756v9.952h-12.97v-9.952s-5.249-.585-15.595.878c-10.345 1.464-15.595.878-15.595.878s-1.227-1.033 11.426-9.073c5.632-3.578 8.647-7.902 8.647-7.902h-12.97s.702-1.507 9.264-7.317c5.066-3.438 8.029-8.488 8.029-8.488l-12.043 3.805s3.35-2.408 9.264-7.317c4.302-3.572 5.559-7.61 5.559-7.61l-8.956 2.341s.984-2.066 5.25-6.731c4.015-4.39 4.632-8.78 4.632-8.78l-8.955 4.097s4.323-6.147 9.882-14.634c5.558-8.488 6.176-20.195 7.102-20.195Z"/>
</svg>
