<svg xmlns="http://www.w3.org/2000/svg" width="296" height="123" fill="currentColor" viewBox="0 0 296 123">
  <path d="M130.906 0c.716 0 2.571 11.594 4.537 16.77 3.82 10.062 10.267 19.752 10.267 19.752h-5.015s1.178 3.003 3.821 7.826c2.999 5.474 3.581 7.453 3.581 7.453l-6.685-1.49s-1.192 1.813 2.149 6.335c4.712 6.377 7.879 12.298 7.879 12.298l-10.028-3.354s1.671 4.1 5.73 10.807c5.945 9.825 10.984 13.79 10.984 13.79l-12.894-2.61s2.439 6.24 6.208 11.926c7.163 10.808 10.267 14.534 10.267 14.534s-5.73 0-12.297-2.236c-6.566-2.236-12.296-2.236-12.296-2.236v12.671h-10.028v-12.671s-4.059-.745-12.058 1.118c-7.999 1.864-12.058 1.118-12.058 1.118s-.949-1.315 8.835-11.553c4.354-4.556 6.685-10.062 6.685-10.062h-10.028s.542-1.919 7.163-9.316c3.917-4.377 6.208-10.808 6.208-10.808l-9.312 4.845s2.59-3.066 7.163-9.317c3.326-4.548 4.298-9.69 4.298-9.69l-6.925 2.982s.761-2.63 4.059-8.571c3.104-5.59 3.582-11.18 3.582-11.18l-6.924 5.217s3.342-7.826 7.64-18.634C129.712 14.907 130.19 0 130.906 0Z"/>
  <path d="M152.193 35.264c.509 0 1.827 8.248 3.224 11.931 2.714 7.159 7.295 14.053 7.295 14.053h-3.563s.837 2.137 2.714 5.568c2.132 3.894 2.545 5.302 2.545 5.302l-4.75-1.06s-.847 1.29 1.527 4.507c3.348 4.538 5.598 8.75 5.598 8.75l-7.125-2.386s1.187 2.916 4.071 7.689c4.224 6.99 7.804 9.81 7.804 9.81l-9.161-1.856s1.733 4.438 4.411 8.484c5.09 7.69 7.295 10.341 7.295 10.341s-4.071 0-8.737-1.591c-4.665-1.591-8.737-1.591-8.737-1.591v9.015h-7.125v-9.015s-2.884-.53-8.568.796c-5.683 1.325-8.567.795-8.567.795s-.674-.936 6.277-8.219c3.094-3.242 4.75-7.16 4.75-7.16h-7.125s.385-1.365 5.089-6.628c2.784-3.114 4.411-7.689 4.411-7.689l-6.616 3.447s1.841-2.18 5.09-6.628c2.363-3.236 3.053-6.894 3.053-6.894l-4.92 2.121s.541-1.872 2.884-6.098c2.206-3.977 2.545-7.955 2.545-7.955l-4.92 3.712s2.375-5.567 5.429-13.257c3.054-7.689 3.393-18.294 3.902-18.294Z"/>
  <path d="M170.34 66.674c.324 0 1.164 5.27 2.053 7.623 1.729 4.573 4.647 8.978 4.647 8.978h-2.269s.533 1.365 1.729 3.557c1.358 2.488 1.621 3.388 1.621 3.388l-3.026-.678s-.54.825.973 2.88a51.4 51.4 0 0 1 3.566 5.59l-4.539-1.525s.756 1.864 2.594 4.913c2.69 4.466 4.971 6.268 4.971 6.268l-5.836-1.186s1.104 2.836 2.81 5.421c3.242 4.912 4.647 6.606 4.647 6.606s-2.594 0-5.566-1.016c-2.972-1.017-5.565-1.017-5.565-1.017v5.76h-4.539v-5.76s-1.838-.339-5.458.508c-3.621.847-5.458.509-5.458.509s-.429-.598 3.999-5.252c1.971-2.071 3.026-4.573 3.026-4.573h-4.539s.245-.873 3.242-4.235c1.773-1.99 2.81-4.913 2.81-4.913l-4.215 2.202s1.172-1.393 3.242-4.234c1.506-2.068 1.946-4.405 1.946-4.405l-3.135 1.355s.345-1.195 1.838-3.896c1.405-2.54 1.621-5.082 1.621-5.082l-3.134 2.372s1.513-3.557 3.458-8.47c1.945-4.912 2.161-11.688 2.486-11.688Z"/>
  <path d="M187.01 50.73c.418 0 1.502 6.783 2.65 9.81 2.232 5.887 5.998 11.555 5.998 11.555h-2.929s.688 1.757 2.232 4.578c1.752 3.203 2.092 4.36 2.092 4.36l-3.906-.872s-.696 1.061 1.256 3.706c2.752 3.73 4.603 7.194 4.603 7.194l-5.859-1.962s.977 2.398 3.348 6.322c3.473 5.747 6.417 8.067 6.417 8.067l-7.533-1.526s1.425 3.649 3.627 6.976c4.185 6.322 5.998 8.502 5.998 8.502s-3.348 0-7.184-1.308c-3.836-1.308-7.184-1.308-7.184-1.308v7.412h-5.858v-7.412s-2.372-.436-7.045.654c-4.672 1.09-7.044.654-7.044.654s-.554-.77 5.161-6.758c2.544-2.666 3.906-5.886 3.906-5.886h-5.859s.317-1.123 4.185-5.45c2.289-2.56 3.627-6.323 3.627-6.323l-5.44 2.834s1.513-1.793 4.185-5.45c1.943-2.66 2.51-5.668 2.51-5.668l-4.045 1.744s.444-1.539 2.371-5.014c1.814-3.27 2.093-6.54 2.093-6.54l-4.045 3.052s1.952-4.578 4.463-10.9 2.79-15.042 3.209-15.042Zm-79.489-27.058c.577 0 2.071 9.349 3.653 13.522 3.077 8.113 8.268 15.926 8.268 15.926h-4.038s.949 2.422 3.077 6.31c2.415 4.415 2.884 6.01 2.884 6.01l-5.384-1.201s-.96 1.462 1.731 5.108c3.794 5.142 6.345 9.916 6.345 9.916l-8.076-2.704s1.346 3.305 4.615 8.714c4.787 7.922 8.844 11.118 8.844 11.118l-10.382-2.103s1.963 5.03 4.999 9.616c5.768 8.714 8.267 11.719 8.267 11.719s-4.614 0-9.902-1.803c-5.287-1.803-9.902-1.803-9.902-1.803v10.217h-8.075v-10.217s-3.269-.601-9.71.901c-6.44 1.503-9.71.902-9.71.902s-.764-1.061 7.115-9.315c3.506-3.674 5.383-8.114 5.383-8.114h-8.075s.437-1.547 5.768-7.512c3.154-3.53 4.999-8.714 4.999-8.714l-7.499 3.906s2.086-2.472 5.769-7.512c2.678-3.667 3.46-7.813 3.46-7.813L96.37 71.15s.612-2.121 3.268-6.912c2.5-4.507 2.884-9.014 2.884-9.014l-5.576 4.207s2.692-6.31 6.153-15.025c3.461-8.714 3.845-20.734 4.422-20.734Zm176.366 44.543c-.31 0-1.114 5.043-1.965 7.295-1.655 4.377-4.447 8.592-4.447 8.592h2.172s-.511 1.307-1.655 3.405c-1.3 2.381-1.552 3.242-1.552 3.242l2.896-.649s.517.79-.93 2.756a49.096 49.096 0 0 0-3.414 5.35l4.344-1.459s-.724 1.783-2.482 4.701c-2.575 4.274-4.758 5.999-4.758 5.999l5.586-1.135s-1.057 2.714-2.69 5.188c-3.103 4.701-4.447 6.322-4.447 6.322s2.482 0 5.327-.973c2.844-.972 5.326-.972 5.326-.972v5.512h4.344v-5.512s1.758-.324 5.223.486c3.465.811 5.223.486 5.223.486s.411-.572-3.826-5.025c-1.887-1.982-2.896-4.377-2.896-4.377h4.344s-.235-.835-3.103-4.053c-1.697-1.904-2.689-4.702-2.689-4.702l4.033 2.108s-1.122-1.333-3.103-4.053c-1.441-1.978-1.861-4.215-1.861-4.215l2.999 1.297s-.329-1.144-1.758-3.729c-1.345-2.431-1.552-4.863-1.552-4.863l3 2.27s-1.448-3.405-3.31-8.106c-1.862-4.701-2.068-11.186-2.379-11.186Z"/>
  <path d="M219.397 52.357c-.401 0-1.438 6.569-2.537 9.501-2.136 5.7-5.74 11.19-5.74 11.19h2.803s-.658 1.701-2.136 4.433c-1.677 3.102-2.002 4.223-2.002 4.223l3.738-.844s.666 1.027-1.202 3.589a64.088 64.088 0 0 0-4.405 6.967l5.607-1.9s-.935 2.322-3.204 6.122c-3.324 5.566-6.141 7.812-6.141 7.812l7.209-1.478s-1.363 3.534-3.471 6.756c-4.005 6.123-5.74 8.234-5.74 8.234s3.204 0 6.875-1.267c3.671-1.266 6.875-1.266 6.875-1.266v7.178h5.607v-7.178s2.269-.423 6.741.633c4.472 1.056 6.742.633 6.742.633s.53-.745-4.94-6.545c-2.434-2.581-3.738-5.7-3.738-5.7h5.607s-.303-1.087-4.005-5.278c-2.19-2.48-3.47-6.123-3.47-6.123l5.206 2.745s-1.448-1.737-4.005-5.278c-1.86-2.577-2.403-5.49-2.403-5.49l3.871 1.69s-.425-1.49-2.269-4.856c-1.735-3.167-2.002-6.334-2.002-6.334l3.871 2.956s-1.869-4.434-4.272-10.557c-2.403-6.122-2.67-14.568-3.07-14.568Z"/>
  <path d="M235.971 62.67c-.401 0-1.438 5.59-2.536 8.086-2.136 4.851-5.741 9.523-5.741 9.523h2.804s-.659 1.448-2.136 3.773c-1.677 2.64-2.003 3.594-2.003 3.594l3.738-.719s.667.874-1.201 3.055a53.91 53.91 0 0 0-4.406 5.93l5.607-1.618s-.934 1.977-3.204 5.21c-3.323 4.737-6.141 6.649-6.141 6.649l7.209-1.258s-1.363 3.008-3.471 5.75c-4.005 5.211-5.74 7.008-5.74 7.008s3.204 0 6.875-1.078c3.671-1.079 6.875-1.079 6.875-1.079v6.11h5.607v-6.11s2.269-.359 6.741.54c4.472.898 6.742.539 6.742.539s.53-.635-4.939-5.571c-2.435-2.196-3.738-4.851-3.738-4.851h5.607s-.304-.925-4.005-4.492c-2.19-2.11-3.471-5.21-3.471-5.21l5.206 2.335s-1.448-1.478-4.005-4.492c-1.86-2.193-2.403-4.672-2.403-4.672l3.872 1.438s-.425-1.269-2.27-4.133c-1.735-2.695-2.002-5.39-2.002-5.39l3.871 2.515s-1.869-3.773-4.272-8.984c-2.403-5.21-2.67-12.398-3.07-12.398Zm-31.18 11.553c-.274 0-.984 4.473-1.737 6.47-1.462 3.883-3.93 7.621-3.93 7.621h1.919s-.451 1.159-1.462 3.02c-1.148 2.112-1.371 2.875-1.371 2.875l2.559-.575s.457.7-.822 2.445a43.596 43.596 0 0 0-3.017 4.745l3.839-1.294s-.64 1.581-2.193 4.169c-2.276 3.791-4.205 5.321-4.205 5.321l4.936-1.007s-.934 2.407-2.377 4.601c-2.742 4.17-3.93 5.608-3.93 5.608s2.194 0 4.707-.863c2.514-.862 4.707-.862 4.707-.862v4.889h3.839v-4.889s1.554-.288 4.616.431c3.062.719 4.616.431 4.616.431s.363-.507-3.382-4.457c-1.667-1.758-2.559-3.882-2.559-3.882h3.839s-.208-.741-2.742-3.595c-1.5-1.689-2.377-4.17-2.377-4.17l3.565 1.869s-.992-1.182-2.742-3.594c-1.274-1.755-1.645-3.739-1.645-3.739l2.65 1.15s-.291-1.015-1.554-3.307c-1.188-2.157-1.371-4.314-1.371-4.314l2.651 2.014s-1.28-3.02-2.925-7.19c-1.645-4.17-1.828-9.921-2.102-9.921Z"/>
  <path d="M267.348 27.064c-.552 0-1.981 8.947-3.496 12.941-2.944 7.765-7.912 15.242-7.912 15.242h3.864s-.908 2.318-2.944 6.04c-2.312 4.224-2.76 5.75-2.76 5.75l5.152-1.15s.919 1.4-1.656 4.89c-3.632 4.92-6.072 9.49-6.072 9.49l7.728-2.589s-1.288 3.164-4.416 8.34c-4.581 7.581-8.465 10.64-8.465 10.64l9.937-2.013s-1.88 4.814-4.784 9.203c-5.521 8.34-7.913 11.215-7.913 11.215s4.417 0 9.477-1.725c5.06-1.725 9.476-1.725 9.476-1.725v9.777h7.728v-9.777s3.129-.576 9.293.862 9.292.863 9.292.863.731-1.015-6.808-8.915c-3.356-3.516-5.152-7.764-5.152-7.764h7.728s-.418-1.481-5.52-7.19c-3.019-3.377-4.784-8.34-4.784-8.34l7.176 3.739s-1.996-2.366-5.52-7.19c-2.564-3.509-3.313-7.477-3.313-7.477l5.337 2.3s-.586-2.03-3.128-6.613c-2.393-4.314-2.761-8.628-2.761-8.628l5.337 4.026s-2.576-6.039-5.889-14.379c-3.312-8.34-3.68-19.842-4.232-19.842Z"/>
  <path d="M251.319 38.113c-.378 0-1.36 7.92-2.399 11.455-2.02 6.873-5.43 13.491-5.43 13.491h2.652s-.623 2.052-2.021 5.346c-1.586 3.74-1.894 5.09-1.894 5.09l3.536-1.017s.63 1.238-1.136 4.327a82.909 82.909 0 0 0-4.168 8.4l5.304-2.291s-.884 2.8-3.031 7.382c-3.144 6.71-5.809 9.418-5.809 9.418l6.82-1.781s-1.29 4.261-3.284 8.145c-3.788 7.382-5.43 9.927-5.43 9.927s3.031 0 6.504-1.527c3.472-1.527 6.503-1.527 6.503-1.527v8.655h5.304v-8.655s2.147-.509 6.377.764c4.23 1.272 6.377.763 6.377.763s.502-.898-4.672-7.891c-2.303-3.112-3.536-6.873-3.536-6.873h5.304s-.287-1.31-3.789-6.363c-2.071-2.99-3.283-7.382-3.283-7.382l4.925 3.309s-1.37-2.094-3.788-6.364c-1.76-3.106-2.274-6.618-2.274-6.618l3.663 2.036s-.403-1.797-2.147-5.854c-1.642-3.819-1.894-7.637-1.894-7.637l3.662 3.564s-1.768-5.346-4.041-12.728c-2.273-7.382-2.526-17.564-2.905-17.564ZM90.887 68.215c-.31 0-1.114 5.043-1.965 7.295-1.655 4.377-4.447 8.592-4.447 8.592h2.172s-.51 1.307-1.655 3.405c-1.3 2.381-1.552 3.242-1.552 3.242l2.896-.649s.517.79-.93 2.756a49.096 49.096 0 0 0-3.414 5.35l4.344-1.459s-.724 1.783-2.482 4.701c-2.575 4.274-4.758 5.999-4.758 5.999l5.585-1.135s-1.056 2.714-2.689 5.188c-3.103 4.701-4.447 6.322-4.447 6.322s2.482 0 5.326-.973c2.845-.972 5.327-.972 5.327-.972v5.512h4.344v-5.512s1.758-.324 5.223.486c3.465.811 5.223.486 5.223.486s.411-.572-3.826-5.025c-1.887-1.982-2.896-4.377-2.896-4.377h4.344s-.235-.835-3.103-4.053c-1.697-1.904-2.69-4.702-2.69-4.702l4.034 2.108s-1.122-1.333-3.103-4.053c-1.44-1.978-1.861-4.215-1.861-4.215l3 1.297s-.33-1.144-1.76-3.729c-1.344-2.431-1.55-4.863-1.55-4.863l2.999 2.27s-1.448-3.405-3.31-8.106c-1.862-4.701-2.068-11.186-2.379-11.186Zm-64.49-15.858c-.4 0-1.438 6.569-2.537 9.501-2.136 5.7-5.74 11.19-5.74 11.19h2.803s-.658 1.701-2.135 4.433c-1.678 3.102-2.003 4.223-2.003 4.223l3.738-.844s.666 1.027-1.202 3.589a64.088 64.088 0 0 0-4.405 6.967l5.607-1.9s-.935 2.322-3.204 6.122c-3.324 5.566-6.14 7.812-6.14 7.812l7.208-1.478s-1.364 3.534-3.47 6.756c-4.006 6.123-5.741 8.234-5.741 8.234s3.204 0 6.875-1.267c3.67-1.266 6.875-1.266 6.875-1.266v7.178h5.607v-7.178s2.27-.423 6.741.633c4.472 1.056 6.742.633 6.742.633s.53-.745-4.94-6.545c-2.434-2.581-3.737-5.7-3.737-5.7h5.606s-.303-1.087-4.005-5.278c-2.19-2.48-3.47-6.123-3.47-6.123l5.206 2.745s-1.448-1.737-4.005-5.278c-1.86-2.577-2.403-5.49-2.403-5.49l3.871 1.69s-.425-1.49-2.269-4.856c-1.735-3.167-2.002-6.334-2.002-6.334l3.871 2.956s-1.869-4.434-4.272-10.557c-2.403-6.122-2.67-14.568-3.07-14.568Z"/>
  <path d="M42.97 62.67c-.4 0-1.437 5.59-2.535 8.086-2.136 4.851-5.74 9.523-5.74 9.523h2.803s-.659 1.448-2.136 3.773c-1.678 2.64-2.003 3.594-2.003 3.594l3.738-.719s.667.874-1.201 3.055c-2.635 3.075-4.406 5.93-4.406 5.93l5.607-1.618s-.934 1.977-3.204 5.21c-3.323 4.737-6.14 6.649-6.14 6.649l7.208-1.258s-1.363 3.008-3.47 5.75c-4.006 5.211-5.741 7.008-5.741 7.008s3.204 0 6.875-1.078c3.671-1.079 6.875-1.079 6.875-1.079v6.11h5.607v-6.11s2.27-.359 6.741.54c4.473.898 6.742.539 6.742.539s.53-.635-4.94-5.571c-2.434-2.196-3.737-4.851-3.737-4.851h5.607s-.304-.925-4.005-4.492c-2.19-2.11-3.471-5.21-3.471-5.21l5.206 2.335s-1.448-1.478-4.005-4.492c-1.86-2.193-2.403-4.672-2.403-4.672l3.872 1.438s-.425-1.269-2.27-4.133c-1.735-2.695-2.002-5.39-2.002-5.39l3.871 2.515s-1.869-3.773-4.272-8.984c-2.403-5.21-2.67-12.398-3.07-12.398ZM11.79 74.223c-.273 0-.983 4.473-1.736 6.47-1.462 3.883-3.93 7.621-3.93 7.621h1.92s-.452 1.159-1.463 3.02c-1.148 2.112-1.371 2.875-1.371 2.875l2.56-.575s.456.7-.823 2.445c-1.804 2.46-3.017 4.745-3.017 4.745l3.84-1.294s-.64 1.581-2.194 4.169C3.3 107.49 1.37 109.02 1.37 109.02l4.936-1.007s-.934 2.407-2.377 4.601c-2.742 4.17-3.93 5.608-3.93 5.608s2.194 0 4.707-.863c2.514-.862 4.707-.862 4.707-.862v4.889h3.84v-4.889s1.553-.288 4.615.431c3.062.719 4.616.431 4.616.431s.363-.507-3.382-4.457c-1.667-1.758-2.56-3.882-2.56-3.882h3.84s-.208-.741-2.742-3.595c-1.5-1.689-2.377-4.17-2.377-4.17l3.565 1.869s-.992-1.182-2.742-3.594c-1.274-1.755-1.645-3.739-1.645-3.739l2.65 1.15s-.29-1.015-1.554-3.307c-1.188-2.157-1.37-4.314-1.37-4.314l2.65 2.014s-1.28-3.02-2.925-7.19c-1.645-4.17-1.828-9.921-2.102-9.921Z"/>
  <path d="M74.348 27.064c-.552 0-1.981 8.947-3.496 12.941-2.944 7.765-7.912 15.242-7.912 15.242h3.864s-.908 2.318-2.944 6.04c-2.312 4.224-2.76 5.75-2.76 5.75l5.152-1.15s.919 1.4-1.656 4.89c-3.632 4.92-6.072 9.49-6.072 9.49l7.728-2.589s-1.288 3.164-4.416 8.34c-4.581 7.581-8.465 10.64-8.465 10.64l9.937-2.013s-1.88 4.814-4.784 9.203c-5.52 8.34-7.913 11.215-7.913 11.215s4.417 0 9.477-1.725c5.06-1.725 9.476-1.725 9.476-1.725v9.777h7.728v-9.777s3.129-.576 9.293.862 9.292.863 9.292.863.731-1.015-6.808-8.915c-3.356-3.516-5.152-7.764-5.152-7.764h7.728s-.418-1.481-5.52-7.19c-3.019-3.377-4.784-8.34-4.784-8.34l7.176 3.739s-1.996-2.366-5.52-7.19c-2.564-3.509-3.313-7.477-3.313-7.477l5.337 2.3s-.586-2.03-3.128-6.613c-2.392-4.314-2.76-8.628-2.76-8.628l5.336 4.026s-2.576-6.039-5.889-14.379c-3.312-8.34-3.68-19.842-4.232-19.842Z"/>
  <path d="M58.32 38.113c-.38 0-1.36 7.92-2.4 11.455-2.02 6.873-5.43 13.491-5.43 13.491h2.652s-.623 2.052-2.02 5.346c-1.587 3.74-1.895 5.09-1.895 5.09l3.536-1.017s.63 1.238-1.136 4.327a83.024 83.024 0 0 0-4.168 8.4l5.304-2.291s-.884 2.8-3.03 7.382c-3.145 6.71-5.81 9.418-5.81 9.418l6.82-1.781s-1.29 4.261-3.284 8.145c-3.788 7.382-5.43 9.927-5.43 9.927s3.031 0 6.504-1.527c3.472-1.527 6.503-1.527 6.503-1.527v8.655h5.304v-8.655s2.147-.509 6.377.764c4.23 1.272 6.377.763 6.377.763s.502-.898-4.672-7.891c-2.303-3.112-3.536-6.873-3.536-6.873h5.304s-.287-1.31-3.789-6.363c-2.071-2.99-3.283-7.382-3.283-7.382l4.925 3.309s-1.37-2.094-3.789-6.364c-1.759-3.106-2.273-6.618-2.273-6.618l3.663 2.036s-.403-1.797-2.147-5.854c-1.642-3.819-1.894-7.637-1.894-7.637l3.662 3.564s-1.768-5.346-4.041-12.728c-2.273-7.382-2.526-17.564-2.905-17.564Z"/>
</svg>
