<svg xmlns="http://www.w3.org/2000/svg" width="405" height="122" fill="currentColor" viewBox="0 0 405 122">
  <path d="M45.898 0c.716 0 2.572 11.594 4.537 16.77 3.82 10.062 10.267 19.752 10.267 19.752h-5.014s1.178 3.003 3.82 7.826c3 5.474 3.581 7.453 3.581 7.453l-6.685-1.49s-1.192 1.813 2.149 6.335c4.712 6.377 7.88 12.298 7.88 12.298l-10.03-3.354s1.672 4.1 5.731 10.807c5.945 9.825 10.984 13.79 10.984 13.79l-12.894-2.61s2.439 6.24 6.208 11.926c7.163 10.808 10.267 14.534 10.267 14.534s-5.73 0-12.296-2.236c-6.567-2.236-12.297-2.236-12.297-2.236V122H42.078v-12.435s-4.06-.745-12.058 1.118c-7.999 1.864-12.058 1.118-12.058 1.118s-.948-1.315 8.835-11.553c4.354-4.556 6.685-10.062 6.685-10.062H23.454s.542-1.919 7.163-9.316c3.917-4.377 6.208-10.808 6.208-10.808l-9.312 4.845s2.59-3.066 7.163-9.317c3.326-4.548 4.298-9.69 4.298-9.69l-6.924 2.982s.76-2.63 4.059-8.571c3.104-5.59 3.581-11.18 3.581-11.18l-6.924 5.217s3.343-7.826 7.64-18.634C44.705 14.907 45.183 0 45.898 0Z"/>
  <path d="M67.183 35.264c.51 0 1.827 8.248 3.224 11.931 2.714 7.159 7.295 14.053 7.295 14.053h-3.563s.837 2.137 2.715 5.568c2.13 3.894 2.544 5.302 2.544 5.302l-4.75-1.06s-.847 1.29 1.527 4.507c3.348 4.538 5.598 8.75 5.598 8.75l-7.125-2.386s1.188 2.916 4.072 7.689c4.223 6.99 7.804 9.81 7.804 9.81l-9.162-1.856s1.733 4.438 4.411 8.484c5.09 7.69 7.295 10.341 7.295 10.341s-4.071 0-8.737-1.591c-4.665-1.591-8.831-1.591-8.831-1.591V122h-7l-.031-8.785s-2.884-.53-8.567.796c-5.684 1.325-8.568.795-8.568.795s-.674-.936 6.277-8.219c3.094-3.242 4.75-7.16 4.75-7.16h-7.125s.386-1.365 5.09-6.628c2.783-3.114 4.41-7.689 4.41-7.689l-6.616 3.447s1.84-2.18 5.09-6.628c2.363-3.236 3.053-6.894 3.053-6.894l-4.92 2.121s.54-1.872 2.885-6.098c2.205-3.977 2.544-7.955 2.544-7.955l-4.92 3.712s2.376-5.567 5.43-13.257c3.053-7.689 3.392-18.294 3.901-18.294Z"/>
  <path d="M85.332 66.676c.324 0 1.164 5.27 2.053 7.623 1.73 4.573 4.647 8.978 4.647 8.978h-2.27s.534 1.365 1.73 3.557c1.358 2.488 1.621 3.388 1.621 3.388l-3.026-.678s-.54.825.973 2.88a51.232 51.232 0 0 1 3.566 5.59l-4.539-1.524s.757 1.863 2.594 4.912c2.69 4.465 4.971 6.268 4.971 6.268l-5.836-1.186s1.104 2.835 2.81 5.42c3.242 4.913 4.647 6.607 4.647 6.607s-2.593 0-5.565-1.016c-2.972-1.017-5.566-1.017-5.566-1.017V122H83.5v-5.522s-1.734-.339-5.355.508c-3.62.847-5.458.509-5.458.509s-.43-.598 3.999-5.252c1.97-2.071 3.026-4.573 3.026-4.573h-4.539s.245-.873 3.242-4.235c1.773-1.99 2.81-4.913 2.81-4.913l-4.215 2.202s1.173-1.393 3.242-4.234c1.506-2.068 1.946-4.405 1.946-4.405l-3.134 1.355s.344-1.195 1.837-3.896c1.405-2.54 1.621-5.082 1.621-5.082l-3.134 2.372s1.513-3.557 3.458-8.47c1.945-4.912 2.162-11.688 2.486-11.688Z"/>
  <path d="M102.002 50.73c.418 0 1.502 6.783 2.65 9.81 2.232 5.887 5.998 11.555 5.998 11.555h-2.929s.688 1.757 2.232 4.578c1.752 3.203 2.092 4.36 2.092 4.36l-3.906-.872s-.696 1.061 1.256 3.706c2.753 3.73 4.603 7.194 4.603 7.194l-5.859-1.962s.977 2.398 3.348 6.322c3.473 5.747 6.417 8.067 6.417 8.067l-7.533-1.526s1.425 3.649 3.627 6.976c4.185 6.322 5.998 8.502 5.998 8.502s-3.348 0-7.184-1.308c-3.836-1.308-7.183-1.308-7.183-1.308V122h-5.86v-7.176s-2.37-.436-7.043.654-7.045.654-7.045.654-.554-.77 5.162-6.758c2.543-2.666 3.905-5.886 3.905-5.886H88.89s.317-1.123 4.184-5.45c2.289-2.56 3.627-6.323 3.627-6.323l-5.44 2.834s1.513-1.793 4.185-5.45c1.943-2.66 2.51-5.668 2.51-5.668l-4.045 1.744s.445-1.539 2.372-5.014c1.813-3.27 2.092-6.54 2.092-6.54l-4.045 3.052s1.953-4.578 4.463-10.9c2.511-6.322 2.79-15.042 3.209-15.042ZM22.515 23.672c.577 0 2.071 9.349 3.654 13.522 3.076 8.113 8.267 15.926 8.267 15.926h-4.038s.95 2.422 3.077 6.31c2.415 4.415 2.884 6.01 2.884 6.01l-5.384-1.201s-.96 1.462 1.73 5.108c3.795 5.142 6.346 9.916 6.346 9.916l-8.076-2.704s1.346 3.305 4.615 8.714c4.787 7.922 8.844 11.118 8.844 11.118l-10.382-2.103s1.963 5.03 4.999 9.616c5.768 8.714 8.267 11.719 8.267 11.719s-4.614 0-9.902-1.803c-5.287-1.803-9.902-1.803-9.902-1.803L27.5 122h-8l-.06-9.983s-3.27-.601-9.71.901c-6.442 1.503-9.71.902-9.71.902s-.764-1.061 7.114-9.315c3.506-3.674 5.383-8.114 5.383-8.114H4.442s.437-1.547 5.768-7.512c3.154-3.53 5-8.714 5-8.714l-7.5 3.906s2.087-2.471 5.77-7.511c2.678-3.667 3.46-7.813 3.46-7.813l-5.575 2.404s.612-2.121 3.268-6.912c2.5-4.507 2.884-9.014 2.884-9.014l-5.575 4.207s2.691-6.31 6.152-15.025c3.461-8.714 3.846-20.734 4.422-20.734ZM196.887 68.15c-.31 0-1.114 5.044-1.965 7.296-1.655 4.377-4.447 8.592-4.447 8.592h2.172s-.511 1.306-1.655 3.404c-1.3 2.382-1.552 3.242-1.552 3.242l2.896-.648s.517.789-.93 2.756a49.028 49.028 0 0 0-3.414 5.35l4.344-1.46s-.724 1.784-2.482 4.702c-2.575 4.274-4.758 5.998-4.758 5.998l5.586-1.134s-1.057 2.713-2.69 5.187c-3.103 4.702-4.447 6.323-4.447 6.323s2.482 0 5.327-.973c2.844-.973 5.326-.973 5.326-.973V122h4.302v-6.188s1.8-.324 5.265.487c3.465.81 5.223.486 5.223.486s.411-.572-3.826-5.026c-1.887-1.982-2.896-4.377-2.896-4.377h4.344s-.235-.835-3.103-4.053c-1.697-1.903-2.689-4.7-2.689-4.7l4.033 2.107s-1.122-1.334-3.103-4.053c-1.441-1.979-1.861-4.215-1.861-4.215l2.999 1.297s-.329-1.145-1.758-3.729c-1.345-2.432-1.552-4.864-1.552-4.864l3 2.27s-1.448-3.404-3.31-8.106c-1.862-4.701-2.068-11.186-2.379-11.186Z"/>
  <path d="M132.397 52.293c-.401 0-1.438 6.568-2.537 9.5-2.136 5.701-5.74 11.19-5.74 11.19h2.803s-.658 1.702-2.136 4.434c-1.677 3.102-2.002 4.223-2.002 4.223l3.738-.845s.666 1.028-1.202 3.59c-2.634 3.612-4.405 6.966-4.405 6.966l5.607-1.9s-.935 2.323-3.204 6.123c-3.324 5.566-6.141 7.812-6.141 7.812l7.209-1.478s-1.364 3.534-3.471 6.756c-4.005 6.122-5.74 8.234-5.74 8.234s3.204 0 6.875-1.267 6.949-1.267 6.949-1.267V122h5.5l.033-7.636s2.269-.422 6.741.634c4.472 1.055 6.742.633 6.742.633s.53-.745-4.94-6.545c-2.434-2.581-3.738-5.7-3.738-5.7h5.607s-.303-1.088-4.005-5.279c-2.19-2.48-3.47-6.122-3.47-6.122l5.206 2.744s-1.448-1.736-4.005-5.278c-1.86-2.576-2.403-5.49-2.403-5.49l3.871 1.69s-.425-1.49-2.269-4.856c-1.735-3.167-2.002-6.334-2.002-6.334l3.871 2.956s-1.869-4.434-4.272-10.556c-2.403-6.123-2.67-14.568-3.07-14.568Z"/>
  <path d="M148.971 62.605c-.401 0-1.438 5.59-2.536 8.086-2.136 4.852-5.741 9.523-5.741 9.523h2.804s-.659 1.448-2.136 3.774c-1.677 2.64-2.003 3.593-2.003 3.593l3.738-.718s.667.874-1.201 3.054a53.899 53.899 0 0 0-4.406 5.93l5.607-1.617s-.934 1.976-3.204 5.21c-3.323 4.737-6.141 6.649-6.141 6.649l7.209-1.258s-1.363 3.008-3.471 5.75c-4.005 5.21-5.74 7.007-5.74 7.007s3.204 0 6.875-1.078 6.875-1.078 6.875-1.078V122h5.607v-6.568s2.269-.359 6.741.539c4.472.898 6.742.539 6.742.539s.53-.634-4.939-5.57c-2.435-2.197-3.738-4.851-3.738-4.851h5.607s-.304-.926-4.005-4.493c-2.19-2.11-3.471-5.21-3.471-5.21l5.206 2.336s-1.448-1.478-4.005-4.492c-1.86-2.193-2.403-4.672-2.403-4.672l3.872 1.437s-.425-1.268-2.27-4.132c-1.735-2.696-2.002-5.39-2.002-5.39l3.871 2.515s-1.869-3.774-4.272-8.984c-2.403-5.211-2.67-12.399-3.07-12.399Zm-31.18 11.553c-.274 0-.984 4.474-1.737 6.47-1.462 3.883-3.93 7.622-3.93 7.622h1.919s-.451 1.159-1.462 3.02c-1.148 2.112-1.371 2.875-1.371 2.875l2.559-.575s.457.7-.822 2.444c-1.804 2.46-3.017 4.745-3.017 4.745l3.839-1.294s-.64 1.582-2.193 4.17c-2.276 3.791-4.205 5.32-4.205 5.32l4.936-1.006s-.934 2.407-2.377 4.601c-2.742 4.17-3.93 5.608-3.93 5.608s2.194 0 4.707-.863c2.514-.863 4.707-.863 4.707-.863V122h3.839v-5.568s1.554-.287 4.616.432c3.062.719 4.616.431 4.616.431s.363-.508-3.382-4.457c-1.667-1.759-2.559-3.883-2.559-3.883h3.839s-.208-.74-2.742-3.595c-1.5-1.688-2.377-4.169-2.377-4.169l3.565 1.869s-.992-1.183-2.742-3.595c-1.274-1.755-1.645-3.738-1.645-3.738l2.65 1.15s-.291-1.015-1.554-3.307c-1.188-2.157-1.371-4.314-1.371-4.314l2.651 2.013s-1.28-3.02-2.925-7.19c-1.645-4.17-1.828-9.92-2.102-9.92Z"/>
  <path d="M180.348 27c-.552 0-1.981 8.947-3.496 12.941-2.944 7.765-7.912 15.242-7.912 15.242h3.864s-.908 2.318-2.944 6.039c-2.312 4.224-2.76 5.751-2.76 5.751l5.152-1.15s.919 1.4-1.656 4.889c-3.632 4.921-6.072 9.49-6.072 9.49l7.728-2.588s-1.288 3.163-4.416 8.34c-4.581 7.58-8.465 10.64-8.465 10.64l9.937-2.013s-1.88 4.814-4.784 9.202c-5.521 8.34-7.913 11.216-7.913 11.216s4.417 0 9.477-1.725c5.06-1.726 9.412-1.726 9.412-1.726V122h7.792v-10.452s3.129-.575 9.293.863 9.292.863 9.292.863.731-1.016-6.808-8.915c-3.356-3.516-5.152-7.765-5.152-7.765h7.728s-.418-1.48-5.52-7.19c-3.019-3.377-4.784-8.34-4.784-8.34l7.176 3.74s-1.996-2.366-5.52-7.19c-2.564-3.51-3.313-7.477-3.313-7.477l5.337 2.3s-.586-2.03-3.128-6.614c-2.393-4.314-2.761-8.627-2.761-8.627l5.337 4.026s-2.576-6.04-5.889-14.38C181.268 38.504 180.9 27 180.348 27Z"/>
  <path d="M164.319 38.049c-.378 0-1.36 7.92-2.399 11.455-2.02 6.872-5.43 13.49-5.43 13.49h2.652s-.623 2.052-2.021 5.346c-1.586 3.74-1.894 5.091-1.894 5.091l3.536-1.018s.63 1.239-1.136 4.327a83.027 83.027 0 0 0-4.168 8.4l5.304-2.29s-.884 2.8-3.031 7.382c-3.144 6.71-5.809 9.418-5.809 9.418l6.82-1.782s-1.29 4.261-3.284 8.146c-3.788 7.382-5.43 9.927-5.43 9.927s3.031 0 6.504-1.527c3.472-1.528 6.503-1.528 6.503-1.528L161 122h5.34v-9.114s2.147-.509 6.377.764c4.23 1.273 6.377.764 6.377.764s.502-.899-4.672-7.891c-2.303-3.113-3.536-6.873-3.536-6.873h5.304s-.287-1.311-3.789-6.364c-2.071-2.99-3.283-7.382-3.283-7.382l4.925 3.31s-1.37-2.094-3.788-6.364c-1.76-3.107-2.274-6.619-2.274-6.619l3.663 2.037s-.403-1.797-2.147-5.855c-1.642-3.818-1.894-7.636-1.894-7.636l3.662 3.563s-1.768-5.345-4.041-12.727c-2.273-7.382-2.526-17.564-2.905-17.564ZM236.902 0c.716 0 2.571 11.594 4.537 16.77 3.82 10.062 10.267 19.752 10.267 19.752h-5.014s1.177 3.003 3.82 7.826c3 5.474 3.581 7.453 3.581 7.453l-6.685-1.49s-1.192 1.813 2.149 6.335c4.712 6.377 7.879 12.298 7.879 12.298l-10.028-3.354s1.671 4.1 5.73 10.807c5.945 9.825 10.984 13.79 10.984 13.79l-12.894-2.61s2.439 6.24 6.208 11.926c7.163 10.808 10.267 14.534 10.267 14.534s-5.73 0-12.296-2.236C248.84 109.565 243 109.5 243 109.5V122h-10v-12.5s-3.977-.68-11.976 1.183c-7.999 1.864-12.058 1.118-12.058 1.118s-.949-1.315 8.835-11.553c4.354-4.556 6.685-10.062 6.685-10.062h-10.028s.542-1.919 7.163-9.316c3.917-4.377 6.208-10.808 6.208-10.808l-9.312 4.845s2.59-3.066 7.163-9.317c3.326-4.548 4.298-9.69 4.298-9.69l-6.924 2.982s.76-2.63 4.059-8.571c3.104-5.59 3.581-11.18 3.581-11.18l-6.924 5.217s3.343-7.826 7.64-18.634C235.708 14.907 236.186 0 236.902 0Z"/>
  <path d="M258.185 35.264c.509 0 1.827 8.248 3.224 11.931 2.714 7.159 7.295 14.053 7.295 14.053h-3.563s.837 2.137 2.714 5.568c2.132 3.894 2.545 5.302 2.545 5.302l-4.75-1.06s-.847 1.29 1.527 4.507c3.348 4.538 5.598 8.75 5.598 8.75l-7.125-2.386s1.188 2.916 4.072 7.689c4.223 6.99 7.804 9.81 7.804 9.81l-9.162-1.856s1.733 4.438 4.411 8.484c5.09 7.69 7.295 10.341 7.295 10.341s-4.071 0-8.737-1.591c-4.665-1.591-8.737-1.591-8.737-1.591V122h-7.125v-8.785s-2.884-.53-8.567.796c-5.684 1.325-8.568.795-8.568.795s-.674-.936 6.277-8.219c3.094-3.242 4.75-7.16 4.75-7.16h-7.125s.386-1.365 5.09-6.628c2.783-3.114 4.411-7.689 4.411-7.689l-6.617 3.447s1.841-2.18 5.09-6.628c2.363-3.236 3.053-6.894 3.053-6.894l-4.919 2.121s.54-1.872 2.884-6.098c2.205-3.977 2.544-7.955 2.544-7.955l-4.919 3.712s2.375-5.567 5.428-13.257c3.054-7.689 3.393-18.294 3.902-18.294Z"/>
  <path d="M276.334 66.676c.324 0 1.164 5.27 2.053 7.623 1.729 4.573 4.647 8.978 4.647 8.978h-2.269s.533 1.365 1.729 3.557c1.358 2.488 1.621 3.388 1.621 3.388l-3.026-.678s-.539.825.973 2.88a51.21 51.21 0 0 1 3.566 5.59l-4.539-1.524s.757 1.863 2.594 4.912c2.691 4.465 4.971 6.268 4.971 6.268l-5.836-1.186s1.104 2.835 2.81 5.42c3.242 4.913 4.647 6.607 4.647 6.607s-2.593 0-5.565-1.016c-2.972-1.017-5.566-1.017-5.566-1.017V122h-4.539v-5.522s-1.838-.339-5.458.508c-3.621.847-5.458.509-5.458.509s-.429-.598 3.999-5.252c1.971-2.071 3.026-4.573 3.026-4.573h-4.539s.245-.873 3.242-4.235c1.773-1.99 2.81-4.913 2.81-4.913l-4.215 2.202s1.173-1.393 3.242-4.234c1.506-2.068 1.946-4.405 1.946-4.405l-3.134 1.355s.344-1.195 1.837-3.896c1.405-2.54 1.621-5.082 1.621-5.082l-3.134 2.372s1.513-3.557 3.458-8.47c1.945-4.912 2.162-11.688 2.486-11.688Z"/>
  <path d="M293.002 50.73c.418 0 1.502 6.783 2.65 9.81 2.232 5.887 5.998 11.555 5.998 11.555h-2.929s.688 1.757 2.232 4.578c1.752 3.203 2.092 4.36 2.092 4.36l-3.906-.872s-.696 1.061 1.256 3.706c2.753 3.73 4.603 7.194 4.603 7.194l-5.859-1.962s.977 2.398 3.348 6.322c3.473 5.747 6.417 8.067 6.417 8.067l-7.533-1.526s1.425 3.649 3.627 6.976c4.185 6.322 5.998 8.502 5.998 8.502s-3.348 0-7.184-1.308c-3.836-1.308-7.183-1.308-7.183-1.308V122h-5.859v-7.176s-2.371-.436-7.044.654-7.045.654-7.045.654-.554-.77 5.162-6.758c2.543-2.666 3.905-5.886 3.905-5.886h-5.858s.317-1.123 4.184-5.45c2.289-2.56 3.627-6.323 3.627-6.323l-5.44 2.834s1.513-1.793 4.185-5.45c1.943-2.66 2.511-5.668 2.511-5.668l-4.046 1.744s.444-1.539 2.372-5.014c1.813-3.27 2.092-6.54 2.092-6.54l-4.045 3.052s1.953-4.578 4.463-10.9c2.511-6.322 2.79-15.042 3.209-15.042Zm-79.487-28.058c.577 0 2.071 9.349 3.654 13.522 3.076 8.113 8.267 15.926 8.267 15.926h-4.037s.948 2.422 3.076 6.31c2.415 4.415 2.884 6.01 2.884 6.01l-5.384-1.201s-.96 1.462 1.731 5.108c3.794 5.142 6.345 9.916 6.345 9.916l-8.076-2.704s1.346 3.305 4.615 8.714c4.787 7.922 8.844 11.118 8.844 11.118l-10.382-2.103s1.963 5.03 4.999 9.616c5.768 8.714 8.267 11.719 8.267 11.719s-4.614 0-9.902-1.803c-5.287-1.803-9.902-1.803-9.902-1.803V122h-8.075v-10.983s-3.269-.601-9.71.901c-6.441 1.503-9.709.902-9.709.902s-.764-1.061 7.114-9.315c3.506-3.674 5.383-8.114 5.383-8.114h-8.075s.437-1.547 5.768-7.512c3.154-3.53 4.999-8.714 4.999-8.714l-7.498 3.906s2.085-2.472 5.768-7.512c2.678-3.667 3.461-7.813 3.461-7.813l-5.576 2.404s.612-2.121 3.268-6.912c2.5-4.507 2.884-9.014 2.884-9.014l-5.576 4.207s2.692-6.31 6.153-15.025c3.461-8.714 3.846-20.734 4.422-20.734ZM392.887 69.15c-.31 0-1.114 5.044-1.965 7.296-1.655 4.377-4.447 8.592-4.447 8.592h2.172s-.511 1.306-1.655 3.404c-1.3 2.382-1.552 3.242-1.552 3.242l2.896-.648s.517.789-.93 2.756a48.986 48.986 0 0 0-3.414 5.35l4.344-1.46s-.724 1.784-2.482 4.702c-2.575 4.274-4.758 5.998-4.758 5.998l5.586-1.134s-1.057 2.713-2.69 5.187c-3.103 4.702-4.447 6.323-4.447 6.323s2.482 0 5.327-.973c2.844-.973 5.326-.973 5.326-.973V122h4.302v-5.188s1.8-.324 5.265.487c3.465.81 5.223.486 5.223.486s.411-.572-3.826-5.026c-1.887-1.982-2.896-4.377-2.896-4.377h4.344s-.235-.835-3.103-4.053c-1.697-1.903-2.689-4.7-2.689-4.7l4.033 2.107s-1.122-1.334-3.103-4.053c-1.441-1.979-1.861-4.215-1.861-4.215l2.999 1.297s-.329-1.145-1.758-3.729c-1.345-2.432-1.552-4.864-1.552-4.864l3 2.27s-1.448-3.404-3.31-8.106c-1.862-4.701-2.068-11.186-2.379-11.186Zm-64.49-15.857c-.401 0-1.438 6.568-2.537 9.5-2.136 5.701-5.74 11.19-5.74 11.19h2.803s-.658 1.702-2.136 4.434c-1.677 3.102-2.002 4.223-2.002 4.223l3.738-.845s.666 1.028-1.202 3.59c-2.634 3.612-4.405 6.966-4.405 6.966l5.607-1.9s-.935 2.323-3.204 6.123c-3.324 5.566-6.141 7.812-6.141 7.812l7.209-1.478s-1.364 3.534-3.471 6.756c-4.005 6.122-5.74 8.234-5.74 8.234s3.204 0 6.875-1.267 6.949-1.267 6.949-1.267V122h5.5v-6.636s2.302-.422 6.774.634c4.472 1.055 6.742.633 6.742.633s.53-.745-4.94-6.545c-2.434-2.581-3.738-5.7-3.738-5.7h5.607s-.303-1.088-4.005-5.279c-2.19-2.48-3.47-6.122-3.47-6.122l5.206 2.744s-1.448-1.736-4.005-5.278c-1.86-2.576-2.403-5.49-2.403-5.49l3.871 1.69s-.425-1.49-2.269-4.856c-1.735-3.167-2.002-6.334-2.002-6.334l3.871 2.956s-1.869-4.434-4.272-10.556c-2.403-6.123-2.67-14.568-3.07-14.568Z"/>
  <path d="M344.971 63.605c-.401 0-1.438 5.59-2.536 8.086-2.136 4.852-5.741 9.523-5.741 9.523h2.804s-.659 1.448-2.136 3.774c-1.677 2.64-2.003 3.593-2.003 3.593l3.738-.718s.667.874-1.201 3.054a53.899 53.899 0 0 0-4.406 5.93l5.607-1.617s-.934 1.976-3.204 5.21c-3.323 4.737-6.141 6.649-6.141 6.649l7.209-1.258s-1.363 3.008-3.471 5.75c-4.005 5.21-5.74 7.007-5.74 7.007s3.204 0 6.875-1.078 6.875-1.078 6.875-1.078V122h5.5v-5.568s2.376-.359 6.848.539c4.472.898 6.742.539 6.742.539s.53-.634-4.939-5.57c-2.435-2.197-3.738-4.851-3.738-4.851h5.607s-.304-.926-4.005-4.493c-2.19-2.11-3.471-5.21-3.471-5.21l5.206 2.336s-1.448-1.478-4.005-4.492c-1.86-2.193-2.403-4.672-2.403-4.672l3.872 1.437s-.425-1.268-2.27-4.132c-1.735-2.696-2.002-5.39-2.002-5.39l3.871 2.515s-1.869-3.774-4.272-8.984c-2.403-5.211-2.67-12.399-3.07-12.399Zm-31.18 11.553c-.274 0-.984 4.474-1.737 6.47-1.462 3.883-3.93 7.622-3.93 7.622h1.919s-.451 1.159-1.462 3.02c-1.148 2.112-1.371 2.875-1.371 2.875l2.559-.575s.457.7-.822 2.444c-1.804 2.46-3.017 4.745-3.017 4.745l3.839-1.294s-.64 1.582-2.193 4.17c-2.276 3.791-4.205 5.32-4.205 5.32l4.936-1.006s-.934 2.407-2.377 4.601c-2.742 4.17-3.93 5.608-3.93 5.608s2.194 0 4.707-.863c2.514-.863 4.707-.863 4.707-.863V122h3.839v-4.568s1.554-.287 4.616.432c3.062.719 4.616.431 4.616.431s.363-.508-3.382-4.457c-1.667-1.759-2.559-3.883-2.559-3.883h3.839s-.208-.74-2.742-3.595c-1.5-1.688-2.377-4.169-2.377-4.169l3.565 1.869s-.992-1.183-2.742-3.595c-1.274-1.755-1.645-3.738-1.645-3.738l2.65 1.15s-.291-1.015-1.554-3.307c-1.188-2.157-1.371-4.314-1.371-4.314l2.651 2.013s-1.28-3.02-2.925-7.19c-1.645-4.17-1.828-9.92-2.102-9.92Z"/>
  <path d="M376.348 28c-.552 0-1.981 8.947-3.496 12.941-2.944 7.765-7.912 15.242-7.912 15.242h3.864s-.908 2.318-2.944 6.039c-2.312 4.224-2.76 5.751-2.76 5.751l5.152-1.15s.919 1.4-1.656 4.889c-3.632 4.921-6.072 9.49-6.072 9.49l7.728-2.588s-1.288 3.163-4.416 8.34c-4.581 7.58-8.465 10.64-8.465 10.64l9.937-2.013s-1.88 4.814-4.784 9.202c-5.521 8.34-7.913 11.216-7.913 11.216s4.417 0 9.477-1.725c5.06-1.726 9.412-1.726 9.412-1.726V122h7.792v-9.452s3.129-.575 9.293.863 9.292.863 9.292.863.731-1.016-6.808-8.915c-3.356-3.516-5.152-7.765-5.152-7.765h7.728s-.418-1.48-5.52-7.19c-3.019-3.377-4.784-8.34-4.784-8.34l7.176 3.74s-1.996-2.366-5.52-7.19c-2.564-3.51-3.313-7.477-3.313-7.477l5.337 2.3s-.586-2.03-3.128-6.614c-2.393-4.314-2.761-8.627-2.761-8.627l5.337 4.026s-2.576-6.04-5.889-14.38C377.268 39.504 376.9 28 376.348 28Z"/>
  <path d="M360.319 39.049c-.378 0-1.36 7.92-2.399 11.455-2.02 6.872-5.43 13.49-5.43 13.49h2.652s-.623 2.052-2.021 5.346c-1.586 3.74-1.894 5.091-1.894 5.091l3.536-1.018s.63 1.239-1.136 4.327a83.027 83.027 0 0 0-4.168 8.4l5.304-2.29s-.884 2.8-3.031 7.382c-3.144 6.71-5.809 9.418-5.809 9.418l6.82-1.782s-1.29 4.261-3.284 8.146c-3.788 7.382-5.43 9.927-5.43 9.927s3.031 0 6.504-1.527C354.005 113.886 357 114 357 114v8h5.34v-8.114s2.147-.509 6.377.764c4.23 1.273 6.377.764 6.377.764s.502-.899-4.672-7.891c-2.303-3.113-3.536-6.873-3.536-6.873h5.304s-.287-1.311-3.789-6.364c-2.071-2.99-3.283-7.382-3.283-7.382l4.925 3.31s-1.37-2.094-3.788-6.364c-1.76-3.107-2.274-6.619-2.274-6.619l3.663 2.037s-.403-1.797-2.147-5.855c-1.642-3.818-1.894-7.636-1.894-7.636l3.662 3.563s-1.768-5.345-4.041-12.727c-2.273-7.382-2.526-17.564-2.905-17.564Z"/>
</svg>
