<svg xmlns="http://www.w3.org/2000/svg" width="1645" height="249" fill="currentColor" viewBox="0 0 1645 249">
  <path d="M94.91.016c.716 0 2.571 11.594 4.537 16.77 3.82 10.062 10.266 19.751 10.266 19.751h-5.014s1.178 3.004 3.821 7.827c2.999 5.474 3.581 7.453 3.581 7.453l-6.685-1.49s-1.192 1.813 2.149 6.335c4.712 6.377 7.879 12.298 7.879 12.298l-10.028-3.354s1.671 4.1 5.73 10.807c5.945 9.824 10.983 13.789 10.983 13.789l-12.893-2.609s2.439 6.239 6.208 11.926c7.163 10.807 10.267 14.534 10.267 14.534s-5.73 0-12.297-2.236c-6.566-2.236-12.296-2.236-12.296-2.236v12.671H91.09v-12.671s-4.06-.745-12.058 1.118c-7.999 1.863-12.058 1.118-12.058 1.118s-.949-1.316 8.834-11.553c4.355-4.556 6.686-10.062 6.686-10.062H72.466s.542-1.92 7.163-9.317c3.917-4.377 6.208-10.807 6.208-10.807l-9.312 4.844s2.59-3.065 7.163-9.316c3.326-4.548 4.298-9.69 4.298-9.69l-6.925 2.982s.76-2.631 4.06-8.572c3.103-5.59 3.58-11.18 3.58-11.18l-6.923 5.218s3.342-7.827 7.64-18.634C93.716 14.922 94.194.016 94.91.016Z"/>
  <path d="M116.197 35.28c.509 0 1.827 8.248 3.223 11.93 2.715 7.16 7.295 14.053 7.295 14.053h-3.562s.837 2.137 2.714 5.568c2.132 3.895 2.545 5.303 2.545 5.303l-4.75-1.06s-.847 1.29 1.527 4.507c3.348 4.537 5.598 8.75 5.598 8.75l-7.125-2.387s1.187 2.917 4.071 7.69c4.224 6.989 7.804 9.81 7.804 9.81l-9.161-1.856s1.733 4.438 4.411 8.484c5.09 7.689 7.295 10.341 7.295 10.341s-4.072 0-8.737-1.591-8.737-1.591-8.737-1.591v9.015h-7.125v-9.015s-2.884-.53-8.568.795c-5.683 1.326-8.567.796-8.567.796s-.674-.936 6.277-8.22c3.094-3.241 4.75-7.159 4.75-7.159h-7.125s.385-1.365 5.089-6.628c2.784-3.114 4.411-7.69 4.411-7.69l-6.616 3.448s1.84-2.181 5.089-6.629c2.364-3.235 3.054-6.894 3.054-6.894l-4.92 2.122s.541-1.872 2.884-6.099c2.206-3.977 2.545-7.954 2.545-7.954l-4.92 3.712s2.375-5.568 5.429-13.257c3.054-7.689 3.393-18.295 3.902-18.295Z"/>
  <path d="M134.344 66.691c.324 0 1.164 5.27 2.053 7.623 1.729 4.574 4.647 8.978 4.647 8.978h-2.269s.533 1.365 1.729 3.558c1.358 2.488 1.621 3.387 1.621 3.387l-3.026-.677s-.54.824.973 2.88a51.394 51.394 0 0 1 3.566 5.59l-4.539-1.525s.756 1.863 2.594 4.913c2.69 4.465 4.971 6.267 4.971 6.267l-5.836-1.186s1.104 2.836 2.81 5.421c3.242 4.913 4.647 6.607 4.647 6.607s-2.594 0-5.566-1.017c-2.972-1.016-5.565-1.016-5.565-1.016v5.759h-4.54v-5.759s-1.837-.339-5.457.508c-3.621.847-5.458.508-5.458.508s-.429-.598 3.999-5.251c1.971-2.071 3.026-4.574 3.026-4.574h-4.539s.245-.872 3.242-4.235c1.773-1.989 2.81-4.912 2.81-4.912l-4.215 2.202s1.172-1.393 3.242-4.235c1.506-2.067 1.945-4.404 1.945-4.404l-3.134 1.355s.344-1.196 1.838-3.896c1.405-2.541 1.621-5.082 1.621-5.082L128.4 86.85s1.513-3.558 3.458-8.47c1.945-4.913 2.161-11.689 2.486-11.689Z"/>
  <path d="M151.014 50.746c.418 0 1.502 6.782 2.65 9.81 2.232 5.886 5.998 11.555 5.998 11.555h-2.929s.688 1.757 2.231 4.578c1.753 3.202 2.093 4.36 2.093 4.36l-3.906-.872s-.696 1.06 1.256 3.706c2.752 3.73 4.603 7.194 4.603 7.194l-5.859-1.962s.977 2.398 3.348 6.322c3.473 5.747 6.416 8.066 6.416 8.066l-7.532-1.526s1.425 3.65 3.627 6.976c4.184 6.323 5.998 8.503 5.998 8.503s-3.348 0-7.184-1.308c-3.836-1.308-7.184-1.308-7.184-1.308v7.412h-5.858v-7.412s-2.372-.436-7.045.654-7.044.654-7.044.654-.554-.77 5.161-6.759c2.544-2.665 3.906-5.886 3.906-5.886h-5.859s.317-1.122 4.185-5.45c2.288-2.56 3.627-6.322 3.627-6.322l-5.44 2.834s1.513-1.793 4.184-5.45c1.944-2.66 2.511-5.668 2.511-5.668l-4.045 1.744s.444-1.539 2.371-5.014c1.814-3.27 2.093-6.54 2.093-6.54l-4.045 3.052s1.952-4.578 4.463-10.9c2.511-6.323 2.79-15.043 3.209-15.043ZM71.53 23.688c.576 0 2.07 9.348 3.652 13.522 3.077 8.113 8.268 15.926 8.268 15.926h-4.038s.949 2.422 3.076 6.31c2.416 4.415 2.885 6.01 2.885 6.01l-5.384-1.202s-.96 1.463 1.73 5.108c3.795 5.143 6.345 9.917 6.345 9.917l-8.075-2.705s1.346 3.306 4.614 8.715c4.788 7.921 8.845 11.118 8.845 11.118l-10.383-2.103s1.964 5.03 5 9.615c5.767 8.715 8.267 11.72 8.267 11.72s-4.614 0-9.902-1.803c-5.287-1.803-9.902-1.803-9.902-1.803v10.216h-8.075v-10.216s-3.269-.601-9.71.901c-6.441 1.503-9.71.902-9.71.902s-.764-1.061 7.114-9.316c3.507-3.674 5.384-8.113 5.384-8.113h-8.075s.436-1.547 5.768-7.512c3.154-3.53 4.999-8.715 4.999-8.715l-7.499 3.907s2.086-2.472 5.768-7.513c2.679-3.666 3.461-7.813 3.461-7.813l-5.576 2.404s.613-2.12 3.269-6.91c2.5-4.508 2.884-9.016 2.884-9.016l-5.576 4.207s2.692-6.31 6.153-15.024c3.46-8.715 3.845-20.734 4.422-20.734Zm23.384 224.658c.716 0 2.571-11.595 4.536-16.77 3.821-10.063 10.267-19.752 10.267-19.752h-5.014s1.178-3.004 3.821-7.826c2.999-5.475 3.581-7.454 3.581-7.454l-6.685 1.491s-1.192-1.814 2.148-6.335c4.713-6.378 7.88-12.298 7.88-12.298l-10.028 3.354s1.671-4.1 5.73-10.808c5.945-9.824 10.983-13.789 10.983-13.789l-12.893 2.609s2.439-6.238 6.208-11.925c7.163-10.808 10.267-14.535 10.267-14.535s-5.731 0-12.297 2.236c-6.566 2.236-12.296 2.236-12.296 2.236v-12.67H91.094v12.67s-4.06.746-12.058-1.118c-7.999-1.863-12.058-1.118-12.058-1.118s-.949 1.316 8.834 11.553c4.355 4.557 6.686 10.062 6.686 10.062H72.47s.542 1.919 7.163 9.317c3.917 4.377 6.208 10.808 6.208 10.808l-9.312-4.845s2.59 3.065 7.163 9.317c3.326 4.547 4.298 9.689 4.298 9.689l-6.925-2.981s.76 2.63 4.06 8.571c3.103 5.59 3.58 11.18 3.58 11.18l-6.924-5.217s3.343 7.826 7.641 18.633c4.298 10.808 4.776 25.715 5.492 25.715Z"/>
  <path d="M116.197 213.082c.509 0 1.827-8.249 3.223-11.931 2.715-7.159 7.295-14.053 7.295-14.053h-3.562s.837-2.137 2.714-5.568c2.132-3.895 2.545-5.303 2.545-5.303l-4.75 1.061s-.847-1.29 1.527-4.507c3.348-4.538 5.598-8.75 5.598-8.75l-7.125 2.386s1.187-2.916 4.071-7.689c4.224-6.989 7.804-9.81 7.804-9.81l-9.161 1.856s1.733-4.439 4.411-8.485c5.09-7.689 7.295-10.34 7.295-10.34s-4.072 0-8.737 1.591c-4.665 1.59-8.737 1.59-8.737 1.59v-9.014h-7.125v9.014s-2.884.531-8.568-.795c-5.683-1.326-8.567-.795-8.567-.795s-.674.936 6.277 8.219c3.094 3.242 4.75 7.159 4.75 7.159h-7.125s.385 1.365 5.089 6.628c2.784 3.114 4.411 7.689 4.411 7.689l-6.616-3.446s1.84 2.181 5.089 6.628c2.364 3.236 3.054 6.894 3.054 6.894l-4.92-2.121s.541 1.871 2.884 6.098c2.206 3.977 2.545 7.954 2.545 7.954l-4.92-3.712s2.375 5.568 5.429 13.257c3.054 7.689 3.393 18.295 3.902 18.295Z"/>
  <path d="M134.348 181.672c.324 0 1.163-5.27 2.053-7.623 1.729-4.574 4.647-8.978 4.647-8.978h-2.269s.533-1.365 1.729-3.557c1.358-2.489 1.621-3.388 1.621-3.388l-3.026.677s-.54-.824.972-2.879c2.133-2.899 3.567-5.59 3.567-5.59l-4.539 1.524s.756-1.863 2.594-4.912c2.69-4.466 4.971-6.268 4.971-6.268l-5.836 1.186s1.104-2.836 2.81-5.421c3.242-4.912 4.647-6.606 4.647-6.606s-2.594 0-5.566 1.016-5.566 1.016-5.566 1.016v-5.759h-4.539v5.759s-1.837.339-5.457-.508c-3.621-.847-5.458-.508-5.458-.508s-.43.598 3.999 5.251c1.971 2.072 3.026 4.574 3.026 4.574h-4.539s.245.872 3.242 4.235c1.773 1.989 2.81 4.912 2.81 4.912l-4.215-2.202s1.172 1.394 3.242 4.235c1.506 2.067 1.945 4.404 1.945 4.404l-3.134-1.355s.344 1.196 1.837 3.896c1.405 2.541 1.622 5.082 1.622 5.082l-3.135-2.371s1.513 3.557 3.459 8.47c1.945 4.912 2.161 11.688 2.486 11.688Z"/>
  <path d="M151.014 197.615c.418 0 1.502-6.782 2.65-9.81 2.232-5.886 5.998-11.554 5.998-11.554h-2.929s.688-1.757 2.231-4.578c1.753-3.203 2.093-4.36 2.093-4.36l-3.906.872s-.696-1.061 1.256-3.707c2.752-3.73 4.603-7.194 4.603-7.194l-5.859 1.962s.977-2.398 3.348-6.322c3.473-5.747 6.416-8.066 6.416-8.066l-7.532 1.526s1.425-3.649 3.627-6.976c4.184-6.322 5.998-8.502 5.998-8.502s-3.348 0-7.184 1.308c-3.836 1.308-7.184 1.308-7.184 1.308v-7.412h-5.858v7.412s-2.372.436-7.045-.654-7.044-.654-7.044-.654-.554.769 5.161 6.758c2.544 2.665 3.906 5.886 3.906 5.886h-5.859s.317 1.123 4.185 5.45c2.288 2.56 3.627 6.322 3.627 6.322l-5.44-2.834s1.513 1.793 4.184 5.45c1.944 2.661 2.511 5.668 2.511 5.668l-4.045-1.744s.444 1.539 2.371 5.015c1.814 3.27 2.093 6.54 2.093 6.54l-4.045-3.052s1.952 4.578 4.463 10.9 2.79 15.042 3.209 15.042ZM71.53 224.674c.576 0 2.07-9.349 3.652-13.522 3.077-8.114 8.268-15.927 8.268-15.927h-4.038s.949-2.421 3.076-6.31c2.416-4.414 2.885-6.01 2.885-6.01l-5.384 1.202s-.96-1.462 1.73-5.108c3.795-5.143 6.345-9.916 6.345-9.916l-8.075 2.704s1.346-3.305 4.614-8.714c4.788-7.922 8.845-11.119 8.845-11.119l-10.383 2.104s1.964-5.03 5-9.616c5.767-8.714 8.267-11.719 8.267-11.719s-4.614 0-9.902 1.803c-5.287 1.803-9.902 1.803-9.902 1.803v-10.217h-8.075v10.217s-3.269.601-9.71-.902c-6.441-1.502-9.71-.901-9.71-.901s-.764 1.061 7.114 9.315c3.507 3.674 5.384 8.113 5.384 8.113h-8.075s.436 1.548 5.768 7.513c3.154 3.529 4.999 8.714 4.999 8.714l-7.499-3.906s2.086 2.471 5.768 7.512c2.679 3.667 3.461 7.813 3.461 7.813l-5.576-2.404s.613 2.121 3.269 6.911c2.5 4.508 2.884 9.015 2.884 9.015l-5.576-4.207s2.692 6.31 6.153 15.025c3.46 8.714 3.845 20.734 4.422 20.734ZM279.902.016c.716 0 2.571 11.594 4.537 16.77 3.82 10.062 10.267 19.751 10.267 19.751h-5.014s1.177 3.004 3.82 7.827c3 5.474 3.581 7.453 3.581 7.453l-6.685-1.49s-1.192 1.813 2.149 6.335c4.712 6.377 7.879 12.298 7.879 12.298l-10.028-3.354s1.671 4.1 5.73 10.807c5.945 9.824 10.984 13.789 10.984 13.789l-12.894-2.609s2.439 6.239 6.208 11.926c7.163 10.807 10.267 14.534 10.267 14.534s-5.73 0-12.296-2.236c-6.567-2.236-12.297-2.236-12.297-2.236v12.671h-10.028v-12.671s-4.059-.745-12.058 1.118-12.058 1.118-12.058 1.118-.949-1.316 8.835-11.553c4.354-4.556 6.685-10.062 6.685-10.062h-10.028s.542-1.92 7.163-9.317c3.917-4.377 6.208-10.807 6.208-10.807l-9.312 4.844s2.59-3.065 7.163-9.316c3.326-4.548 4.298-9.69 4.298-9.69l-6.924 2.982s.76-2.631 4.059-8.572c3.104-5.59 3.581-11.18 3.581-11.18l-6.924 5.218s3.343-7.827 7.64-18.634c4.298-10.808 4.776-25.714 5.492-25.714Z"/>
  <path d="M301.185 35.28c.509 0 1.827 8.248 3.224 11.93 2.714 7.16 7.295 14.053 7.295 14.053h-3.563s.837 2.137 2.714 5.568c2.132 3.895 2.545 5.303 2.545 5.303l-4.75-1.06s-.847 1.29 1.527 4.507c3.348 4.537 5.598 8.75 5.598 8.75l-7.125-2.387s1.188 2.917 4.072 7.69c4.223 6.989 7.804 9.81 7.804 9.81l-9.162-1.856s1.733 4.438 4.411 8.484c5.09 7.689 7.295 10.341 7.295 10.341s-4.071 0-8.737-1.591c-4.665-1.591-8.737-1.591-8.737-1.591v9.015h-7.125v-9.015s-2.884-.53-8.567.795c-5.684 1.326-8.568.796-8.568.796s-.674-.936 6.277-8.22c3.094-3.241 4.75-7.159 4.75-7.159h-7.125s.386-1.365 5.09-6.628c2.783-3.114 4.411-7.69 4.411-7.69l-6.617 3.448s1.841-2.181 5.09-6.629c2.363-3.235 3.053-6.894 3.053-6.894l-4.919 2.122s.54-1.872 2.884-6.099c2.205-3.977 2.544-7.954 2.544-7.954l-4.919 3.712s2.375-5.568 5.428-13.257c3.054-7.689 3.393-18.295 3.902-18.295Z"/>
  <path d="M319.336 66.691c.324 0 1.164 5.27 2.053 7.623 1.729 4.574 4.647 8.978 4.647 8.978h-2.269s.533 1.365 1.729 3.558c1.358 2.488 1.621 3.387 1.621 3.387l-3.026-.677s-.539.824.973 2.88a51.21 51.21 0 0 1 3.566 5.59l-4.539-1.525s.757 1.863 2.594 4.913c2.691 4.465 4.971 6.267 4.971 6.267l-5.836-1.186s1.104 2.836 2.81 5.421c3.242 4.913 4.647 6.607 4.647 6.607s-2.593 0-5.565-1.017c-2.972-1.016-5.566-1.016-5.566-1.016v5.759h-4.539v-5.759s-1.838-.339-5.458.508c-3.621.847-5.458.508-5.458.508s-.429-.598 3.999-5.251c1.971-2.071 3.026-4.574 3.026-4.574h-4.539s.245-.872 3.242-4.235c1.773-1.989 2.81-4.912 2.81-4.912l-4.215 2.202s1.173-1.393 3.242-4.235c1.506-2.067 1.946-4.404 1.946-4.404l-3.134 1.355s.344-1.196 1.837-3.896c1.405-2.541 1.621-5.082 1.621-5.082l-3.134 2.372s1.513-3.558 3.458-8.47c1.945-4.913 2.162-11.689 2.486-11.689Z"/>
  <path d="M336.002 50.746c.418 0 1.502 6.782 2.65 9.81 2.232 5.886 5.998 11.555 5.998 11.555h-2.929s.688 1.757 2.232 4.578c1.752 3.202 2.092 4.36 2.092 4.36l-3.906-.872s-.696 1.06 1.256 3.706c2.753 3.73 4.603 7.194 4.603 7.194l-5.859-1.962s.977 2.398 3.348 6.322c3.473 5.747 6.417 8.066 6.417 8.066l-7.533-1.526s1.425 3.65 3.627 6.976c4.185 6.323 5.998 8.503 5.998 8.503s-3.348 0-7.184-1.308c-3.836-1.308-7.183-1.308-7.183-1.308v7.412h-5.859v-7.412s-2.371-.436-7.044.654-7.045.654-7.045.654-.554-.77 5.162-6.759c2.543-2.665 3.905-5.886 3.905-5.886h-5.858s.317-1.122 4.184-5.45c2.289-2.56 3.627-6.322 3.627-6.322l-5.44 2.834s1.513-1.793 4.185-5.45c1.943-2.66 2.511-5.668 2.511-5.668l-4.046 1.744s.444-1.539 2.372-5.014c1.813-3.27 2.092-6.54 2.092-6.54l-4.045 3.052s1.953-4.578 4.463-10.9c2.511-6.323 2.79-15.043 3.209-15.043Zm-79.485-27.058c.577 0 2.071 9.348 3.653 13.522 3.077 8.113 8.268 15.926 8.268 15.926H264.4s.949 2.422 3.077 6.31c2.415 4.415 2.884 6.01 2.884 6.01l-5.384-1.202s-.96 1.463 1.731 5.108c3.794 5.143 6.345 9.917 6.345 9.917l-8.076-2.705s1.346 3.306 4.615 8.715c4.787 7.921 8.844 11.118 8.844 11.118l-10.382-2.103s1.963 5.03 4.999 9.615c5.768 8.715 8.267 11.72 8.267 11.72s-4.614 0-9.902-1.803c-5.287-1.803-9.902-1.803-9.902-1.803v10.216h-8.075v-10.216s-3.269-.601-9.71.901c-6.441 1.503-9.709.902-9.709.902s-.764-1.061 7.114-9.316c3.506-3.674 5.383-8.113 5.383-8.113h-8.075s.437-1.547 5.768-7.512c3.154-3.53 4.999-8.715 4.999-8.715l-7.499 3.907s2.086-2.472 5.769-7.513c2.678-3.666 3.46-7.813 3.46-7.813l-5.575 2.404s.612-2.12 3.268-6.91c2.5-4.508 2.884-9.016 2.884-9.016l-5.576 4.207s2.692-6.31 6.153-15.024c3.461-8.715 3.846-20.734 4.422-20.734Zm23.385 224.658c.716 0 2.571-11.595 4.537-16.77 3.82-10.063 10.267-19.752 10.267-19.752h-5.014s1.177-3.004 3.82-7.826c3-5.475 3.581-7.454 3.581-7.454l-6.685 1.491s-1.192-1.814 2.149-6.335c4.712-6.378 7.879-12.298 7.879-12.298l-10.028 3.354s1.671-4.1 5.73-10.808c5.945-9.824 10.984-13.789 10.984-13.789l-12.894 2.609s2.439-6.238 6.208-11.925c7.163-10.808 10.267-14.535 10.267-14.535s-5.73 0-12.296 2.236c-6.567 2.236-12.297 2.236-12.297 2.236v-12.67h-10.028v12.67s-4.059.746-12.058-1.118c-7.999-1.863-12.058-1.118-12.058-1.118s-.949 1.316 8.835 11.553c4.354 4.557 6.685 10.062 6.685 10.062h-10.028s.542 1.919 7.163 9.317c3.917 4.377 6.208 10.808 6.208 10.808l-9.312-4.845s2.59 3.065 7.163 9.317c3.326 4.547 4.298 9.689 4.298 9.689l-6.924-2.981s.76 2.63 4.059 8.571c3.104 5.59 3.581 11.18 3.581 11.18l-6.924-5.217s3.343 7.826 7.64 18.633c4.298 10.808 4.776 25.715 5.492 25.715Z"/>
  <path d="M301.185 213.082c.509 0 1.827-8.249 3.224-11.931 2.714-7.159 7.295-14.053 7.295-14.053h-3.563s.837-2.137 2.714-5.568c2.132-3.895 2.545-5.303 2.545-5.303l-4.75 1.061s-.847-1.29 1.527-4.507c3.348-4.538 5.598-8.75 5.598-8.75l-7.125 2.386s1.188-2.916 4.072-7.689c4.223-6.989 7.804-9.81 7.804-9.81l-9.162 1.856s1.733-4.439 4.411-8.485c5.09-7.689 7.295-10.34 7.295-10.34s-4.071 0-8.737 1.591c-4.665 1.59-8.737 1.59-8.737 1.59v-9.014h-7.125v9.014s-2.884.531-8.567-.795c-5.684-1.326-8.568-.795-8.568-.795s-.674.936 6.277 8.219c3.094 3.242 4.75 7.159 4.75 7.159h-7.125s.386 1.365 5.09 6.628c2.783 3.114 4.411 7.689 4.411 7.689l-6.617-3.446s1.841 2.181 5.09 6.628c2.363 3.236 3.053 6.894 3.053 6.894l-4.919-2.121s.54 1.871 2.884 6.098c2.205 3.977 2.544 7.954 2.544 7.954l-4.919-3.712s2.375 5.568 5.428 13.257c3.054 7.689 3.393 18.295 3.902 18.295Z"/>
  <path d="M319.332 181.672c.324 0 1.164-5.27 2.053-7.623 1.729-4.574 4.647-8.978 4.647-8.978h-2.269s.533-1.365 1.729-3.557c1.358-2.489 1.621-3.388 1.621-3.388l-3.026.677s-.539-.824.973-2.879c2.133-2.899 3.566-5.59 3.566-5.59l-4.539 1.524s.757-1.863 2.594-4.912c2.691-4.466 4.971-6.268 4.971-6.268l-5.836 1.186s1.104-2.836 2.81-5.421c3.242-4.912 4.647-6.606 4.647-6.606s-2.593 0-5.565 1.016c-2.972 1.016-5.566 1.016-5.566 1.016v-5.759h-4.539v5.759s-1.838.339-5.458-.508-5.458-.508-5.458-.508-.429.598 3.999 5.251c1.971 2.072 3.026 4.574 3.026 4.574h-4.539s.245.872 3.242 4.235c1.773 1.989 2.81 4.912 2.81 4.912l-4.215-2.202s1.173 1.394 3.242 4.235c1.506 2.067 1.946 4.404 1.946 4.404l-3.134-1.355s.344 1.196 1.837 3.896c1.405 2.541 1.621 5.082 1.621 5.082l-3.134-2.371s1.513 3.557 3.458 8.47c1.946 4.912 2.162 11.688 2.486 11.688Z"/>
  <path d="M336.002 197.615c.418 0 1.502-6.782 2.65-9.81 2.232-5.886 5.998-11.554 5.998-11.554h-2.929s.688-1.757 2.232-4.578c1.752-3.203 2.092-4.36 2.092-4.36l-3.906.872s-.696-1.061 1.256-3.707c2.753-3.73 4.603-7.194 4.603-7.194l-5.859 1.962s.977-2.398 3.348-6.322c3.473-5.747 6.417-8.066 6.417-8.066l-7.533 1.526s1.425-3.649 3.627-6.976c4.185-6.322 5.998-8.502 5.998-8.502s-3.348 0-7.184 1.308c-3.836 1.308-7.183 1.308-7.183 1.308v-7.412h-5.859v7.412s-2.371.436-7.044-.654-7.045-.654-7.045-.654-.554.769 5.162 6.758c2.543 2.665 3.905 5.886 3.905 5.886h-5.858s.317 1.123 4.184 5.45c2.289 2.56 3.627 6.322 3.627 6.322l-5.44-2.834s1.513 1.793 4.185 5.45c1.943 2.661 2.511 5.668 2.511 5.668l-4.046-1.744s.444 1.539 2.372 5.015c1.813 3.27 2.092 6.54 2.092 6.54l-4.045-3.052s1.953 4.578 4.463 10.9c2.511 6.322 2.79 15.042 3.209 15.042Zm-79.485 27.059c.577 0 2.071-9.349 3.653-13.522 3.077-8.114 8.268-15.927 8.268-15.927H264.4s.949-2.421 3.077-6.31c2.415-4.414 2.884-6.01 2.884-6.01l-5.384 1.202s-.96-1.462 1.731-5.108c3.794-5.143 6.345-9.916 6.345-9.916l-8.076 2.704s1.346-3.305 4.615-8.714c4.787-7.922 8.844-11.119 8.844-11.119l-10.382 2.104s1.963-5.03 4.999-9.616c5.768-8.714 8.267-11.719 8.267-11.719s-4.614 0-9.902 1.803c-5.287 1.803-9.902 1.803-9.902 1.803v-10.217h-8.075v10.217s-3.269.601-9.71-.902c-6.441-1.502-9.709-.901-9.709-.901s-.764 1.061 7.114 9.315c3.506 3.674 5.383 8.113 5.383 8.113h-8.075s.437 1.548 5.768 7.513c3.154 3.529 4.999 8.714 4.999 8.714l-7.499-3.906s2.086 2.471 5.769 7.512c2.678 3.667 3.46 7.813 3.46 7.813l-5.575-2.404s.612 2.121 3.268 6.911c2.5 4.508 2.884 9.015 2.884 9.015l-5.576-4.207s2.692 6.31 6.153 15.025c3.461 8.714 3.846 20.734 4.422 20.734Zm1168.393 22.012c.71 0 2.57-11.595 4.53-16.771 3.82-10.062 10.27-19.751 10.27-19.751h-5.01s1.17-3.004 3.82-7.826c3-5.475 3.58-7.454 3.58-7.454l-6.69 1.491s-1.19-1.814 2.15-6.335c4.71-6.378 7.88-12.299 7.88-12.299l-10.03 3.354s1.67-4.099 5.73-10.807c5.95-9.824 10.99-13.789 10.99-13.789l-12.9 2.609s2.44-6.239 6.21-11.926c7.16-10.807 10.27-14.534 10.27-14.534s-5.73 0-12.3 2.236-12.3 2.236-12.3 2.236v-12.671h-10.02v12.671s-4.06.746-12.06-1.118c-8-1.863-12.06-1.118-12.06-1.118s-.95 1.316 8.83 11.553c4.36 4.557 6.69 10.062 6.69 10.062h-10.03s.54 1.919 7.16 9.317c3.92 4.377 6.21 10.807 6.21 10.807l-9.31-4.844s2.59 3.065 7.16 9.316c3.33 4.548 4.3 9.69 4.3 9.69l-6.92-2.981s.76 2.63 4.06 8.571c3.1 5.59 3.58 11.18 3.58 11.18l-6.93-5.217s3.35 7.826 7.64 18.633c4.3 10.808 4.78 25.715 5.5 25.715Z"/>
  <path d="M1446.19 211.422c.51 0 1.83-8.249 3.22-11.931 2.72-7.159 7.3-14.053 7.3-14.053h-3.57s.84-2.137 2.72-5.568c2.13-3.895 2.54-5.303 2.54-5.303l-4.75 1.061s-.84-1.291 1.53-4.508c3.35-4.537 5.6-8.749 5.6-8.749l-7.13 2.386s1.19-2.917 4.08-7.689c4.22-6.99 7.8-9.81 7.8-9.81l-9.16 1.856s1.73-4.439 4.41-8.485c5.09-7.689 7.29-10.34 7.29-10.34s-4.07 0-8.73 1.59c-4.67 1.591-8.74 1.591-8.74 1.591v-9.014h-7.13v9.014s-2.88.531-8.56-.795c-5.69-1.326-8.57-.796-8.57-.796s-.67.936 6.28 8.22c3.09 3.242 4.75 7.159 4.75 7.159h-7.13s.39 1.365 5.09 6.628c2.78 3.114 4.41 7.689 4.41 7.689l-6.61-3.447s1.84 2.181 5.09 6.629c2.36 3.235 3.05 6.894 3.05 6.894l-4.92-2.121s.54 1.871 2.88 6.098c2.21 3.977 2.55 7.954 2.55 7.954l-4.92-3.712s2.37 5.568 5.43 13.257c3.05 7.689 3.39 18.295 3.9 18.295Z"/>
  <path d="M1464.34 180.012c.32 0 1.16-5.27 2.05-7.623 1.73-4.574 4.65-8.978 4.65-8.978h-2.27s.53-1.365 1.73-3.557c1.35-2.489 1.62-3.388 1.62-3.388l-3.03.677s-.54-.824.97-2.879a50.349 50.349 0 0 0 3.57-5.591l-4.54 1.525s.76-1.863 2.59-4.912c2.7-4.466 4.98-6.268 4.98-6.268l-5.84 1.186s1.1-2.836 2.81-5.421c3.24-4.912 4.65-6.606 4.65-6.606s-2.6 0-5.57 1.016-5.56 1.016-5.56 1.016v-5.759h-4.54v5.759s-1.84.339-5.46-.508-5.46-.508-5.46-.508-.43.598 4 5.251c1.97 2.071 3.03 4.574 3.03 4.574h-4.54s.24.872 3.24 4.235c1.77 1.989 2.81 4.912 2.81 4.912l-4.22-2.202s1.18 1.393 3.25 4.235c1.5 2.067 1.94 4.404 1.94 4.404l-3.13-1.355s.34 1.196 1.83 3.896c1.41 2.541 1.63 5.082 1.63 5.082l-3.14-2.371s1.51 3.557 3.46 8.469c1.95 4.913 2.16 11.689 2.49 11.689Z"/>
  <path d="M1481.01 195.957c.41 0 1.5-6.782 2.65-9.81 2.23-5.886 5.99-11.554 5.99-11.554h-2.93s.69-1.758 2.24-4.579c1.75-3.202 2.09-4.36 2.09-4.36l-3.91.872s-.69-1.061 1.26-3.706c2.75-3.73 4.6-7.194 4.6-7.194l-5.86 1.962s.98-2.398 3.35-6.322c3.47-5.747 6.42-8.066 6.42-8.066l-7.53 1.526s1.42-3.65 3.62-6.976c4.19-6.322 6-8.503 6-8.503s-3.35 0-7.18 1.308c-3.84 1.309-7.19 1.309-7.19 1.309v-7.413h-5.86v7.413s-2.37.436-7.04-.654c-4.67-1.091-7.04-.655-7.04-.655s-.56.77 5.16 6.759c2.54 2.665 3.9 5.886 3.9 5.886h-5.86s.32 1.122 4.19 5.45c2.29 2.56 3.63 6.322 3.63 6.322l-5.45-2.834s1.52 1.793 4.19 5.45c1.94 2.66 2.51 5.668 2.51 5.668l-4.04-1.744s.44 1.539 2.37 5.014c1.81 3.27 2.09 6.54 2.09 6.54l-4.05-3.052s1.96 4.579 4.47 10.901 2.79 15.042 3.21 15.042Zm-79.49 27.059c.58 0 2.07-9.349 3.65-13.523 3.08-8.113 8.27-15.926 8.27-15.926h-4.04s.95-2.422 3.08-6.31c2.42-4.414 2.88-6.01 2.88-6.01l-5.38 1.202s-.96-1.462 1.73-5.108c3.8-5.143 6.35-9.917 6.35-9.917l-8.08 2.705s1.35-3.306 4.62-8.715c4.78-7.921 8.84-11.118 8.84-11.118l-10.38 2.104s1.96-5.031 5-9.616c5.76-8.714 8.26-11.719 8.26-11.719s-4.61 0-9.9 1.803-9.9 1.803-9.9 1.803v-10.217h-8.08v10.217s-3.26.601-9.7-.902c-6.45-1.502-9.71-.901-9.71-.901s-.77 1.06 7.11 9.315c3.51 3.674 5.38 8.113 5.38 8.113h-8.07s.43 1.548 5.77 7.513c3.15 3.529 4.99 8.714 4.99 8.714l-7.49-3.907s2.08 2.472 5.76 7.513c2.68 3.667 3.47 7.813 3.47 7.813l-5.58-2.404s.61 2.121 3.27 6.911c2.5 4.507 2.88 9.015 2.88 9.015l-5.57-4.207s2.69 6.31 6.15 15.025c3.46 8.714 3.84 20.734 4.42 20.734ZM1424.91 0c.71 0 2.57 11.594 4.53 16.77 3.82 10.062 10.27 19.752 10.27 19.752h-5.01s1.17 3.003 3.82 7.826c3 5.474 3.58 7.453 3.58 7.453l-6.69-1.49s-1.19 1.813 2.15 6.335c4.71 6.377 7.88 12.298 7.88 12.298l-10.03-3.354s1.67 4.1 5.73 10.807c5.95 9.825 10.99 13.79 10.99 13.79l-12.9-2.61s2.44 6.24 6.21 11.926c7.16 10.808 10.27 14.534 10.27 14.534s-5.73 0-12.3-2.236-12.3-2.236-12.3-2.236v12.671h-10.02v-12.671s-4.06-.745-12.06 1.118c-8 1.864-12.06 1.118-12.06 1.118s-.95-1.315 8.83-11.553c4.36-4.556 6.69-10.062 6.69-10.062h-10.03s.54-1.919 7.16-9.316c3.92-4.377 6.21-10.808 6.21-10.808l-9.31 4.845s2.59-3.066 7.16-9.317c3.33-4.548 4.3-9.69 4.3-9.69l-6.92 2.982s.76-2.63 4.06-8.571c3.1-5.59 3.58-11.18 3.58-11.18l-6.93 5.217s3.35-7.826 7.64-18.634c4.3-10.807 4.78-25.714 5.5-25.714Z"/>
  <path d="M1446.19 35.264c.51 0 1.83 8.248 3.22 11.931 2.72 7.159 7.3 14.053 7.3 14.053h-3.57s.84 2.137 2.72 5.568c2.13 3.894 2.54 5.302 2.54 5.302l-4.75-1.06s-.84 1.29 1.53 4.507c3.35 4.538 5.6 8.75 5.6 8.75l-7.13-2.386s1.19 2.916 4.08 7.689c4.22 6.99 7.8 9.81 7.8 9.81l-9.16-1.856s1.73 4.438 4.41 8.484c5.09 7.69 7.29 10.341 7.29 10.341s-4.07 0-8.73-1.591c-4.67-1.591-8.74-1.591-8.74-1.591v9.015h-7.13v-9.015s-2.88-.53-8.56.796c-5.69 1.325-8.57.795-8.57.795s-.67-.936 6.28-8.219c3.09-3.242 4.75-7.16 4.75-7.16h-7.13s.39-1.365 5.09-6.628c2.78-3.114 4.41-7.689 4.41-7.689l-6.61 3.447s1.84-2.18 5.09-6.628c2.36-3.236 3.05-6.894 3.05-6.894l-4.92 2.121s.54-1.872 2.88-6.098c2.21-3.977 2.55-7.955 2.55-7.955l-4.92 3.712s2.37-5.567 5.43-13.257c3.05-7.689 3.39-18.294 3.9-18.294Z"/>
  <path d="M1464.34 66.674c.32 0 1.16 5.27 2.05 7.623 1.73 4.573 4.65 8.978 4.65 8.978h-2.27s.53 1.365 1.73 3.557c1.36 2.488 1.62 3.388 1.62 3.388l-3.03-.678s-.53.825.98 2.88a51.138 51.138 0 0 1 3.56 5.59l-4.54-1.525s.76 1.864 2.6 4.913c2.69 4.466 4.97 6.268 4.97 6.268l-5.84-1.186s1.11 2.836 2.81 5.421c3.25 4.912 4.65 6.606 4.65 6.606s-2.59 0-5.56-1.016c-2.98-1.017-5.57-1.017-5.57-1.017v5.76h-4.54v-5.76s-1.84-.339-5.46.508-5.45.509-5.45.509-.43-.598 3.99-5.252c1.97-2.071 3.03-4.573 3.03-4.573h-4.54s.25-.873 3.24-4.235c1.78-1.99 2.81-4.913 2.81-4.913l-4.21 2.202s1.17-1.393 3.24-4.234c1.51-2.068 1.95-4.405 1.95-4.405l-3.14 1.355s.35-1.195 1.84-3.896c1.4-2.54 1.62-5.082 1.62-5.082l-3.13 2.372s1.51-3.557 3.45-8.47c1.95-4.912 2.17-11.688 2.49-11.688Z"/>
  <path d="M1481.01 50.73c.41 0 1.5 6.783 2.65 9.81 2.23 5.887 5.99 11.555 5.99 11.555h-2.93s.69 1.757 2.24 4.578c1.75 3.203 2.09 4.36 2.09 4.36l-3.91-.872s-.69 1.061 1.26 3.706c2.75 3.73 4.6 7.194 4.6 7.194l-5.86-1.962s.98 2.398 3.35 6.322c3.47 5.747 6.42 8.067 6.42 8.067l-7.53-1.526s1.42 3.649 3.62 6.976c4.19 6.322 6 8.502 6 8.502s-3.35 0-7.18-1.308c-3.84-1.308-7.19-1.308-7.19-1.308v7.412h-5.86v-7.412s-2.37-.436-7.04.654-7.04.654-7.04.654-.56-.77 5.16-6.758c2.54-2.666 3.9-5.886 3.9-5.886h-5.86s.32-1.123 4.19-5.45c2.29-2.56 3.63-6.323 3.63-6.323l-5.45 2.834s1.52-1.793 4.19-5.45c1.94-2.66 2.51-5.668 2.51-5.668l-4.04 1.744s.44-1.539 2.37-5.014c1.81-3.27 2.09-6.54 2.09-6.54l-4.05 3.052s1.96-4.578 4.47-10.9 2.79-15.042 3.21-15.042Zm-79.49-27.058c.58 0 2.07 9.349 3.65 13.522 3.08 8.113 8.27 15.926 8.27 15.926h-4.04s.95 2.422 3.08 6.31c2.42 4.415 2.88 6.01 2.88 6.01l-5.38-1.201s-.96 1.462 1.73 5.108c3.8 5.142 6.35 9.916 6.35 9.916l-8.08-2.704s1.35 3.305 4.62 8.714c4.78 7.922 8.84 11.118 8.84 11.118l-10.38-2.103s1.96 5.03 5 9.616c5.76 8.714 8.26 11.719 8.26 11.719s-4.61 0-9.9-1.803-9.9-1.803-9.9-1.803v10.217h-8.08v-10.217s-3.26-.601-9.7.901c-6.45 1.503-9.71.902-9.71.902s-.77-1.061 7.11-9.315c3.51-3.674 5.38-8.114 5.38-8.114h-8.07s.43-1.547 5.77-7.512c3.15-3.53 4.99-8.714 4.99-8.714l-7.49 3.906s2.08-2.472 5.76-7.512c2.68-3.667 3.47-7.813 3.47-7.813l-5.58 2.404s.61-2.121 3.27-6.912c2.5-4.507 2.88-9.014 2.88-9.014l-5.57 4.207s2.69-6.31 6.15-15.025c3.46-8.714 3.84-20.734 4.42-20.734Zm176.37 154.801c-.31 0-1.12-5.044-1.97-7.296-1.65-4.377-4.45-8.592-4.45-8.592h2.18s-.51-1.306-1.66-3.404c-1.3-2.382-1.55-3.242-1.55-3.242l2.9.648s.51-.789-.93-2.756a48.18 48.18 0 0 1-3.42-5.35l4.35 1.459s-.73-1.783-2.49-4.701c-2.57-4.274-4.75-5.998-4.75-5.998l5.58 1.135s-1.05-2.714-2.69-5.188c-3.1-4.701-4.45-6.323-4.45-6.323s2.49 0 5.33.973c2.85.973 5.33.973 5.33.973v-5.512h4.34v5.512s1.76.324 5.23-.487c3.46-.81 5.22-.486 5.22-.486s.41.572-3.83 5.026c-1.88 1.982-2.89 4.377-2.89 4.377h4.34s-.24.835-3.1 4.053c-1.7 1.904-2.69 4.701-2.69 4.701l4.03-2.108s-1.12 1.334-3.1 4.053c-1.44 1.979-1.86 4.215-1.86 4.215l3-1.297s-.33 1.145-1.76 3.729c-1.35 2.432-1.55 4.864-1.55 4.864l3-2.27s-1.45 3.404-3.31 8.106c-1.87 4.701-2.07 11.186-2.38 11.186Zm-64.49 15.857c-.4 0-1.44-6.568-2.54-9.501-2.14-5.7-5.74-11.189-5.74-11.189h2.8s-.66-1.702-2.13-4.434c-1.68-3.102-2-4.223-2-4.223l3.73.845s.67-1.028-1.2-3.589a64.288 64.288 0 0 1-4.4-6.967l5.6 1.9s-.93-2.323-3.2-6.123c-3.32-5.565-6.14-7.812-6.14-7.812l7.21 1.478s-1.37-3.534-3.47-6.756c-4.01-6.122-5.74-8.234-5.74-8.234s3.2 0 6.87 1.267 6.88 1.267 6.88 1.267v-7.178h5.6v7.178s2.27.422 6.74-.633c4.48-1.056 6.75-.634 6.75-.634s.53.745-4.94 6.545c-2.44 2.581-3.74 5.7-3.74 5.7h5.61s-.31 1.088-4.01 5.279c-2.19 2.479-3.47 6.122-3.47 6.122l5.21-2.744s-1.45 1.736-4.01 5.278c-1.86 2.576-2.4 5.489-2.4 5.489l3.87-1.689s-.43 1.49-2.27 4.856c-1.74 3.167-2 6.334-2 6.334l3.87-2.956s-1.87 4.434-4.27 10.556c-2.41 6.123-2.67 14.568-3.07 14.568Z"/>
  <path d="M1529.97 184.018c-.4 0-1.44-5.591-2.54-8.086-2.13-4.852-5.74-9.523-5.74-9.523h2.81s-.66-1.448-2.14-3.774c-1.68-2.639-2-3.593-2-3.593l3.74.718s.66-.874-1.2-3.054c-2.64-3.075-4.41-5.93-4.41-5.93l5.61 1.618s-.94-1.977-3.21-5.211c-3.32-4.737-6.14-6.649-6.14-6.649l7.21 1.258s-1.36-3.008-3.47-5.75c-4-5.21-5.74-7.007-5.74-7.007s3.2 0 6.88 1.078c3.67 1.078 6.87 1.078 6.87 1.078v-6.109h5.61v6.109s2.27.359 6.74-.539c4.47-.898 6.74-.539 6.74-.539s.53.634-4.94 5.57c-2.43 2.197-3.74 4.851-3.74 4.851h5.61s-.3.926-4.01 4.493c-2.19 2.11-3.47 5.21-3.47 5.21l5.21-2.336s-1.45 1.478-4 4.493c-1.86 2.192-2.41 4.671-2.41 4.671l3.87-1.437s-.42 1.268-2.27 4.132c-1.73 2.696-2 5.391-2 5.391l3.87-2.516s-1.87 3.774-4.27 8.985c-2.4 5.21-2.67 12.398-3.07 12.398Zm-31.18-11.555c-.27 0-.98-4.474-1.74-6.471-1.46-3.882-3.93-7.62-3.93-7.62h1.92s-.45-1.159-1.46-3.02c-1.15-2.112-1.37-2.876-1.37-2.876l2.56.575s.46-.699-.82-2.444c-1.81-2.461-3.02-4.745-3.02-4.745l3.84 1.294s-.64-1.582-2.19-4.17c-2.28-3.79-4.21-5.32-4.21-5.32l4.94 1.006s-.94-2.407-2.38-4.601c-2.74-4.17-3.93-5.608-3.93-5.608s2.19 0 4.71.863c2.51.863 4.7.863 4.7.863V125.3h3.84v4.889s1.56.287 4.62-.432c3.06-.718 4.61-.431 4.61-.431s.37.508-3.38 4.458c-1.66 1.758-2.56 3.882-2.56 3.882h3.84s-.2.74-2.74 3.595c-1.5 1.688-2.38 4.17-2.38 4.17l3.57-1.87s-.99 1.183-2.74 3.595c-1.28 1.755-1.65 3.738-1.65 3.738l2.65-1.15s-.29 1.015-1.55 3.307c-1.19 2.157-1.37 4.314-1.37 4.314l2.65-2.013s-1.28 3.02-2.93 7.189c-1.64 4.17-1.82 9.922-2.1 9.922Z"/>
  <path d="M1561.35 219.621c-.55 0-1.98-8.947-3.5-12.941-2.94-7.765-7.91-15.242-7.91-15.242h3.86s-.9-2.317-2.94-6.039c-2.31-4.224-2.76-5.751-2.76-5.751l5.15 1.15s.92-1.4-1.65-4.889c-3.64-4.921-6.08-9.49-6.08-9.49l7.73 2.588s-1.29-3.163-4.41-8.34c-4.59-7.58-8.47-10.64-8.47-10.64l9.94 2.013s-1.88-4.814-4.79-9.202c-5.52-8.34-7.91-11.216-7.91-11.216s4.42 0 9.48 1.726c5.06 1.725 9.47 1.725 9.47 1.725v-9.778h7.73v9.778s3.13.575 9.29-.863c6.17-1.438 9.3-.862 9.3-.862s.73 1.015-6.81 8.914c-3.36 3.517-5.15 7.765-5.15 7.765h7.72s-.41 1.481-5.52 7.19c-3.01 3.377-4.78 8.339-4.78 8.339l7.18-3.738s-2 2.365-5.52 7.189c-2.57 3.509-3.32 7.477-3.32 7.477l5.34-2.3s-.59 2.03-3.13 6.614c-2.39 4.314-2.76 8.627-2.76 8.627l5.34-4.026s-2.58 6.039-5.89 14.379c-3.31 8.34-3.68 19.843-4.23 19.843Z"/>
  <path d="M1545.32 208.574c-.38 0-1.36-7.919-2.4-11.455-2.02-6.872-5.43-13.491-5.43-13.491h2.65s-.62-2.051-2.02-5.345c-1.59-3.74-1.89-5.091-1.89-5.091l3.53 1.018s.63-1.239-1.13-4.327c-2.5-4.356-4.17-8.4-4.17-8.4l5.3 2.29s-.88-2.8-3.03-7.381c-3.14-6.711-5.81-9.419-5.81-9.419l6.82 1.782s-1.29-4.261-3.28-8.146c-3.79-7.381-5.43-9.927-5.43-9.927s3.03 0 6.5 1.527c3.48 1.528 6.51 1.528 6.51 1.528v-8.655h5.3v8.655s2.15.509 6.38-.764c4.23-1.273 6.37-.764 6.37-.764s.51.899-4.67 7.891c-2.3 3.113-3.53 6.873-3.53 6.873h5.3s-.29 1.311-3.79 6.364c-2.07 2.989-3.28 7.382-3.28 7.382l4.92-3.309s-1.37 2.094-3.79 6.363c-1.75 3.107-2.27 6.619-2.27 6.619l3.66-2.037s-.4 1.797-2.14 5.855c-1.64 3.818-1.9 7.636-1.9 7.636l3.66-3.563s-1.76 5.345-4.04 12.727c-2.27 7.382-2.52 17.564-2.9 17.564Zm32.57-140.359c-.31 0-1.12 5.043-1.97 7.295-1.65 4.377-4.45 8.592-4.45 8.592h2.18s-.51 1.307-1.66 3.405c-1.3 2.381-1.55 3.242-1.55 3.242l2.9-.649s.51.79-.93 2.756a48.288 48.288 0 0 0-3.42 5.35l4.35-1.459s-.73 1.783-2.49 4.701c-2.57 4.274-4.75 5.999-4.75 5.999l5.58-1.135s-1.05 2.714-2.69 5.188c-3.1 4.701-4.45 6.322-4.45 6.322s2.49 0 5.33-.973c2.85-.972 5.33-.972 5.33-.972v5.512h4.34v-5.512s1.76-.324 5.23.486c3.46.811 5.22.486 5.22.486s.41-.572-3.83-5.025c-1.88-1.982-2.89-4.377-2.89-4.377h4.34s-.24-.835-3.1-4.053c-1.7-1.904-2.69-4.702-2.69-4.702l4.03 2.108s-1.12-1.333-3.1-4.053c-1.44-1.978-1.86-4.215-1.86-4.215l3 1.297s-.33-1.144-1.76-3.729c-1.35-2.431-1.55-4.863-1.55-4.863l3 2.27s-1.45-3.405-3.31-8.106c-1.87-4.701-2.07-11.186-2.38-11.186Zm-64.49-15.858c-.4 0-1.44 6.569-2.54 9.501-2.14 5.7-5.74 11.19-5.74 11.19h2.8s-.66 1.701-2.13 4.433c-1.68 3.102-2 4.223-2 4.223l3.73-.844s.67 1.027-1.2 3.589c-2.63 3.613-4.4 6.967-4.4 6.967l5.6-1.9s-.93 2.322-3.2 6.122c-3.32 5.566-6.14 7.812-6.14 7.812l7.21-1.478s-1.37 3.534-3.47 6.756c-4.01 6.123-5.74 8.234-5.74 8.234s3.2 0 6.87-1.267c3.67-1.266 6.88-1.266 6.88-1.266v7.178h5.6v-7.178s2.27-.423 6.74.633c4.48 1.056 6.75.633 6.75.633s.53-.745-4.94-6.545c-2.44-2.581-3.74-5.7-3.74-5.7h5.61s-.31-1.087-4.01-5.278c-2.19-2.48-3.47-6.123-3.47-6.123l5.21 2.745s-1.45-1.737-4.01-5.278c-1.86-2.577-2.4-5.49-2.4-5.49l3.87 1.69s-.43-1.49-2.27-4.856c-1.74-3.167-2-6.334-2-6.334l3.87 2.956s-1.87-4.434-4.27-10.557c-2.41-6.122-2.67-14.568-3.07-14.568Z"/>
  <path d="M1529.97 62.67c-.4 0-1.44 5.59-2.54 8.086-2.13 4.851-5.74 9.523-5.74 9.523h2.81s-.66 1.448-2.14 3.773c-1.68 2.64-2 3.594-2 3.594l3.74-.719s.66.874-1.2 3.055c-2.64 3.075-4.41 5.93-4.41 5.93l5.61-1.618s-.94 1.977-3.21 5.21c-3.32 4.737-6.14 6.649-6.14 6.649l7.21-1.258s-1.36 3.008-3.47 5.75c-4 5.211-5.74 7.008-5.74 7.008s3.2 0 6.88-1.078c3.67-1.079 6.87-1.079 6.87-1.079v6.11h5.61v-6.11s2.27-.359 6.74.54c4.47.898 6.74.539 6.74.539s.53-.635-4.94-5.571c-2.43-2.196-3.74-4.851-3.74-4.851h5.61s-.3-.925-4.01-4.492c-2.19-2.11-3.47-5.21-3.47-5.21l5.21 2.335s-1.45-1.478-4-4.492c-1.86-2.193-2.41-4.672-2.41-4.672l3.87 1.438s-.42-1.269-2.27-4.133c-1.73-2.695-2-5.39-2-5.39l3.87 2.515s-1.87-3.773-4.27-8.984c-2.4-5.21-2.67-12.398-3.07-12.398Zm-31.18 11.553c-.27 0-.98 4.473-1.74 6.47-1.46 3.883-3.93 7.621-3.93 7.621h1.92s-.45 1.159-1.46 3.02c-1.15 2.112-1.37 2.875-1.37 2.875l2.56-.575s.46.7-.82 2.445c-1.81 2.46-3.02 4.745-3.02 4.745l3.84-1.294s-.64 1.581-2.19 4.169c-2.28 3.791-4.21 5.321-4.21 5.321l4.94-1.007s-.94 2.407-2.38 4.601c-2.74 4.17-3.93 5.608-3.93 5.608s2.19 0 4.71-.863c2.51-.862 4.7-.862 4.7-.862v4.889h3.84v-4.889s1.56-.288 4.62.431 4.61.431 4.61.431.37-.507-3.38-4.457c-1.66-1.758-2.56-3.882-2.56-3.882h3.84s-.2-.741-2.74-3.595c-1.5-1.689-2.38-4.17-2.38-4.17l3.57 1.869s-.99-1.182-2.74-3.594c-1.28-1.755-1.65-3.739-1.65-3.739l2.65 1.15s-.29-1.015-1.55-3.307c-1.19-2.157-1.37-4.314-1.37-4.314l2.65 2.014s-1.28-3.02-2.93-7.19c-1.64-4.17-1.82-9.921-2.1-9.921Z"/>
  <path d="M1561.35 27.064c-.55 0-1.98 8.947-3.5 12.941-2.94 7.765-7.91 15.242-7.91 15.242h3.86s-.9 2.318-2.94 6.04c-2.31 4.224-2.76 5.75-2.76 5.75l5.15-1.15s.92 1.4-1.65 4.89c-3.64 4.92-6.08 9.49-6.08 9.49l7.73-2.589s-1.29 3.164-4.41 8.34c-4.59 7.581-8.47 10.64-8.47 10.64l9.94-2.013s-1.88 4.814-4.79 9.203c-5.52 8.34-7.91 11.215-7.91 11.215s4.42 0 9.48-1.725c5.06-1.725 9.47-1.725 9.47-1.725v9.777h7.73v-9.777s3.13-.576 9.29.862c6.17 1.438 9.3.863 9.3.863s.73-1.015-6.81-8.915c-3.36-3.516-5.15-7.764-5.15-7.764h7.72s-.41-1.481-5.52-7.19c-3.01-3.377-4.78-8.34-4.78-8.34l7.18 3.739s-2-2.366-5.52-7.19c-2.57-3.509-3.32-7.477-3.32-7.477l5.34 2.3s-.59-2.03-3.13-6.613c-2.39-4.314-2.76-8.628-2.76-8.628l5.34 4.026s-2.58-6.039-5.89-14.379c-3.31-8.34-3.68-19.842-4.23-19.842Z"/>
  <path d="M1545.32 38.113c-.38 0-1.36 7.92-2.4 11.455-2.02 6.873-5.43 13.491-5.43 13.491h2.65s-.62 2.052-2.02 5.346c-1.59 3.74-1.89 5.09-1.89 5.09l3.53-1.017s.63 1.238-1.13 4.327c-2.5 4.356-4.17 8.4-4.17 8.4l5.3-2.291s-.88 2.8-3.03 7.382c-3.14 6.71-5.81 9.418-5.81 9.418l6.82-1.781s-1.29 4.261-3.28 8.145c-3.79 7.382-5.43 9.927-5.43 9.927s3.03 0 6.5-1.527c3.48-1.527 6.51-1.527 6.51-1.527v8.655h5.3v-8.655s2.15-.509 6.38.764c4.23 1.272 6.37.763 6.37.763s.51-.898-4.67-7.891c-2.3-3.112-3.53-6.873-3.53-6.873h5.3s-.29-1.31-3.79-6.363c-2.07-2.99-3.28-7.382-3.28-7.382l4.92 3.309s-1.37-2.094-3.79-6.364c-1.75-3.106-2.27-6.618-2.27-6.618l3.66 2.036s-.4-1.797-2.14-5.854c-1.64-3.819-1.9-7.637-1.9-7.637l3.66 3.564s-1.76-5.346-4.04-12.728c-2.27-7.382-2.52-17.564-2.9-17.564Zm-160.43 140.36c-.31 0-1.12-5.044-1.97-7.296-1.65-4.377-4.45-8.592-4.45-8.592h2.18s-.51-1.306-1.66-3.404c-1.3-2.382-1.55-3.242-1.55-3.242l2.9.648s.51-.789-.93-2.756a48.18 48.18 0 0 1-3.42-5.35l4.35 1.459s-.73-1.783-2.49-4.701c-2.57-4.274-4.75-5.998-4.75-5.998l5.58 1.135s-1.05-2.714-2.69-5.188c-3.1-4.701-4.45-6.323-4.45-6.323s2.49 0 5.33.973c2.85.973 5.33.973 5.33.973v-5.512h4.34v5.512s1.76.324 5.23-.487c3.46-.81 5.22-.486 5.22-.486s.41.572-3.83 5.026c-1.88 1.982-2.89 4.377-2.89 4.377h4.34s-.24.835-3.1 4.053c-1.7 1.904-2.69 4.701-2.69 4.701l4.03-2.108s-1.12 1.334-3.1 4.053c-1.44 1.979-1.86 4.215-1.86 4.215l3-1.297s-.33 1.145-1.76 3.729c-1.35 2.432-1.55 4.864-1.55 4.864l3-2.27s-1.45 3.404-3.31 8.106c-1.87 4.701-2.07 11.186-2.38 11.186Zm-64.49 15.857c-.4 0-1.44-6.568-2.54-9.501-2.14-5.7-5.74-11.189-5.74-11.189h2.8s-.66-1.702-2.13-4.434c-1.68-3.102-2-4.223-2-4.223l3.73.845s.67-1.028-1.2-3.589a64.288 64.288 0 0 1-4.4-6.967l5.6 1.9s-.93-2.323-3.2-6.123c-3.32-5.565-6.14-7.812-6.14-7.812l7.21 1.478s-1.37-3.534-3.47-6.756c-4.01-6.122-5.74-8.234-5.74-8.234s3.2 0 6.87 1.267 6.88 1.267 6.88 1.267v-7.178h5.6v7.178s2.27.422 6.74-.633c4.48-1.056 6.75-.634 6.75-.634s.53.745-4.94 6.545c-2.44 2.581-3.74 5.7-3.74 5.7h5.61s-.31 1.088-4.01 5.279c-2.19 2.479-3.47 6.122-3.47 6.122l5.21-2.744s-1.45 1.736-4.01 5.278c-1.86 2.576-2.4 5.489-2.4 5.489l3.87-1.689s-.43 1.49-2.27 4.856c-1.74 3.167-2 6.334-2 6.334l3.87-2.956s-1.87 4.434-4.27 10.556c-2.41 6.123-2.67 14.568-3.07 14.568Z"/>
  <path d="M1336.97 184.018c-.4 0-1.44-5.591-2.54-8.086-2.13-4.852-5.74-9.523-5.74-9.523h2.81s-.66-1.448-2.14-3.774c-1.68-2.639-2-3.593-2-3.593l3.74.718s.66-.874-1.2-3.054c-2.64-3.075-4.41-5.93-4.41-5.93l5.61 1.618s-.94-1.977-3.21-5.211c-3.32-4.737-6.14-6.649-6.14-6.649l7.21 1.258s-1.36-3.008-3.47-5.75c-4-5.21-5.74-7.007-5.74-7.007s3.2 0 6.88 1.078c3.67 1.078 6.87 1.078 6.87 1.078v-6.109h5.61v6.109s2.27.359 6.74-.539c4.47-.898 6.74-.539 6.74-.539s.53.634-4.94 5.57c-2.43 2.197-3.74 4.851-3.74 4.851h5.61s-.3.926-4.01 4.493c-2.19 2.11-3.47 5.21-3.47 5.21l5.21-2.336s-1.45 1.478-4 4.493c-1.86 2.192-2.41 4.671-2.41 4.671l3.87-1.437s-.42 1.268-2.27 4.132c-1.73 2.696-2 5.391-2 5.391l3.87-2.516s-1.87 3.774-4.27 8.985c-2.4 5.21-2.67 12.398-3.07 12.398Zm-31.18-11.555c-.27 0-.98-4.474-1.74-6.471-1.46-3.882-3.93-7.62-3.93-7.62h1.92s-.45-1.159-1.46-3.02c-1.15-2.112-1.37-2.876-1.37-2.876l2.56.575s.46-.699-.82-2.444c-1.81-2.461-3.02-4.745-3.02-4.745l3.84 1.294s-.64-1.582-2.19-4.17c-2.28-3.79-4.21-5.32-4.21-5.32l4.94 1.006s-.94-2.407-2.38-4.601c-2.74-4.17-3.93-5.608-3.93-5.608s2.19 0 4.71.863c2.51.863 4.7.863 4.7.863V125.3h3.84v4.889s1.56.287 4.62-.432c3.06-.718 4.61-.431 4.61-.431s.37.508-3.38 4.458c-1.66 1.758-2.56 3.882-2.56 3.882h3.84s-.2.74-2.74 3.595c-1.5 1.688-2.38 4.17-2.38 4.17l3.57-1.87s-.99 1.183-2.74 3.595c-1.28 1.755-1.65 3.738-1.65 3.738l2.65-1.15s-.29 1.015-1.55 3.307c-1.19 2.157-1.37 4.314-1.37 4.314l2.65-2.013s-1.28 3.02-2.93 7.189c-1.64 4.17-1.82 9.922-2.1 9.922Z"/>
  <path d="M1368.35 219.621c-.55 0-1.98-8.947-3.5-12.941-2.94-7.765-7.91-15.242-7.91-15.242h3.86s-.9-2.317-2.94-6.039c-2.31-4.224-2.76-5.751-2.76-5.751l5.15 1.15s.92-1.4-1.65-4.889c-3.64-4.921-6.08-9.49-6.08-9.49l7.73 2.588s-1.29-3.163-4.41-8.34c-4.59-7.58-8.47-10.64-8.47-10.64l9.94 2.013s-1.88-4.814-4.79-9.202c-5.52-8.34-7.91-11.216-7.91-11.216s4.42 0 9.48 1.726c5.06 1.725 9.47 1.725 9.47 1.725v-9.778h7.73v9.778s3.13.575 9.29-.863c6.17-1.438 9.3-.862 9.3-.862s.73 1.015-6.81 8.914c-3.36 3.517-5.15 7.765-5.15 7.765h7.72s-.41 1.481-5.52 7.19c-3.01 3.377-4.78 8.339-4.78 8.339l7.18-3.738s-2 2.365-5.52 7.189c-2.57 3.509-3.32 7.477-3.32 7.477l5.34-2.3s-.59 2.03-3.13 6.614c-2.39 4.314-2.76 8.627-2.76 8.627l5.34-4.026s-2.58 6.039-5.89 14.379c-3.31 8.34-3.68 19.843-4.23 19.843Z"/>
  <path d="M1352.32 208.574c-.38 0-1.36-7.919-2.4-11.455-2.02-6.872-5.43-13.491-5.43-13.491h2.65s-.62-2.051-2.02-5.345c-1.59-3.74-1.89-5.091-1.89-5.091l3.53 1.018s.63-1.239-1.13-4.327c-2.5-4.356-4.17-8.4-4.17-8.4l5.3 2.29s-.88-2.8-3.03-7.381c-3.14-6.711-5.81-9.419-5.81-9.419l6.82 1.782s-1.29-4.261-3.28-8.146c-3.79-7.381-5.43-9.927-5.43-9.927s3.03 0 6.5 1.527c3.48 1.528 6.51 1.528 6.51 1.528v-8.655h5.3v8.655s2.15.509 6.38-.764c4.23-1.273 6.37-.764 6.37-.764s.51.899-4.67 7.891c-2.3 3.113-3.53 6.873-3.53 6.873h5.3s-.29 1.311-3.79 6.364c-2.07 2.989-3.28 7.382-3.28 7.382l4.92-3.309s-1.37 2.094-3.79 6.363c-1.75 3.107-2.27 6.619-2.27 6.619l3.66-2.037s-.4 1.797-2.14 5.855c-1.64 3.818-1.9 7.636-1.9 7.636l3.66-3.563s-1.76 5.345-4.04 12.727c-2.27 7.382-2.52 17.564-2.9 17.564Zm32.57-140.359c-.31 0-1.12 5.043-1.97 7.295-1.65 4.377-4.45 8.592-4.45 8.592h2.18s-.51 1.307-1.66 3.405c-1.3 2.381-1.55 3.242-1.55 3.242l2.9-.649s.51.79-.93 2.756a48.288 48.288 0 0 0-3.42 5.35l4.35-1.459s-.73 1.783-2.49 4.701c-2.57 4.274-4.75 5.999-4.75 5.999l5.58-1.135s-1.05 2.714-2.69 5.188c-3.1 4.701-4.45 6.322-4.45 6.322s2.49 0 5.33-.973c2.85-.972 5.33-.972 5.33-.972v5.512h4.34v-5.512s1.76-.324 5.23.486c3.46.811 5.22.486 5.22.486s.41-.572-3.83-5.025c-1.88-1.982-2.89-4.377-2.89-4.377h4.34s-.24-.835-3.1-4.053c-1.7-1.904-2.69-4.702-2.69-4.702l4.03 2.108s-1.12-1.333-3.1-4.053c-1.44-1.978-1.86-4.215-1.86-4.215l3 1.297s-.33-1.144-1.76-3.729c-1.35-2.431-1.55-4.863-1.55-4.863l3 2.27s-1.45-3.405-3.31-8.106c-1.87-4.701-2.07-11.186-2.38-11.186Zm-64.49-15.858c-.4 0-1.44 6.569-2.54 9.501-2.14 5.7-5.74 11.19-5.74 11.19h2.8s-.66 1.701-2.13 4.433c-1.68 3.102-2 4.223-2 4.223l3.73-.844s.67 1.027-1.2 3.589c-2.63 3.613-4.4 6.967-4.4 6.967l5.6-1.9s-.93 2.322-3.2 6.122c-3.32 5.566-6.14 7.812-6.14 7.812l7.21-1.478s-1.37 3.534-3.47 6.756c-4.01 6.123-5.74 8.234-5.74 8.234s3.2 0 6.87-1.267c3.67-1.266 6.88-1.266 6.88-1.266v7.178h5.6v-7.178s2.27-.423 6.74.633c4.48 1.056 6.75.633 6.75.633s.53-.745-4.94-6.545c-2.44-2.581-3.74-5.7-3.74-5.7h5.61s-.31-1.087-4.01-5.278c-2.19-2.48-3.47-6.123-3.47-6.123l5.21 2.745s-1.45-1.737-4.01-5.278c-1.86-2.577-2.4-5.49-2.4-5.49l3.87 1.69s-.43-1.49-2.27-4.856c-1.74-3.167-2-6.334-2-6.334l3.87 2.956s-1.87-4.434-4.27-10.557c-2.41-6.122-2.67-14.568-3.07-14.568Z"/>
  <path d="M1336.97 62.67c-.4 0-1.44 5.59-2.54 8.086-2.13 4.851-5.74 9.523-5.74 9.523h2.81s-.66 1.448-2.14 3.773c-1.68 2.64-2 3.594-2 3.594l3.74-.719s.66.874-1.2 3.055c-2.64 3.075-4.41 5.93-4.41 5.93l5.61-1.618s-.94 1.977-3.21 5.21c-3.32 4.737-6.14 6.649-6.14 6.649l7.21-1.258s-1.36 3.008-3.47 5.75c-4 5.211-5.74 7.008-5.74 7.008s3.2 0 6.88-1.078c3.67-1.079 6.87-1.079 6.87-1.079v6.11h5.61v-6.11s2.27-.359 6.74.54c4.47.898 6.74.539 6.74.539s.53-.635-4.94-5.571c-2.43-2.196-3.74-4.851-3.74-4.851h5.61s-.3-.925-4.01-4.492c-2.19-2.11-3.47-5.21-3.47-5.21l5.21 2.335s-1.45-1.478-4-4.492c-1.86-2.193-2.41-4.672-2.41-4.672l3.87 1.438s-.42-1.269-2.27-4.133c-1.73-2.695-2-5.39-2-5.39l3.87 2.515s-1.87-3.773-4.27-8.984c-2.4-5.21-2.67-12.398-3.07-12.398Zm-31.18 11.553c-.27 0-.98 4.473-1.74 6.47-1.46 3.883-3.93 7.621-3.93 7.621h1.92s-.45 1.159-1.46 3.02c-1.15 2.112-1.37 2.875-1.37 2.875l2.56-.575s.46.7-.82 2.445c-1.81 2.46-3.02 4.745-3.02 4.745l3.84-1.294s-.64 1.581-2.19 4.169c-2.28 3.791-4.21 5.321-4.21 5.321l4.94-1.007s-.94 2.407-2.38 4.601c-2.74 4.17-3.93 5.608-3.93 5.608s2.19 0 4.71-.863c2.51-.862 4.7-.862 4.7-.862v4.889h3.84v-4.889s1.56-.288 4.62.431 4.61.431 4.61.431.37-.507-3.38-4.457c-1.66-1.758-2.56-3.882-2.56-3.882h3.84s-.2-.741-2.74-3.595c-1.5-1.689-2.38-4.17-2.38-4.17l3.57 1.869s-.99-1.182-2.74-3.594c-1.28-1.755-1.65-3.739-1.65-3.739l2.65 1.15s-.29-1.015-1.55-3.307c-1.19-2.157-1.37-4.314-1.37-4.314l2.65 2.014s-1.28-3.02-2.93-7.19c-1.64-4.17-1.82-9.921-2.1-9.921Z"/>
  <path d="M1368.35 27.064c-.55 0-1.98 8.947-3.5 12.941-2.94 7.765-7.91 15.242-7.91 15.242h3.86s-.9 2.318-2.94 6.04c-2.31 4.224-2.76 5.75-2.76 5.75l5.15-1.15s.92 1.4-1.65 4.89c-3.64 4.92-6.08 9.49-6.08 9.49l7.73-2.589s-1.29 3.164-4.41 8.34c-4.59 7.581-8.47 10.64-8.47 10.64l9.94-2.013s-1.88 4.814-4.79 9.203c-5.52 8.34-7.91 11.215-7.91 11.215s4.42 0 9.48-1.725c5.06-1.725 9.47-1.725 9.47-1.725v9.777h7.73v-9.777s3.13-.576 9.29.862c6.17 1.438 9.3.863 9.3.863s.73-1.015-6.81-8.915c-3.36-3.516-5.15-7.764-5.15-7.764h7.72s-.41-1.481-5.52-7.19c-3.01-3.377-4.78-8.34-4.78-8.34l7.18 3.739s-2-2.366-5.52-7.19c-2.57-3.509-3.32-7.477-3.32-7.477l5.34 2.3s-.59-2.03-3.13-6.613c-2.39-4.314-2.76-8.628-2.76-8.628l5.34 4.026s-2.58-6.039-5.89-14.379c-3.31-8.34-3.68-19.842-4.23-19.842Z"/>
  <path d="M1352.32 38.113c-.38 0-1.36 7.92-2.4 11.455-2.02 6.873-5.43 13.491-5.43 13.491h2.65s-.62 2.052-2.02 5.346c-1.59 3.74-1.89 5.09-1.89 5.09l3.53-1.017s.63 1.238-1.13 4.327c-2.5 4.356-4.17 8.4-4.17 8.4l5.3-2.291s-.88 2.8-3.03 7.382c-3.14 6.71-5.81 9.418-5.81 9.418l6.82-1.781s-1.29 4.261-3.28 8.145c-3.79 7.382-5.43 9.927-5.43 9.927s3.03 0 6.5-1.527c3.48-1.527 6.51-1.527 6.51-1.527v8.655h5.3v-8.655s2.15-.509 6.38.764c4.23 1.272 6.37.763 6.37.763s.51-.898-4.67-7.891c-2.3-3.112-3.53-6.873-3.53-6.873h5.3s-.29-1.31-3.79-6.363c-2.07-2.99-3.28-7.382-3.28-7.382l4.92 3.309s-1.37-2.094-3.79-6.364c-1.75-3.106-2.27-6.618-2.27-6.618l3.66 2.036s-.4-1.797-2.14-5.854c-1.64-3.819-1.9-7.637-1.9-7.637l3.66 3.564s-1.76-5.346-4.04-12.728c-2.27-7.382-2.52-17.564-2.9-17.564ZM435.887 68.23c-.31 0-1.114 5.044-1.965 7.296-1.655 4.377-4.447 8.592-4.447 8.592h2.172s-.511 1.306-1.655 3.404c-1.3 2.382-1.552 3.242-1.552 3.242l2.896-.648s.517.79-.93 2.756a48.986 48.986 0 0 0-3.414 5.35l4.344-1.46s-.724 1.784-2.482 4.702c-2.575 4.274-4.758 5.998-4.758 5.998l5.586-1.134s-1.057 2.713-2.69 5.187c-3.103 4.702-4.447 6.323-4.447 6.323s2.482 0 5.327-.973c2.844-.973 5.326-.973 5.326-.973v5.512h4.344v-5.512s1.758-.324 5.223.487c3.465.81 5.223.486 5.223.486s.411-.572-3.826-5.025c-1.887-1.983-2.896-4.378-2.896-4.378h4.344s-.235-.834-3.103-4.052c-1.697-1.904-2.689-4.702-2.689-4.702l4.033 2.108s-1.122-1.334-3.103-4.053c-1.441-1.979-1.861-4.215-1.861-4.215l2.999 1.297s-.329-1.145-1.758-3.729c-1.345-2.432-1.552-4.863-1.552-4.863l3 2.27s-1.448-3.405-3.31-8.107c-1.862-4.7-2.068-11.185-2.379-11.185Zm-64.49-15.857c-.401 0-1.438 6.568-2.537 9.5-2.136 5.701-5.74 11.19-5.74 11.19h2.803s-.658 1.702-2.136 4.434c-1.677 3.102-2.002 4.223-2.002 4.223l3.738-.845s.666 1.028-1.202 3.59a64.083 64.083 0 0 0-4.405 6.966l5.607-1.9s-.935 2.323-3.204 6.123c-3.324 5.566-6.141 7.812-6.141 7.812l7.209-1.478s-1.363 3.534-3.471 6.756c-4.005 6.122-5.74 8.234-5.74 8.234s3.204 0 6.875-1.267 6.875-1.267 6.875-1.267v7.179h5.607v-7.179s2.269-.422 6.741.634c4.472 1.055 6.742.633 6.742.633s.53-.745-4.94-6.545c-2.434-2.581-3.738-5.7-3.738-5.7h5.607s-.303-1.088-4.005-5.278c-2.19-2.48-3.47-6.123-3.47-6.123l5.206 2.745s-1.448-1.737-4.005-5.279c-1.86-2.576-2.403-5.489-2.403-5.489l3.871 1.689s-.425-1.49-2.269-4.856c-1.735-3.167-2.002-6.334-2.002-6.334l3.871 2.956s-1.869-4.434-4.272-10.556c-2.403-6.123-2.67-14.568-3.07-14.568Z"/>
  <path d="M387.971 62.685c-.401 0-1.438 5.59-2.536 8.086-2.136 4.852-5.741 9.523-5.741 9.523h2.804s-.659 1.449-2.136 3.774c-1.677 2.64-2.003 3.593-2.003 3.593l3.738-.718s.667.874-1.201 3.054c-2.635 3.075-4.406 5.93-4.406 5.93l5.607-1.617s-.934 1.976-3.204 5.21c-3.323 4.737-6.141 6.649-6.141 6.649l7.209-1.258s-1.363 3.008-3.471 5.75c-4.005 5.21-5.74 7.007-5.74 7.007s3.204 0 6.875-1.078 6.875-1.078 6.875-1.078v6.109h5.607v-6.109s2.269-.359 6.741.539c4.472.899 6.742.539 6.742.539s.53-.634-4.939-5.57c-2.435-2.197-3.738-4.851-3.738-4.851h5.607s-.304-.926-4.005-4.492c-2.19-2.11-3.471-5.211-3.471-5.211l5.206 2.336s-1.448-1.478-4.005-4.492c-1.86-2.193-2.403-4.672-2.403-4.672l3.872 1.437s-.425-1.268-2.27-4.132c-1.735-2.696-2.002-5.39-2.002-5.39l3.871 2.515s-1.869-3.774-4.272-8.984c-2.403-5.211-2.67-12.399-3.07-12.399Zm-31.18 11.553c-.274 0-.984 4.474-1.737 6.47-1.462 3.883-3.93 7.622-3.93 7.622h1.919s-.451 1.159-1.462 3.02c-1.148 2.112-1.371 2.875-1.371 2.875l2.559-.575s.457.7-.822 2.444c-1.804 2.46-3.017 4.745-3.017 4.745l3.839-1.294s-.64 1.582-2.193 4.17c-2.276 3.791-4.205 5.32-4.205 5.32l4.936-1.006s-.934 2.407-2.377 4.601c-2.742 4.17-3.93 5.608-3.93 5.608s2.194 0 4.707-.863c2.514-.863 4.707-.863 4.707-.863v4.889h3.839v-4.889s1.554-.287 4.616.432c3.062.719 4.616.431 4.616.431s.363-.508-3.382-4.457c-1.667-1.758-2.559-3.883-2.559-3.883h3.839s-.208-.74-2.742-3.594c-1.5-1.689-2.377-4.17-2.377-4.17l3.565 1.869s-.992-1.183-2.742-3.595c-1.274-1.754-1.645-3.738-1.645-3.738l2.65 1.15s-.291-1.015-1.554-3.307c-1.188-2.157-1.371-4.314-1.371-4.314l2.651 2.013s-1.28-3.02-2.925-7.19c-1.645-4.17-1.828-9.92-2.102-9.92Z"/>
  <path d="M419.348 27.08c-.552 0-1.981 8.947-3.496 12.941-2.944 7.765-7.912 15.242-7.912 15.242h3.864s-.908 2.318-2.944 6.039c-2.312 4.225-2.76 5.752-2.76 5.752l5.152-1.15s.919 1.399-1.656 4.888c-3.632 4.921-6.072 9.49-6.072 9.49l7.728-2.588s-1.288 3.163-4.416 8.34c-4.581 7.58-8.465 10.64-8.465 10.64l9.937-2.013s-1.88 4.814-4.784 9.203c-5.521 8.339-7.913 11.215-7.913 11.215s4.417 0 9.477-1.725c5.06-1.726 9.476-1.726 9.476-1.726v9.778h7.728v-9.778s3.129-.575 9.293.863 9.292.863 9.292.863.731-1.016-6.808-8.915c-3.356-3.516-5.152-7.765-5.152-7.765h7.728s-.418-1.48-5.52-7.19c-3.019-3.377-4.784-8.34-4.784-8.34l7.176 3.74s-1.996-2.366-5.52-7.19c-2.564-3.51-3.313-7.477-3.313-7.477l5.337 2.3s-.586-2.03-3.128-6.614c-2.393-4.314-2.761-8.627-2.761-8.627l5.337 4.026s-2.576-6.04-5.889-14.379c-3.312-8.34-3.68-19.843-4.232-19.843Z"/>
  <path d="M403.319 38.129c-.378 0-1.36 7.92-2.399 11.455-2.02 6.872-5.43 13.49-5.43 13.49h2.652s-.623 2.052-2.021 5.346c-1.586 3.74-1.894 5.091-1.894 5.091l3.536-1.018s.63 1.239-1.136 4.328a82.909 82.909 0 0 0-4.168 8.4l5.304-2.291s-.884 2.8-3.031 7.382c-3.144 6.71-5.809 9.418-5.809 9.418l6.82-1.782s-1.29 4.261-3.284 8.146c-3.788 7.382-5.43 9.927-5.43 9.927s3.031 0 6.504-1.527c3.472-1.527 6.503-1.527 6.503-1.527v8.654h5.304v-8.654s2.147-.51 6.377.763c4.23 1.273 6.377.764 6.377.764s.502-.899-4.672-7.891c-2.303-3.112-3.536-6.873-3.536-6.873h5.304s-.287-1.31-3.789-6.364c-2.071-2.99-3.283-7.382-3.283-7.382l4.925 3.31s-1.37-2.094-3.788-6.364c-1.76-3.107-2.274-6.619-2.274-6.619l3.663 2.037s-.403-1.797-2.147-5.855c-1.642-3.818-1.894-7.636-1.894-7.636l3.662 3.563s-1.768-5.345-4.041-12.727c-2.273-7.382-2.526-17.564-2.905-17.564Zm32.568 142.002c-.31 0-1.114-5.044-1.965-7.295-1.655-4.377-4.447-8.592-4.447-8.592h2.172s-.511-1.307-1.655-3.405c-1.3-2.381-1.552-3.242-1.552-3.242l2.896.648s.517-.789-.93-2.756c-2.042-2.774-3.414-5.349-3.414-5.349l4.344 1.459s-.724-1.784-2.482-4.702c-2.575-4.273-4.758-5.998-4.758-5.998l5.586 1.135s-1.057-2.714-2.69-5.188c-3.103-4.701-4.447-6.322-4.447-6.322s2.482 0 5.327.972c2.844.973 5.326.973 5.326.973v-5.512h4.344v5.512s1.758.324 5.223-.486c3.465-.811 5.223-.487 5.223-.487s.411.573-3.826 5.026c-1.887 1.982-2.896 4.377-2.896 4.377h4.344s-.235.835-3.103 4.053c-1.697 1.904-2.689 4.701-2.689 4.701l4.033-2.107s-1.122 1.333-3.103 4.053c-1.441 1.978-1.861 4.215-1.861 4.215l2.999-1.297s-.329 1.144-1.758 3.728c-1.345 2.432-1.552 4.864-1.552 4.864l3-2.27s-1.448 3.405-3.31 8.106c-1.862 4.701-2.068 11.186-2.379 11.186Zm-64.49 15.857c-.401 0-1.438-6.568-2.537-9.5-2.136-5.701-5.74-11.19-5.74-11.19h2.803s-.658-1.702-2.136-4.434c-1.677-3.101-2.002-4.222-2.002-4.222l3.738.844s.666-1.027-1.202-3.589a64.088 64.088 0 0 1-4.405-6.967l5.607 1.9s-.935-2.322-3.204-6.123c-3.324-5.565-6.141-7.811-6.141-7.811l7.209 1.478s-1.363-3.535-3.471-6.756c-4.005-6.123-5.74-8.234-5.74-8.234s3.204 0 6.875 1.266c3.671 1.267 6.875 1.267 6.875 1.267v-7.178h5.607v7.178s2.269.422 6.741-.633c4.472-1.056 6.742-.634 6.742-.634s.53.746-4.94 6.545c-2.434 2.582-3.738 5.701-3.738 5.701h5.607s-.303 1.087-4.005 5.278c-2.19 2.479-3.47 6.122-3.47 6.122l5.206-2.744s-1.448 1.736-4.005 5.278c-1.86 2.576-2.403 5.489-2.403 5.489l3.871-1.689s-.425 1.491-2.269 4.856c-1.735 3.167-2.002 6.334-2.002 6.334l3.871-2.956s-1.869 4.434-4.272 10.557c-2.403 6.122-2.67 14.567-3.07 14.567Z"/>
  <path d="M387.971 185.676c-.401 0-1.438-5.59-2.536-8.086-2.136-4.851-5.741-9.523-5.741-9.523h2.804s-.659-1.448-2.136-3.773c-1.677-2.64-2.003-3.594-2.003-3.594l3.738.719s.667-.875-1.201-3.055c-2.635-3.075-4.406-5.929-4.406-5.929l5.607 1.617s-.934-1.977-3.204-5.211c-3.323-4.737-6.141-6.648-6.141-6.648l7.209 1.257s-1.363-3.007-3.471-5.749c-4.005-5.211-5.74-7.008-5.74-7.008s3.204 0 6.875 1.078 6.875 1.078 6.875 1.078v-6.109h5.607v6.109s2.269.36 6.741-.539c4.472-.898 6.742-.539 6.742-.539s.53.634-4.939 5.57c-2.435 2.197-3.738 4.852-3.738 4.852h5.607s-.304.925-4.005 4.492c-2.19 2.11-3.471 5.211-3.471 5.211l5.206-2.336s-1.448 1.478-4.005 4.492c-1.86 2.192-2.403 4.671-2.403 4.671l3.872-1.437s-.425 1.268-2.27 4.133c-1.735 2.695-2.002 5.39-2.002 5.39l3.871-2.515s-1.869 3.773-4.272 8.984c-2.403 5.21-2.67 12.398-3.07 12.398Zm-31.18-11.553c-.274 0-.984-4.473-1.737-6.47-1.462-3.883-3.93-7.621-3.93-7.621h1.919s-.451-1.159-1.462-3.02c-1.148-2.112-1.371-2.876-1.371-2.876l2.559.575s.457-.699-.822-2.444c-1.804-2.461-3.017-4.745-3.017-4.745l3.839 1.294s-.64-1.582-2.193-4.17c-2.276-3.79-4.205-5.32-4.205-5.32l4.936 1.007s-.934-2.407-2.377-4.602c-2.742-4.17-3.93-5.607-3.93-5.607s2.194 0 4.707.862c2.514.863 4.707.863 4.707.863v-4.889h3.839v4.889s1.554.288 4.616-.431c3.062-.719 4.616-.432 4.616-.432s.363.508-3.382 4.458c-1.667 1.758-2.559 3.882-2.559 3.882h3.839s-.208.74-2.742 3.595c-1.5 1.688-2.377 4.17-2.377 4.17l3.565-1.87s-.992 1.183-2.742 3.595c-1.274 1.755-1.645 3.739-1.645 3.739l2.65-1.151s-.291 1.015-1.554 3.307c-1.188 2.157-1.371 4.314-1.371 4.314l2.651-2.013s-1.28 3.02-2.925 7.19c-1.645 4.169-1.828 9.921-2.102 9.921Z"/>
  <path d="M419.348 221.281c-.552 0-1.981-8.947-3.496-12.941-2.944-7.764-7.912-15.241-7.912-15.241h3.864s-.908-2.318-2.944-6.04c-2.312-4.224-2.76-5.751-2.76-5.751l5.152 1.15s.919-1.399-1.656-4.889c-3.632-4.921-6.072-9.49-6.072-9.49l7.728 2.588s-1.288-3.163-4.416-8.339c-4.581-7.581-8.465-10.641-8.465-10.641l9.937 2.013s-1.88-4.814-4.784-9.202c-5.521-8.34-7.913-11.216-7.913-11.216s4.417 0 9.477 1.726c5.06 1.725 9.476 1.725 9.476 1.725v-9.778h7.728v9.778s3.129.575 9.293-.863c6.164-1.437 9.292-.862 9.292-.862s.731 1.015-6.808 8.915c-3.356 3.516-5.152 7.764-5.152 7.764h7.728s-.418 1.481-5.52 7.19c-3.019 3.377-4.784 8.339-4.784 8.339l7.176-3.738s-1.996 2.365-5.52 7.189c-2.564 3.51-3.313 7.477-3.313 7.477l5.337-2.3s-.586 2.03-3.128 6.614c-2.393 4.314-2.761 8.627-2.761 8.627l5.337-4.026s-2.576 6.04-5.889 14.379c-3.312 8.34-3.68 19.843-4.232 19.843Z"/>
  <path d="M403.319 210.232c-.378 0-1.36-7.919-2.399-11.454-2.02-6.873-5.43-13.491-5.43-13.491h2.652s-.623-2.052-2.021-5.346c-1.586-3.739-1.894-5.091-1.894-5.091l3.536 1.018s.63-1.239-1.136-4.327a82.909 82.909 0 0 1-4.168-8.4l5.304 2.291s-.884-2.8-3.031-7.382c-3.144-6.711-5.809-9.419-5.809-9.419l6.82 1.782s-1.29-4.261-3.284-8.145c-3.788-7.382-5.43-9.928-5.43-9.928s3.031 0 6.504 1.528c3.472 1.527 6.503 1.527 6.503 1.527v-8.655h5.304v8.655s2.147.509 6.377-.764c4.23-1.273 6.377-.763 6.377-.763s.502.898-4.672 7.891c-2.303 3.112-3.536 6.872-3.536 6.872h5.304s-.287 1.311-3.789 6.364c-2.071 2.99-3.283 7.382-3.283 7.382l4.925-3.309s-1.37 2.094-3.788 6.364c-1.76 3.106-2.274 6.618-2.274 6.618l3.663-2.036s-.403 1.796-2.147 5.854c-1.642 3.818-1.894 7.637-1.894 7.637l3.662-3.564s-1.768 5.346-4.041 12.727c-2.273 7.382-2.526 17.564-2.905 17.564ZM242.887 68.23c-.31 0-1.114 5.044-1.965 7.296-1.655 4.377-4.447 8.592-4.447 8.592h2.172s-.511 1.306-1.655 3.404c-1.3 2.382-1.552 3.242-1.552 3.242l2.896-.648s.517.79-.93 2.756a49.028 49.028 0 0 0-3.414 5.35l4.344-1.46s-.724 1.784-2.482 4.702c-2.575 4.274-4.758 5.998-4.758 5.998l5.586-1.134s-1.057 2.713-2.69 5.187c-3.103 4.702-4.447 6.323-4.447 6.323s2.482 0 5.327-.973c2.844-.973 5.326-.973 5.326-.973v5.512h4.344v-5.512s1.758-.324 5.223.487c3.465.81 5.223.486 5.223.486s.411-.572-3.826-5.025c-1.887-1.983-2.896-4.378-2.896-4.378h4.344s-.235-.834-3.103-4.052c-1.697-1.904-2.689-4.702-2.689-4.702l4.033 2.108s-1.122-1.334-3.103-4.053c-1.441-1.979-1.861-4.215-1.861-4.215l2.999 1.297s-.329-1.145-1.758-3.729c-1.345-2.432-1.552-4.863-1.552-4.863l3 2.27s-1.448-3.405-3.31-8.107c-1.862-4.7-2.068-11.185-2.379-11.185Zm-64.49-15.857c-.401 0-1.438 6.568-2.537 9.5-2.136 5.701-5.74 11.19-5.74 11.19h2.803s-.658 1.702-2.136 4.434c-1.677 3.102-2.002 4.223-2.002 4.223l3.738-.845s.666 1.028-1.202 3.59c-2.634 3.612-4.405 6.966-4.405 6.966l5.607-1.9s-.935 2.323-3.204 6.123c-3.324 5.566-6.141 7.812-6.141 7.812l7.209-1.478s-1.363 3.534-3.471 6.756c-4.005 6.122-5.74 8.234-5.74 8.234s3.204 0 6.875-1.267 6.875-1.267 6.875-1.267v7.179h5.607v-7.179s2.269-.422 6.741.634c4.472 1.055 6.742.633 6.742.633s.53-.745-4.94-6.545c-2.434-2.581-3.738-5.7-3.738-5.7h5.607s-.303-1.088-4.005-5.278c-2.19-2.48-3.47-6.123-3.47-6.123l5.206 2.745s-1.448-1.737-4.005-5.279c-1.86-2.576-2.403-5.489-2.403-5.489l3.871 1.689s-.425-1.49-2.269-4.856c-1.735-3.167-2.002-6.334-2.002-6.334l3.871 2.956s-1.869-4.434-4.272-10.556c-2.403-6.123-2.67-14.568-3.07-14.568Z"/>
  <path d="M194.971 62.685c-.401 0-1.438 5.59-2.536 8.086-2.136 4.852-5.741 9.523-5.741 9.523h2.804s-.659 1.449-2.136 3.774c-1.677 2.64-2.003 3.593-2.003 3.593l3.738-.718s.667.874-1.201 3.054c-2.635 3.075-4.406 5.93-4.406 5.93l5.607-1.617s-.934 1.976-3.204 5.21c-3.323 4.737-6.141 6.649-6.141 6.649l7.209-1.258s-1.363 3.008-3.471 5.75c-4.005 5.21-5.74 7.007-5.74 7.007s3.204 0 6.875-1.078 6.875-1.078 6.875-1.078v6.109h5.607v-6.109s2.269-.359 6.741.539c4.472.899 6.742.539 6.742.539s.53-.634-4.939-5.57c-2.435-2.197-3.738-4.851-3.738-4.851h5.607s-.304-.926-4.005-4.492c-2.19-2.11-3.471-5.211-3.471-5.211l5.206 2.336s-1.448-1.478-4.005-4.492c-1.86-2.193-2.403-4.672-2.403-4.672l3.872 1.437s-.425-1.268-2.27-4.132c-1.735-2.696-2.002-5.39-2.002-5.39l3.871 2.515s-1.869-3.774-4.272-8.984c-2.403-5.211-2.67-12.399-3.07-12.399Zm-31.18 11.553c-.274 0-.984 4.474-1.737 6.47-1.462 3.883-3.93 7.622-3.93 7.622h1.919s-.451 1.159-1.462 3.02c-1.148 2.112-1.371 2.875-1.371 2.875l2.559-.575s.457.7-.822 2.444c-1.804 2.46-3.017 4.745-3.017 4.745l3.839-1.294s-.64 1.582-2.193 4.17c-2.276 3.791-4.205 5.32-4.205 5.32l4.936-1.006s-.934 2.407-2.377 4.601c-2.742 4.17-3.93 5.608-3.93 5.608s2.194 0 4.707-.863c2.514-.863 4.707-.863 4.707-.863v4.889h3.839v-4.889s1.554-.287 4.616.432c3.062.719 4.616.431 4.616.431s.363-.508-3.382-4.457c-1.667-1.758-2.559-3.883-2.559-3.883h3.839s-.208-.74-2.742-3.594c-1.5-1.689-2.377-4.17-2.377-4.17l3.565 1.869s-.992-1.183-2.742-3.595c-1.274-1.754-1.645-3.738-1.645-3.738l2.65 1.15s-.291-1.015-1.554-3.307c-1.188-2.157-1.371-4.314-1.371-4.314l2.651 2.013s-1.28-3.02-2.925-7.19c-1.645-4.17-1.828-9.92-2.102-9.92Z"/>
  <path d="M226.348 27.08c-.552 0-1.981 8.947-3.496 12.941-2.944 7.765-7.912 15.242-7.912 15.242h3.864s-.908 2.318-2.944 6.039c-2.312 4.225-2.76 5.752-2.76 5.752l5.152-1.15s.919 1.399-1.656 4.888c-3.632 4.921-6.072 9.49-6.072 9.49l7.728-2.588s-1.288 3.163-4.416 8.34c-4.581 7.58-8.465 10.64-8.465 10.64l9.937-2.013s-1.88 4.814-4.784 9.203c-5.521 8.339-7.913 11.215-7.913 11.215s4.417 0 9.477-1.725c5.06-1.726 9.476-1.726 9.476-1.726v9.778h7.728v-9.778s3.129-.575 9.293.863 9.292.863 9.292.863.731-1.016-6.808-8.915c-3.356-3.516-5.152-7.765-5.152-7.765h7.728s-.418-1.48-5.52-7.19c-3.019-3.377-4.784-8.34-4.784-8.34l7.176 3.74s-1.996-2.366-5.52-7.19c-2.564-3.51-3.313-7.477-3.313-7.477l5.337 2.3s-.586-2.03-3.128-6.614c-2.393-4.314-2.761-8.627-2.761-8.627l5.337 4.026s-2.576-6.04-5.889-14.379c-3.312-8.34-3.68-19.843-4.232-19.843Z"/>
  <path d="M210.319 38.129c-.378 0-1.36 7.92-2.399 11.455-2.02 6.872-5.43 13.49-5.43 13.49h2.652s-.623 2.052-2.021 5.346c-1.586 3.74-1.894 5.091-1.894 5.091l3.536-1.018s.63 1.239-1.136 4.328a82.909 82.909 0 0 0-4.168 8.4l5.304-2.291s-.884 2.8-3.031 7.382c-3.144 6.71-5.809 9.418-5.809 9.418l6.82-1.782s-1.29 4.261-3.284 8.146c-3.788 7.382-5.43 9.927-5.43 9.927s3.031 0 6.504-1.527c3.472-1.527 6.503-1.527 6.503-1.527v8.654h5.304v-8.654s2.147-.51 6.377.763c4.23 1.273 6.377.764 6.377.764s.502-.899-4.672-7.891c-2.303-3.112-3.536-6.873-3.536-6.873h5.304s-.287-1.31-3.789-6.364c-2.071-2.99-3.283-7.382-3.283-7.382l4.925 3.31s-1.37-2.094-3.788-6.364c-1.76-3.107-2.274-6.619-2.274-6.619l3.663 2.037s-.403-1.797-2.147-5.855c-1.642-3.818-1.894-7.636-1.894-7.636l3.662 3.563s-1.768-5.345-4.041-12.727c-2.273-7.382-2.526-17.564-2.905-17.564Zm32.568 142.002c-.31 0-1.114-5.044-1.965-7.295-1.655-4.377-4.447-8.592-4.447-8.592h2.172s-.511-1.307-1.655-3.405c-1.3-2.381-1.552-3.242-1.552-3.242l2.896.648s.517-.789-.93-2.756a49.033 49.033 0 0 1-3.414-5.349l4.344 1.459s-.724-1.784-2.482-4.702c-2.575-4.273-4.758-5.998-4.758-5.998l5.586 1.135s-1.057-2.714-2.69-5.188c-3.103-4.701-4.447-6.322-4.447-6.322s2.482 0 5.327.972c2.844.973 5.326.973 5.326.973v-5.512h4.344v5.512s1.758.324 5.223-.486c3.465-.811 5.223-.487 5.223-.487s.411.573-3.826 5.026c-1.887 1.982-2.896 4.377-2.896 4.377h4.344s-.235.835-3.103 4.053c-1.697 1.904-2.689 4.701-2.689 4.701l4.033-2.107s-1.122 1.333-3.103 4.053c-1.441 1.978-1.861 4.215-1.861 4.215l2.999-1.297s-.329 1.144-1.758 3.728c-1.345 2.432-1.552 4.864-1.552 4.864l3-2.27s-1.448 3.405-3.31 8.106c-1.862 4.701-2.068 11.186-2.379 11.186Zm-64.49 15.857c-.401 0-1.438-6.568-2.537-9.5-2.136-5.701-5.74-11.19-5.74-11.19h2.803s-.658-1.702-2.136-4.434c-1.677-3.101-2.002-4.222-2.002-4.222l3.738.844s.666-1.027-1.202-3.589a64.088 64.088 0 0 1-4.405-6.967l5.607 1.9s-.935-2.322-3.204-6.123c-3.324-5.565-6.141-7.811-6.141-7.811l7.209 1.478s-1.363-3.535-3.471-6.756c-4.005-6.123-5.74-8.234-5.74-8.234s3.204 0 6.875 1.266c3.671 1.267 6.875 1.267 6.875 1.267v-7.178h5.607v7.178s2.269.422 6.741-.633c4.472-1.056 6.742-.634 6.742-.634s.53.746-4.94 6.545c-2.434 2.582-3.738 5.701-3.738 5.701h5.607s-.303 1.087-4.005 5.278c-2.19 2.479-3.47 6.122-3.47 6.122l5.206-2.744s-1.448 1.736-4.005 5.278c-1.86 2.576-2.403 5.489-2.403 5.489l3.871-1.689s-.425 1.491-2.269 4.856c-1.735 3.167-2.002 6.334-2.002 6.334l3.871-2.956s-1.869 4.434-4.272 10.557c-2.403 6.122-2.67 14.567-3.07 14.567Z"/>
  <path d="M194.971 185.676c-.401 0-1.438-5.59-2.536-8.086-2.136-4.851-5.741-9.523-5.741-9.523h2.804s-.659-1.448-2.136-3.773c-1.677-2.64-2.003-3.594-2.003-3.594l3.738.719s.667-.875-1.201-3.055a53.945 53.945 0 0 1-4.406-5.929l5.607 1.617s-.934-1.977-3.204-5.211c-3.323-4.737-6.141-6.648-6.141-6.648l7.209 1.257s-1.363-3.007-3.471-5.749c-4.005-5.211-5.74-7.008-5.74-7.008s3.204 0 6.875 1.078 6.875 1.078 6.875 1.078v-6.109h5.607v6.109s2.269.36 6.741-.539c4.472-.898 6.742-.539 6.742-.539s.53.634-4.939 5.57c-2.435 2.197-3.738 4.852-3.738 4.852h5.607s-.304.925-4.005 4.492c-2.19 2.11-3.471 5.211-3.471 5.211l5.206-2.336s-1.448 1.478-4.005 4.492c-1.86 2.192-2.403 4.671-2.403 4.671l3.872-1.437s-.425 1.268-2.27 4.133c-1.735 2.695-2.002 5.39-2.002 5.39l3.871-2.515s-1.869 3.773-4.272 8.984c-2.403 5.21-2.67 12.398-3.07 12.398Zm-31.18-11.553c-.274 0-.984-4.473-1.737-6.47-1.462-3.883-3.93-7.621-3.93-7.621h1.919s-.451-1.159-1.462-3.02c-1.148-2.112-1.371-2.876-1.371-2.876l2.559.575s.457-.699-.822-2.444c-1.804-2.461-3.017-4.745-3.017-4.745l3.839 1.294s-.64-1.582-2.193-4.17c-2.276-3.79-4.205-5.32-4.205-5.32l4.936 1.007s-.934-2.407-2.377-4.602c-2.742-4.17-3.93-5.607-3.93-5.607s2.194 0 4.707.862c2.514.863 4.707.863 4.707.863v-4.889h3.839v4.889s1.554.288 4.616-.431c3.062-.719 4.616-.432 4.616-.432s.363.508-3.382 4.458c-1.667 1.758-2.559 3.882-2.559 3.882h3.839s-.208.74-2.742 3.595c-1.5 1.688-2.377 4.17-2.377 4.17l3.565-1.87s-.992 1.183-2.742 3.595c-1.274 1.755-1.645 3.739-1.645 3.739l2.65-1.151s-.291 1.015-1.554 3.307c-1.188 2.157-1.371 4.314-1.371 4.314l2.651-2.013s-1.28 3.02-2.925 7.19c-1.645 4.169-1.828 9.921-2.102 9.921Z"/>
  <path d="M226.348 221.281c-.552 0-1.981-8.947-3.496-12.941-2.944-7.764-7.912-15.241-7.912-15.241h3.864s-.908-2.318-2.944-6.04c-2.312-4.224-2.76-5.751-2.76-5.751l5.152 1.15s.919-1.399-1.656-4.889c-3.632-4.921-6.072-9.49-6.072-9.49l7.728 2.588s-1.288-3.163-4.416-8.339c-4.581-7.581-8.465-10.641-8.465-10.641l9.937 2.013s-1.88-4.814-4.784-9.202c-5.521-8.34-7.913-11.216-7.913-11.216s4.417 0 9.477 1.726c5.06 1.725 9.476 1.725 9.476 1.725v-9.778h7.728v9.778s3.129.575 9.293-.863c6.164-1.437 9.292-.862 9.292-.862s.731 1.015-6.808 8.915c-3.356 3.516-5.152 7.764-5.152 7.764h7.728s-.418 1.481-5.52 7.19c-3.019 3.377-4.784 8.339-4.784 8.339l7.176-3.738s-1.996 2.365-5.52 7.189c-2.564 3.51-3.313 7.477-3.313 7.477l5.337-2.3s-.586 2.03-3.128 6.614c-2.393 4.314-2.761 8.627-2.761 8.627l5.337-4.026s-2.576 6.04-5.889 14.379c-3.312 8.34-3.68 19.843-4.232 19.843Z"/>
  <path d="M210.319 210.232c-.378 0-1.36-7.919-2.399-11.454-2.02-6.873-5.43-13.491-5.43-13.491h2.652s-.623-2.052-2.021-5.346c-1.586-3.739-1.894-5.091-1.894-5.091l3.536 1.018s.63-1.239-1.136-4.327a82.909 82.909 0 0 1-4.168-8.4l5.304 2.291s-.884-2.8-3.031-7.382c-3.144-6.711-5.809-9.419-5.809-9.419l6.82 1.782s-1.29-4.261-3.284-8.145c-3.788-7.382-5.43-9.928-5.43-9.928s3.031 0 6.504 1.528c3.472 1.527 6.503 1.527 6.503 1.527v-8.655h5.304v8.655s2.147.509 6.377-.764c4.23-1.273 6.377-.763 6.377-.763s.502.898-4.672 7.891c-2.303 3.112-3.536 6.872-3.536 6.872h5.304s-.287 1.311-3.789 6.364c-2.071 2.99-3.283 7.382-3.283 7.382l4.925-3.309s-1.37 2.094-3.788 6.364c-1.76 3.106-2.274 6.618-2.274 6.618l3.663-2.036s-.403 1.796-2.147 5.854c-1.642 3.818-1.894 7.637-1.894 7.637l3.662-3.564s-1.768 5.346-4.041 12.727c-2.273 7.382-2.526 17.564-2.905 17.564Z"/>
  <rect width="1645" height="5" y="121.68" rx="2.5"/>
</svg>
