<svg xmlns="http://www.w3.org/2000/svg" width="388" height="222" fill="currentColor" viewBox="0 0 388 222">
  <path d="M148.408 0c2.316 0 8.315 22.593 14.669 32.678 12.352 19.608 33.197 38.489 33.197 38.489h-16.213s3.809 5.852 12.353 15.25c9.699 10.668 11.58 14.523 11.58 14.523l-21.616-2.905s-3.855 3.535 6.948 12.346c15.236 12.427 25.477 23.964 25.477 23.964l-32.425-6.536s5.404 7.988 18.528 21.06c19.221 19.143 35.514 26.869 35.514 26.869l-41.69-5.084s7.885 12.157 20.073 23.238C237.964 214.952 248 222 248 222H58.5s-3.487-6.707 28.146-26.655c14.08-8.879 21.617-19.607 21.617-19.607H75.838s1.754-3.74 23.16-18.155c12.666-8.529 20.073-21.06 20.073-21.06l-30.109 9.441s8.376-5.973 23.161-18.155c10.756-8.861 13.896-18.881 13.896-18.881l-22.388 5.81s2.458-5.126 13.124-16.703c10.036-10.892 11.581-21.785 11.581-21.785l-22.389 10.166s10.808-15.25 24.705-36.309C144.548 29.047 146.092 0 148.408 0Z"/>
  <path d="M225.831 68.727c1.646 0 5.908 16.073 10.423 23.25 8.776 13.949 23.587 27.382 23.587 27.382h-11.519s2.706 4.164 8.776 10.85c6.892 7.59 8.229 10.333 8.229 10.333l-15.36-2.067s-2.738 2.515 4.937 8.783c10.826 8.842 18.102 17.05 18.102 17.05l-23.039-4.65s3.84 5.683 13.165 14.983c13.658 13.62 25.234 19.116 25.234 19.116l-29.622-3.616s5.603 8.648 14.262 16.533C289.463 221.657 296.594 222 296.594 222h-134.5s-2.622-.101 19.854-14.293c10.003-6.317 15.359-13.95 15.359-13.95h-23.039s1.246-2.66 16.456-12.916c8.999-6.068 14.262-14.983 14.262-14.983l-21.393 6.716s5.951-4.249 16.457-12.916c7.642-6.305 9.873-13.433 9.873-13.433l-15.907 4.133s1.746-3.647 9.325-11.883c7.131-7.75 8.228-15.5 8.228-15.5l-15.908 7.234s7.68-10.85 17.554-25.833c9.874-14.983 10.971-35.65 12.616-35.65Z"/>
  <path d="M275.922 129.922c1.048 0 3.763 10.269 6.639 14.854 5.591 8.912 15.026 17.494 15.026 17.494h-7.338s1.724 2.661 5.591 6.932c4.39 4.849 5.242 6.602 5.242 6.602l-9.785-1.321s-1.744 1.607 3.145 5.612c6.897 5.649 11.532 10.893 11.532 10.893l-14.677-2.971s2.446 3.631 8.387 9.572c8.7 8.702 16.074 12.214 16.074 12.214l-18.87-2.311s2.825 6.488 9.086 10.563C310.5 221 319.5 222 319.5 222H235s5.5-1 12.966-3.285c7.213-2.208 9.785-8.912 9.785-8.912h-14.677s.794-1.7 10.483-8.253c5.733-3.876 9.086-9.572 9.086-9.572l-13.629 4.291s3.791-2.715 10.484-8.252c4.868-4.028 6.29-8.582 6.29-8.582l-10.134 2.64s1.113-2.33 5.94-7.592c4.543-4.951 5.242-9.902 5.242-9.902l-10.134 4.621s4.892-6.932 11.182-16.504c6.29-9.573 6.989-22.776 8.038-22.776Z"/>
  <path d="M329.817 98.853c1.354 0 4.858 13.217 8.57 19.117 7.216 11.47 19.394 22.514 19.394 22.514h-9.471s2.225 3.424 7.216 8.921c5.666 6.241 6.765 8.497 6.765 8.497l-12.628-1.7s-2.252 2.068 4.059 7.222c8.901 7.27 14.884 14.019 14.884 14.019l-18.943-3.824s3.157 4.673 10.824 12.32c11.23 11.198 20.748 15.718 20.748 15.718l-24.356-2.974s4.093 7.724 11.727 13.594C378 219.5 387.5 222 387.5 222h-110s1-.5 16.235-8.874c8.526-4.685 12.629-11.469 12.629-11.469h-18.943s1.025-2.188 13.531-10.621c7.399-4.989 11.726-12.319 11.726-12.319l-17.59 5.523s4.893-3.495 13.531-10.621c6.284-5.183 8.119-11.045 8.119-11.045l-13.08 3.399s1.436-2.999 7.667-9.771c5.864-6.372 6.766-12.744 6.766-12.744l-13.08 5.947s6.314-8.921 14.433-21.24c8.118-12.319 9.02-29.311 10.373-29.311ZM72.802 46.336c1.865 0 6.696 18.217 11.813 26.35 9.947 15.81 26.732 31.033 26.732 31.033H98.292s3.067 4.719 9.947 12.297c7.81 8.601 9.325 11.71 9.325 11.71l-17.407-2.342s-3.104 2.85 5.595 9.955c12.269 10.02 20.515 19.322 20.515 19.322l-26.11-5.269s4.351 6.441 14.92 16.98c15.478 15.436 28.598 21.665 28.598 21.665l-33.571-4.098s6.349 9.802 16.163 18.737c18.651 16.981 27.233 19.323 27.233 19.323H.065s-2.47-2.067 23.003-18.152c11.337-7.159 17.407-15.81 17.407-15.81H14.364s1.412-3.015 18.65-14.638c10.2-6.877 16.164-16.981 16.164-16.981l-24.245 7.612s6.744-4.816 18.65-14.638c8.661-7.146 11.19-15.225 11.19-15.225l-18.028 4.685s1.98-4.133 10.568-13.468c8.082-8.783 9.326-17.566 9.326-17.566l-18.03 8.198s8.704-12.297 19.895-29.278c11.19-16.98 12.433-40.402 14.298-40.402Z"/>
</svg>
