<svg xmlns="http://www.w3.org/2000/svg" width="348" height="186" fill="currentColor" viewBox="0 0 348 186">
  <path d="M307.078 83.791c-1.048 0-3.763 10.27-6.639 14.854-5.591 8.912-15.026 17.494-15.026 17.494h7.338s-1.724 2.661-5.591 6.932c-4.39 4.849-5.242 6.602-5.242 6.602l9.785-1.32s1.744 1.606-3.145 5.611c-6.897 5.649-11.532 10.893-11.532 10.893l14.677-2.971s-2.446 3.631-8.387 9.573c-8.7 8.701-16.074 12.213-16.074 12.213l18.87-2.311s-3.569 5.526-9.086 10.563C266.543 181.496 262 185.869 262 185.869h85.5s1.852-4.218-12.466-13.285c-6.373-4.036-9.785-8.912-9.785-8.912h14.677s-.794-1.7-10.483-8.252c-5.733-3.877-9.086-9.573-9.086-9.573l13.629 4.291s-3.791-2.715-10.484-8.252c-4.868-4.028-6.29-8.582-6.29-8.582l10.134 2.641s-1.113-2.33-5.94-7.592c-4.543-4.952-5.242-9.903-5.242-9.903l10.134 4.621s-4.892-6.932-11.182-16.504c-6.29-9.573-6.989-22.776-8.038-22.776ZM89.183 51.502c-1.354 0-4.858 13.374-8.57 19.345C73.397 82.453 61.219 93.63 61.219 93.63h9.471s-2.225 3.465-7.216 9.027c-5.666 6.316-6.765 8.598-6.765 8.598l12.628-1.72s2.252 2.093-4.059 7.308c-8.901 7.357-14.884 14.186-14.884 14.186l18.943-3.869s-3.157 4.729-10.824 12.467c-11.23 11.332-20.748 15.905-20.748 15.905l24.356-3.009s-4.607 7.196-11.727 13.756C36.864 178.746 31 185.869 31 185.869h110.5s2.245-6.921-16.235-18.73c-8.226-5.256-12.629-11.607-12.629-11.607h18.943s-1.025-2.213-13.531-10.747c-7.399-5.048-11.726-12.466-11.726-12.466l17.59 5.588s-4.893-3.535-13.531-10.747c-6.284-5.245-8.119-11.176-8.119-11.176l13.08 3.439s-1.436-3.035-7.667-9.888c-5.864-6.448-6.766-12.896-6.766-12.896l13.08 6.018s-6.314-9.027-14.433-21.493c-8.118-12.467-9.02-29.662-10.373-29.662Z"/>
  <path d="M145.183 72.502c-1.354 0-4.858 11.382-8.57 16.463-7.216 9.878-19.394 19.391-19.394 19.391h9.471s-2.225 2.948-7.216 7.683c-5.666 5.374-6.765 7.317-6.765 7.317l12.628-1.464s2.252 1.781-4.059 6.22c-8.901 6.261-14.884 12.073-14.884 12.073l18.943-3.293s-3.157 4.025-10.824 10.61c-11.23 9.644-20.748 13.537-20.748 13.537l24.356-2.561s-4.607 6.124-11.727 11.707c-13.53 10.61-19.894 15.684-19.894 15.684h111s2.245-4.902-16.235-14.952c-8.226-4.474-12.629-9.878-12.629-9.878h18.943s-1.025-1.884-13.531-9.147c-7.399-4.296-11.726-10.61-11.726-10.61l17.59 4.757s-4.893-3.01-13.531-9.147c-6.284-4.464-8.119-9.512-8.119-9.512l13.08 2.927s-1.436-2.583-7.667-8.415c-5.864-5.488-6.766-10.975-6.766-10.975l13.08 5.122s-6.314-7.683-14.433-18.293c-8.118-10.61-9.02-25.244-10.373-25.244ZM39.837 96.03c-.927 0-3.326 9.108-5.868 13.174-4.94 7.905-13.279 15.517-13.279 15.517h6.485s-1.523 2.36-4.94 6.148c-3.88 4.301-4.633 5.856-4.633 5.856l8.647-1.172s1.542 1.425-2.78 4.978c-6.094 5.01-10.19 9.661-10.19 9.661l12.97-2.635s-2.162 3.221-7.412 8.49C11.15 163.765 4.632 166.88 4.632 166.88l16.676-2.049s-3.154 4.901-8.03 9.368C4.016 182.69 0 185.869 0 185.869h76s-6.5-4.5-11.458-11.084c-4.015-5.331-8.647-7.905-8.647-7.905h12.97s-.702-1.508-9.264-7.319c-5.066-3.439-8.03-8.491-8.03-8.491l12.044 3.806s-3.35-2.408-9.264-7.319c-4.302-3.572-5.559-7.612-5.559-7.612l8.956 2.342s-.984-2.066-5.25-6.734c-4.015-4.391-4.632-8.783-4.632-8.783l8.955 4.099s-4.323-6.148-9.882-14.638c-5.558-8.491-6.176-20.202-7.102-20.202Z"/>
  <path d="M251.198 0c-1.866 0-6.696 18.217-11.813 26.35-9.947 15.81-26.732 31.033-26.732 31.033h13.055s-3.067 4.72-9.947 12.297c-7.81 8.601-9.325 11.71-9.325 11.71l17.407-2.342s3.104 2.85-5.595 9.955c-12.269 10.02-20.515 19.323-20.515 19.323l26.11-5.27s-4.351 6.441-14.92 16.98c-15.478 15.436-28.598 21.665-28.598 21.665l33.571-4.098s-6.349 9.802-16.163 18.737C179.082 173.321 170 185.869 170 185.869h153.5s2.905-12.273-22.568-28.358c-11.337-7.159-17.407-15.81-17.407-15.81h26.111s-1.412-3.015-18.651-14.638c-10.198-6.877-16.163-16.981-16.163-16.981l24.245 7.612s-6.744-4.816-18.65-14.638c-8.661-7.145-11.191-15.224-11.191-15.224l18.029 4.684s-1.979-4.133-10.568-13.468c-8.082-8.783-9.326-17.566-9.326-17.566l18.029 8.198s-8.703-12.297-19.894-29.278C254.306 23.423 253.063 0 251.198 0Z"/>
  <path d="M197.038 22.502c-1.28 0-4.595 16.125-8.107 23.323-6.826 13.994-18.346 27.47-18.346 27.47h8.96s-2.105 4.177-6.826 10.884c-5.361 7.614-6.4 10.366-6.4 10.366l11.946-2.073s2.13 2.522-3.84 8.81c-8.42 8.87-14.079 17.104-14.079 17.104l17.919-4.665s-2.987 5.702-10.24 15.031c-10.622 13.663-19.625 19.177-19.625 19.177l23.039-3.628s-4.358 8.676-11.093 16.585c-12.8 15.031-18.846 24.983-18.846 24.983h105s2.151-9.709-15.331-23.946c-7.781-6.337-11.946-13.994-11.946-13.994h17.919s-.969-2.669-12.799-12.958c-6.999-6.086-11.093-15.03-11.093-15.03l16.639 6.738s-4.628-4.263-12.799-12.958c-5.944-6.324-7.68-13.475-7.68-13.475l12.373 4.146s-1.358-3.658-7.253-11.92c-5.546-7.775-6.4-15.55-6.4-15.55l12.373 7.257s-5.973-10.884-13.653-25.915c-7.679-15.03-8.533-35.762-9.812-35.762Z"/>
</svg>
