<svg xmlns="http://www.w3.org/2000/svg" fill="currentColor" viewBox="0 0 2440 96">
  <path d="M2259.07 83.802c5.63 5.457-13.17 1.88-.69 10.029-2.6.55-5.22 1.118-7.82 1.669-.66-3.018-1.34-6.028-2-9.046 3.5-.89 7-1.778 10.51-2.666v.014Zm4.77-37.796c-3.2 8.608-13.38 10.903-2.39 18.847.88-2.954 1.77-5.908 2.65-8.862 3.81 2.291 7.65 4.582 11.47 6.86 1.37-1.126 2.75-2.253 4.12-3.367 1.75 5.134 3.48 10.28 5.23 15.427-1.56-.751-3.13-1.516-4.68-2.267-6.14 4.168-11.6 5.309-19.93 6.085.74 1.215 1.47 2.419 2.2 3.633-4.23-2.066-8.45-4.137-12.66-6.203 3.65-2.028 7.74-4.284 11.13-6.174-5.42-8.049-14.99-3.57-19.96-1.89-6.78 2.291-5.25-1.536-10.28.066-.8.25-.89 3.25-2.48 3.301-8.01.238-23.57-1.352-14.47-8.352 13.18.901 24.43-4.72 37.36-2.666-3.42-8.094 3.39-10.849 12.69-14.438ZM2021.66 71.78c4-3.931 12.13-2.345 17.64.384h.02c1.22.6 3.96 5.825 0 5.612-6.45-.364-9.57-8.588-12.96-3.005-1.52-1.04-3.11-1.964-4.7-2.991Zm-14.03.487c-3.96-2.016-2.16-8.212 2.79-6.535v-.015c2.07.701-1.99 5.599 5.43.627 1.52 3.868 3.01 7.387 4.51 11.13-1.82.062-3.48.164-5.38.214 1.28-6.358-3.39-3.42-7.35-5.42Zm199.47-5.657c-.62 5.72 1.98 5.683 6.42 9.652-4.19-.187-8.38-.388-12.55-.576 2.05-3.029 4.08-6.047 6.13-9.076Zm98.47.886h.02c1.38-.901 2.75-1.806 4.11-2.695.82 2.041 1.63 4.073 2.45 6.115 4.85-1.916 9.73-3.832 14.58-5.76-.59 6.235-9.3 5.22-14.09 9.578-7.14-1.879-10.58-5.498-11.04-10.782 1.32 1.176 2.64 2.368 3.97 3.544ZM1138.65 42.64c-1.63 1.728-3.23 3.457-4.85 5.184 2.16.789 4.3 1.39 6.47 2.304 5.69-7.512 6.23-.867 13.68-1.329 22.85-1.428 16.79-13.096 37.43 3.995-16.57-.813-10.2 7.218-20.19 13.404-2.07-4.709 7.83-15.328 1.12-17.532-11.56 4.983-22.67 9.624-35.5 12.843.38.813.75 1.63 1.12 2.444 2.04-.514 4.06-1.03 6.09-1.544-2.2 2.18-4.34 4.34-6.57 6.543 2.82-4.945-4.36-2.182-3.4-7.864.42-2.53 3.6-6.04 5.47-8.456-4.83-1.315-9.79-2.519-14.68-3.796 2.54-2.015 5.07-4.033 7.58-6.048 2.07-.063 4.12-.108 6.19-.17.01.007.03.015.04.022ZM98.326 68.937c6.137-5.886 17.289-6.86 23.157-.31-7.724.1-15.432.21-23.157.31Zm2202.804-9.342c.7 1 1.37 1.99 2.07 2.99-3.07 1.854-6.16 3.694-9.22 5.547-.59-2.892-1.19-5.784-1.8-8.663 2.98.038 5.98.088 8.95.126Zm-196.26 3.22c2.24-.175 2.44-.08 5.24.332-.01-.003-.01-.005-.01-.008 1.11.154 10.37 1.843 9.34 4.07-4.6.037-9.51 0-14.22 0-.14-1.465-.17-2.918-.35-4.395Zm54.17 1.3c.01.004.02.01.02.014 1.68.338 3.27 1.027 4.99 1.152-6.22 3.504-7.2-2.782-12.86-1.004-5.65 1.79-9.15 5.259-13.94-3.353 1.78-1.29 3.7-3.135 5.54-4.638 8.03 3.444 10.19.203 16.63-3.19-.13 3.681-.25 7.337-.38 11.018Zm-918.66-4.055c1.54-4.257 3.25-.08 3.43-.03-.01.005-.01.01-.01.015 13.58-3.942-1.77 2.357 11.05 3.02-1.91 1.065-3.78 2.188-5.67 3.265-2.93-2.053-5.94-4.38-8.8-6.27Zm441.5.399c.13 1.24.27 2.482.4 3.722-7.71-.288-9.67 4.592-16.08.148 5.23-1.303 10.45-2.595 15.68-3.885v.015Zm384.15-6.661c8.54-2.367 14.86-3.41 23.07.347 0 .005.01.01.02.014.47.232-1.82 2.825-1.2 3.479 1.69-.388 3.44-.985 5.15-1.448.23 2.077.45 4.154.69 6.218l-14.47-1.765c.71 1.215 1.44 2.42 2.16 3.634l-12.3 1.876c1.43-3.405 2.85-6.811 4.26-10.229-2.46-.713-4.92-1.4-7.38-2.126Zm-512.45-6.905c1.36 1.352-1.15 3.62.96 4.785 2.1 1.15 5.98-1.374 5.07 2.445-2.83.513-5.81 1.1-8.7 1.639 9.3 6.886 18.57.655 18.71 9.157-8.92-2.204-16.25-1.18-24.89 1.175.36-6.75 9-12.585 3.56-18.92 1.75-.088 3.58-.216 5.28-.267 0-.004.01-.01.01-.014Zm872.39-71.93c5.28.514 17.38-2.24 24.05 1.692 1.64.969 7.11 13.521 7.08 15.176-.16 5.572-6.84 6.33.32 9.962-2.41.038-4.75.247-7.13.347.42 3.745.85 7.479 1.26 11.21 2.91-.563 5.82-1.13 8.73-1.705.14 1.24.28 2.482.43 3.722-10.46.025-4.29 4.81-9.71 9.268 4.99 2.253 10.02 4.496 15 6.75-2.87-.276-6.26-.48-8.79-.806-.34 6.349 5.7 4.835 6.74 6.012 5.83 6.649-23.87 3.293-26.3 12.532 4.75 1.027 9.72 2.028 14.58 3.043-1.4 1.139-2.81 2.28-4.2 3.419-11-6.373-23.34-8.63-36.17-12.599-1.16.263-2.32.533-3.46.783.34 2.866.66 5.722 1 8.589-1.75.338-3.52.673-5.27 1.011 5.16-9.44-1.98-9.312-10.6-15.072 4.59-3.318 10.24-1.307 9.85-7.489-15.73 4.757-34.15-1.965-49.46 3.405-3.8 1.327-3.78 9.302-12.72 8.566.31-.876.36-2.459.55-3.61-15.45 3.819-24.82 6.102-40.87 2.207.92 2.866 1.84 5.745 2.76 8.611 3.41-1.428 6.82-2.878 10.21-4.305 2.32 4.733-1.1 6.822 9.06 6.771 8.33-.037 3.37-2.127 5.64-3.53 3.07-1.914 5.76 1.852 9.06-.288 2.55-1.64-.21-5.545 6.44-4.556-2.67 5.06-5.4 10.283-8.09 15.405-1.63-1.14-3.24-2.297-4.86-3.449 1.64-1.352 3.25-2.687 4.89-4.04-5.78 2.43-11.24 4.721-17.21 7.238 1.94-7.313-4.24-4.571-7.59-3.707-5.22 1.35-.75-3.683-4.17-2.844-3.43.852-7.12 6.475-13.31 5.273 3.32-3.255-1.2-6.174-.32-9.18.87-3.004 7.42-3.67 1.13-6.948-12.1 2.492 1.03 13.935-7.14 15.788-9.81 2.23-12.15-16.424-9.22-20.433 2.3-3.156 10.22-2.522 12.54-5.665-14.19-5.672-14.31 5.526-16.73 7.718-8.82 7.976-2.9-13.313-13.33-5.613.19-3.981.35-7.562.55-11.38-1.8.726-3 1.691-5.17 2.267 6.41 7.757 1.16 7.425-1.53 7.437-4.25.025 2.31 3.808 1.19 4.785-3.04 2.614-7.83 1.427-4.89 4.845-1.32-1.59-2.75-3.186-4.11-4.764-4.96 1.982-16.62 18.598-5.52 15.243-1.04 6.173-4.62 3.206-7.43 2.267-2.8-.938-2.74 2.993-5.2 2.267-9.8-2.905-3.39-9.63-1.84-14.903-12.93 3.632-.27 6.034-18.91 8.463-1.8 4.296 6.81 8.879-.36 11.358-1.32-7.462-6.6-12.822-16.89-15.301-1 1.715-2 3.446-3 5.162-5.61-6.888-2.74-14.05-13.14-5.51 5.58-15.715 1.74-5.66-7.57-12.059-1.89-1.29 2.48-4.55-.16-6.203-1.2-.745-4.1 1.716-7.03-.185-1.42-.939-8.1-6.998-12.72-4.12 3.39 7.613-5.38 14.09 2.14 20.39-13.91-1.553-23.65 2.102-8.06-8.28-3.53-2.303-7.07-4.598-10.6-6.89-2.46 1.817-4.94 3.618-7.42 5.421-.38-6.257 0-8.013-9.7-6.912 4.21-1.477 8.4-2.978 12.63-4.468.14-1.264.73-2.577.59-3.803-5.18 2.403-19.75 3.438-23.28 5.103-3.54 1.665 3.28 2.121 2.27 3.737-8.47 13.32-7.8 3.496-13.88 5.782-3.57 1.352 4.95 2.821 3.04 3.397-7.08 2.111-10.36-4.968-16.64-5.059 2.23 4.019 4.44 8.1 6.62 12.156-6.58-.213-13.92-.249-20.04 1.041-2.4.504-.59 3.492-.98 3.693-1.94 1.027-9.86 2.653-10.7 2.666-6.31.023-6.49-4.116-12.63-4.343 2.41-.35 4.68-.666 7.03-1.004 1.07-6.711 2.16-13.422 3.23-20.146-6.01-.488-12.02-.967-18.05-1.455 4.4 2.241 8.83 4.472 13.23 6.713-6.88 5.422-13.77 10.856-20.66 16.291-3.58-3.33-7.15-6.66-10.74-9.992-9.73.879-7.77 14.4-12.39 2.556a2349.81 2349.81 0 0 1-8.62 2.99l1.23-5.073c-3.46 1.04-6.92 2.072-10.38 3.124 3.64 5.985 7.2 12.283 10.81 18.093-6.81 1.3-6.94-3.777-7.96-5.044-2.69-3.356-8.04 1.17-10.18-1.935-.72-1.066 5.95-4.409 3.65-8.264-.45-.747-9.38-14.918-15.09-11.646.11 2.567.55 5.715.78 8.508-7.66 1.559-11.57-11.841-10.56-15.597-4.08 2.63-10.05 2.85-10.89 6.956-2.09.1-4.16.196-6.25.296 2.18-10.003-6.53-8.174-7.1.428 3.59.213 7.18.437 10.76.65-2.71 10.544 8.19 16.908-14.49 7.141-4.33-5.485 7.71.748 4.18-3.36-6.14-2.39-11.9-.39-17.73-4.21-7.26-4.77 1.67-9.359-15.24-3.286 37.3 15.215-5.12 10.279-22.63 15-4.82-15.028-19.61-19.788-39.99-15.317 2.13 4.182 8.54 2.027 12.23 3.404 3.69 1.378-.3 3.859 4.29 5.812 4.61 1.953 14.38 4.608 19.04 7.562-3.95 2.367-23.42 7.964-10.55 1.241-9.61-4.144-14.12-8.403-26.03-9.18-3.57 6.525-3.31 10.587-14.92 10.775 6.87-9.066-6.33-15.366-3.42-24.732 8.23 2.181 3.63 11.284 8.39 15.641.49.436 8.16-1.846 9.95-1.683-7.75-8.178-10.42-11.221-5.66-20.951-5.48.851-8.88-.37-9.38 4.275-1.14-2.015-2.29-4.032-3.42-6.048-1.78.05-3.38.237-5.27.2 2.6 7.008-2.44 2.694-6.03 5.87-3.58 3.181 1.23 8.713-8.62 8.789 3.28 1.64 6.28 3.048 9.46 4.6-6.35 1.803-12.72 3.618-19.07 5.42 4.46 4.283 14.12 10.643 13.86 16.277-2.93-2.127-12.94 1.611-14.04 1.765-4.25.576-1.93-2.977-2.25-3.064-6.67-1.727-12.17-.517-14.7-5.901-5.01 2.43-8.79 1.044-14.11 1.182-2.92.075-2.35 4.029-4.07 3.278-11.38-5.008-.54-10.118-22.49-.39 2.66 2.754 5.28 5.572 7.94 8.351-2.48 1.04-4.95 2.085-7.43 3.124-1.65-.5-3.3-1.005-4.96-1.506l.12-17.93c-1.82-.326-3.65-.643-5.47-.968 3.12-.589 6.25-1.177 9.37-1.765.29-1.051.55-2.103.84-3.154-4.64-1.628-9.26-3.27-13.9-4.91-.09 2.077-.18 4.17-.26 6.247-10.46-2.893-10.71-4.651-20.64 1.07-7.65-.062-13.89 8.625-18.31 12.282-1.59-1.164-3.18-2.344-4.78-3.508-1.02 1.728-2.05 3.449-3.06 5.177-2.02-2.404-4.06-4.809-6.08-7.2-1.12 5.457-1.7 7.16 6.16 9.076-2.69 6.787-16.54 3.793-22.18 1.514-4.27-1.73.47-7.39-.06-8.08-1.79-2.339-8.84-.32-10.32-.708-6.26-1.616-10.65-1.333-16.3-2.585-1.1-.25-4.18-3.839-4.44-3.951-2.03-.614-7.05-2.357-7.62-2.407-29.45-2.679 2.01 12.887-25.37 11.247.82 2.052 1.58 4.091 2.38 6.144-2.07.125-4.16.244-6.23.37-2.62-1.716.55-4.836-4.65-2.32.33-2.53.68-5.06 1.03-7.577-2.26 1.365-4.45 2.72-6.77 4.084-3.64-8.778-16.92-10.771-15.98-21.076.33-3.507 9.74-7.104 4.77-10.849-4.05-.737-1.31 3.45-2.96 3.67-11.92 1.528-11.22-4.341-16.09-2.776-.77 2.516-1.58 5.08-2.36 7.621-1.84-.738-3.68-1.477-5.53-2.215-.43 1.69-.88 3.383-1.31 5.073 1.73.113 3.68.227 5.27.34-2.21 6.548-22.54 9.489-14.79 3.906 3.16-2.266 8.94-1.303 5.28-9.039-5.44 1.115-11.61 2.253-17.34 3.368-.17-1.666-.34-3.334-.52-5-7.72 1.078-.7 7.737-.71 11.307-1.77.1-3.55.187-5.32.288-.74-1.614-1.46-3.303-2.24-4.867-.07 2.568-1.06 8.537-6.32 6.321-3.38-1.442 1.94-7.921-4.51-7.023.49 4.007 2.82 8.886-4.37 10.177-.71-4.182-1.7-8.012-2.25-12.407-8.94 4.017-13-2.44-23.49 2.23-6.66 2.956-15.77 13.447-20.07-2.717-4.87-.426-3.32 3.6-4.76 4.505-6.8 4.282-11.85-3.383-13.12-3.833-8.08-2.89-11.7-.237-18.28-3.855.36 2.993.55 5.826.84 8.743 6.02-4.483 9.08-4.272 17.53-3.308-2.83.601-5.67 1.216-8.5 1.817.46 2.428.92 4.858 1.36 7.274 26.16-9.567 20.06 5.548-1.87 8.854-1.89-4.494-3.85-8.977-5.72-13.485-12.67 6.813-18.63.899-32.95-.516-1.7-.162-7.9 2.427-10.57 2.555.04.017.09.034.13.052-1.66 4.244.59 6.197.86 9.991l-4.34 1.426c-3.22-2.892-2.09-5.268-8.44-4.58.86 2.88 1.7 5.761 2.56 8.641-6.96.1-11.51-3.029-17.99-1.676 1.09-1.09 2.17-2.182 3.25-3.272-14.09-2.78-2.87-19.711-13.52-11.284-.68-1.477-1.34-2.968-2.02-4.446 4.39-.363 8.78-.715 13.15-1.078.09-2.09.18-4.172.26-6.262-4.7.626-9.41 1.272-14.1 1.898 3.42-1.403 6.87-2.807 10.29-4.21l-16.32-3.005c5.78 7.687-1.71 8.627-.3 16.24-9.64-6.337-17.2-14.69-32.13-9.343-2.96 1.066-1.36 6.385-9.76-.088 2.04 8.464-8.49 12.436-7.14 20.485 2.93-.388 5.96-.632 8.8-1.107-3.23-2.793-3.77-10.474 1.14-12.754 6.26-2.905 15.39 2.419 15.02-6.107 2.49.4 4.82.636 7.24.974-1 2.115-1.97 4.244-2.96 6.359 6.91-3.316 11.24-2.238 14.56 3.094-8.22 1.227-16.43 2.441-24.65 3.656 1.21.362 2.44.728 3.65 1.078-6.23 5.447.2 10.607-11.42 11.771.07-2.491.13-4.984.2-7.488-4.23 6.662-15.8 6.626-12.11 14.29-3.5-2.354-4.21-3.843-6.19.288-9.22-5.823-15.14-13.187-11.86-21.978-3.43 1.415-6.85 2.832-10.26 4.247 1.98 2.404 3.96 4.796 5.94 7.2-5.96-.15-11.96-.298-17.9-.436-.57-7.111 11.47-2.157 8-8.514-.7-1.277-3.9 1.457-4.75.738-8.88-7.776 5.07-2.158 2.45-8.116-13.24-1.84-2.65-11.824-20.88-3.434-.48-2.053-1-4.148-1.44-6.189-6.33-.123-5.82 4.515-11.26 5.391-3.41.546-7.68-7.598-11.44-2.053-.68 1.023 5.65 10.977-7.65 10.539-10.32-.34-6.02-7.374-11.6-9.866-5.59-2.492-18.36 7.261-22.13-3.796 2.93 1.464 6.65 2.254 9.9 3.456 1.32-2.154 2.61-4.284 3.91-6.425-7.42 2.78-15.09-.497-20.09 4.638-9.9-7.852-20.97-.566-17.98 8.3 3.26-1.278-.28-5.144 4.24-2.68.47 2.066.96 4.122 1.42 6.188-7.71-.25-13.06-.192-9.54-6.491l-3.58-.45c-.21 4.557-.4 9.133-.62 13.69-1.42.514-2.86 1.023-4.28 1.537-1.59-1.001-3.18-2.014-4.78-3.028 2.15-7.213 5.83-7.451-6.34-11.483-.03 2.492-.08 4.974-.12 7.466-10.18-3.168-10.45-9.205-23.24-8.98 9.81-8.652 15.18 6.684 15.14-10.672l7.41 3.434c.37-2.517.74-5.037 1.1-7.554-13.22 1.327-35.17 17.88-44.02 6.905-1.07 1.34-2.15 2.503-3.24 3.943-8.67-6.624-12.41 8.248-21.2-.317-.91-.9.99-14.872-10.46-14.371.28 1.816.43 4.872.66 7.163-2.47-1.114-4.94-2.28-7.4-3.42-.45 1.678-.91 3.355-1.36 5.045 4.23.65 8.44 1.313 12.67 1.964-3.51.576-7.05 1.152-10.56 1.728 4.58 2.742 6.65 2.77 3.89 7.163-3.98.263-7.96.542-11.94.805-.41 1.126-.82 2.264-1.23 3.39 1.93 3.356 3.87 6.638 5.8 10.043-10.363-2.742-19.374-2.89-27.329-9.49-1.356-1.114 3.439-5.486-5.799-1.543-.143-2.315-.391-4.195-.552-6.336-11.31 6.487-15.025 4.55-26.817-.133 7.636 4.37.823 1.528-1.121 3.87-1.333 1.613 3.867 1.375 3.279 3.065-.588 1.678-7.345 8.453-1.568 9.268 14.164-13.888 18.023 2.716 36.218-3.959-2.8 1.791-5.621 3.586-8.422 5.377 1.319 1.213 2.5 2.314 3.926 3.603-10.148-2.716-5.213-.951-9.383 1.19-4.174 2.14-11.76 3.96-16.845 4.548-1.601.185.088-2.93-3.526-3.22-2.462-.2-9.189 4.418-10.743-1.026-1.016-3.543 9.791-13.301-5.152-13.278-2.813-3.474 4.352-2.395 4.506-2.813 1.302-4.133-7.884-7.24-12.13-4.084-.344.272 3.009 3.492-.637 4.756-8.652 3.018-13.648-.675-19.25-5.672-.606 5.86-7.887 12.86-16.949 10.693-.464 1.677-.906 3.37-1.369 5.059 1.407-.888 2.813-1.764 4.221-2.651 1.534 1.052 3.159 1.817 4.658 3.057-9.114 1.441-10.403 9.518-14.773 12.473-14.955 10.095-5.891-11.259-3.194-14.94 1.944 1.49 3.825 3.154 5.751 4.72-.214-2.042-.431-4.098-.627-6.152-22.388.062-3.41-13.25-14.773-17.044-2.925 10.042-11.271 11.01-21.902 4.637-1.178.05-2.359.063-3.537.126-.195 1.464-.193 3.702-.513 4.667-12.809 1.703-15.09-13.762-16.303-15.228-5.387-6.498-9.582 2.493-11.17 2.57-6.689.313-8.633-3.679-15.001-1.964-6.848 1.853-2.165 4.916-4.249 7.658-1.671 2.178-7.075 2.566-9.306 4.823.886-1.846 1.872-3.657 2.756-5.51-7.098-2.516-12.899-4.97-20.961-5.583-9.097 13.507-16.837-9.277-13.698 9.202 7.635 1.265 11.904 3.37 15.989 8.079-5.012.601-10.027 1.186-15.039 1.787-1.462-2.028-2.5-4.005-4.23-6.07-3.745 4.307-12.429 2.459-15.837 3.722-15.966 5.923-11.027 13.27-25.601.923 10.504-1.203 10.488-7.2 20.905-6.373-2.248-4.283-7.542-3.396-4.117-8.53-10.077 1.265-6.819 5.849-10.742 9.918-3.383 3.508-10.195 3.705-9.81 8.264-.697-2.507-1.235-4.933-1.93-7.437-6.527.025-13.055.027-19.583.052 2.783-2.617 5.564-5.239 8.347-7.843-2.103-.988-4.209-1.973-6.312-2.961-16.055 8.14-43.741-6.778-39.318 13.67-7.741.65-8.71-1.914-12.919-5.783-.464 1.552-.915 2.843-1.378 4.571-4.994-1.625-8.828 4.203-13.233 2.688-4.405-1.503-5.499-7.008-6.141 2.245-2.854-2.654-5.691-4.859-8.527-7.326-1.711 2.103-3.421 4.18-5.114 6.27-2.676-1.102-5.358-2.199-8.033-3.3-1.43 4.416-11.951 2.512-16.588 5.479-4.403-4.762-4.282-19.753-14.64-17.067.268 3.718.531 7.426.798 11.144a3369.81 3369.81 0 0 0-7.139-2.326c-.142-1.214-.266-2.427-.408-3.64 1.212.375 2.409.748 3.621 1.136a987.308 987.308 0 0 1-3.117-6.151 6115.166 6115.166 0 0 1-10.885 9.127l14.715 6.913c-6.154 2.73-10.438.007-15.789 3.05-4.655-5.134-2.937-8.092-1.046-13.662-1.73.475-3.48.934-5.209 1.41 1.14-5.571-1.785-8.891 8.327-8.44-.695-1.59-1.405-3.105-2.082-4.757-1.659.25-2.734-1.093-4.553-.48-4.96 1.678-8.762 11.464-8.423 14.896.183 1.797 5.073-1.64 4.877.9-.484 6.197-11.701 3.415 4.477 9.638-5.369 3.944-6.569.97-12.491-.17a719.49 719.49 0 0 1 1.359 6.181c-2.745-.951-5.495-1.9-8.241-2.85 3.817-10.606-16.431-14.59 1.796-23.868-5.386-.476-10.754-.954-16.122-1.455 1.106-1.09 2.212-2.168 3.317-3.257 2.426.576 4.837 1.143 7.263 1.706-2.853-1.99-5.712-3.97-8.565-5.96-6.743 2.467-9.386 6.261-12.472 10.945 7.847 3.417 5.283-1.251 11.398-2.179-.214 2.966.068 5.694-.466 8.81-3.16-6.143-13.466-1.674-15.856-1.373-7.274.912-1.57-5.124-6.436-5.25-4.87-.126-10.614 3.467-14.592-2.52.071 3.356.39 6.827.675 9.882-7.582 1.102-6.069-2.862-6.854-3.375-12.523-8.44-19.318-1.314-33.642-.45 1.819 1.039 3.657 1.977 5.494 2.954-10.807 7.123-3.527 4.942 5.856 7.296-8.795-.714-13.831 5.353-20.039 7.156-6.207 1.8-16.852-1.316-20.743-3.744 8.902-3.908 18.503-1.33 28.386-2.408-1.124-3.418-2.216-6.31-3.375-10.066-6.011 7.174-9.494 2.377-11.474 1.426-5.814-2.791-5.631 3.365-9.145-3.257.143 2.278.247 4.194.39 6.321-12.005-.951-24.955-4.979-32.768 3.434-.714-5.471-1.252-10.743-2.072-16.328-5.084 4.12-9.437-.098-13.718.864-4.263.965-2.64 5.387-7.652 7.09-.928.313-2.86-2.455-5.143-.413-2.306 2.051-10.809 17.309-11.826 3.98-4.299-.063-8.367-.55-12.577-.775 4.103-.752 8.207-1.48 12.292-2.23-3.496-3.231-6.97-6.452-10.467-9.682-.445 2.88-.893 5.812-1.321 8.655-9.419 3.506-16.254-1.203-25.762-.089-1.587.188 2.158 5.882-4.886 4.431-7.046-1.452-12.275-12.08-24.279-7.976-.606.213-4.161 8.353-8.46 2.718-.979-1.277 3.139-3.167.893-4.844-2.247-1.678-12.276-3.058-13.061-7.053.107 1.415.733 2.88 1.036 4.32a576.16 576.16 0 0 1-5.171 2.016c-.161-2.491-.334-4.987-.495-7.466-9.846 5.798-14.935 15.255-29.526 12.126 4.102 3.619 8.207 7.252 12.291 10.87 1.124-2.541 2.25-5.1 3.356-7.643 6.724 1.015 13.467 2.021 20.191 3.036 1.106-2.893 2.193-5.778 3.299-8.67 1.783.375 3.549.74 5.333 1.115a823.907 823.907 0 0 1-1.359 6.262c3.531-.513 7.067-1.037 10.58-1.55-7.153 12.343-19.975-1.05-19.05 9.275a1747.42 1747.42 0 0 1-4.763-4.83c-.696 5.007-3.923 3.566-9.611 2.777 1.303 2.467 2.741 4.9 3.936 7.392-5.53-3.48-15.34-3.143-21.066-4.483-2.515-.588-.003-4.218-.751-4.645-3.835-2.229-11.166 4.105-12.7 3.604-9.169-2.98-15.127-14.989-25.135-7.075 10.329 1.954 4.71 1.129 8.385 5.524 1.15 1.378 14.494 4.253-2.215 2.976-1.959-.16-32.277-8.456-22.311-14.814-4.906 2.029-8.747 4.375-13.242 6.529-10.989-16.756-7.186-1.015-3.993 7.65-1.802.038-3.516.126-5.371.126 3.943-9.104-16.143-9.67-22.957-5.074-2.284 1.528 4.101 4.442-1.179 5.82-2.514-.639-5.367-1.465-8.024-2.179 3.854 5.76-3.708 7.98-3.602 13.84-4.834-5.222-8.532-16.29-5.875-22.288-3.995 2.429-8.011 4.855-12.006 7.296 1.855 1.39 3.734 2.768 5.59 4.158-13.06-3.682-29.85 4.696-32.579-7.614-1.73.088-3.479.163-5.21.251-.534 2.079-1.051 4.162-1.587 6.24-7.83-1.802-15.64-3.617-23.47-5.42 6.97-1.29 8.63-4.249 15.941-1.846-2.817-2.391-5.687-4.795-8.45-7.186-11.007 6.437-12.508 10.667-29.08 8.751-.75-.087-13.27-5.485-13.698-6.011-1.962-2.404 1.016-5.897.142-7.112-2.426-3.406-17.168-11.958-16.883-13.248C-22.392-5.336 27.21-5.546 40.624-6.36c139.143-8.44 275.222 2.852 413.491.924 1.422-.03.801-2.367 1.407-2.467 3.764-.587 7.459 3.055 8.85 3.205 2.973.31 1.336-3.055 3.508-3.057 22.442.037 43.619 2.016 66.078 1.44 1.463-.038-.031 2.654 2.538 2.178 1.326-.26 5.477-4.39 8.47-4.453 10.453-.213 19.234 1.111 30.258 1.049 6.03-.038 15.075.314 21.817.25 2.977-.026 6.08-1.915 9.021-1.978 4.175-.088 3.322 3.742 3.965 3.98 2.818 1.04 3.208-3.165 5.884-3.065 4.977.2 5.245 3.008 11.559 2.77 4.514-.175 14.843-2.392 20.534-3.043 13.308 3.256 30.077 1.963 42.493.886 7.349-.638 8.03 3.292 11.027 3.28 10.559-.077 18.572-5.096 28.49-5.259 13.162-.212 24.826 3.107 37.578 3.346 2.068.037 1.593-3.564 3.622-3.656 7.51-.338 17.114-.993 23.803-.48 7.456.564 10.206 5.79 17.501 4.726 2.139-.316 2.766-4.898 6.351-5.487 5.725-.925 12.003 3.116 15.998 3.567 5.477.601.714-4.067 8.1-3.441.303.027 1.408 3.364 2.994 3.205 4.62-.45 4.162-3.079 10.923-2.828.649.034 9.613 3.214 10.504 3.227 5.245.05 15.803 1.163 18.908.487 11.096-2.404 2.36-7.424 11.797 3.471 4.156-2.667 8.277-5.37 12.682-7.96-2.94 2.416 8.99 5.904 9.829 5.678 6.935-1.816 2.804-6.055 11.597-5.354-11.613 9.793 11.345 1.262 16.465 1.012 24.653-1.214 47.061 1.23 71.834 1.167 8.3-.026 19.42-2.096 28.19-2.046 2.05.003.5 2.32 2.3 2.37 1.8.035-.2-2.567 1.85-2.429 12.76.902 22.75 5.81 34.44-.325.57.887.55 1.588 1.49 2.563 9.56-5.497 27.97 1.895 34.9 2.91 10.82 1.576 13.59-2.14 21.45-1.39 10.4 1.003 26.02 8.261 19.04-3.721 7.14-.376 14.01-.48 21.21.635.8.126.25 3.172.57 3.235 2.03.437 2.7-2.29 4.07-2.415 3.72-.337-2.35 2.928 2.96 2.016 2.8-.489 4.39-2.867 12.16-2.917 46.89-.263 97.78.589 145.84.99 3.3.024 1.13-2.92 5.27-2.733 14.37.652 40.11 5.608 52.51 4.933 12.4-.676 9.6-4.983 17.36-6.787 1.49-.35.27 2.104 1.62 2.142 9.12.226 19.99 4.054 27.37 4.63 4.88.386 4.49-3.476 7.88-3.751 5.05-.401 10.25 3.5 12.94 3.626 12.66.55 21.37-2.593 33.19-.99-.46-.85-.76-1.636-1.16-2.474l41.99.414c-.66-.777-1.29-1.56-1.95-2.349 16.42.426 14.55 8.841 13.1-8.928 1.2-.626 2.47-1.352 3.61-1.928-.47 9.154 9.47 15.852 22.12 18.182.93.175 7.15-8.75 6.47 1.795 1.63-2.58 2.59-4.358 3.97-6.625 2.67 3.193 5.38 6.347 8.06 9.527 1.44-.476 2.91-.935 4.35-1.41.22-2.067.05-4.212.51-6.24 6.71-.314 20.47 2.24 25.77 1.978 13.16-.663 26.56-6.25 36.8-.214 4.99-.615.04-4.67 7.46-4.158.84 2.054 1.62 4.022 2.5 6.137 6.06-9.173 7.33-3.593 15.64-1.676 5.61 1.302 9.29-.94 14.64-.502 1.36.112 1.17 2.805 2.1 2.717 3.1-.277 11.97-3.983 14.16-4.083 19.87-.977 36.94-.561 55.87.428 2.03.1-.61-2.557 1.5-2.445 3.39.177 1.39 4.26 3.36 4.46 5.47.537 5.51-3.769 13.14-3.994 25.14-.739 54.03 2.496 80.29 2.784.82 0 .77-2.523 1.67-2.548 5.81-.123 11.69 3.287 16.97 3.25 8.76-.05 15.35-3.595 24-3.582 16.91.012 32.02 1.827 49.41 1.927 14.24.088 26.6-.249 42.21-.236 68.18.05 137.75-7.958 206.4-3.7 1.74.113 1.03 2.342 1.57 2.245 5.06-.964 5.51-3.972 7.32 2.326 6.45-1.241 8.49-5.973 16.28-5.634 4.15.177 1.05 7.51 8.08 3.729 6.35-3.418-.66-7.438 18.21-3.33.5.112 2.96 4.582 6.89 3.419 3.94-1.152-.63-4.353 8.87-5.318 22.28-2.253 50.48 1.61 76.38.421 1.62-.075 17.26-2.465 20.34-3.566 5.97-2.142 4.73-5.464 12.48-6.278 6-.626 10.94 3.137 17.99 2.386.82-.092 2.19-3.962 7.49-3.45Zm-1313.19 75.18c-1.46 3.797-4.1 17.775-12.95 13.52-.83-.4 3.69-10.012-1.19-11.542 4.78-1.014 9.43-1.343 14.14-1.994v.015Zm1351.53 13.95c-6.62-.702-13.26-1.397-19.88-2.098 4.57-1.69 9.14-3.378 13.69-5.081 2.07 2.391 4.12 4.787 6.19 7.178Zm-823.87-6.64h.02c-6.96 1.803-13.92 3.61-20.87 5.413.73-1.327 1.46-2.66 2.19-3.988 5.5-2.09 10.99-4.178 16.47-6.27l2.19 4.845Zm54.97-14.053c4.44 1.578 3.35 4.239 5.8 6.83v-.014c.64.675 3.65 1.265 4.81 1.366-.43-1.665-.98-3.31-1.45-4.962 10.37-4.033 30.63 10.296 4.39 16.069.4-2.103.77-4.196 1.16-6.3-13.04.59-27.57-3.973-14.71-12.99Zm-687.48 12.798c-11.133 6.887-14.703 8.34-28.207 3.618l5.723-5.856 6.673 5.96h.019c.446-2.091.893-4.186 1.321-6.277l14.471 2.555Zm1113.58-7.82c3.11 13.755 2.21 5.76-6.65 8.86-3.07 1.078-.08 3.485-1.99 3.885-10.31 2.19-11.13-7.027-8.83-11.823 5.84-.325 11.73-.622 17.45-.923h.02Zm267.44-2.859h.02c.27 3.355-3.89 4.258.8 7.437-3.57-.013-7.13-.04-10.71-.052 1.05-.313 2.12-.61 3.17-.923-.93-1.152-1.86-2.319-2.78-3.471-1.27 3.857-2.45 1.615-6.19.325 1.03 4.12 2.06 8.242 3.1 12.362-4.36-1.227-8.72-2.458-13.07-3.685-.06-1.038-.11-2.078-.17-3.116-1.64 1.327-3.26 2.668-4.9 3.995-.45-1.24-.88-2.468-1.32-3.707-1.98.939-3.96 1.877-5.94 2.828-.61-3.002 3.76-4.3-3.98-3.537a2865.1 2865.1 0 0 1 7.13-9.231c11.61.25 23.23.512 34.84.775Zm-348.06 7.09c12.79-.576 9.19 1.6 6.23 8.411-2.07-2.804-4.16-5.607-6.23-8.411Zm-658.95-6.063c-3.71 4.646-7.44 9.245-11.24 13.728-7.56 2.592-15.13-5.876-9.44-9.194 6.85-3.982 14.01.475 20.68-4.534Zm-172.27 2.068c9.25 2.154.55 7.674-1.54 10.892-2.56-5.172-6.13-4.715-11.86-5.317 5.38-.335 11.87-5.941 13.4-5.59v.015Zm321.19 3.153c3.71-.14 7.4-1.437 10.72.14-1 4.443-7.64.4-2.89 6.986-2.37.113-4.75.222-7.1.347 1.49-2.728-.52-4.767-.72-7.459 0-.004 0-.01-.01-.014Zm386.11 6.077c-7.28-5.259-8.66-3.008-15.99.636-1.03-4.283 7.71-11.456 13.18-13.035.93 4.132 1.86 8.267 2.81 12.4ZM195.423 55.651c1.747-5.458 14.64-6.17 21.046-4.556-.762.81-1.528 1.63-2.291 2.452l-18.755 2.104Zm998.117-1.831c.96.16 1.87.279 2.73.369-.96.06-1.88-.033-2.73-.37ZM806.026 30.13c3.049-5.147-6.015-6.876 4.99-4.86v-.015c7.279 1.328 8.885 1.682 15.629 2.083-2.428 6.61-16.108 8.974 2.747 10.338.248.006-.246-3.927 2.766-3.39.93.168 3.906 3.396 8.432 4.336 1.463.3 12.455 1.296-2.528 1.359.446 4.608-.359 9.272-.324 13.743-5.848 1.3-10.344-7.725-16.531-7.503-9.187.35-13.862 9.475-15.628-2.496 7.725-2.942 20.989-3.012 22.72 4.187 7.473.088 9.619-5.81 3.593-8.729-25.813 3.707-7.086-8.755-29.688-4.047-.267 1.665-1.197 3.457-1.055 5.022-6.899-5.86 3.788-8.188 4.877-10.029Zm53.976 12.73c-4.46 3.52-8.905 7.067-13.347 10.598 0-5.735 2.449-10.882 9.478-14.112 1.283 1.176 2.586 2.351 3.869 3.515Zm-375.153 1.507c-.642 3.118-2.354 5.976-3.603 8.943-1.356-2.63-33.467-5.152-17.13-7.732 2.372-.375 16.844 5.138 20.733-1.21Zm1482.651 8.78c-3.78-2.09-7.54-4.185-11.31-6.276 5.8-1.327 11.59-2.688 17.39-4.04-2.03 3.438-4.05 6.879-6.08 10.317Zm-647.12-12.073c1.6.117-3.71 4.405 2.58 3.729-4.69 2.742-9.08 5.064-13.67 7.643-1.37-2.029-2.76-4.049-4.13-6.078-1.07 1.303-2.16 2.597-3.23 3.9.64-2.956 1.21-5.842 1.89-8.847 7.72 6.336 9.49-.848 16.56-.347Zm229.68-11.558c1.39 6.423-9.8 10.242 1.21 11.27-2.09 4.22-5.45 6.433-11.89 6.808-1.03-1.614-2.06-3.216-3.1-4.83-.14 4.32-1.8 5.924-5.42 9.003v-.015c-9.8.313-9.21-1.127-11.56-8.227 10.36 4.008 10.67-2.479 17.73-6.336 4.86-2.652 11.19-1.451 13.03-7.673ZM519.062 44.293c-7.329 5.422-.752 10.48-13.756 4.72.839-1.378 1.681-2.744 2.519-4.121 3.746-.213 7.491-.41 11.237-.599Zm1067.168 7.238c-.84-9.943-7.74-17.682-8.92-1.507 6.73 3.293 3.44-5.869 8.92 1.507Zm-373.41-18.485c12.94.464 10.49 11.686 5.18 17.296-.82-2.042-1.64-4.087-2.45-6.115-2.26.927-4.53 1.855-6.79 2.77 1.35-4.647 2.71-9.305 4.06-13.95Zm601.4 7.562c-9.89 7.1 10.66 3.949 3.76 8.382-5.51 3.543-12.78-3.61-10.03-8.094 1.91-.125 4.04-.213 6.25-.288h.02Zm-57.19 2.031c1.62 7.586-.72 5.375 7.09 4.01 2.23-.388 19.95 2.461 12.51-3.825-6.33 0-13.02-.11-19.6-.185Zm-693.69 1.507c-.12-3.304 13.52-10.558 15.28-8.744v-.015c4.72 4.947-9.67 5.65-3.43 12.436-13.82-5.972-17.96 8.474-16.99-10.56 8.14-.835 4.28 3.089 5.14 6.883ZM26.136 40.099h-.019c.916.155 8.466 5.004 7.548 6.683-9.08-1.44-7.46-4.631-15.913.613-.464-1.69-.86-3.327-1.36-5.03 3.354-1 5.213-3.03 9.744-2.266Zm423.996-2.393c3.336-.864 9.423 2.716 13.223 2.503-12.094 13.75-26.547.928-13.223-2.503Zm1813.738 8.286-.03.015c0-.008.01-.015.01-.023l.02.008Zm-1555.236-.037c-.43-.893-.673-1.668-.76-2.349v-.192a59.8 59.8 0 0 0 .76 2.54Zm326.346-.812c-5.68-4.608 13.25-11.933 19.38-10.184-.43 2.103-.5 4.01-1.5 6.425-4.94-5.446-16.93 4.535-17.88 3.759Zm431.68-1.692c-14.97-.125 4.51-18.317 5.31-3.803-.03.281-4.92 3.779-5.31 3.803Zm-313.65-.214c3.81-5.507-3.85-6.97 8.41-6.018l2.13 4.283c-3.51.576-7.02 1.16-10.54 1.735Zm215.6-23.668c-18.83 3.068-36.85 8.48-24.58 23.668 1.43-.488 2.87-.96 4.3-1.447.21-7.41 5.47-3.365 13.17-3.124 1.1-2.942 5.37-3.622 6.17-6.122 1.55-4.832-3.36-8.23.94-12.975Zm795.28 12.06c-.3 1.264-.6 2.535-.9 3.788-2.98 1.427-5.97 2.848-8.95 4.275.49-2.427.97-4.854 1.45-7.281l8.38-.79c.01.002.02.005.02.007ZM878.358 27.226c-1.711 13.921 4.269 11.357 16.398 4.32-5.458-1.44-10.939-2.88-16.398-4.32Zm792.952-2.016c.39 3.955.78 7.898 1.19 11.852 6.44-4.12 5.24-8.649 2.16-13.883-1.13.675-2.23 1.355-3.35 2.03Zm92.76-1.684c-2.67-.825-1.31 2.368-1.59 2.304-6.76-1.678-7.71-3.143-16.01-.738-1.01.838-2.01 1.72-3.03 2.584 3.84 8.288 6.62 3.77 14.74 8.64-1.47-2.842-2.92-5.689-4.39-8.544 4.52.601 9.01 1.194 13.52 1.795.54-.877 1.07-1.745 1.61-2.622-1.61-1.127-3.26-2.393-4.85-3.42Zm434.27 11.698c4.39.325 8.8.664 13.19.99.16-2.042.31-4.097.47-6.138-4.54 1.715-9.11 3.432-13.66 5.148ZM788.259 33.57a38.761 38.761 0 0 0-.989 2.193c.029-.903.409-1.608.989-2.194ZM14.558 28.903c-4.977-1.427-12.148-.49-17.606-.79.43 5.12 14.302 3.705 19.174 6.809.783-.919.535-5.418-1.568-6.019Zm1216.162 4.594c1.24-2.555 2.49-5.097 3.72-7.651 3.02.275 6.04.566 9.07.842l.27-6.292c-13.36 2.717-10.28-3.314-16.9-9.26 1.29 7.449 2.55 14.899 3.84 22.36ZM2337.97 21.96c-9.65 1.415-13.07 4.058-7.63 10.332 3.4-1.44 6.83-2.88 10.24-4.32-.88-2.003-1.75-4.009-2.61-6.012ZM612.498 28.844c-8.076 2.344-8.21-6.075-16.103-1.373 4.227 1.552 8.453 3.122 12.662 4.674 1.137-1.098 2.304-2.203 3.441-3.3ZM1008.58 5.722c-3.4-2.929-9.772 10.994-19.351.716-2.282 3.068-3.713 5.998-5.675 9.003-1.142-3.269-2.439-6.579-3.527-9.822h-.019c-8.687 1.102-3.055 5.2-3.251 8.67-.092 1.438-6.54-.966-4.525 2.163 3.479 5.372 16.477 2.283 16.512 8.833-4.566-2.14-13.484-.352-10.846 4.017 2.89 4.796 11.293-3.241 16.645.739-7.669-10.468 8.167-7.235 9.977.804 9.29-6.173.75-8.691-8.779-8.404 5.819-6.16-2.745-2.832-4.154-7.953 5.996-3.091 26.573-.514 16.993-8.766Zm438.49 11.35c-6.43.398-16.46-3.124-20.86 2.076-2.56 3.029 7.5 5.375.56 10.132 6.26-.464 7.69-2.322 6.62-6.492 1.42-.5 2.87-.988 4.29-1.477.66.814 1.34 1.617 2 2.43.75-1.715 1.5-3.417 2.24-5.132 1.51.337 3.04.676 4.56 1.026.18-.862.48-1.613.59-2.562ZM380.613 29.103c1.783-.05 3.55-.1 5.333-.162-.196-1.015-.43-2.073-.656-3.116l-.485-2.474c1.034 2.946 9.53 7.843 13.11 4.697 1.799-1.579-2.296-7.183 5.333-8.16-5.529.287-10.65 1.052-16.019 1.528.482-1.665.945-3.349 1.427-5.014l-.01-.008c-1.783-.375-3.588-.769-5.371-1.144-.892 4.62-1.77 9.233-2.662 13.854ZM1666.08 17.39c-6.08 3.268-8.12 4.966-5.25 10.25.01.003.02.005.02.008 2.27-2.342 4.53-4.682 6.8-7.023-.52-1.077-1.03-2.158-1.57-3.235Zm-930.22-1.263c-12.933 20.073 16.193 7.768 10.647.93-.25-.312-9.434 1.287-10.647-.93Zm474.59 10.745c3.55-.162 7.11-.31 10.67-.472-.82-2.467-1.66-4.926-2.48-7.393-2.73 2.618-5.46 5.248-8.19 7.865Zm1085.5-14.024c-3.73-5.51-13.32-7.506-18.01-1.514l7.38 2.105c-4.65.689-9.25 1.447-13.94 2.098-.25 7.676 5.15 3.222 13.29 5.339 1.26.341 9.31 9.87 12.09 2.688.56-1.476-8-2.48-2.05-6.772-2.61-.338-4.85-.263-7.31-.45-.18-1.829-.36-3.66-.55-5.488 3.04.662 6.06 1.332 9.1 1.994Zm-886.28 4.823c-8.82-.424-9.91 2.643-11.75 8.064 4.1-.613 8.21-1.218 12.31-1.831-.19-2.074-.36-4.148-.56-6.233Zm807.42-6.58c-4.83-.887-2.76 3.525-4.71 4.364-7.35 3.155-12.36.002-19.62 1.98.48-.852.93-1.648 1.39-2.475h-.02c-34.37-3.718-16.32 6.288 4.25 4.66.48 1.64.95 3.283 1.43 4.911 9.2-2.867 17.69-5.627 17.28-13.44ZM850.762 15.44c-.393-1.027 2.943-7.553-3.318-4.498-4.958 9.528 3.174 4.799 5.21 8.463-1.695.914-3.428 1.804-5.105 2.718 10.132 2.692 11.611.427 7.918-6.536-.263-.468-4.312.876-4.705-.147Zm-66.591-4.697c-1.392 14.038 11.396 7.725 10.932 3.367-1.765-.173-3.138 2.203-5.01 1.152-1.89-1.051-2.374-4.33-5.922-4.52Zm366.359 3.434c-.37-.063-4.14-5.963-3.76-1.344 4.65 10.932 14.03 3.895 12.39.088-3.1.189-5.17 1.829-8.63 1.241v.015ZM2354.15 9.54c-.18-.392-9.57-2.763-10.78-.561-1 2.479-1.49 5.136-2.24 7.702 5.17-2.38 15.64-.567 13-7.141h.02Z"/>
</svg>
