<svg width="2440" height="96" viewBox="0 0 2440 96" fill="none" xmlns="http://www.w3.org/2000/svg">
<path d="M2259.07 83.8024C2264.7 89.259 2245.9 85.682 2258.38 93.831C2255.78 94.3816 2253.16 94.9494 2250.56 95.5C2249.9 92.4821 2249.22 89.4715 2248.56 86.4535C2252.06 85.5648 2255.56 84.6763 2259.07 83.7876C2259.07 83.7925 2259.07 83.7974 2259.07 83.8024ZM2263.84 46.0065C2260.64 54.6144 2250.46 56.9094 2261.45 64.8527C2262.33 61.8986 2263.22 58.945 2264.1 55.9909C2267.91 58.2821 2271.75 60.5727 2275.57 62.8514C2276.94 61.7252 2278.32 60.5977 2279.69 59.4839C2281.44 64.6175 2283.17 69.7649 2284.92 74.911C2283.36 74.1596 2281.79 73.3951 2280.24 72.6438C2274.1 76.8125 2268.64 77.9526 2260.31 78.7289C2261.05 79.9436 2261.78 81.1476 2262.51 82.3623C2258.28 80.2963 2254.06 78.225 2249.85 76.159C2253.5 74.1309 2257.59 71.8755 2260.98 69.9852C2255.56 61.9361 2245.99 66.4159 2241.02 68.0947C2234.24 70.3862 2235.77 66.5589 2230.74 68.1612C2229.94 68.4116 2229.85 71.4115 2228.26 71.4622C2220.25 71.7001 2204.69 70.11 2213.79 63.1099C2226.97 64.0115 2238.22 58.3903 2251.15 60.444C2247.73 52.3498 2254.54 49.5955 2263.84 46.0065ZM2021.66 71.7798C2025.66 67.8486 2033.79 69.4351 2039.3 72.1638C2039.31 72.1638 2039.32 72.1638 2039.32 72.1638C2040.54 72.7649 2043.28 77.9892 2039.32 77.7763C2032.87 77.4115 2029.75 69.1877 2026.36 74.7707C2024.84 73.7313 2023.25 72.8066 2021.66 71.7798ZM2007.63 72.2672C2003.67 70.2512 2005.47 64.0545 2010.42 65.7316C2010.42 65.7266 2010.42 65.7217 2010.42 65.7168C2012.49 66.4181 2008.43 71.316 2015.85 66.3445C2017.37 70.2122 2018.86 73.731 2020.36 77.4735C2018.54 77.5361 2016.88 77.6376 2014.98 77.6877C2016.26 71.3303 2011.59 74.2675 2007.63 72.2672ZM2207.1 66.6103C2206.48 72.3297 2209.08 72.2935 2213.52 76.2624C2209.33 76.0746 2205.14 75.8742 2200.97 75.6864C2203.02 72.6572 2205.05 69.6395 2207.1 66.6103ZM2305.57 67.4965C2305.58 67.4965 2305.59 67.4965 2305.59 67.4965C2306.97 66.595 2308.34 65.6901 2309.7 64.801C2310.52 66.8422 2311.33 68.8745 2312.15 70.9157C2317 68.9998 2321.88 67.084 2326.73 65.1555C2326.14 71.3906 2317.43 70.3761 2312.64 74.7337C2305.5 72.8552 2302.06 69.236 2301.6 63.9518C2302.92 65.1284 2304.24 66.3199 2305.57 67.4965ZM1138.65 42.6391C1137.02 44.3667 1135.42 46.0957 1133.8 47.8233C1135.96 48.6118 1138.1 49.2136 1140.27 50.1274C1145.96 42.6148 1146.5 49.2602 1153.95 48.7981C1176.8 47.3705 1170.74 35.7023 1191.38 52.7933C1174.81 51.9803 1181.18 60.011 1171.19 66.1969C1169.12 61.4884 1179.02 50.8691 1172.31 48.6652C1160.75 53.6483 1149.64 58.2895 1136.81 61.5075C1137.19 62.3213 1137.56 63.138 1137.93 63.9519C1139.97 63.4384 1141.99 62.9219 1144.02 62.4084C1141.82 64.5874 1139.68 66.7475 1137.45 68.9514C1140.27 64.0056 1133.09 66.7691 1134.05 61.0865C1134.47 58.557 1137.65 55.0477 1139.52 52.6308C1134.69 51.3163 1129.73 50.112 1124.84 48.835C1127.38 46.8197 1129.91 44.8021 1132.42 42.7868C1134.49 42.7242 1136.54 42.6795 1138.61 42.6169C1138.62 42.6243 1138.64 42.6317 1138.65 42.6391ZM98.3264 68.9368C104.463 63.0511 115.615 62.0773 121.483 68.6266C113.759 68.7268 106.051 68.8366 98.3264 68.9368ZM2301.13 59.5947C2301.83 60.5953 2302.5 61.585 2303.2 62.5856C2300.13 64.4385 2297.04 66.2787 2293.98 68.1316C2293.39 65.2401 2292.79 62.3481 2292.18 59.4691C2295.16 59.5067 2298.16 59.5571 2301.13 59.5947ZM2104.87 62.8145C2107.11 62.6395 2107.31 62.7344 2110.11 63.1468C2110.1 63.1444 2110.1 63.1419 2110.1 63.1395C2111.21 63.2935 2120.47 64.9824 2119.44 67.2085C2114.84 67.2461 2109.93 67.2085 2105.22 67.2085C2105.08 65.7442 2105.05 64.2914 2104.87 62.8145ZM2159.04 64.1143C2159.05 64.1192 2159.06 64.1241 2159.06 64.129C2160.74 64.4672 2162.33 65.1556 2164.05 65.2811C2157.83 68.7848 2156.85 62.4987 2151.19 64.2767C2145.54 66.0674 2142.04 69.5356 2137.25 60.924C2139.03 59.6342 2140.95 57.789 2142.79 56.2863C2150.82 59.7296 2152.98 56.4892 2159.42 53.096C2159.29 56.7771 2159.17 60.4332 2159.04 64.1143ZM1240.38 60.06C1241.92 55.8028 1243.63 59.9801 1243.81 60.0305C1243.8 60.0354 1243.8 60.0403 1243.8 60.0453C1257.38 56.1026 1242.03 62.4018 1254.85 63.0657C1252.94 64.1297 1251.07 65.2533 1249.18 66.3298C1246.25 64.2767 1243.24 61.9503 1240.38 60.06ZM1681.88 60.4588C1682.01 61.6985 1682.15 62.941 1682.28 64.1808C1674.57 63.8928 1672.61 68.7732 1666.2 64.3285C1671.43 63.0264 1676.65 61.7336 1681.88 60.444C1681.88 60.4489 1681.88 60.4539 1681.88 60.4588ZM2066.03 53.7976C2074.57 51.4308 2080.89 50.388 2089.1 54.1447C2089.1 54.1496 2089.11 54.1545 2089.12 54.1594C2089.59 54.3907 2087.3 56.9844 2087.92 57.6377C2089.61 57.2498 2091.36 56.6534 2093.07 56.1903C2093.3 58.2673 2093.52 60.3438 2093.76 62.4084C2088.94 61.8199 2084.12 61.2318 2079.29 60.6434C2080 61.858 2080.73 63.0621 2081.45 64.2767C2077.34 64.9027 2073.26 65.5265 2069.15 66.1525C2070.58 62.7476 2072 59.3419 2073.41 55.9244C2070.95 55.211 2068.49 54.5236 2066.03 53.7976ZM1553.58 46.8927C1554.94 48.2452 1552.43 50.5136 1554.54 51.6782C1556.64 52.828 1560.52 50.3042 1559.61 54.1226C1556.78 54.6356 1553.8 55.2239 1550.91 55.762C1560.21 62.6475 1569.48 56.4169 1569.62 64.9193C1560.7 62.7154 1553.37 63.7392 1544.73 66.0935C1545.09 59.3444 1553.73 53.5091 1548.29 47.1734C1550.04 47.0858 1551.87 46.9576 1553.57 46.9075C1553.57 46.9026 1553.58 46.8977 1553.58 46.8927ZM2425.97 -25.0361C2431.25 -24.5227 2443.35 -27.2771 2450.02 -23.345C2451.66 -22.376 2457.13 -9.82365 2457.1 -8.16905C2456.94 -2.59663 2450.26 -1.83815 2457.42 1.79316C2455.01 1.83087 2452.67 2.04008 2450.29 2.14026C2450.71 5.88451 2451.14 9.61878 2451.55 13.3505C2454.46 12.787 2457.37 12.2206 2460.28 11.6446C2460.42 12.8843 2460.56 14.1269 2460.71 15.3666C2450.25 15.3916 2456.42 20.1766 2451 24.6346C2455.99 26.8882 2461.02 29.1308 2466 31.3844C2463.13 31.109 2459.74 30.9049 2457.21 30.5795C2456.87 36.9278 2462.91 35.4142 2463.95 36.5908C2469.78 43.2397 2440.08 39.8839 2437.65 49.1229C2442.4 50.1495 2447.37 51.1514 2452.23 52.1655C2450.83 53.305 2449.42 54.4452 2448.03 55.5847C2437.03 49.2124 2424.69 46.955 2411.86 42.9861C2410.7 43.2488 2409.54 43.5186 2408.4 43.7689C2408.74 46.6354 2409.06 49.491 2409.4 52.3575C2407.65 52.6956 2405.88 53.0311 2404.13 53.3692C2409.29 43.9282 2402.15 44.0568 2393.53 38.2967C2398.12 34.9788 2403.77 36.9903 2403.38 30.8084C2387.65 35.5646 2369.23 28.8429 2353.92 34.2128C2350.12 35.54 2350.14 43.5148 2341.2 42.7793C2341.51 41.9027 2341.56 40.3202 2341.75 39.1681C2326.3 42.9875 2316.93 45.2707 2300.88 41.3762C2301.8 44.2424 2302.72 47.1207 2303.64 49.987C2307.05 48.5594 2310.46 47.1091 2313.85 45.6816C2316.17 50.4147 2312.75 52.5036 2322.91 52.4535C2331.24 52.4159 2326.28 50.3261 2328.55 48.9235C2331.62 47.0088 2334.31 50.7755 2337.61 48.6355C2340.16 46.9951 2337.4 43.0898 2344.05 44.079C2341.38 49.1382 2338.65 54.3622 2335.96 59.4839C2334.33 58.3444 2332.72 57.1873 2331.1 56.0352C2332.74 54.6827 2334.35 53.3481 2335.99 51.9956C2330.21 54.4248 2324.75 56.716 2318.78 59.2328C2320.72 51.9196 2314.54 54.6616 2311.19 55.5256C2305.97 56.8766 2310.44 51.8435 2307.02 52.6824C2303.59 53.5344 2299.9 59.1574 2293.71 57.9552C2297.03 54.6999 2292.51 51.7807 2293.39 48.7758C2294.26 45.7711 2300.81 45.1057 2294.52 41.8267C2282.42 44.3186 2295.55 55.7617 2287.38 57.6155C2277.57 59.8443 2275.23 41.1913 2278.16 37.1816C2280.46 34.0259 2288.38 34.6605 2290.7 31.5174C2276.51 25.8449 2276.39 37.0431 2273.97 39.2346C2265.15 47.2107 2271.07 25.9218 2260.64 33.622C2260.83 29.6409 2260.99 26.0602 2261.19 22.2419C2259.39 22.9681 2258.19 23.9333 2256.02 24.5091C2262.43 32.266 2257.18 31.9336 2254.49 31.9457C2250.24 31.9707 2256.8 35.7543 2255.68 36.7311C2252.64 39.3449 2247.85 38.158 2250.79 41.5756C2249.47 39.9852 2248.04 38.3902 2246.68 36.8123C2241.72 38.7939 2230.06 55.4104 2241.16 52.0547C2240.12 58.2284 2236.54 55.2611 2233.73 54.3219C2230.93 53.3836 2230.99 57.3153 2228.53 56.589C2218.73 53.6837 2225.14 46.9582 2226.69 41.6863C2213.76 45.3177 2226.42 47.7202 2207.78 50.1494C2205.98 54.4446 2214.59 59.0279 2207.42 61.5074C2206.1 54.0454 2200.82 48.685 2190.53 46.2059C2189.53 47.9215 2188.53 49.6523 2187.53 51.3679C2181.92 44.4805 2184.79 37.3185 2174.39 45.8588C2179.97 30.1434 2176.13 40.1973 2166.82 33.7993C2164.93 32.5095 2169.3 29.249 2166.66 27.596C2165.46 26.8505 2162.56 29.3117 2159.63 27.4114C2158.21 26.4723 2151.53 20.4126 2146.91 23.2906C2150.3 30.9043 2141.53 37.3814 2149.05 43.6803C2135.14 42.1275 2125.4 45.783 2140.99 35.4018C2137.46 33.0977 2133.92 30.8034 2130.39 28.5117C2127.93 30.3275 2125.45 32.129 2122.97 33.9322C2122.59 27.6746 2122.97 25.9192 2113.27 27.02C2117.48 25.543 2121.67 24.0416 2125.9 22.5521C2126.04 21.2885 2126.63 19.9751 2126.49 18.7489C2121.31 21.1523 2106.74 22.1867 2103.21 23.8519C2099.67 25.5174 2106.49 25.9732 2105.48 27.5886C2097.01 40.9095 2097.68 31.0848 2091.6 33.371C2088.03 34.7234 2096.55 36.192 2094.64 36.768C2087.56 38.8792 2084.28 31.7997 2078 31.7094C2080.23 35.7279 2082.44 39.8089 2084.62 43.8649C2078.04 43.652 2070.7 43.6163 2064.58 44.9062C2062.18 45.4097 2063.99 48.3984 2063.6 48.5986C2061.66 49.6255 2053.74 51.252 2052.9 51.2646C2046.59 51.2884 2046.41 47.1489 2040.27 46.9222C2042.68 46.5718 2044.95 46.2559 2047.3 45.9179C2048.37 39.2066 2049.46 32.4957 2050.53 25.7719C2044.52 25.2836 2038.51 24.8054 2032.48 24.3171C2036.88 26.5583 2041.31 28.7888 2045.71 31.03C2038.83 36.452 2031.94 41.8865 2025.05 47.321C2021.47 43.9902 2017.9 40.6601 2014.31 37.3293C2004.58 38.2079 2006.54 51.7289 2001.92 39.8845C1999.05 40.8858 1996.17 41.8865 1993.3 42.8753C1993.71 41.1854 1994.12 39.4919 1994.53 37.8019C1991.07 38.8413 1987.61 39.8738 1984.15 40.9257C1987.79 46.9108 1991.35 53.209 1994.96 59.0187C1988.15 60.3193 1988.02 55.2419 1987 53.9748C1984.31 50.6188 1978.96 55.1456 1976.82 52.04C1976.1 50.9738 1982.77 47.6313 1980.47 43.7763C1980.02 43.0291 1971.09 28.8583 1965.38 32.1303C1965.49 34.6975 1965.93 37.8452 1966.16 40.6377C1958.5 42.197 1954.59 28.7969 1955.6 25.0408C1951.52 27.6704 1945.55 27.8901 1944.71 31.9974C1942.62 32.0976 1940.55 32.1926 1938.46 32.2928C1940.64 22.2896 1931.93 24.1187 1931.36 32.7211C1934.95 32.934 1938.54 33.1581 1942.12 33.371C1939.41 43.9148 1950.31 50.2791 1927.63 40.5122C1923.3 35.0273 1935.34 41.2595 1931.81 37.152C1925.67 34.7614 1919.91 36.7617 1914.08 32.9427C1906.82 28.1719 1915.75 23.5833 1898.84 29.6564C1936.14 44.871 1893.72 39.9345 1876.21 44.6551C1871.39 29.628 1856.6 24.8683 1836.22 29.3388C1838.35 33.5211 1844.76 31.3664 1848.45 32.7433C1852.14 34.1206 1848.15 36.6018 1852.74 38.5552C1857.35 40.5081 1867.12 43.1631 1871.78 46.1173C1867.83 48.4844 1848.36 54.0805 1861.23 47.358C1851.62 43.2139 1847.11 38.9554 1835.2 38.1786C1831.63 44.7025 1831.89 48.7649 1820.28 48.9531C1827.15 39.8875 1813.95 33.5868 1816.86 24.2211C1825.09 26.4025 1820.49 35.5054 1825.25 39.8623C1825.74 40.2978 1833.41 38.0158 1835.2 38.1786C1827.45 30.0013 1824.78 26.9577 1829.54 17.2276C1824.06 18.0792 1820.66 16.8576 1820.16 21.5035C1819.02 19.488 1817.87 17.4708 1816.74 15.4553C1814.96 15.5054 1813.36 15.692 1811.47 15.6547C1814.07 22.6627 1809.03 18.3486 1805.44 21.5256C1801.86 24.7064 1806.67 30.2385 1796.82 30.3137C1800.1 31.9541 1803.1 33.3616 1806.28 34.9144C1799.93 36.7174 1793.56 38.5319 1787.21 40.3349C1791.67 44.617 1801.33 50.9774 1801.07 56.6112C1798.14 54.4842 1788.13 58.2224 1787.03 58.3762C1782.78 58.9523 1785.1 55.3992 1784.78 55.3115C1778.11 53.5849 1772.61 54.7946 1770.08 49.411C1765.07 51.8401 1761.29 50.4552 1755.97 50.5926C1753.05 50.6677 1753.62 54.622 1751.9 53.8714C1740.52 48.8628 1751.36 43.7528 1729.41 53.4801C1732.07 56.2347 1734.69 59.0527 1737.35 61.8324C1734.87 62.8717 1732.4 63.9168 1729.92 64.9562C1728.27 64.4553 1726.62 63.9506 1724.96 63.4497C1725 57.477 1725.04 51.4918 1725.08 45.5191C1723.26 45.1936 1721.43 44.8773 1719.61 44.5517C1722.73 43.9632 1725.86 43.3753 1728.98 42.7867C1729.27 41.7358 1729.53 40.6843 1729.82 39.6334C1725.18 38.0055 1720.56 36.3629 1715.92 34.7224C1715.83 36.8001 1715.74 38.8924 1715.66 40.9701C1705.2 38.0774 1704.95 36.3185 1695.02 42.0409C1687.37 41.9783 1681.13 50.6653 1676.71 54.3219C1675.12 53.1576 1673.53 51.9784 1671.93 50.8141C1670.91 52.5422 1669.88 54.2628 1668.87 55.9909C1666.85 53.5868 1664.81 51.1822 1662.79 48.7907C1661.67 54.2475 1661.09 55.9512 1668.95 57.8667C1666.26 64.6537 1652.41 61.6597 1646.77 59.3806C1642.5 57.6511 1647.24 51.9901 1646.71 51.3015C1644.92 48.9621 1637.87 50.9807 1636.39 50.5926C1630.13 48.9773 1625.74 49.2601 1620.09 48.0079C1618.99 47.7572 1615.91 44.1695 1615.65 44.0569C1613.62 43.4433 1608.6 41.6996 1608.03 41.6495C1578.58 38.9713 1610.04 54.5367 1582.66 52.8967C1583.48 54.9493 1584.24 56.9882 1585.04 59.0409C1582.97 59.166 1580.88 59.285 1578.81 59.4101C1576.19 57.6946 1579.36 54.5747 1574.16 57.0913C1574.49 54.5619 1574.84 52.0313 1575.19 49.5144C1572.93 50.8793 1570.74 52.2333 1568.42 53.5982C1564.78 44.8202 1551.5 42.8267 1552.44 32.5218C1552.77 29.0154 1562.18 25.4176 1557.21 21.6734C1553.16 20.9363 1555.9 25.1239 1554.25 25.3437C1542.33 26.8714 1543.03 21.0017 1538.16 22.5669C1537.39 25.0826 1536.58 27.6475 1535.8 30.1881C1533.96 29.4497 1532.12 28.7111 1530.27 27.9727C1529.84 29.6632 1529.39 31.3555 1528.96 33.0461C1530.69 33.1588 1532.64 33.2731 1534.23 33.3858C1532.02 39.9336 1511.69 42.8748 1519.44 37.2924C1522.6 35.0261 1528.38 35.989 1524.72 28.2533C1519.28 29.3677 1513.11 30.5064 1507.38 31.6208C1507.21 29.9553 1507.04 28.2867 1506.86 26.6212C1499.14 27.6994 1506.16 34.3584 1506.15 37.9275C1504.38 38.0276 1502.6 38.1154 1500.83 38.2155C1500.09 36.6018 1499.37 34.9126 1498.59 33.3489C1498.52 35.917 1497.53 41.8863 1492.27 39.6703C1488.89 38.228 1494.21 31.7488 1487.76 32.6473C1488.25 36.6537 1490.58 41.5334 1483.39 42.8237C1482.68 38.6422 1481.69 34.8115 1481.14 30.4171C1472.2 34.4342 1468.14 27.9769 1457.65 32.6473C1450.99 35.6028 1441.88 46.0937 1437.58 29.9297C1432.71 29.5042 1434.26 33.5295 1432.82 34.4345C1426.02 38.7172 1420.97 31.0525 1419.7 30.6017C1411.62 27.7119 1408 30.3651 1401.42 26.7468C1401.78 29.7397 1401.97 32.5727 1402.26 35.4905C1408.28 31.0074 1411.34 31.2178 1419.79 32.1821C1416.96 32.783 1414.12 33.3978 1411.29 33.9988C1411.75 36.4275 1412.21 38.8567 1412.65 41.2729C1438.81 31.7056 1432.71 46.8214 1410.78 50.1273C1408.89 45.6326 1406.93 41.1498 1405.06 36.6425C1392.39 43.4545 1386.43 37.541 1372.11 36.1256C1370.41 35.9637 1364.21 38.5529 1361.54 38.6808C1361.58 38.698 1361.63 38.7152 1361.67 38.7325C1360.01 42.977 1362.26 44.9304 1362.53 48.7242C1361.08 49.2 1359.64 49.6738 1358.19 50.1495C1354.97 47.2576 1356.1 44.8823 1349.75 45.5709C1350.61 48.4507 1351.45 51.3313 1352.31 54.2112C1345.35 54.3114 1340.8 51.1824 1334.32 52.5348C1335.41 51.4454 1336.49 50.3528 1337.57 49.2633C1323.48 46.4833 1334.7 29.5515 1324.05 37.9792C1323.37 36.5021 1322.71 35.0106 1322.03 33.5335C1326.42 33.1704 1330.81 32.8184 1335.18 32.4553C1335.27 30.3649 1335.36 28.2834 1335.44 26.1929C1330.74 26.8191 1326.03 27.4647 1321.34 28.0908C1324.76 26.6883 1328.21 25.284 1331.63 23.8815C1326.19 22.8798 1320.75 21.8775 1315.31 20.8758C1321.09 28.5628 1313.6 29.5029 1315.01 37.1152C1305.37 30.7787 1297.81 22.4262 1282.88 27.7733C1279.92 28.8385 1281.52 34.1581 1273.12 27.6847C1275.16 36.1488 1264.63 40.1206 1265.98 48.1704C1268.91 47.7823 1271.94 47.5382 1274.78 47.0626C1271.55 44.2703 1271.01 36.5886 1275.92 34.3089C1282.18 31.4038 1291.31 36.7276 1290.94 28.2016C1293.43 28.6022 1295.76 28.8385 1298.18 29.1764C1297.18 31.2914 1296.21 33.4198 1295.22 35.5348C1302.13 32.2189 1306.46 33.2972 1309.78 38.6291C1301.56 39.8561 1293.35 41.0701 1285.13 42.2846C1286.34 42.6472 1287.57 43.0126 1288.78 43.3628C1282.55 48.8101 1288.98 53.9697 1277.36 55.1343C1277.43 52.643 1277.49 50.1499 1277.56 47.646C1273.33 54.3081 1261.76 54.272 1265.45 61.9358C1261.95 59.5818 1261.24 58.0929 1259.26 62.2238C1250.04 56.4008 1244.12 49.0372 1247.4 40.2464C1243.97 41.6611 1240.55 43.0779 1237.14 44.4927C1239.12 46.8965 1241.1 49.2891 1243.08 51.693C1237.12 51.5427 1231.12 51.395 1225.18 51.2572C1224.61 44.1455 1236.65 49.0996 1233.18 42.7425C1232.48 41.4664 1229.28 44.1998 1228.43 43.481C1219.55 35.7051 1233.5 41.323 1230.88 35.365C1217.64 33.5241 1228.23 23.5409 1210 31.931C1209.52 29.8778 1209 27.7832 1208.56 25.7425C1202.23 25.6192 1202.74 30.257 1197.3 31.1334C1193.89 31.6786 1189.62 23.5347 1185.86 29.0804C1185.18 30.1029 1191.51 40.0567 1178.21 39.6187C1167.89 39.2792 1172.19 32.2449 1166.61 29.7525C1161.02 27.2605 1148.25 37.0141 1144.48 25.9566C1147.41 27.4212 1151.13 28.2113 1154.38 29.4128C1155.7 27.2592 1156.99 25.1289 1158.29 22.9879C1150.87 25.7677 1143.2 22.4914 1138.2 27.6256C1128.3 19.774 1117.23 27.0602 1120.22 35.9262C1123.48 34.6479 1119.94 30.782 1124.46 33.2455C1124.93 35.3117 1125.42 37.3678 1125.88 39.434C1118.17 39.1836 1112.82 39.2416 1116.34 32.9427C1115.14 32.7925 1113.96 32.6425 1112.76 32.4923C1112.55 37.0505 1112.36 41.6256 1112.14 46.1838C1110.72 46.6972 1109.28 47.2065 1107.86 47.7199C1106.27 46.7187 1104.68 45.7058 1103.08 44.6921C1105.23 37.4791 1108.91 37.2409 1096.74 33.2086C1096.71 35.7006 1096.66 38.1827 1096.62 40.6747C1086.44 37.5067 1086.17 31.47 1073.38 31.6947C1083.19 23.0427 1088.56 38.3795 1088.52 21.0235C1090.98 22.1631 1093.47 23.3179 1095.93 24.4575C1096.3 21.9405 1096.67 19.4198 1097.03 16.9028C1083.81 18.2304 1061.86 34.7838 1053.01 23.8076C1051.94 25.1471 1050.86 26.3115 1049.77 27.7512C1041.1 21.1267 1037.36 35.9991 1028.57 27.4336C1027.66 26.5347 1029.56 12.5619 1018.11 13.0626C1018.39 14.8787 1018.54 17.9352 1018.77 20.226C1016.3 19.1118 1013.83 17.9459 1011.37 16.8068C1010.92 18.4841 1010.46 20.1608 1010.01 21.8506C1014.24 22.5018 1018.45 23.1639 1022.68 23.815C1019.17 24.3908 1015.63 24.9673 1012.12 25.5431C1016.7 28.2845 1018.77 28.3137 1016.01 32.7064C1012.03 32.9694 1008.05 33.2484 1004.07 33.5114C1003.66 34.6369 1003.25 35.7755 1002.84 36.901C1004.77 40.2568 1006.71 43.5387 1008.64 46.9445C998.277 44.2022 989.266 44.0533 981.311 37.4549C979.955 36.3405 984.75 31.9685 975.512 35.9115C975.369 33.596 975.121 31.7158 974.96 29.5752C963.65 36.0619 959.935 34.1258 948.143 29.4423C955.779 33.8127 948.966 30.9703 947.022 33.312C945.689 34.9253 950.889 34.687 950.301 36.3767C949.713 38.0546 942.956 44.8298 948.733 45.6448C962.897 31.7572 966.756 48.361 984.951 41.6865C982.151 43.4772 979.33 45.2719 976.529 47.0627C977.848 48.2764 979.029 49.3775 980.455 50.6665C970.307 47.9496 975.242 49.7146 971.072 51.8554C966.898 53.9968 959.312 55.816 954.227 56.4045C952.626 56.5895 954.315 53.4746 950.701 53.1847C948.239 52.9844 941.512 57.6019 939.958 52.1582C938.942 48.6146 949.749 38.8569 934.806 38.8802C931.993 35.4062 939.158 36.4851 939.312 36.0666C940.614 31.9341 931.428 28.827 927.182 31.9827C926.838 32.2549 930.191 35.4751 926.545 36.7386C917.893 39.7565 912.897 36.0635 907.295 31.067C906.689 36.9276 899.408 43.9267 890.346 41.7603C889.882 43.4374 889.44 45.1293 888.977 46.819C890.384 45.9313 891.79 45.0555 893.198 44.1678C894.732 45.2197 896.357 45.9854 897.856 47.2251C888.742 48.6663 887.453 56.7431 883.083 59.6982C868.128 69.7929 877.192 48.4392 879.889 44.7586C881.833 46.2488 883.714 47.9122 885.64 49.4775C885.426 47.4363 885.209 45.3796 885.013 43.3259C862.625 43.3883 881.603 30.0759 870.24 26.2816C867.315 36.3241 858.969 37.292 848.338 30.9193C847.16 30.9694 845.979 30.9822 844.801 31.0448C844.606 32.5091 844.608 34.7473 844.288 35.7121C831.479 37.4152 829.198 21.9496 827.985 20.4845C822.598 13.9863 818.403 22.9773 816.815 23.0544C810.126 23.3674 808.182 19.3752 801.814 21.09C794.966 22.9429 799.649 26.0062 797.565 28.7481C795.894 30.9256 790.49 31.3135 788.259 33.5705C789.145 31.7245 790.131 29.9143 791.015 28.0614C783.917 25.5448 778.116 23.0919 770.054 22.4784C760.957 35.9854 753.217 13.2008 756.356 31.68C763.991 32.9447 768.26 35.0505 772.345 39.759C767.333 40.36 762.318 40.9452 757.306 41.5462C755.844 39.518 754.806 37.5415 753.076 35.4758C749.331 39.7827 740.647 37.9345 737.239 39.1978C721.273 45.1209 726.212 52.4672 711.638 40.1209C722.142 38.9179 722.126 32.9214 732.543 33.7477C730.295 29.4651 725.001 30.3524 728.426 25.2182C718.349 26.4828 721.607 31.0666 717.684 35.1361C714.301 38.6443 707.489 38.8407 707.874 43.3998C707.177 40.8932 706.639 38.4666 705.944 35.9632C699.417 35.9882 692.889 35.9899 686.361 36.0149C689.144 33.3981 691.925 30.7764 694.708 28.1721C692.605 27.1838 690.499 26.1992 688.396 25.2108C672.341 33.3503 644.655 18.4327 649.078 38.8802C641.337 39.5313 640.368 36.9668 636.159 33.0979C635.695 34.6502 635.244 35.9414 634.781 37.6691C629.787 36.0441 625.953 41.8722 621.548 40.3572C617.143 38.8539 616.049 33.3489 615.407 42.6022C612.553 39.9479 609.716 37.743 606.88 35.2764C605.169 37.3786 603.459 39.4565 601.766 41.5462C599.09 40.4443 596.408 39.347 593.733 38.2451C592.303 42.6622 581.782 40.7583 577.145 43.7247C572.742 38.9633 572.863 23.9718 562.505 26.6582C562.773 30.3764 563.036 34.0839 563.303 37.802C560.931 37.0258 558.554 36.252 556.164 35.4758C556.022 34.2622 555.898 33.0486 555.756 31.8351C556.968 32.2106 558.165 32.5842 559.377 32.9723C558.325 30.9186 557.294 28.8744 556.26 26.8207C552.639 29.8632 549.013 32.906 545.375 35.9484C550.279 38.252 555.186 40.5571 560.09 42.8607C553.936 45.5906 549.652 42.8677 544.301 45.9106C539.646 40.7773 541.364 37.8193 543.255 32.2486C541.525 32.7243 539.775 33.1835 538.046 33.6591C539.186 28.0876 536.261 24.7678 546.373 25.2182C545.678 23.6291 544.968 22.114 544.291 20.4623C542.632 20.7127 541.557 19.3695 539.738 19.9823C534.778 21.6603 530.976 31.4464 531.315 34.8776C531.498 36.675 536.388 33.2377 536.192 35.7786C535.708 41.9747 524.491 39.1928 540.669 45.4159C535.3 49.3604 534.1 46.3856 528.178 45.246C528.642 47.3108 529.092 49.3624 529.537 51.4272C526.792 50.4758 524.042 49.5279 521.296 48.5766C525.113 37.9705 504.865 33.9869 523.092 24.7086C517.706 24.2329 512.338 23.7546 506.97 23.2538C508.076 22.1646 509.182 21.0863 510.287 19.9971C512.713 20.573 515.124 21.1396 517.55 21.703C514.697 19.7125 511.838 17.7338 508.985 15.7434C502.242 18.2103 499.599 22.0044 496.513 26.6878C504.36 30.1054 501.796 25.437 507.911 24.5092C507.697 27.4752 507.979 30.2033 507.445 33.3194C504.285 27.1759 493.979 31.6453 491.589 31.9458C484.315 32.8584 490.019 26.8221 485.153 26.6952C480.283 26.57 474.539 30.1627 470.561 24.1769C470.632 27.5319 470.951 31.0031 471.236 34.0579C463.654 35.1599 465.167 31.1964 464.382 30.683C451.859 22.2431 445.064 29.3685 430.74 30.2325C432.559 31.2717 434.397 32.2099 436.234 33.1865C425.427 40.3098 432.707 38.1287 442.09 40.4828C433.295 39.769 428.259 45.8355 422.051 47.6387C415.844 49.4389 405.199 46.3232 401.308 43.8946C410.21 39.9875 419.811 42.5641 429.694 41.4871C428.57 38.0694 427.478 35.1768 426.319 31.4215C420.308 38.5948 416.825 33.7984 414.845 32.8468C409.031 30.0556 409.214 36.2124 405.7 29.5901C405.843 31.8682 405.947 33.7837 406.09 35.9115C394.085 34.9599 381.135 30.9323 373.322 39.3455C372.608 33.8737 372.07 28.602 371.25 23.0175C366.166 27.1365 361.813 22.9185 357.532 23.8815C353.269 24.8458 354.892 29.2678 349.88 30.971C348.952 31.2841 347.02 28.5163 344.737 30.5575C342.431 32.6095 333.928 47.8665 332.911 34.5379C328.612 34.4753 324.544 33.9879 320.334 33.7625C324.437 33.0112 328.541 32.2836 332.626 31.5323C329.13 28.3019 325.656 25.0811 322.159 21.8507C321.714 24.7309 321.266 27.6632 320.838 30.5058C311.419 34.012 304.584 29.303 295.076 30.4172C293.489 30.605 297.234 36.2994 290.19 34.8481C283.144 33.3956 277.915 22.7672 265.911 26.8724C265.305 27.0853 261.75 35.2252 257.451 29.5901C256.472 28.3129 260.59 26.4231 258.344 24.7456C256.097 23.0676 246.068 21.6877 245.283 17.693C245.39 19.1077 246.016 20.5735 246.319 22.0132C244.607 22.6892 242.877 23.3658 241.148 24.0293C240.987 21.5376 240.814 19.0423 240.653 16.5631C230.807 22.3608 225.718 31.8184 211.127 28.6891C215.229 32.3078 219.334 35.941 223.418 39.5597C224.542 37.0176 225.668 34.4584 226.774 31.9163C233.498 32.9305 240.241 33.9373 246.965 34.9515C248.071 32.0588 249.158 29.1744 250.264 26.2816C252.047 26.6572 253.813 27.0212 255.597 27.3968C255.151 29.4879 254.701 31.568 254.238 33.6591C257.769 33.1458 261.305 32.6216 264.818 32.1083C257.665 44.4518 244.843 31.0584 245.768 41.3837C244.181 39.7817 242.592 38.1685 241.005 36.554C240.309 41.5606 237.082 40.1197 231.394 39.3307C232.697 41.7977 234.135 44.231 235.33 46.723C229.8 43.2421 219.99 43.5802 214.264 42.2404C211.749 41.6519 214.261 38.022 213.513 37.5953C209.678 35.3663 202.347 41.7 200.813 41.1991C191.644 38.2183 185.686 26.2104 175.678 34.1244C186.007 36.0779 180.388 35.2529 184.063 39.6483C185.213 41.0264 198.557 43.9012 181.848 42.6244C179.889 42.4646 149.571 34.1681 159.537 27.8103C154.631 29.839 150.79 32.1847 146.295 34.3386C135.306 17.5833 139.109 33.3237 142.302 41.9893C140.5 42.0269 138.786 42.1149 136.931 42.1149C140.874 33.0109 120.788 32.4456 113.974 37.0414C111.69 38.5692 118.075 41.4832 112.795 42.8607C110.281 42.2223 107.428 41.3956 104.771 40.6822C108.625 46.4422 101.063 48.6619 101.169 54.5215C96.3347 49.3 92.6372 38.2326 95.2937 32.2339C91.2986 34.6628 87.2827 37.0887 83.2876 39.5301C85.1426 40.9201 87.022 42.2979 88.8772 43.6878C75.8188 40.0062 59.0288 48.3837 56.2993 36.074C54.5691 36.1617 52.8203 36.2375 51.0898 36.3251C50.5547 38.4039 50.0376 40.4866 49.5024 42.5653C41.6729 40.7625 33.8611 38.9477 26.0315 37.1448C33.0029 35.8548 34.6626 32.896 41.9734 35.2986C39.1562 32.9078 36.2864 30.5039 33.5225 28.1131C22.5159 34.5496 21.0146 38.7799 4.44287 36.8642C3.69385 36.7765 -8.82739 31.3789 -9.25537 30.8529C-11.217 28.4488 -8.2395 24.9561 -9.11279 23.7413C-11.5391 20.3351 -26.2813 11.7826 -25.9959 10.4928C-22.3923 -5.33577 27.2087 -5.54557 40.6235 -6.35954C179.767 -14.7993 315.846 -3.50799 454.115 -5.43647C455.537 -5.46632 454.916 -7.80294 455.522 -7.90302C459.286 -8.48987 462.981 -4.84822 464.372 -4.69798C467.345 -4.38834 465.708 -7.75292 467.88 -7.75532C490.322 -7.71775 511.499 -5.73927 533.958 -6.31527C535.421 -6.35284 533.927 -3.66087 536.496 -4.13673C537.822 -4.39729 541.973 -8.52729 544.966 -8.58982C555.419 -8.80261 564.2 -7.47856 575.224 -7.54117C581.254 -7.57855 590.299 -7.22749 597.041 -7.29009C600.018 -7.31669 603.121 -9.20611 606.062 -9.26924C610.237 -9.35689 609.384 -5.52671 610.027 -5.28878C612.845 -4.24965 613.235 -8.45355 615.911 -8.35351C620.888 -8.15315 621.156 -5.34638 627.47 -5.58418C631.984 -5.75949 642.313 -7.97558 648.004 -8.62675C661.312 -5.3712 678.081 -6.66365 690.497 -7.74057C697.846 -8.37897 698.527 -4.44916 701.524 -4.46168C712.083 -4.5378 720.096 -9.55695 730.014 -9.71972C743.176 -9.93179 754.84 -6.61298 767.592 -6.37437C769.66 -6.33683 769.185 -9.93751 771.214 -10.0299C778.724 -10.368 788.328 -11.0233 795.017 -10.5099C802.473 -9.94568 805.223 -4.71925 812.518 -5.78359C814.657 -6.09961 815.284 -10.6822 818.869 -11.2706C824.594 -12.1958 830.872 -8.1547 834.867 -7.70366C840.344 -7.10258 835.581 -11.7711 842.967 -11.145C843.27 -11.118 844.375 -7.78075 845.961 -7.93998C850.581 -8.39079 850.123 -11.0188 856.884 -10.7684C857.533 -10.7338 866.497 -7.55394 867.388 -7.5412C872.633 -7.49111 883.191 -6.37781 886.296 -7.05379C897.392 -9.45813 888.656 -14.4776 898.093 -3.5829C902.249 -6.2495 906.37 -8.95232 910.775 -11.5438C907.835 -9.12697 919.765 -5.63945 920.604 -5.86483C927.539 -7.68104 923.408 -11.92 932.201 -11.2189C920.588 -1.4262 943.546 -9.95669 948.666 -10.2071C973.319 -11.4215 995.727 -8.97773 1020.5 -9.04034C1028.8 -9.06599 1039.92 -11.136 1048.69 -11.086C1050.74 -11.083 1049.19 -8.76547 1050.99 -8.71541C1052.79 -8.68108 1050.79 -11.2827 1052.84 -11.145C1065.6 -10.2431 1075.59 -5.33417 1087.28 -11.47C1087.85 -10.5828 1087.83 -9.88184 1088.77 -8.90742C1098.33 -14.4043 1116.74 -7.01209 1123.67 -5.99778C1134.49 -4.42086 1137.26 -8.13641 1145.12 -7.38614C1155.52 -6.38436 1171.14 0.874373 1164.16 -11.1081C1171.3 -11.4836 1178.17 -11.5873 1185.37 -10.473C1186.17 -10.3467 1185.62 -7.30104 1185.94 -7.23844C1187.97 -6.80118 1188.64 -9.52809 1190.01 -9.6533C1193.73 -9.99012 1187.66 -6.72503 1192.97 -7.63723C1195.77 -8.12559 1197.36 -10.504 1205.13 -10.5543C1252.02 -10.8172 1302.91 -9.96542 1350.97 -9.5647C1354.27 -9.53965 1352.1 -12.4849 1356.24 -12.2971C1370.61 -11.6453 1396.35 -6.68862 1408.75 -7.36401C1421.15 -8.04018 1418.35 -12.3472 1426.11 -14.1507C1427.6 -14.5014 1426.38 -12.0467 1427.73 -12.0091C1436.85 -11.7835 1447.72 -7.9548 1455.1 -7.37878C1459.98 -6.99281 1459.59 -10.8545 1462.98 -11.1303C1468.03 -11.531 1473.23 -7.62955 1475.92 -7.50432C1488.58 -6.95421 1497.29 -10.0966 1509.11 -8.4939C1508.65 -9.34376 1508.35 -10.1305 1507.95 -10.9678C1521.96 -10.8301 1535.94 -10.692 1549.94 -10.5543C1549.28 -11.3307 1548.65 -12.1138 1547.99 -12.9027C1564.41 -12.4766 1562.54 -4.0618 1561.09 -21.831C1562.29 -22.457 1563.56 -23.1826 1564.7 -23.7585C1564.23 -14.6051 1574.17 -7.90652 1586.82 -5.57688C1587.75 -5.40156 1593.97 -14.3264 1593.29 -3.78235C1594.92 -6.36192 1595.88 -8.14011 1597.26 -10.4066C1599.93 -7.21433 1602.64 -4.05983 1605.32 -0.88009C1606.76 -1.35581 1608.23 -1.81489 1609.67 -2.29061C1609.89 -4.35683 1609.72 -6.50217 1610.18 -8.53084C1616.89 -8.84386 1630.65 -6.2895 1635.95 -6.55169C1649.11 -7.21539 1662.51 -12.8017 1672.75 -6.76585C1677.74 -7.38124 1672.79 -11.4366 1680.21 -10.9235C1681.05 -8.87034 1681.83 -6.90243 1682.71 -4.7867C1688.77 -13.9604 1690.04 -8.3798 1698.35 -6.46308C1703.96 -5.16085 1707.64 -7.40296 1712.99 -6.96525C1714.35 -6.85254 1714.16 -4.15995 1715.09 -4.24761C1718.19 -4.52529 1727.06 -8.2313 1729.25 -8.33145C1749.12 -9.308 1766.19 -8.89233 1785.12 -7.90313C1787.15 -7.80295 1784.51 -10.4602 1786.62 -10.3475C1790.01 -10.1706 1788.01 -6.08738 1789.98 -5.88706C1795.45 -5.35126 1795.49 -9.65694 1803.12 -9.88229C1828.26 -10.6206 1857.15 -7.38619 1883.41 -7.09819C1884.23 -7.09819 1884.18 -9.62093 1885.08 -9.64598C1890.89 -9.76932 1896.77 -6.3592 1902.05 -6.39663C1910.81 -6.44672 1917.4 -9.99081 1926.05 -9.9783C1942.96 -9.96578 1958.07 -8.15108 1975.46 -8.05085C1989.7 -7.96319 2002.06 -8.29968 2017.67 -8.28717C2085.85 -8.23708 2155.42 -16.2447 2224.07 -11.987C2225.81 -11.8744 2225.1 -9.64549 2225.64 -9.74201C2230.7 -10.7062 2231.15 -13.7136 2232.96 -7.41577C2239.41 -8.65696 2241.45 -13.3885 2249.24 -13.0504C2253.39 -12.8732 2250.29 -5.53976 2257.32 -9.32107C2263.67 -12.7394 2256.66 -16.7585 2275.53 -12.6517C2276.03 -12.5388 2278.49 -8.06874 2282.42 -9.23246C2286.36 -10.3845 2281.79 -13.5853 2291.29 -14.5496C2313.57 -16.8034 2341.77 -12.9395 2367.67 -14.1286C2369.29 -14.2038 2384.93 -16.5936 2388.01 -17.6955C2393.98 -19.8368 2392.74 -23.1586 2400.49 -23.9727C2406.49 -24.5988 2411.43 -20.836 2418.48 -21.5874C2419.3 -21.6787 2420.67 -25.5492 2425.97 -25.0361ZM1112.78 50.1421C1111.32 53.9397 1108.68 67.9176 1099.83 63.6639C1099 63.2632 1103.52 53.6507 1098.64 52.1213C1103.42 51.107 1108.07 50.7785 1112.78 50.1274C1112.78 50.1323 1112.78 50.1372 1112.78 50.1421ZM2464.31 64.0921C2457.69 63.3908 2451.05 62.696 2444.43 61.9948C2449 60.3043 2453.57 58.617 2458.12 56.914C2460.19 59.3053 2462.24 61.7007 2464.31 64.0921ZM1640.44 57.4531C1640.45 57.4531 1640.46 57.4531 1640.46 57.4531C1633.5 59.2564 1626.54 61.063 1619.59 62.8663C1620.32 61.5389 1621.05 60.2058 1621.78 58.8784C1627.28 56.7876 1632.77 54.6995 1638.25 52.6086C1638.98 54.2237 1639.71 55.8381 1640.44 57.4531ZM1695.41 43.3997C1699.85 44.9775 1698.76 47.6385 1701.21 50.2307C1701.21 50.2258 1701.21 50.2209 1701.21 50.2159C1701.85 50.8908 1704.86 51.4812 1706.02 51.5821C1705.59 49.9166 1705.04 48.2725 1704.57 46.6195C1714.94 42.5872 1735.2 56.9161 1708.96 62.689C1709.36 60.5857 1709.73 58.493 1710.12 56.3897C1697.08 56.9782 1682.55 52.4159 1695.41 43.3997ZM1007.93 56.1978C996.797 63.0852 993.227 64.5373 979.723 59.8164C981.63 57.8642 983.538 55.9123 985.446 53.9601C987.676 55.9512 989.889 57.9287 992.119 59.9197C992.125 59.9197 992.132 59.9197 992.138 59.9197C992.584 57.8286 993.031 55.7337 993.459 53.6426C998.276 54.494 1003.11 55.3463 1007.93 56.1978ZM2121.51 48.3771C2124.62 62.1327 2123.72 54.1371 2114.86 57.2389C2111.79 58.3159 2114.78 60.7227 2112.87 61.1234C2102.56 63.3122 2101.74 54.096 2104.04 49.3002C2109.88 48.9746 2115.77 48.6776 2121.49 48.3771C2121.5 48.3771 2121.51 48.3771 2121.51 48.3771ZM2388.95 45.5191C2388.96 45.5191 2388.96 45.5191 2388.97 45.5191C2389.24 48.8743 2385.08 49.7768 2389.77 52.9557C2386.2 52.9431 2382.64 52.9165 2379.06 52.904C2380.11 52.5914 2381.18 52.2934 2382.23 51.9809C2381.3 50.8288 2380.37 49.662 2379.45 48.51C2378.18 52.3665 2377 50.1248 2373.26 48.8349C2374.29 52.9547 2375.32 57.0774 2376.36 61.1972C2372 59.9703 2367.64 58.7391 2363.29 57.5121C2363.23 56.4739 2363.18 55.434 2363.12 54.3957C2361.48 55.7226 2359.86 57.0641 2358.22 58.3909C2357.77 57.1515 2357.34 55.9232 2356.9 54.6837C2354.92 55.6226 2352.94 56.5608 2350.96 57.5121C2350.35 54.5097 2354.72 53.212 2346.98 53.9748C2349.35 50.8946 2351.72 47.8238 2354.11 44.7437C2365.72 44.9941 2377.34 45.2561 2388.95 45.5191ZM2040.89 52.6086C2053.68 52.0326 2050.08 54.2086 2047.12 61.02C2045.05 58.2158 2042.96 55.4128 2040.89 52.6086ZM1381.94 46.5457C1378.23 51.1916 1374.5 55.7911 1370.7 60.2742C1363.14 62.8664 1355.57 54.3985 1361.26 51.08C1368.11 47.0983 1375.27 51.5546 1381.94 46.5457ZM1209.67 48.6135C1218.92 50.7678 1210.22 56.2882 1208.13 59.5062C1205.57 54.3343 1202 54.7905 1196.27 54.189C1201.65 53.8537 1208.14 48.2477 1209.67 48.5987C1209.67 48.6036 1209.67 48.6085 1209.67 48.6135ZM1530.86 51.7668C1534.57 51.6278 1538.26 50.3303 1541.58 51.9071C1540.58 56.3495 1533.94 52.3078 1538.69 58.8932C1536.32 59.0059 1533.94 59.1151 1531.59 59.2403C1533.08 56.5118 1531.07 54.4726 1530.87 51.7815C1530.87 51.7766 1530.87 51.7717 1530.86 51.7668ZM1916.97 57.8445C1909.69 52.585 1908.31 54.8355 1900.98 58.4796C1899.95 54.1974 1908.69 47.0243 1914.16 45.4453C1915.09 49.5774 1916.02 53.7124 1916.97 57.8445ZM195.423 55.6513C197.17 50.193 210.063 49.4812 216.469 51.0949C215.707 51.9044 214.941 52.7248 214.178 53.5467C207.935 54.2479 201.667 54.9501 195.423 55.6513ZM1193.54 53.8198C1194.5 53.9797 1195.41 54.099 1196.27 54.189C1195.31 54.2485 1194.39 54.1556 1193.54 53.8198ZM806.026 30.1291C809.075 24.9829 800.011 23.254 811.016 25.2699C811.016 25.2649 811.016 25.26 811.016 25.2551C818.295 26.5825 819.901 26.9369 826.645 27.3376C824.217 33.9486 810.537 36.3116 829.392 37.6765C829.64 37.6825 829.146 33.7488 832.158 34.2868C833.088 34.4541 836.064 37.6825 840.59 38.6217C842.053 38.9223 853.045 39.9179 838.062 39.9806C838.508 44.5889 837.703 49.2533 837.738 53.7238C831.89 55.0231 827.394 45.9994 821.207 46.2208C812.02 46.5714 807.345 55.6963 805.579 43.7247C813.304 40.7834 826.568 40.7127 828.299 47.9119C835.772 47.9996 837.918 42.1012 831.892 39.183C806.079 42.8897 824.806 30.4277 802.204 35.1361C801.937 36.801 801.007 38.5928 801.149 40.1578C794.25 34.2986 804.937 31.9697 806.026 30.1291ZM860.002 42.8607C855.542 46.3795 851.097 49.9266 846.655 53.458C846.655 47.7228 849.104 42.5762 856.133 39.3455C857.416 40.5216 858.719 41.697 860.002 42.8607ZM484.849 44.3672C484.207 47.4852 482.495 50.3426 481.246 53.3103C479.89 50.6807 447.779 48.1579 464.116 45.5783C466.488 45.2027 480.96 50.7162 484.849 44.3672ZM1967.5 53.1477C1963.72 51.0564 1959.96 48.9618 1956.19 46.8706C1961.99 45.544 1967.78 44.1826 1973.58 42.831C1971.55 46.2691 1969.53 49.7097 1967.5 53.1477ZM1320.38 41.0735C1321.98 41.1906 1316.67 45.4787 1322.96 44.8028C1318.27 47.5453 1313.88 49.8666 1309.29 52.4462C1307.92 50.4175 1306.53 48.3971 1305.16 46.3684C1304.09 47.6708 1303 48.9653 1301.93 50.2677C1302.57 47.3123 1303.14 44.426 1303.82 41.4206C1311.54 47.757 1313.31 40.5726 1320.38 41.0735ZM1550.06 29.5161C1551.45 35.9389 1540.26 39.7585 1551.27 40.7854C1549.18 45.0052 1545.82 47.2187 1539.38 47.5943C1538.35 45.9805 1537.32 44.3784 1536.28 42.7646C1536.14 47.0831 1534.48 48.6882 1530.86 51.7668C1530.86 51.7619 1530.86 51.7569 1530.86 51.752C1521.06 52.0646 1521.65 50.6248 1519.3 43.5252C1529.66 47.5325 1529.97 41.046 1537.03 37.189C1541.89 34.5368 1548.22 35.7379 1550.06 29.5161ZM519.062 44.2934C511.733 49.7151 518.31 54.7722 505.306 49.0123C506.145 47.6348 506.987 46.269 507.825 44.8915C511.571 44.6787 515.316 44.4812 519.062 44.2934ZM1586.23 51.5305C1585.39 41.5882 1578.49 33.8489 1577.31 50.0239C1584.04 53.3173 1580.75 44.1551 1586.23 51.5305ZM1212.82 33.0461C1225.76 33.51 1223.31 44.7316 1218 50.3415C1217.18 48.3003 1216.36 46.2555 1215.55 44.2268C1213.29 45.1535 1211.02 46.082 1208.76 46.9962C1210.11 42.3503 1211.47 37.692 1212.82 33.0461ZM1814.22 40.6082C1804.33 47.7085 1824.88 44.557 1817.98 48.99C1812.47 52.5335 1805.2 45.3792 1807.95 40.8962C1809.86 40.771 1811.99 40.6833 1814.2 40.6082C1814.2 40.6082 1814.21 40.6082 1814.22 40.6082ZM1757.03 42.639C1758.65 50.2253 1756.31 48.014 1764.12 46.649C1766.35 46.2608 1784.07 49.11 1776.63 42.8237C1770.3 42.8237 1763.61 42.7142 1757.03 42.639ZM1063.34 44.1456C1063.22 40.842 1076.86 33.5878 1078.62 35.4019C1078.62 35.397 1078.62 35.3921 1078.62 35.3871C1083.34 40.3335 1068.95 41.0363 1075.19 47.8233C1061.37 41.8511 1057.23 56.2968 1058.2 37.2629C1066.34 36.4279 1062.48 40.3515 1063.34 44.1456ZM26.1362 40.0988C26.1299 40.0988 26.1235 40.0988 26.1172 40.0988C27.0334 40.2541 34.5833 45.1027 33.665 46.7821C24.5859 45.3422 26.2041 42.1507 17.7517 47.3951C17.2883 45.7059 16.8914 44.0676 16.3923 42.3659C19.7461 41.3641 21.605 39.3349 26.1362 40.0988ZM450.132 37.706C453.468 36.842 459.555 40.4224 463.355 40.2095C451.261 53.9591 436.808 41.1375 450.132 37.706ZM2263.87 45.9917C2263.86 45.9967 2263.85 46.0016 2263.84 46.0065C2263.84 45.999 2263.85 45.9918 2263.85 45.9843C2263.86 45.9868 2263.86 45.9893 2263.87 45.9917ZM708.634 45.9549C708.204 45.0624 707.961 44.2871 707.874 43.6065C707.874 43.5425 707.874 43.4785 707.874 43.4145C708.106 44.2502 708.354 45.0955 708.634 45.9549ZM1034.98 45.1426C1029.3 40.5352 1048.23 33.2104 1054.36 34.9588C1053.93 37.0617 1053.86 38.9682 1052.86 41.3837C1047.92 35.938 1035.93 45.9189 1034.98 45.1426ZM1466.66 43.4514C1451.69 43.3262 1471.17 25.1345 1471.97 39.6482C1471.94 39.9294 1467.05 43.4266 1466.66 43.4514ZM1153.01 43.2373C1156.82 37.7296 1149.16 36.267 1161.42 37.2186C1162.13 38.6452 1162.84 40.0752 1163.55 41.5018C1160.04 42.0777 1156.53 42.6614 1153.01 43.2373ZM1368.61 19.5687C1349.78 22.6366 1331.76 28.0489 1344.03 43.2372C1345.46 42.7494 1346.9 42.2777 1348.33 41.7898C1348.54 34.3798 1353.8 38.4247 1361.5 38.666C1362.6 35.7242 1366.87 35.0439 1367.67 32.5439C1369.22 27.7115 1364.31 24.314 1368.61 19.5687ZM2163.89 31.6281C2163.59 32.8929 2163.29 34.1643 2162.99 35.4166C2160.01 36.8442 2157.02 38.2649 2154.04 39.6924C2154.53 37.2652 2155.01 34.8382 2155.49 32.4109C2158.29 32.1481 2161.07 31.8836 2163.87 31.6208C2163.88 31.6232 2163.89 31.6257 2163.89 31.6281ZM878.358 27.2269C876.647 41.1482 882.627 38.5841 894.756 31.547C889.298 30.107 883.817 28.6669 878.358 27.2269ZM1671.31 25.2107C1671.7 29.1657 1672.09 33.1085 1672.5 37.0635C1678.94 32.9435 1677.74 28.4143 1674.66 23.1799C1673.53 23.8554 1672.43 24.5352 1671.31 25.2107ZM1764.07 23.5269C1761.4 22.7018 1762.76 25.8951 1762.48 25.831C1755.72 24.153 1754.77 22.6882 1746.47 25.0925C1745.46 25.9314 1744.46 26.8134 1743.44 27.6773C1747.28 35.9646 1750.06 31.4478 1758.18 36.3176C1756.71 33.4749 1755.26 30.6284 1753.79 27.7733C1758.31 28.3742 1762.8 28.9669 1767.31 29.5678C1767.85 28.6912 1768.38 27.8227 1768.92 26.9462C1767.31 25.8195 1765.66 24.5534 1764.07 23.5269ZM2198.34 35.2246C2202.73 35.5502 2207.14 35.8886 2211.53 36.2141C2211.69 34.1731 2211.84 32.1183 2212 30.0773C2207.46 31.7925 2202.89 33.5094 2198.34 35.2246ZM788.259 33.5705C787.911 34.2945 787.571 35.0229 787.27 35.7638C787.299 34.8609 787.679 34.1561 788.259 33.5705ZM14.5576 28.9033C9.5813 27.476 2.4104 28.4132 -3.04785 28.1131C-2.6189 33.2335 11.2544 31.8181 16.1262 34.922C16.9089 34.0032 16.6611 29.5039 14.5576 28.9033ZM1230.72 33.4966C1231.96 30.9423 1233.21 28.4001 1234.44 25.8459C1237.46 26.1213 1240.48 26.4122 1243.51 26.6877C1243.6 24.5965 1243.69 22.4871 1243.78 20.3958C1230.42 23.1127 1233.5 17.0824 1226.88 11.1352C1228.17 18.5847 1229.43 26.0346 1230.72 33.4966ZM2337.97 21.9613C2328.32 23.3763 2324.9 26.0193 2330.34 32.2928C2333.74 30.8532 2337.17 29.4122 2340.58 27.9726C2339.7 25.9695 2338.83 23.9644 2337.97 21.9613ZM612.498 28.8442C604.422 31.1883 604.288 22.7688 596.395 27.4706C600.622 29.023 604.848 30.5928 609.057 32.1452C610.194 31.0475 611.361 29.942 612.498 28.8442ZM1008.58 5.72205C1005.18 2.7931 998.808 16.7159 989.229 6.43839C986.947 9.50579 985.516 12.4357 983.554 15.4406C982.412 12.1722 981.115 8.86202 980.027 5.61867C980.021 5.61867 980.015 5.61867 980.008 5.61867C971.321 6.72065 976.953 10.8198 976.757 14.2885C976.665 15.7265 970.217 13.3227 972.232 16.4523C975.711 21.8245 988.709 18.7353 988.744 25.2846C984.178 23.1442 975.26 24.9328 977.898 29.302C980.788 34.0977 989.191 26.0607 994.543 30.0405C986.874 19.5729 1002.71 22.8062 1004.52 30.8454C1013.81 24.6719 1005.27 22.1535 995.741 22.4414C1001.56 16.2805 992.996 19.6091 991.587 14.4879C997.583 11.3965 1018.16 13.9735 1008.58 5.72205ZM1447.07 17.0726C1440.64 17.4699 1430.61 13.9484 1426.21 19.1477C1423.65 22.177 1433.71 24.5227 1426.77 29.2798C1433.03 28.816 1434.46 26.9577 1433.39 22.7885C1434.81 22.2879 1436.26 21.7996 1437.68 21.3115C1438.34 22.125 1439.02 22.9277 1439.68 23.7411C1440.43 22.0258 1441.18 20.324 1441.92 18.6086C1443.43 18.9465 1444.96 19.2848 1446.48 19.6351C1446.66 18.7726 1446.96 18.0219 1447.07 17.0726ZM380.613 29.1027C382.396 29.0526 384.163 29.0028 385.946 28.9402C385.75 27.9248 385.516 26.8674 385.29 25.8238C385.129 24.9991 384.967 24.1745 384.805 23.3498C385.839 26.2961 394.335 31.193 397.915 28.0466C399.714 26.4682 395.619 20.8645 403.248 19.8863C397.719 20.1745 392.598 20.9393 387.229 21.415C387.711 19.7495 388.174 18.0662 388.656 16.4007C388.652 16.3982 388.649 16.3957 388.646 16.3933C386.863 16.0177 385.058 15.6242 383.275 15.2486C382.383 19.8695 381.505 24.4818 380.613 29.1027ZM1666.08 17.3901C1660 20.6585 1657.96 22.3558 1660.83 27.6403C1660.84 27.6428 1660.85 27.6453 1660.85 27.6477C1663.12 25.3064 1665.38 22.966 1667.65 20.6247C1667.13 19.5478 1666.62 18.4671 1666.08 17.3901ZM735.86 16.1274C722.927 36.2004 752.053 23.8954 746.507 17.0579C746.257 16.7448 737.073 18.3439 735.86 16.1274ZM1210.45 26.8724C1214 26.7096 1217.56 26.5625 1221.12 26.3997C1220.3 23.9328 1219.46 21.4744 1218.64 19.0074C1215.91 21.6247 1213.18 24.2551 1210.45 26.8724ZM2295.95 12.8484C2292.22 7.33835 2282.63 5.34208 2277.94 11.3345C2280.4 12.0357 2282.86 12.7379 2285.32 13.4391C2280.67 14.1276 2276.07 14.8855 2271.38 15.5365C2271.13 23.2128 2276.53 18.7594 2284.67 20.8757C2285.93 21.217 2293.98 30.7456 2296.76 23.5638C2297.32 22.0877 2288.76 21.084 2294.71 16.7919C2292.1 16.4541 2289.86 16.529 2287.4 16.3414C2287.22 14.5131 2287.04 12.6827 2286.85 10.8544C2289.89 11.5164 2292.91 12.1864 2295.95 12.8484ZM1409.67 17.6708C1400.85 17.2472 1399.76 20.3144 1397.92 25.7351C1402.02 25.1215 1406.13 24.5172 1410.23 23.9036C1410.04 21.8303 1409.87 19.7565 1409.67 17.6708ZM2217.09 11.0908C2212.26 10.2041 2214.33 14.6164 2212.38 15.4552C2205.03 18.6104 2200.02 15.457 2192.76 17.4344C2193.24 16.5828 2193.69 15.7869 2194.15 14.9604C2194.14 14.9604 2194.14 14.9604 2194.13 14.9604C2159.76 11.2417 2177.81 21.2482 2198.38 19.6203C2198.86 21.2608 2199.33 22.9033 2199.81 24.5313C2209.01 21.6637 2217.5 18.9045 2217.09 11.0908ZM850.762 15.4406C850.369 14.4138 853.705 7.88827 847.444 10.9432C842.486 20.4707 850.618 15.7418 852.654 19.4063C850.959 20.3204 849.226 21.2098 847.549 22.1239C857.681 24.8163 859.16 22.5508 855.467 15.5883C855.204 15.1204 851.155 16.4642 850.762 15.4406ZM784.171 10.7438C782.779 24.7816 795.567 18.4692 795.103 14.1113C793.338 13.9376 791.965 16.3144 790.093 15.2633C788.203 14.2116 787.719 10.9326 784.171 10.7438ZM1150.53 14.1777C1150.16 14.1151 1146.39 8.21521 1146.77 12.8337C1151.42 23.7659 1160.8 16.7292 1159.16 12.9223C1156.06 13.1106 1153.99 14.751 1150.53 14.163C1150.53 14.1679 1150.53 14.1728 1150.53 14.1777ZM2354.15 9.53992C2353.97 9.14824 2344.58 6.77683 2343.37 8.97867C2342.37 11.4577 2341.88 14.1145 2341.13 16.6811C2346.3 14.3018 2356.77 16.1143 2354.13 9.53992C2354.14 9.53992 2354.14 9.53992 2354.15 9.53992Z" fill="#38462E"/>
</svg>
